G04 #@! TF.GenerationSoftware,KiCad,Pcbnew,5.1.4-3.fc30*
G04 #@! TF.CreationDate,2019-10-14T23:32:37+02:00*
G04 #@! TF.ProjectId,backplane,6261636b-706c-4616-9e65-2e6b69636164,v2.1-2*
G04 #@! TF.SameCoordinates,Original*
G04 #@! TF.FileFunction,Legend,Top*
G04 #@! TF.FilePolarity,Positive*
%FSLAX46Y46*%
G04 Gerber Fmt 4.6, Leading zero omitted, Abs format (unit mm)*
G04 Created by KiCad (PCBNEW 5.1.4-3.fc30) date 2019-10-14 23:32:37*
%MOMM*%
%LPD*%
G04 APERTURE LIST*
%ADD10C,0.200000*%
%ADD11C,0.150000*%
%ADD12C,0.300000*%
%ADD13C,0.120000*%
%ADD14C,0.381000*%
G04 APERTURE END LIST*
D10*
X155416000Y-114268000D02*
X155416000Y-139414000D01*
X180562000Y-114268000D02*
X155416000Y-114268000D01*
X180562000Y-139414000D02*
X180562000Y-114268000D01*
X155416000Y-139414000D02*
X180562000Y-139414000D01*
X128915190Y-68861190D02*
X128791380Y-68923095D01*
X128543761Y-68923095D01*
X128419952Y-68861190D01*
X128358047Y-68799285D01*
X128296142Y-68675476D01*
X128296142Y-68304047D01*
X128358047Y-68180238D01*
X128419952Y-68118333D01*
X128543761Y-68056428D01*
X128791380Y-68056428D01*
X128915190Y-68118333D01*
X129658047Y-68923095D02*
X129534238Y-68861190D01*
X129472333Y-68799285D01*
X129410428Y-68675476D01*
X129410428Y-68304047D01*
X129472333Y-68180238D01*
X129534238Y-68118333D01*
X129658047Y-68056428D01*
X129843761Y-68056428D01*
X129967571Y-68118333D01*
X130029476Y-68180238D01*
X130091380Y-68304047D01*
X130091380Y-68675476D01*
X130029476Y-68799285D01*
X129967571Y-68861190D01*
X129843761Y-68923095D01*
X129658047Y-68923095D01*
X130648523Y-68923095D02*
X130648523Y-68056428D01*
X130648523Y-68304047D02*
X130710428Y-68180238D01*
X130772333Y-68118333D01*
X130896142Y-68056428D01*
X131019952Y-68056428D01*
X131948523Y-68861190D02*
X131824714Y-68923095D01*
X131577095Y-68923095D01*
X131453285Y-68861190D01*
X131391380Y-68737380D01*
X131391380Y-68242142D01*
X131453285Y-68118333D01*
X131577095Y-68056428D01*
X131824714Y-68056428D01*
X131948523Y-68118333D01*
X132010428Y-68242142D01*
X132010428Y-68365952D01*
X131391380Y-68489761D01*
X133124714Y-68923095D02*
X133124714Y-67623095D01*
X133124714Y-68861190D02*
X133000904Y-68923095D01*
X132753285Y-68923095D01*
X132629476Y-68861190D01*
X132567571Y-68799285D01*
X132505666Y-68675476D01*
X132505666Y-68304047D01*
X132567571Y-68180238D01*
X132629476Y-68118333D01*
X132753285Y-68056428D01*
X133000904Y-68056428D01*
X133124714Y-68118333D01*
X134300904Y-68056428D02*
X134300904Y-68923095D01*
X133743761Y-68056428D02*
X133743761Y-68737380D01*
X133805666Y-68861190D01*
X133929476Y-68923095D01*
X134115190Y-68923095D01*
X134239000Y-68861190D01*
X134300904Y-68799285D01*
X134919952Y-68923095D02*
X134919952Y-68056428D01*
X134919952Y-68180238D02*
X134981857Y-68118333D01*
X135105666Y-68056428D01*
X135291380Y-68056428D01*
X135415190Y-68118333D01*
X135477095Y-68242142D01*
X135477095Y-68923095D01*
X135477095Y-68242142D02*
X135539000Y-68118333D01*
X135662809Y-68056428D01*
X135848523Y-68056428D01*
X135972333Y-68118333D01*
X136034238Y-68242142D01*
X136034238Y-68923095D01*
X136653285Y-68056428D02*
X136653285Y-69356428D01*
X136653285Y-68118333D02*
X136777095Y-68056428D01*
X137024714Y-68056428D01*
X137148523Y-68118333D01*
X137210428Y-68180238D01*
X137272333Y-68304047D01*
X137272333Y-68675476D01*
X137210428Y-68799285D01*
X137148523Y-68861190D01*
X137024714Y-68923095D01*
X136777095Y-68923095D01*
X136653285Y-68861190D01*
X137829476Y-68799285D02*
X137891380Y-68861190D01*
X137829476Y-68923095D01*
X137767571Y-68861190D01*
X137829476Y-68799285D01*
X137829476Y-68923095D01*
X139005666Y-68861190D02*
X138881857Y-68923095D01*
X138634238Y-68923095D01*
X138510428Y-68861190D01*
X138448523Y-68799285D01*
X138386619Y-68675476D01*
X138386619Y-68304047D01*
X138448523Y-68180238D01*
X138510428Y-68118333D01*
X138634238Y-68056428D01*
X138881857Y-68056428D01*
X139005666Y-68118333D01*
X139562809Y-68923095D02*
X139562809Y-67623095D01*
X140119952Y-68923095D02*
X140119952Y-68242142D01*
X140058047Y-68118333D01*
X139934238Y-68056428D01*
X139748523Y-68056428D01*
X139624714Y-68118333D01*
X139562809Y-68180238D01*
X124489000Y-70949285D02*
X124427095Y-71011190D01*
X124241380Y-71073095D01*
X124117571Y-71073095D01*
X123931857Y-71011190D01*
X123808047Y-70887380D01*
X123746142Y-70763571D01*
X123684238Y-70515952D01*
X123684238Y-70330238D01*
X123746142Y-70082619D01*
X123808047Y-69958809D01*
X123931857Y-69835000D01*
X124117571Y-69773095D01*
X124241380Y-69773095D01*
X124427095Y-69835000D01*
X124489000Y-69896904D01*
X125046142Y-71073095D02*
X125046142Y-69773095D01*
X125479476Y-69773095D02*
X126222333Y-69773095D01*
X125850904Y-71073095D02*
X125850904Y-69773095D01*
X127584238Y-71011190D02*
X127769952Y-71073095D01*
X128079476Y-71073095D01*
X128203285Y-71011190D01*
X128265190Y-70949285D01*
X128327095Y-70825476D01*
X128327095Y-70701666D01*
X128265190Y-70577857D01*
X128203285Y-70515952D01*
X128079476Y-70454047D01*
X127831857Y-70392142D01*
X127708047Y-70330238D01*
X127646142Y-70268333D01*
X127584238Y-70144523D01*
X127584238Y-70020714D01*
X127646142Y-69896904D01*
X127708047Y-69835000D01*
X127831857Y-69773095D01*
X128141380Y-69773095D01*
X128327095Y-69835000D01*
X128884238Y-69773095D02*
X128884238Y-70825476D01*
X128946142Y-70949285D01*
X129008047Y-71011190D01*
X129131857Y-71073095D01*
X129379476Y-71073095D01*
X129503285Y-71011190D01*
X129565190Y-70949285D01*
X129627095Y-70825476D01*
X129627095Y-69773095D01*
X130308047Y-71011190D02*
X130308047Y-71073095D01*
X130246142Y-71196904D01*
X130184238Y-71258809D01*
X132289000Y-70392142D02*
X131855666Y-70392142D01*
X131855666Y-71073095D02*
X131855666Y-69773095D01*
X132474714Y-69773095D01*
X132969952Y-70392142D02*
X133403285Y-70392142D01*
X133589000Y-71073095D02*
X132969952Y-71073095D01*
X132969952Y-69773095D01*
X133589000Y-69773095D01*
X134146142Y-71073095D02*
X134146142Y-69773095D01*
X135569952Y-69773095D02*
X136003285Y-71073095D01*
X136436619Y-69773095D01*
X136808047Y-71011190D02*
X136993761Y-71073095D01*
X137303285Y-71073095D01*
X137427095Y-71011190D01*
X137489000Y-70949285D01*
X137550904Y-70825476D01*
X137550904Y-70701666D01*
X137489000Y-70577857D01*
X137427095Y-70515952D01*
X137303285Y-70454047D01*
X137055666Y-70392142D01*
X136931857Y-70330238D01*
X136869952Y-70268333D01*
X136808047Y-70144523D01*
X136808047Y-70020714D01*
X136869952Y-69896904D01*
X136931857Y-69835000D01*
X137055666Y-69773095D01*
X137365190Y-69773095D01*
X137550904Y-69835000D01*
X138541380Y-70392142D02*
X138727095Y-70454047D01*
X138789000Y-70515952D01*
X138850904Y-70639761D01*
X138850904Y-70825476D01*
X138789000Y-70949285D01*
X138727095Y-71011190D01*
X138603285Y-71073095D01*
X138108047Y-71073095D01*
X138108047Y-69773095D01*
X138541380Y-69773095D01*
X138665190Y-69835000D01*
X138727095Y-69896904D01*
X138789000Y-70020714D01*
X138789000Y-70144523D01*
X138727095Y-70268333D01*
X138665190Y-70330238D01*
X138541380Y-70392142D01*
X138108047Y-70392142D01*
X140336619Y-69896904D02*
X140398523Y-69835000D01*
X140522333Y-69773095D01*
X140831857Y-69773095D01*
X140955666Y-69835000D01*
X141017571Y-69896904D01*
X141079476Y-70020714D01*
X141079476Y-70144523D01*
X141017571Y-70330238D01*
X140274714Y-71073095D01*
X141079476Y-71073095D01*
X141884238Y-69773095D02*
X142008047Y-69773095D01*
X142131857Y-69835000D01*
X142193761Y-69896904D01*
X142255666Y-70020714D01*
X142317571Y-70268333D01*
X142317571Y-70577857D01*
X142255666Y-70825476D01*
X142193761Y-70949285D01*
X142131857Y-71011190D01*
X142008047Y-71073095D01*
X141884238Y-71073095D01*
X141760428Y-71011190D01*
X141698523Y-70949285D01*
X141636619Y-70825476D01*
X141574714Y-70577857D01*
X141574714Y-70268333D01*
X141636619Y-70020714D01*
X141698523Y-69896904D01*
X141760428Y-69835000D01*
X141884238Y-69773095D01*
X143555666Y-71073095D02*
X142812809Y-71073095D01*
X143184238Y-71073095D02*
X143184238Y-69773095D01*
X143060428Y-69958809D01*
X142936619Y-70082619D01*
X142812809Y-70144523D01*
X144174714Y-71073095D02*
X144422333Y-71073095D01*
X144546142Y-71011190D01*
X144608047Y-70949285D01*
X144731857Y-70763571D01*
X144793761Y-70515952D01*
X144793761Y-70020714D01*
X144731857Y-69896904D01*
X144669952Y-69835000D01*
X144546142Y-69773095D01*
X144298523Y-69773095D01*
X144174714Y-69835000D01*
X144112809Y-69896904D01*
X144050904Y-70020714D01*
X144050904Y-70330238D01*
X144112809Y-70454047D01*
X144174714Y-70515952D01*
X144298523Y-70577857D01*
X144546142Y-70577857D01*
X144669952Y-70515952D01*
X144731857Y-70454047D01*
X144793761Y-70330238D01*
X124519952Y-73223095D02*
X124519952Y-71923095D01*
X125077095Y-73223095D02*
X125077095Y-72542142D01*
X125015190Y-72418333D01*
X124891380Y-72356428D01*
X124705666Y-72356428D01*
X124581857Y-72418333D01*
X124519952Y-72480238D01*
X125510428Y-72356428D02*
X126005666Y-72356428D01*
X125696142Y-71923095D02*
X125696142Y-73037380D01*
X125758047Y-73161190D01*
X125881857Y-73223095D01*
X126005666Y-73223095D01*
X126253285Y-72356428D02*
X126748523Y-72356428D01*
X126439000Y-71923095D02*
X126439000Y-73037380D01*
X126500904Y-73161190D01*
X126624714Y-73223095D01*
X126748523Y-73223095D01*
X127181857Y-72356428D02*
X127181857Y-73656428D01*
X127181857Y-72418333D02*
X127305666Y-72356428D01*
X127553285Y-72356428D01*
X127677095Y-72418333D01*
X127739000Y-72480238D01*
X127800904Y-72604047D01*
X127800904Y-72975476D01*
X127739000Y-73099285D01*
X127677095Y-73161190D01*
X127553285Y-73223095D01*
X127305666Y-73223095D01*
X127181857Y-73161190D01*
X128296142Y-73161190D02*
X128419952Y-73223095D01*
X128667571Y-73223095D01*
X128791380Y-73161190D01*
X128853285Y-73037380D01*
X128853285Y-72975476D01*
X128791380Y-72851666D01*
X128667571Y-72789761D01*
X128481857Y-72789761D01*
X128358047Y-72727857D01*
X128296142Y-72604047D01*
X128296142Y-72542142D01*
X128358047Y-72418333D01*
X128481857Y-72356428D01*
X128667571Y-72356428D01*
X128791380Y-72418333D01*
X129410428Y-73099285D02*
X129472333Y-73161190D01*
X129410428Y-73223095D01*
X129348523Y-73161190D01*
X129410428Y-73099285D01*
X129410428Y-73223095D01*
X129410428Y-72418333D02*
X129472333Y-72480238D01*
X129410428Y-72542142D01*
X129348523Y-72480238D01*
X129410428Y-72418333D01*
X129410428Y-72542142D01*
X130958047Y-71861190D02*
X129843761Y-73532619D01*
X132319952Y-71861190D02*
X131205666Y-73532619D01*
X132939000Y-73223095D02*
X132815190Y-73161190D01*
X132753285Y-73037380D01*
X132753285Y-71923095D01*
X133619952Y-73223095D02*
X133496142Y-73161190D01*
X133434238Y-73099285D01*
X133372333Y-72975476D01*
X133372333Y-72604047D01*
X133434238Y-72480238D01*
X133496142Y-72418333D01*
X133619952Y-72356428D01*
X133805666Y-72356428D01*
X133929476Y-72418333D01*
X133991380Y-72480238D01*
X134053285Y-72604047D01*
X134053285Y-72975476D01*
X133991380Y-73099285D01*
X133929476Y-73161190D01*
X133805666Y-73223095D01*
X133619952Y-73223095D01*
X134610428Y-73223095D02*
X134610428Y-72356428D01*
X134610428Y-72604047D02*
X134672333Y-72480238D01*
X134734238Y-72418333D01*
X134858047Y-72356428D01*
X134981857Y-72356428D01*
X135972333Y-73223095D02*
X135972333Y-72542142D01*
X135910428Y-72418333D01*
X135786619Y-72356428D01*
X135539000Y-72356428D01*
X135415190Y-72418333D01*
X135972333Y-73161190D02*
X135848523Y-73223095D01*
X135539000Y-73223095D01*
X135415190Y-73161190D01*
X135353285Y-73037380D01*
X135353285Y-72913571D01*
X135415190Y-72789761D01*
X135539000Y-72727857D01*
X135848523Y-72727857D01*
X135972333Y-72665952D01*
X136591380Y-73099285D02*
X136653285Y-73161190D01*
X136591380Y-73223095D01*
X136529476Y-73161190D01*
X136591380Y-73099285D01*
X136591380Y-73223095D01*
X137086619Y-72356428D02*
X137396142Y-73223095D01*
X137705666Y-72356428D01*
X138139000Y-73161190D02*
X138262809Y-73223095D01*
X138510428Y-73223095D01*
X138634238Y-73161190D01*
X138696142Y-73037380D01*
X138696142Y-72975476D01*
X138634238Y-72851666D01*
X138510428Y-72789761D01*
X138324714Y-72789761D01*
X138200904Y-72727857D01*
X138139000Y-72604047D01*
X138139000Y-72542142D01*
X138200904Y-72418333D01*
X138324714Y-72356428D01*
X138510428Y-72356428D01*
X138634238Y-72418333D01*
X139253285Y-73223095D02*
X139253285Y-71923095D01*
X139253285Y-72418333D02*
X139377095Y-72356428D01*
X139624714Y-72356428D01*
X139748523Y-72418333D01*
X139810428Y-72480238D01*
X139872333Y-72604047D01*
X139872333Y-72975476D01*
X139810428Y-73099285D01*
X139748523Y-73161190D01*
X139624714Y-73223095D01*
X139377095Y-73223095D01*
X139253285Y-73161190D01*
X140429476Y-73099285D02*
X140491380Y-73161190D01*
X140429476Y-73223095D01*
X140367571Y-73161190D01*
X140429476Y-73099285D01*
X140429476Y-73223095D01*
X141605666Y-73161190D02*
X141481857Y-73223095D01*
X141234238Y-73223095D01*
X141110428Y-73161190D01*
X141048523Y-73099285D01*
X140986619Y-72975476D01*
X140986619Y-72604047D01*
X141048523Y-72480238D01*
X141110428Y-72418333D01*
X141234238Y-72356428D01*
X141481857Y-72356428D01*
X141605666Y-72418333D01*
X142039000Y-72356428D02*
X142719952Y-72356428D01*
X142039000Y-73223095D01*
X142719952Y-73223095D01*
X144143761Y-71861190D02*
X143029476Y-73532619D01*
D11*
X116365976Y-96841904D02*
X116365976Y-96041904D01*
X116670738Y-96041904D01*
X116746928Y-96080000D01*
X116785023Y-96118095D01*
X116823119Y-96194285D01*
X116823119Y-96308571D01*
X116785023Y-96384761D01*
X116746928Y-96422857D01*
X116670738Y-96460952D01*
X116365976Y-96460952D01*
X117280261Y-96841904D02*
X117204071Y-96803809D01*
X117165976Y-96765714D01*
X117127880Y-96689523D01*
X117127880Y-96460952D01*
X117165976Y-96384761D01*
X117204071Y-96346666D01*
X117280261Y-96308571D01*
X117394547Y-96308571D01*
X117470738Y-96346666D01*
X117508833Y-96384761D01*
X117546928Y-96460952D01*
X117546928Y-96689523D01*
X117508833Y-96765714D01*
X117470738Y-96803809D01*
X117394547Y-96841904D01*
X117280261Y-96841904D01*
X117813595Y-96308571D02*
X117965976Y-96841904D01*
X118118357Y-96460952D01*
X118270738Y-96841904D01*
X118423119Y-96308571D01*
X119032642Y-96803809D02*
X118956452Y-96841904D01*
X118804071Y-96841904D01*
X118727880Y-96803809D01*
X118689785Y-96727619D01*
X118689785Y-96422857D01*
X118727880Y-96346666D01*
X118804071Y-96308571D01*
X118956452Y-96308571D01*
X119032642Y-96346666D01*
X119070738Y-96422857D01*
X119070738Y-96499047D01*
X118689785Y-96575238D01*
X119413595Y-96841904D02*
X119413595Y-96308571D01*
X119413595Y-96460952D02*
X119451690Y-96384761D01*
X119489785Y-96346666D01*
X119565976Y-96308571D01*
X119642166Y-96308571D01*
X120518357Y-96841904D02*
X120518357Y-96041904D01*
X120899309Y-96308571D02*
X120899309Y-96841904D01*
X120899309Y-96384761D02*
X120937404Y-96346666D01*
X121013595Y-96308571D01*
X121127880Y-96308571D01*
X121204071Y-96346666D01*
X121242166Y-96422857D01*
X121242166Y-96841904D01*
X116594547Y-98496666D02*
X116556452Y-98458571D01*
X116480261Y-98344285D01*
X116442166Y-98268095D01*
X116404071Y-98153809D01*
X116365976Y-97963333D01*
X116365976Y-97810952D01*
X116404071Y-97620476D01*
X116442166Y-97506190D01*
X116480261Y-97430000D01*
X116556452Y-97315714D01*
X116594547Y-97277619D01*
X117280261Y-97391904D02*
X116899309Y-97391904D01*
X116861214Y-97772857D01*
X116899309Y-97734761D01*
X116975500Y-97696666D01*
X117165976Y-97696666D01*
X117242166Y-97734761D01*
X117280261Y-97772857D01*
X117318357Y-97849047D01*
X117318357Y-98039523D01*
X117280261Y-98115714D01*
X117242166Y-98153809D01*
X117165976Y-98191904D01*
X116975500Y-98191904D01*
X116899309Y-98153809D01*
X116861214Y-98115714D01*
X117546928Y-97391904D02*
X117813595Y-98191904D01*
X118080261Y-97391904D01*
X118956452Y-98191904D02*
X118956452Y-97391904D01*
X119146928Y-97391904D01*
X119261214Y-97430000D01*
X119337404Y-97506190D01*
X119375500Y-97582380D01*
X119413595Y-97734761D01*
X119413595Y-97849047D01*
X119375500Y-98001428D01*
X119337404Y-98077619D01*
X119261214Y-98153809D01*
X119146928Y-98191904D01*
X118956452Y-98191904D01*
X119756452Y-98191904D02*
X119756452Y-97658571D01*
X119756452Y-97391904D02*
X119718357Y-97430000D01*
X119756452Y-97468095D01*
X119794547Y-97430000D01*
X119756452Y-97391904D01*
X119756452Y-97468095D01*
X120137404Y-98191904D02*
X120137404Y-97658571D01*
X120137404Y-97810952D02*
X120175500Y-97734761D01*
X120213595Y-97696666D01*
X120289785Y-97658571D01*
X120365976Y-97658571D01*
X120937404Y-98153809D02*
X120861214Y-98191904D01*
X120708833Y-98191904D01*
X120632642Y-98153809D01*
X120594547Y-98077619D01*
X120594547Y-97772857D01*
X120632642Y-97696666D01*
X120708833Y-97658571D01*
X120861214Y-97658571D01*
X120937404Y-97696666D01*
X120975500Y-97772857D01*
X120975500Y-97849047D01*
X120594547Y-97925238D01*
X121661214Y-98153809D02*
X121585023Y-98191904D01*
X121432642Y-98191904D01*
X121356452Y-98153809D01*
X121318357Y-98115714D01*
X121280261Y-98039523D01*
X121280261Y-97810952D01*
X121318357Y-97734761D01*
X121356452Y-97696666D01*
X121432642Y-97658571D01*
X121585023Y-97658571D01*
X121661214Y-97696666D01*
X121889785Y-97658571D02*
X122194547Y-97658571D01*
X122004071Y-97391904D02*
X122004071Y-98077619D01*
X122042166Y-98153809D01*
X122118357Y-98191904D01*
X122194547Y-98191904D01*
X122385023Y-98496666D02*
X122423119Y-98458571D01*
X122499309Y-98344285D01*
X122537404Y-98268095D01*
X122575500Y-98153809D01*
X122613595Y-97963333D01*
X122613595Y-97810952D01*
X122575500Y-97620476D01*
X122537404Y-97506190D01*
X122499309Y-97430000D01*
X122423119Y-97315714D01*
X122385023Y-97277619D01*
X116111976Y-74997904D02*
X116111976Y-74197904D01*
X116416738Y-74197904D01*
X116492928Y-74236000D01*
X116531023Y-74274095D01*
X116569119Y-74350285D01*
X116569119Y-74464571D01*
X116531023Y-74540761D01*
X116492928Y-74578857D01*
X116416738Y-74616952D01*
X116111976Y-74616952D01*
X117026261Y-74997904D02*
X116950071Y-74959809D01*
X116911976Y-74921714D01*
X116873880Y-74845523D01*
X116873880Y-74616952D01*
X116911976Y-74540761D01*
X116950071Y-74502666D01*
X117026261Y-74464571D01*
X117140547Y-74464571D01*
X117216738Y-74502666D01*
X117254833Y-74540761D01*
X117292928Y-74616952D01*
X117292928Y-74845523D01*
X117254833Y-74921714D01*
X117216738Y-74959809D01*
X117140547Y-74997904D01*
X117026261Y-74997904D01*
X117559595Y-74464571D02*
X117711976Y-74997904D01*
X117864357Y-74616952D01*
X118016738Y-74997904D01*
X118169119Y-74464571D01*
X118778642Y-74959809D02*
X118702452Y-74997904D01*
X118550071Y-74997904D01*
X118473880Y-74959809D01*
X118435785Y-74883619D01*
X118435785Y-74578857D01*
X118473880Y-74502666D01*
X118550071Y-74464571D01*
X118702452Y-74464571D01*
X118778642Y-74502666D01*
X118816738Y-74578857D01*
X118816738Y-74655047D01*
X118435785Y-74731238D01*
X119159595Y-74997904D02*
X119159595Y-74464571D01*
X119159595Y-74616952D02*
X119197690Y-74540761D01*
X119235785Y-74502666D01*
X119311976Y-74464571D01*
X119388166Y-74464571D01*
X120264357Y-74997904D02*
X120264357Y-74197904D01*
X120645309Y-74464571D02*
X120645309Y-74997904D01*
X120645309Y-74540761D02*
X120683404Y-74502666D01*
X120759595Y-74464571D01*
X120873880Y-74464571D01*
X120950071Y-74502666D01*
X120988166Y-74578857D01*
X120988166Y-74997904D01*
X116340547Y-76652666D02*
X116302452Y-76614571D01*
X116226261Y-76500285D01*
X116188166Y-76424095D01*
X116150071Y-76309809D01*
X116111976Y-76119333D01*
X116111976Y-75966952D01*
X116150071Y-75776476D01*
X116188166Y-75662190D01*
X116226261Y-75586000D01*
X116302452Y-75471714D01*
X116340547Y-75433619D01*
X117102452Y-76347904D02*
X116835785Y-75966952D01*
X116645309Y-76347904D02*
X116645309Y-75547904D01*
X116950071Y-75547904D01*
X117026261Y-75586000D01*
X117064357Y-75624095D01*
X117102452Y-75700285D01*
X117102452Y-75814571D01*
X117064357Y-75890761D01*
X117026261Y-75928857D01*
X116950071Y-75966952D01*
X116645309Y-75966952D01*
X117750071Y-76309809D02*
X117673880Y-76347904D01*
X117521500Y-76347904D01*
X117445309Y-76309809D01*
X117407214Y-76233619D01*
X117407214Y-75928857D01*
X117445309Y-75852666D01*
X117521500Y-75814571D01*
X117673880Y-75814571D01*
X117750071Y-75852666D01*
X117788166Y-75928857D01*
X117788166Y-76005047D01*
X117407214Y-76081238D01*
X118473880Y-75814571D02*
X118473880Y-76462190D01*
X118435785Y-76538380D01*
X118397690Y-76576476D01*
X118321500Y-76614571D01*
X118207214Y-76614571D01*
X118131023Y-76576476D01*
X118473880Y-76309809D02*
X118397690Y-76347904D01*
X118245309Y-76347904D01*
X118169119Y-76309809D01*
X118131023Y-76271714D01*
X118092928Y-76195523D01*
X118092928Y-75966952D01*
X118131023Y-75890761D01*
X118169119Y-75852666D01*
X118245309Y-75814571D01*
X118397690Y-75814571D01*
X118473880Y-75852666D01*
X119197690Y-75814571D02*
X119197690Y-76347904D01*
X118854833Y-75814571D02*
X118854833Y-76233619D01*
X118892928Y-76309809D01*
X118969119Y-76347904D01*
X119083404Y-76347904D01*
X119159595Y-76309809D01*
X119197690Y-76271714D01*
X119692928Y-76347904D02*
X119616738Y-76309809D01*
X119578642Y-76233619D01*
X119578642Y-75547904D01*
X120340547Y-76347904D02*
X120340547Y-75928857D01*
X120302452Y-75852666D01*
X120226261Y-75814571D01*
X120073880Y-75814571D01*
X119997690Y-75852666D01*
X120340547Y-76309809D02*
X120264357Y-76347904D01*
X120073880Y-76347904D01*
X119997690Y-76309809D01*
X119959595Y-76233619D01*
X119959595Y-76157428D01*
X119997690Y-76081238D01*
X120073880Y-76043142D01*
X120264357Y-76043142D01*
X120340547Y-76005047D01*
X120607214Y-75814571D02*
X120911976Y-75814571D01*
X120721500Y-75547904D02*
X120721500Y-76233619D01*
X120759595Y-76309809D01*
X120835785Y-76347904D01*
X120911976Y-76347904D01*
X121292928Y-76347904D02*
X121216738Y-76309809D01*
X121178642Y-76271714D01*
X121140547Y-76195523D01*
X121140547Y-75966952D01*
X121178642Y-75890761D01*
X121216738Y-75852666D01*
X121292928Y-75814571D01*
X121407214Y-75814571D01*
X121483404Y-75852666D01*
X121521500Y-75890761D01*
X121559595Y-75966952D01*
X121559595Y-76195523D01*
X121521500Y-76271714D01*
X121483404Y-76309809D01*
X121407214Y-76347904D01*
X121292928Y-76347904D01*
X121902452Y-76347904D02*
X121902452Y-75814571D01*
X121902452Y-75966952D02*
X121940547Y-75890761D01*
X121978642Y-75852666D01*
X122054833Y-75814571D01*
X122131023Y-75814571D01*
X122321500Y-76652666D02*
X122359595Y-76614571D01*
X122435785Y-76500285D01*
X122473880Y-76424095D01*
X122511976Y-76309809D01*
X122550071Y-76119333D01*
X122550071Y-75966952D01*
X122511976Y-75776476D01*
X122473880Y-75662190D01*
X122435785Y-75586000D01*
X122359595Y-75471714D01*
X122321500Y-75433619D01*
X206918525Y-143884859D02*
X207201368Y-143602016D01*
X207554921Y-144238412D02*
X207059947Y-143743437D01*
X207319219Y-143484165D02*
X208144177Y-143649156D01*
X207649202Y-143154182D02*
X207814194Y-143979139D01*
X207856284Y-146795026D02*
X207398348Y-146714214D01*
X207533035Y-147118275D02*
X206967349Y-146552589D01*
X207182849Y-146337090D01*
X207263661Y-146310153D01*
X207317536Y-146310153D01*
X207398348Y-146337090D01*
X207479160Y-146417902D01*
X207506097Y-146498715D01*
X207506097Y-146552589D01*
X207479160Y-146633402D01*
X207263661Y-146848901D01*
X207479160Y-146040779D02*
X208421969Y-146229341D01*
X207856284Y-145663655D02*
X208044845Y-146606464D01*
X207373570Y-129743923D02*
X207467851Y-129696782D01*
X207585702Y-129578931D01*
X207609272Y-129508220D01*
X207609272Y-129461080D01*
X207585702Y-129390369D01*
X207538562Y-129343229D01*
X207467851Y-129319659D01*
X207420711Y-129319659D01*
X207350000Y-129343229D01*
X207232149Y-129413939D01*
X207161438Y-129437510D01*
X207114298Y-129437510D01*
X207043587Y-129413939D01*
X206996447Y-129366799D01*
X206972876Y-129296088D01*
X206972876Y-129248948D01*
X206996447Y-129178237D01*
X207114298Y-129060386D01*
X207208579Y-129013246D01*
X208127817Y-128942535D02*
X208127817Y-128989675D01*
X208080677Y-129083956D01*
X208033537Y-129131097D01*
X207939256Y-129178237D01*
X207844975Y-129178237D01*
X207774264Y-129154667D01*
X207656413Y-129083956D01*
X207585702Y-129013246D01*
X207514992Y-128895394D01*
X207491421Y-128824684D01*
X207491421Y-128730403D01*
X207538562Y-128636122D01*
X207585702Y-128588982D01*
X207679983Y-128541841D01*
X207727124Y-128541841D01*
X208622792Y-128541841D02*
X208387090Y-128777543D01*
X207892115Y-128282569D01*
X207373570Y-127203923D02*
X207467851Y-127156782D01*
X207585702Y-127038931D01*
X207609272Y-126968220D01*
X207609272Y-126921080D01*
X207585702Y-126850369D01*
X207538562Y-126803229D01*
X207467851Y-126779659D01*
X207420711Y-126779659D01*
X207350000Y-126803229D01*
X207232149Y-126873939D01*
X207161438Y-126897510D01*
X207114298Y-126897510D01*
X207043587Y-126873939D01*
X206996447Y-126826799D01*
X206972876Y-126756088D01*
X206972876Y-126708948D01*
X206996447Y-126638237D01*
X207114298Y-126520386D01*
X207208579Y-126473246D01*
X207892115Y-126732518D02*
X207397140Y-126237543D01*
X207514992Y-126119692D01*
X207609272Y-126072552D01*
X207703553Y-126072552D01*
X207774264Y-126096122D01*
X207892115Y-126166833D01*
X207962826Y-126237543D01*
X208033537Y-126355394D01*
X208057107Y-126426105D01*
X208057107Y-126520386D01*
X208009966Y-126614667D01*
X207892115Y-126732518D01*
X208222098Y-126119692D02*
X208457801Y-125883990D01*
X208316379Y-126308254D02*
X207986396Y-125648288D01*
X208646362Y-125978271D01*
X207161438Y-136633246D02*
X206925736Y-136868948D01*
X207137868Y-137128220D01*
X207137868Y-137081080D01*
X207161438Y-137010369D01*
X207279289Y-136892518D01*
X207350000Y-136868948D01*
X207397140Y-136868948D01*
X207467851Y-136892518D01*
X207585702Y-137010369D01*
X207609272Y-137081080D01*
X207609272Y-137128220D01*
X207585702Y-137198931D01*
X207467851Y-137316782D01*
X207397140Y-137340352D01*
X207350000Y-137340352D01*
X207326430Y-136468254D02*
X207986396Y-136798237D01*
X207656413Y-136138271D01*
X206878595Y-134376088D02*
X207185008Y-134069675D01*
X207208579Y-134423229D01*
X207279289Y-134352518D01*
X207350000Y-134328948D01*
X207397140Y-134328948D01*
X207467851Y-134352518D01*
X207585702Y-134470369D01*
X207609272Y-134541080D01*
X207609272Y-134588220D01*
X207585702Y-134658931D01*
X207444281Y-134800352D01*
X207373570Y-134823923D01*
X207326430Y-134823923D01*
X207844975Y-134305378D02*
X207892115Y-134305378D01*
X207892115Y-134352518D01*
X207844975Y-134352518D01*
X207844975Y-134305378D01*
X207892115Y-134352518D01*
X207585702Y-133668982D02*
X207892115Y-133362569D01*
X207915685Y-133716122D01*
X207986396Y-133645411D01*
X208057107Y-133621841D01*
X208104247Y-133621841D01*
X208174958Y-133645411D01*
X208292809Y-133763262D01*
X208316379Y-133833973D01*
X208316379Y-133881114D01*
X208292809Y-133951824D01*
X208151388Y-134093246D01*
X208080677Y-134116816D01*
X208033537Y-134116816D01*
X208033537Y-133221147D02*
X208693503Y-133551130D01*
X208363520Y-132891164D01*
X207208579Y-131553246D02*
X207137868Y-131576816D01*
X207067157Y-131647527D01*
X207020017Y-131741807D01*
X207020017Y-131836088D01*
X207043587Y-131906799D01*
X207114298Y-132024650D01*
X207185008Y-132095361D01*
X207302860Y-132166071D01*
X207373570Y-132189642D01*
X207467851Y-132189642D01*
X207562132Y-132142501D01*
X207609272Y-132095361D01*
X207656413Y-132001080D01*
X207656413Y-131953939D01*
X207491421Y-131788948D01*
X207397140Y-131883229D01*
X207915685Y-131788948D02*
X207420711Y-131293973D01*
X208198528Y-131506105D01*
X207703553Y-131011130D01*
X208434230Y-131270403D02*
X207939256Y-130775428D01*
X208057107Y-130657577D01*
X208151388Y-130610437D01*
X208245669Y-130610437D01*
X208316379Y-130634007D01*
X208434230Y-130704717D01*
X208504941Y-130775428D01*
X208575652Y-130893279D01*
X208599222Y-130963990D01*
X208599222Y-131058271D01*
X208552082Y-131152552D01*
X208434230Y-131270403D01*
X148137904Y-98179380D02*
X148137904Y-97179380D01*
X148471238Y-97893666D01*
X148804571Y-97179380D01*
X148804571Y-98179380D01*
X149280761Y-98179380D02*
X149280761Y-97179380D01*
X149661714Y-97179380D01*
X149756952Y-97227000D01*
X149804571Y-97274619D01*
X149852190Y-97369857D01*
X149852190Y-97512714D01*
X149804571Y-97607952D01*
X149756952Y-97655571D01*
X149661714Y-97703190D01*
X149280761Y-97703190D01*
X150804571Y-98179380D02*
X150233142Y-98179380D01*
X150518857Y-98179380D02*
X150518857Y-97179380D01*
X150423619Y-97322238D01*
X150328380Y-97417476D01*
X150233142Y-97465095D01*
X151709333Y-97179380D02*
X151233142Y-97179380D01*
X151185523Y-97655571D01*
X151233142Y-97607952D01*
X151328380Y-97560333D01*
X151566476Y-97560333D01*
X151661714Y-97607952D01*
X151709333Y-97655571D01*
X151756952Y-97750809D01*
X151756952Y-97988904D01*
X151709333Y-98084142D01*
X151661714Y-98131761D01*
X151566476Y-98179380D01*
X151328380Y-98179380D01*
X151233142Y-98131761D01*
X151185523Y-98084142D01*
X152328380Y-97607952D02*
X152233142Y-97560333D01*
X152185523Y-97512714D01*
X152137904Y-97417476D01*
X152137904Y-97369857D01*
X152185523Y-97274619D01*
X152233142Y-97227000D01*
X152328380Y-97179380D01*
X152518857Y-97179380D01*
X152614095Y-97227000D01*
X152661714Y-97274619D01*
X152709333Y-97369857D01*
X152709333Y-97417476D01*
X152661714Y-97512714D01*
X152614095Y-97560333D01*
X152518857Y-97607952D01*
X152328380Y-97607952D01*
X152233142Y-97655571D01*
X152185523Y-97703190D01*
X152137904Y-97798428D01*
X152137904Y-97988904D01*
X152185523Y-98084142D01*
X152233142Y-98131761D01*
X152328380Y-98179380D01*
X152518857Y-98179380D01*
X152614095Y-98131761D01*
X152661714Y-98084142D01*
X152709333Y-97988904D01*
X152709333Y-97798428D01*
X152661714Y-97703190D01*
X152614095Y-97655571D01*
X152518857Y-97607952D01*
X153566476Y-97512714D02*
X153566476Y-98179380D01*
X153328380Y-97131761D02*
X153090285Y-97846047D01*
X153709333Y-97846047D01*
X148495047Y-99829380D02*
X148495047Y-98829380D01*
X148828380Y-99543666D01*
X149161714Y-98829380D01*
X149161714Y-99829380D01*
X149780761Y-99829380D02*
X149685523Y-99781761D01*
X149637904Y-99734142D01*
X149590285Y-99638904D01*
X149590285Y-99353190D01*
X149637904Y-99257952D01*
X149685523Y-99210333D01*
X149780761Y-99162714D01*
X149923619Y-99162714D01*
X150018857Y-99210333D01*
X150066476Y-99257952D01*
X150114095Y-99353190D01*
X150114095Y-99638904D01*
X150066476Y-99734142D01*
X150018857Y-99781761D01*
X149923619Y-99829380D01*
X149780761Y-99829380D01*
X150971238Y-99829380D02*
X150971238Y-98829380D01*
X150971238Y-99781761D02*
X150876000Y-99829380D01*
X150685523Y-99829380D01*
X150590285Y-99781761D01*
X150542666Y-99734142D01*
X150495047Y-99638904D01*
X150495047Y-99353190D01*
X150542666Y-99257952D01*
X150590285Y-99210333D01*
X150685523Y-99162714D01*
X150876000Y-99162714D01*
X150971238Y-99210333D01*
X151876000Y-99162714D02*
X151876000Y-99829380D01*
X151447428Y-99162714D02*
X151447428Y-99686523D01*
X151495047Y-99781761D01*
X151590285Y-99829380D01*
X151733142Y-99829380D01*
X151828380Y-99781761D01*
X151876000Y-99734142D01*
X152495047Y-99829380D02*
X152399809Y-99781761D01*
X152352190Y-99686523D01*
X152352190Y-98829380D01*
X153256952Y-99781761D02*
X153161714Y-99829380D01*
X152971238Y-99829380D01*
X152876000Y-99781761D01*
X152828380Y-99686523D01*
X152828380Y-99305571D01*
X152876000Y-99210333D01*
X152971238Y-99162714D01*
X153161714Y-99162714D01*
X153256952Y-99210333D01*
X153304571Y-99305571D01*
X153304571Y-99400809D01*
X152828380Y-99496047D01*
X116830833Y-84886904D02*
X116678452Y-84886904D01*
X116602261Y-84925000D01*
X116564166Y-84963095D01*
X116487976Y-85077380D01*
X116449880Y-85229761D01*
X116449880Y-85534523D01*
X116487976Y-85610714D01*
X116526071Y-85648809D01*
X116602261Y-85686904D01*
X116754642Y-85686904D01*
X116830833Y-85648809D01*
X116868928Y-85610714D01*
X116907023Y-85534523D01*
X116907023Y-85344047D01*
X116868928Y-85267857D01*
X116830833Y-85229761D01*
X116754642Y-85191666D01*
X116602261Y-85191666D01*
X116526071Y-85229761D01*
X116487976Y-85267857D01*
X116449880Y-85344047D01*
X117249880Y-85610714D02*
X117287976Y-85648809D01*
X117249880Y-85686904D01*
X117211785Y-85648809D01*
X117249880Y-85610714D01*
X117249880Y-85686904D01*
X117554642Y-84886904D02*
X118087976Y-84886904D01*
X117745119Y-85686904D01*
X118392738Y-85382142D02*
X119002261Y-85382142D01*
X119345119Y-84963095D02*
X119383214Y-84925000D01*
X119459404Y-84886904D01*
X119649880Y-84886904D01*
X119726071Y-84925000D01*
X119764166Y-84963095D01*
X119802261Y-85039285D01*
X119802261Y-85115476D01*
X119764166Y-85229761D01*
X119307023Y-85686904D01*
X119802261Y-85686904D01*
X120259404Y-85229761D02*
X120183214Y-85191666D01*
X120145119Y-85153571D01*
X120107023Y-85077380D01*
X120107023Y-85039285D01*
X120145119Y-84963095D01*
X120183214Y-84925000D01*
X120259404Y-84886904D01*
X120411785Y-84886904D01*
X120487976Y-84925000D01*
X120526071Y-84963095D01*
X120564166Y-85039285D01*
X120564166Y-85077380D01*
X120526071Y-85153571D01*
X120487976Y-85191666D01*
X120411785Y-85229761D01*
X120259404Y-85229761D01*
X120183214Y-85267857D01*
X120145119Y-85305952D01*
X120107023Y-85382142D01*
X120107023Y-85534523D01*
X120145119Y-85610714D01*
X120183214Y-85648809D01*
X120259404Y-85686904D01*
X120411785Y-85686904D01*
X120487976Y-85648809D01*
X120526071Y-85610714D01*
X120564166Y-85534523D01*
X120564166Y-85382142D01*
X120526071Y-85305952D01*
X120487976Y-85267857D01*
X120411785Y-85229761D01*
X120792738Y-84886904D02*
X121059404Y-85686904D01*
X121326071Y-84886904D01*
X116907023Y-77325000D02*
X116830833Y-77286904D01*
X116716547Y-77286904D01*
X116602261Y-77325000D01*
X116526071Y-77401190D01*
X116487976Y-77477380D01*
X116449880Y-77629761D01*
X116449880Y-77744047D01*
X116487976Y-77896428D01*
X116526071Y-77972619D01*
X116602261Y-78048809D01*
X116716547Y-78086904D01*
X116792738Y-78086904D01*
X116907023Y-78048809D01*
X116945119Y-78010714D01*
X116945119Y-77744047D01*
X116792738Y-77744047D01*
X117287976Y-78086904D02*
X117287976Y-77286904D01*
X117745119Y-78086904D01*
X117745119Y-77286904D01*
X118126071Y-78086904D02*
X118126071Y-77286904D01*
X118316547Y-77286904D01*
X118430833Y-77325000D01*
X118507023Y-77401190D01*
X118545119Y-77477380D01*
X118583214Y-77629761D01*
X118583214Y-77744047D01*
X118545119Y-77896428D01*
X118507023Y-77972619D01*
X118430833Y-78048809D01*
X118316547Y-78086904D01*
X118126071Y-78086904D01*
X119142238Y-127022142D02*
X119751761Y-127022142D01*
X119447000Y-127326904D02*
X119447000Y-126717380D01*
X119117238Y-119247142D02*
X119726761Y-119247142D01*
X119422000Y-119551904D02*
X119422000Y-118942380D01*
X119117238Y-111497142D02*
X119726761Y-111497142D01*
X119422000Y-111801904D02*
X119422000Y-111192380D01*
X207161438Y-82364446D02*
X206925736Y-82600148D01*
X207137868Y-82859420D01*
X207137868Y-82812280D01*
X207161438Y-82741569D01*
X207279289Y-82623718D01*
X207350000Y-82600148D01*
X207397140Y-82600148D01*
X207467851Y-82623718D01*
X207585702Y-82741569D01*
X207609272Y-82812280D01*
X207609272Y-82859420D01*
X207585702Y-82930131D01*
X207467851Y-83047982D01*
X207397140Y-83071552D01*
X207350000Y-83071552D01*
X207326430Y-82199454D02*
X207986396Y-82529437D01*
X207656413Y-81869471D01*
X207208579Y-80078446D02*
X207137868Y-80102016D01*
X207067157Y-80172727D01*
X207020017Y-80267007D01*
X207020017Y-80361288D01*
X207043587Y-80431999D01*
X207114298Y-80549850D01*
X207185008Y-80620561D01*
X207302860Y-80691271D01*
X207373570Y-80714842D01*
X207467851Y-80714842D01*
X207562132Y-80667701D01*
X207609272Y-80620561D01*
X207656413Y-80526280D01*
X207656413Y-80479139D01*
X207491421Y-80314148D01*
X207397140Y-80408429D01*
X207915685Y-80314148D02*
X207420711Y-79819173D01*
X208198528Y-80031305D01*
X207703553Y-79536330D01*
X208434230Y-79795603D02*
X207939256Y-79300628D01*
X208057107Y-79182777D01*
X208151388Y-79135637D01*
X208245669Y-79135637D01*
X208316379Y-79159207D01*
X208434230Y-79229917D01*
X208504941Y-79300628D01*
X208575652Y-79418479D01*
X208599222Y-79489190D01*
X208599222Y-79583471D01*
X208552082Y-79677752D01*
X208434230Y-79795603D01*
X207373570Y-90246923D02*
X207467851Y-90199782D01*
X207585702Y-90081931D01*
X207609272Y-90011220D01*
X207609272Y-89964080D01*
X207585702Y-89893369D01*
X207538562Y-89846229D01*
X207467851Y-89822659D01*
X207420711Y-89822659D01*
X207350000Y-89846229D01*
X207232149Y-89916939D01*
X207161438Y-89940510D01*
X207114298Y-89940510D01*
X207043587Y-89916939D01*
X206996447Y-89869799D01*
X206972876Y-89799088D01*
X206972876Y-89751948D01*
X206996447Y-89681237D01*
X207114298Y-89563386D01*
X207208579Y-89516246D01*
X207892115Y-89775518D02*
X207397140Y-89280543D01*
X207514992Y-89162692D01*
X207609272Y-89115552D01*
X207703553Y-89115552D01*
X207774264Y-89139122D01*
X207892115Y-89209833D01*
X207962826Y-89280543D01*
X208033537Y-89398394D01*
X208057107Y-89469105D01*
X208057107Y-89563386D01*
X208009966Y-89657667D01*
X207892115Y-89775518D01*
X208222098Y-89162692D02*
X208457801Y-88926990D01*
X208316379Y-89351254D02*
X207986396Y-88691288D01*
X208646362Y-89021271D01*
X206878595Y-97419088D02*
X207185008Y-97112675D01*
X207208579Y-97466229D01*
X207279289Y-97395518D01*
X207350000Y-97371948D01*
X207397140Y-97371948D01*
X207467851Y-97395518D01*
X207585702Y-97513369D01*
X207609272Y-97584080D01*
X207609272Y-97631220D01*
X207585702Y-97701931D01*
X207444281Y-97843352D01*
X207373570Y-97866923D01*
X207326430Y-97866923D01*
X207844975Y-97348378D02*
X207892115Y-97348378D01*
X207892115Y-97395518D01*
X207844975Y-97395518D01*
X207844975Y-97348378D01*
X207892115Y-97395518D01*
X207585702Y-96711982D02*
X207892115Y-96405569D01*
X207915685Y-96759122D01*
X207986396Y-96688411D01*
X208057107Y-96664841D01*
X208104247Y-96664841D01*
X208174958Y-96688411D01*
X208292809Y-96806262D01*
X208316379Y-96876973D01*
X208316379Y-96924114D01*
X208292809Y-96994824D01*
X208151388Y-97136246D01*
X208080677Y-97159816D01*
X208033537Y-97159816D01*
X208033537Y-96264147D02*
X208693503Y-96594130D01*
X208363520Y-95934164D01*
X207208579Y-94596246D02*
X207137868Y-94619816D01*
X207067157Y-94690527D01*
X207020017Y-94784807D01*
X207020017Y-94879088D01*
X207043587Y-94949799D01*
X207114298Y-95067650D01*
X207185008Y-95138361D01*
X207302860Y-95209071D01*
X207373570Y-95232642D01*
X207467851Y-95232642D01*
X207562132Y-95185501D01*
X207609272Y-95138361D01*
X207656413Y-95044080D01*
X207656413Y-94996939D01*
X207491421Y-94831948D01*
X207397140Y-94926229D01*
X207915685Y-94831948D02*
X207420711Y-94336973D01*
X208198528Y-94549105D01*
X207703553Y-94054130D01*
X208434230Y-94313403D02*
X207939256Y-93818428D01*
X208057107Y-93700577D01*
X208151388Y-93653437D01*
X208245669Y-93653437D01*
X208316379Y-93677007D01*
X208434230Y-93747717D01*
X208504941Y-93818428D01*
X208575652Y-93936279D01*
X208599222Y-94006990D01*
X208599222Y-94101271D01*
X208552082Y-94195552D01*
X208434230Y-94313403D01*
X207161438Y-99676246D02*
X206925736Y-99911948D01*
X207137868Y-100171220D01*
X207137868Y-100124080D01*
X207161438Y-100053369D01*
X207279289Y-99935518D01*
X207350000Y-99911948D01*
X207397140Y-99911948D01*
X207467851Y-99935518D01*
X207585702Y-100053369D01*
X207609272Y-100124080D01*
X207609272Y-100171220D01*
X207585702Y-100241931D01*
X207467851Y-100359782D01*
X207397140Y-100383352D01*
X207350000Y-100383352D01*
X207326430Y-99511254D02*
X207986396Y-99841237D01*
X207656413Y-99181271D01*
X207373570Y-92786923D02*
X207467851Y-92739782D01*
X207585702Y-92621931D01*
X207609272Y-92551220D01*
X207609272Y-92504080D01*
X207585702Y-92433369D01*
X207538562Y-92386229D01*
X207467851Y-92362659D01*
X207420711Y-92362659D01*
X207350000Y-92386229D01*
X207232149Y-92456939D01*
X207161438Y-92480510D01*
X207114298Y-92480510D01*
X207043587Y-92456939D01*
X206996447Y-92409799D01*
X206972876Y-92339088D01*
X206972876Y-92291948D01*
X206996447Y-92221237D01*
X207114298Y-92103386D01*
X207208579Y-92056246D01*
X208127817Y-91985535D02*
X208127817Y-92032675D01*
X208080677Y-92126956D01*
X208033537Y-92174097D01*
X207939256Y-92221237D01*
X207844975Y-92221237D01*
X207774264Y-92197667D01*
X207656413Y-92126956D01*
X207585702Y-92056246D01*
X207514992Y-91938394D01*
X207491421Y-91867684D01*
X207491421Y-91773403D01*
X207538562Y-91679122D01*
X207585702Y-91631982D01*
X207679983Y-91584841D01*
X207727124Y-91584841D01*
X208622792Y-91584841D02*
X208387090Y-91820543D01*
X207892115Y-91325569D01*
X116907023Y-87100000D02*
X116830833Y-87061904D01*
X116716547Y-87061904D01*
X116602261Y-87100000D01*
X116526071Y-87176190D01*
X116487976Y-87252380D01*
X116449880Y-87404761D01*
X116449880Y-87519047D01*
X116487976Y-87671428D01*
X116526071Y-87747619D01*
X116602261Y-87823809D01*
X116716547Y-87861904D01*
X116792738Y-87861904D01*
X116907023Y-87823809D01*
X116945119Y-87785714D01*
X116945119Y-87519047D01*
X116792738Y-87519047D01*
X117287976Y-87861904D02*
X117287976Y-87061904D01*
X117745119Y-87861904D01*
X117745119Y-87061904D01*
X118126071Y-87861904D02*
X118126071Y-87061904D01*
X118316547Y-87061904D01*
X118430833Y-87100000D01*
X118507023Y-87176190D01*
X118545119Y-87252380D01*
X118583214Y-87404761D01*
X118583214Y-87519047D01*
X118545119Y-87671428D01*
X118507023Y-87747619D01*
X118430833Y-87823809D01*
X118316547Y-87861904D01*
X118126071Y-87861904D01*
X117000928Y-94661904D02*
X116619976Y-94661904D01*
X116581880Y-95042857D01*
X116619976Y-95004761D01*
X116696166Y-94966666D01*
X116886642Y-94966666D01*
X116962833Y-95004761D01*
X117000928Y-95042857D01*
X117039023Y-95119047D01*
X117039023Y-95309523D01*
X117000928Y-95385714D01*
X116962833Y-95423809D01*
X116886642Y-95461904D01*
X116696166Y-95461904D01*
X116619976Y-95423809D01*
X116581880Y-95385714D01*
X117267595Y-94661904D02*
X117534261Y-95461904D01*
X117800928Y-94661904D01*
D10*
X193802523Y-75001380D02*
X193802523Y-74334714D01*
X193802523Y-74001380D02*
X193754904Y-74049000D01*
X193802523Y-74096619D01*
X193850142Y-74049000D01*
X193802523Y-74001380D01*
X193802523Y-74096619D01*
X194850142Y-74906142D02*
X194802523Y-74953761D01*
X194659666Y-75001380D01*
X194564428Y-75001380D01*
X194421571Y-74953761D01*
X194326333Y-74858523D01*
X194278714Y-74763285D01*
X194231095Y-74572809D01*
X194231095Y-74429952D01*
X194278714Y-74239476D01*
X194326333Y-74144238D01*
X194421571Y-74049000D01*
X194564428Y-74001380D01*
X194659666Y-74001380D01*
X194802523Y-74049000D01*
X194850142Y-74096619D01*
X195421571Y-74429952D02*
X195326333Y-74382333D01*
X195278714Y-74334714D01*
X195231095Y-74239476D01*
X195231095Y-74191857D01*
X195278714Y-74096619D01*
X195326333Y-74049000D01*
X195421571Y-74001380D01*
X195612047Y-74001380D01*
X195707285Y-74049000D01*
X195754904Y-74096619D01*
X195802523Y-74191857D01*
X195802523Y-74239476D01*
X195754904Y-74334714D01*
X195707285Y-74382333D01*
X195612047Y-74429952D01*
X195421571Y-74429952D01*
X195326333Y-74477571D01*
X195278714Y-74525190D01*
X195231095Y-74620428D01*
X195231095Y-74810904D01*
X195278714Y-74906142D01*
X195326333Y-74953761D01*
X195421571Y-75001380D01*
X195612047Y-75001380D01*
X195707285Y-74953761D01*
X195754904Y-74906142D01*
X195802523Y-74810904D01*
X195802523Y-74620428D01*
X195754904Y-74525190D01*
X195707285Y-74477571D01*
X195612047Y-74429952D01*
X196373952Y-74429952D02*
X196278714Y-74382333D01*
X196231095Y-74334714D01*
X196183476Y-74239476D01*
X196183476Y-74191857D01*
X196231095Y-74096619D01*
X196278714Y-74049000D01*
X196373952Y-74001380D01*
X196564428Y-74001380D01*
X196659666Y-74049000D01*
X196707285Y-74096619D01*
X196754904Y-74191857D01*
X196754904Y-74239476D01*
X196707285Y-74334714D01*
X196659666Y-74382333D01*
X196564428Y-74429952D01*
X196373952Y-74429952D01*
X196278714Y-74477571D01*
X196231095Y-74525190D01*
X196183476Y-74620428D01*
X196183476Y-74810904D01*
X196231095Y-74906142D01*
X196278714Y-74953761D01*
X196373952Y-75001380D01*
X196564428Y-75001380D01*
X196659666Y-74953761D01*
X196707285Y-74906142D01*
X196754904Y-74810904D01*
X196754904Y-74620428D01*
X196707285Y-74525190D01*
X196659666Y-74477571D01*
X196564428Y-74429952D01*
X197373952Y-74001380D02*
X197469190Y-74001380D01*
X197564428Y-74049000D01*
X197612047Y-74096619D01*
X197659666Y-74191857D01*
X197707285Y-74382333D01*
X197707285Y-74620428D01*
X197659666Y-74810904D01*
X197612047Y-74906142D01*
X197564428Y-74953761D01*
X197469190Y-75001380D01*
X197373952Y-75001380D01*
X197278714Y-74953761D01*
X197231095Y-74906142D01*
X197183476Y-74810904D01*
X197135857Y-74620428D01*
X197135857Y-74382333D01*
X197183476Y-74191857D01*
X197231095Y-74096619D01*
X197278714Y-74049000D01*
X197373952Y-74001380D01*
X198088238Y-74715666D02*
X198564428Y-74715666D01*
X197993000Y-75001380D02*
X198326333Y-74001380D01*
X198659666Y-75001380D01*
X198993000Y-74620428D02*
X199754904Y-74620428D01*
X200183476Y-74953761D02*
X200326333Y-75001380D01*
X200564428Y-75001380D01*
X200659666Y-74953761D01*
X200707285Y-74906142D01*
X200754904Y-74810904D01*
X200754904Y-74715666D01*
X200707285Y-74620428D01*
X200659666Y-74572809D01*
X200564428Y-74525190D01*
X200373952Y-74477571D01*
X200278714Y-74429952D01*
X200231095Y-74382333D01*
X200183476Y-74287095D01*
X200183476Y-74191857D01*
X200231095Y-74096619D01*
X200278714Y-74049000D01*
X200373952Y-74001380D01*
X200612047Y-74001380D01*
X200754904Y-74049000D01*
X201183476Y-75001380D02*
X201183476Y-74001380D01*
X201564428Y-74001380D01*
X201659666Y-74049000D01*
X201707285Y-74096619D01*
X201754904Y-74191857D01*
X201754904Y-74334714D01*
X201707285Y-74429952D01*
X201659666Y-74477571D01*
X201564428Y-74525190D01*
X201183476Y-74525190D01*
X202183476Y-75001380D02*
X202183476Y-74001380D01*
D11*
X187172571Y-143490904D02*
X186715428Y-143490904D01*
X186944000Y-143490904D02*
X186944000Y-142690904D01*
X186867809Y-142805190D01*
X186791619Y-142881380D01*
X186715428Y-142919476D01*
X184137333Y-142690904D02*
X184632571Y-142690904D01*
X184365904Y-142995666D01*
X184480190Y-142995666D01*
X184556380Y-143033761D01*
X184594476Y-143071857D01*
X184632571Y-143148047D01*
X184632571Y-143338523D01*
X184594476Y-143414714D01*
X184556380Y-143452809D01*
X184480190Y-143490904D01*
X184251619Y-143490904D01*
X184175428Y-143452809D01*
X184137333Y-143414714D01*
X182054476Y-142690904D02*
X181673523Y-142690904D01*
X181635428Y-143071857D01*
X181673523Y-143033761D01*
X181749714Y-142995666D01*
X181940190Y-142995666D01*
X182016380Y-143033761D01*
X182054476Y-143071857D01*
X182092571Y-143148047D01*
X182092571Y-143338523D01*
X182054476Y-143414714D01*
X182016380Y-143452809D01*
X181940190Y-143490904D01*
X181749714Y-143490904D01*
X181673523Y-143452809D01*
X181635428Y-143414714D01*
X179057333Y-142690904D02*
X179590666Y-142690904D01*
X179247809Y-143490904D01*
X176631619Y-143490904D02*
X176784000Y-143490904D01*
X176860190Y-143452809D01*
X176898285Y-143414714D01*
X176974476Y-143300428D01*
X177012571Y-143148047D01*
X177012571Y-142843285D01*
X176974476Y-142767095D01*
X176936380Y-142729000D01*
X176860190Y-142690904D01*
X176707809Y-142690904D01*
X176631619Y-142729000D01*
X176593523Y-142767095D01*
X176555428Y-142843285D01*
X176555428Y-143033761D01*
X176593523Y-143109952D01*
X176631619Y-143148047D01*
X176707809Y-143186142D01*
X176860190Y-143186142D01*
X176936380Y-143148047D01*
X176974476Y-143109952D01*
X177012571Y-143033761D01*
X174091619Y-143490904D02*
X173634476Y-143490904D01*
X173863047Y-143490904D02*
X173863047Y-142690904D01*
X173786857Y-142805190D01*
X173710666Y-142881380D01*
X173634476Y-142919476D01*
X174853523Y-143490904D02*
X174396380Y-143490904D01*
X174624952Y-143490904D02*
X174624952Y-142690904D01*
X174548761Y-142805190D01*
X174472571Y-142881380D01*
X174396380Y-142919476D01*
X171551619Y-143490904D02*
X171094476Y-143490904D01*
X171323047Y-143490904D02*
X171323047Y-142690904D01*
X171246857Y-142805190D01*
X171170666Y-142881380D01*
X171094476Y-142919476D01*
X171818285Y-142690904D02*
X172313523Y-142690904D01*
X172046857Y-142995666D01*
X172161142Y-142995666D01*
X172237333Y-143033761D01*
X172275428Y-143071857D01*
X172313523Y-143148047D01*
X172313523Y-143338523D01*
X172275428Y-143414714D01*
X172237333Y-143452809D01*
X172161142Y-143490904D01*
X171932571Y-143490904D01*
X171856380Y-143452809D01*
X171818285Y-143414714D01*
X169011619Y-143490904D02*
X168554476Y-143490904D01*
X168783047Y-143490904D02*
X168783047Y-142690904D01*
X168706857Y-142805190D01*
X168630666Y-142881380D01*
X168554476Y-142919476D01*
X169735428Y-142690904D02*
X169354476Y-142690904D01*
X169316380Y-143071857D01*
X169354476Y-143033761D01*
X169430666Y-142995666D01*
X169621142Y-142995666D01*
X169697333Y-143033761D01*
X169735428Y-143071857D01*
X169773523Y-143148047D01*
X169773523Y-143338523D01*
X169735428Y-143414714D01*
X169697333Y-143452809D01*
X169621142Y-143490904D01*
X169430666Y-143490904D01*
X169354476Y-143452809D01*
X169316380Y-143414714D01*
X166471619Y-143490904D02*
X166014476Y-143490904D01*
X166243047Y-143490904D02*
X166243047Y-142690904D01*
X166166857Y-142805190D01*
X166090666Y-142881380D01*
X166014476Y-142919476D01*
X166738285Y-142690904D02*
X167271619Y-142690904D01*
X166928761Y-143490904D01*
X163931619Y-143490904D02*
X163474476Y-143490904D01*
X163703047Y-143490904D02*
X163703047Y-142690904D01*
X163626857Y-142805190D01*
X163550666Y-142881380D01*
X163474476Y-142919476D01*
X164312571Y-143490904D02*
X164464952Y-143490904D01*
X164541142Y-143452809D01*
X164579238Y-143414714D01*
X164655428Y-143300428D01*
X164693523Y-143148047D01*
X164693523Y-142843285D01*
X164655428Y-142767095D01*
X164617333Y-142729000D01*
X164541142Y-142690904D01*
X164388761Y-142690904D01*
X164312571Y-142729000D01*
X164274476Y-142767095D01*
X164236380Y-142843285D01*
X164236380Y-143033761D01*
X164274476Y-143109952D01*
X164312571Y-143148047D01*
X164388761Y-143186142D01*
X164541142Y-143186142D01*
X164617333Y-143148047D01*
X164655428Y-143109952D01*
X164693523Y-143033761D01*
X160934476Y-142767095D02*
X160972571Y-142729000D01*
X161048761Y-142690904D01*
X161239238Y-142690904D01*
X161315428Y-142729000D01*
X161353523Y-142767095D01*
X161391619Y-142843285D01*
X161391619Y-142919476D01*
X161353523Y-143033761D01*
X160896380Y-143490904D01*
X161391619Y-143490904D01*
X162153523Y-143490904D02*
X161696380Y-143490904D01*
X161924952Y-143490904D02*
X161924952Y-142690904D01*
X161848761Y-142805190D01*
X161772571Y-142881380D01*
X161696380Y-142919476D01*
X158394476Y-142767095D02*
X158432571Y-142729000D01*
X158508761Y-142690904D01*
X158699238Y-142690904D01*
X158775428Y-142729000D01*
X158813523Y-142767095D01*
X158851619Y-142843285D01*
X158851619Y-142919476D01*
X158813523Y-143033761D01*
X158356380Y-143490904D01*
X158851619Y-143490904D01*
X159118285Y-142690904D02*
X159613523Y-142690904D01*
X159346857Y-142995666D01*
X159461142Y-142995666D01*
X159537333Y-143033761D01*
X159575428Y-143071857D01*
X159613523Y-143148047D01*
X159613523Y-143338523D01*
X159575428Y-143414714D01*
X159537333Y-143452809D01*
X159461142Y-143490904D01*
X159232571Y-143490904D01*
X159156380Y-143452809D01*
X159118285Y-143414714D01*
X155854476Y-142767095D02*
X155892571Y-142729000D01*
X155968761Y-142690904D01*
X156159238Y-142690904D01*
X156235428Y-142729000D01*
X156273523Y-142767095D01*
X156311619Y-142843285D01*
X156311619Y-142919476D01*
X156273523Y-143033761D01*
X155816380Y-143490904D01*
X156311619Y-143490904D01*
X157035428Y-142690904D02*
X156654476Y-142690904D01*
X156616380Y-143071857D01*
X156654476Y-143033761D01*
X156730666Y-142995666D01*
X156921142Y-142995666D01*
X156997333Y-143033761D01*
X157035428Y-143071857D01*
X157073523Y-143148047D01*
X157073523Y-143338523D01*
X157035428Y-143414714D01*
X156997333Y-143452809D01*
X156921142Y-143490904D01*
X156730666Y-143490904D01*
X156654476Y-143452809D01*
X156616380Y-143414714D01*
X153314476Y-142767095D02*
X153352571Y-142729000D01*
X153428761Y-142690904D01*
X153619238Y-142690904D01*
X153695428Y-142729000D01*
X153733523Y-142767095D01*
X153771619Y-142843285D01*
X153771619Y-142919476D01*
X153733523Y-143033761D01*
X153276380Y-143490904D01*
X153771619Y-143490904D01*
X154038285Y-142690904D02*
X154571619Y-142690904D01*
X154228761Y-143490904D01*
X150774476Y-142767095D02*
X150812571Y-142729000D01*
X150888761Y-142690904D01*
X151079238Y-142690904D01*
X151155428Y-142729000D01*
X151193523Y-142767095D01*
X151231619Y-142843285D01*
X151231619Y-142919476D01*
X151193523Y-143033761D01*
X150736380Y-143490904D01*
X151231619Y-143490904D01*
X151612571Y-143490904D02*
X151764952Y-143490904D01*
X151841142Y-143452809D01*
X151879238Y-143414714D01*
X151955428Y-143300428D01*
X151993523Y-143148047D01*
X151993523Y-142843285D01*
X151955428Y-142767095D01*
X151917333Y-142729000D01*
X151841142Y-142690904D01*
X151688761Y-142690904D01*
X151612571Y-142729000D01*
X151574476Y-142767095D01*
X151536380Y-142843285D01*
X151536380Y-143033761D01*
X151574476Y-143109952D01*
X151612571Y-143148047D01*
X151688761Y-143186142D01*
X151841142Y-143186142D01*
X151917333Y-143148047D01*
X151955428Y-143109952D01*
X151993523Y-143033761D01*
X148196380Y-142690904D02*
X148691619Y-142690904D01*
X148424952Y-142995666D01*
X148539238Y-142995666D01*
X148615428Y-143033761D01*
X148653523Y-143071857D01*
X148691619Y-143148047D01*
X148691619Y-143338523D01*
X148653523Y-143414714D01*
X148615428Y-143452809D01*
X148539238Y-143490904D01*
X148310666Y-143490904D01*
X148234476Y-143452809D01*
X148196380Y-143414714D01*
X149453523Y-143490904D02*
X148996380Y-143490904D01*
X149224952Y-143490904D02*
X149224952Y-142690904D01*
X149148761Y-142805190D01*
X149072571Y-142881380D01*
X148996380Y-142919476D01*
X145656380Y-142690904D02*
X146151619Y-142690904D01*
X145884952Y-142995666D01*
X145999238Y-142995666D01*
X146075428Y-143033761D01*
X146113523Y-143071857D01*
X146151619Y-143148047D01*
X146151619Y-143338523D01*
X146113523Y-143414714D01*
X146075428Y-143452809D01*
X145999238Y-143490904D01*
X145770666Y-143490904D01*
X145694476Y-143452809D01*
X145656380Y-143414714D01*
X146418285Y-142690904D02*
X146913523Y-142690904D01*
X146646857Y-142995666D01*
X146761142Y-142995666D01*
X146837333Y-143033761D01*
X146875428Y-143071857D01*
X146913523Y-143148047D01*
X146913523Y-143338523D01*
X146875428Y-143414714D01*
X146837333Y-143452809D01*
X146761142Y-143490904D01*
X146532571Y-143490904D01*
X146456380Y-143452809D01*
X146418285Y-143414714D01*
X143116380Y-142690904D02*
X143611619Y-142690904D01*
X143344952Y-142995666D01*
X143459238Y-142995666D01*
X143535428Y-143033761D01*
X143573523Y-143071857D01*
X143611619Y-143148047D01*
X143611619Y-143338523D01*
X143573523Y-143414714D01*
X143535428Y-143452809D01*
X143459238Y-143490904D01*
X143230666Y-143490904D01*
X143154476Y-143452809D01*
X143116380Y-143414714D01*
X144335428Y-142690904D02*
X143954476Y-142690904D01*
X143916380Y-143071857D01*
X143954476Y-143033761D01*
X144030666Y-142995666D01*
X144221142Y-142995666D01*
X144297333Y-143033761D01*
X144335428Y-143071857D01*
X144373523Y-143148047D01*
X144373523Y-143338523D01*
X144335428Y-143414714D01*
X144297333Y-143452809D01*
X144221142Y-143490904D01*
X144030666Y-143490904D01*
X143954476Y-143452809D01*
X143916380Y-143414714D01*
X140576380Y-142690904D02*
X141071619Y-142690904D01*
X140804952Y-142995666D01*
X140919238Y-142995666D01*
X140995428Y-143033761D01*
X141033523Y-143071857D01*
X141071619Y-143148047D01*
X141071619Y-143338523D01*
X141033523Y-143414714D01*
X140995428Y-143452809D01*
X140919238Y-143490904D01*
X140690666Y-143490904D01*
X140614476Y-143452809D01*
X140576380Y-143414714D01*
X141338285Y-142690904D02*
X141871619Y-142690904D01*
X141528761Y-143490904D01*
X138036380Y-142690904D02*
X138531619Y-142690904D01*
X138264952Y-142995666D01*
X138379238Y-142995666D01*
X138455428Y-143033761D01*
X138493523Y-143071857D01*
X138531619Y-143148047D01*
X138531619Y-143338523D01*
X138493523Y-143414714D01*
X138455428Y-143452809D01*
X138379238Y-143490904D01*
X138150666Y-143490904D01*
X138074476Y-143452809D01*
X138036380Y-143414714D01*
X138912571Y-143490904D02*
X139064952Y-143490904D01*
X139141142Y-143452809D01*
X139179238Y-143414714D01*
X139255428Y-143300428D01*
X139293523Y-143148047D01*
X139293523Y-142843285D01*
X139255428Y-142767095D01*
X139217333Y-142729000D01*
X139141142Y-142690904D01*
X138988761Y-142690904D01*
X138912571Y-142729000D01*
X138874476Y-142767095D01*
X138836380Y-142843285D01*
X138836380Y-143033761D01*
X138874476Y-143109952D01*
X138912571Y-143148047D01*
X138988761Y-143186142D01*
X139141142Y-143186142D01*
X139217333Y-143148047D01*
X139255428Y-143109952D01*
X139293523Y-143033761D01*
X186715428Y-150133095D02*
X186753523Y-150095000D01*
X186829714Y-150056904D01*
X187020190Y-150056904D01*
X187096380Y-150095000D01*
X187134476Y-150133095D01*
X187172571Y-150209285D01*
X187172571Y-150285476D01*
X187134476Y-150399761D01*
X186677333Y-150856904D01*
X187172571Y-150856904D01*
X184556380Y-150323571D02*
X184556380Y-150856904D01*
X184365904Y-150018809D02*
X184175428Y-150590238D01*
X184670666Y-150590238D01*
X182016380Y-150056904D02*
X181864000Y-150056904D01*
X181787809Y-150095000D01*
X181749714Y-150133095D01*
X181673523Y-150247380D01*
X181635428Y-150399761D01*
X181635428Y-150704523D01*
X181673523Y-150780714D01*
X181711619Y-150818809D01*
X181787809Y-150856904D01*
X181940190Y-150856904D01*
X182016380Y-150818809D01*
X182054476Y-150780714D01*
X182092571Y-150704523D01*
X182092571Y-150514047D01*
X182054476Y-150437857D01*
X182016380Y-150399761D01*
X181940190Y-150361666D01*
X181787809Y-150361666D01*
X181711619Y-150399761D01*
X181673523Y-150437857D01*
X181635428Y-150514047D01*
X179247809Y-150399761D02*
X179171619Y-150361666D01*
X179133523Y-150323571D01*
X179095428Y-150247380D01*
X179095428Y-150209285D01*
X179133523Y-150133095D01*
X179171619Y-150095000D01*
X179247809Y-150056904D01*
X179400190Y-150056904D01*
X179476380Y-150095000D01*
X179514476Y-150133095D01*
X179552571Y-150209285D01*
X179552571Y-150247380D01*
X179514476Y-150323571D01*
X179476380Y-150361666D01*
X179400190Y-150399761D01*
X179247809Y-150399761D01*
X179171619Y-150437857D01*
X179133523Y-150475952D01*
X179095428Y-150552142D01*
X179095428Y-150704523D01*
X179133523Y-150780714D01*
X179171619Y-150818809D01*
X179247809Y-150856904D01*
X179400190Y-150856904D01*
X179476380Y-150818809D01*
X179514476Y-150780714D01*
X179552571Y-150704523D01*
X179552571Y-150552142D01*
X179514476Y-150475952D01*
X179476380Y-150437857D01*
X179400190Y-150399761D01*
X176631619Y-150856904D02*
X176174476Y-150856904D01*
X176403047Y-150856904D02*
X176403047Y-150056904D01*
X176326857Y-150171190D01*
X176250666Y-150247380D01*
X176174476Y-150285476D01*
X177126857Y-150056904D02*
X177203047Y-150056904D01*
X177279238Y-150095000D01*
X177317333Y-150133095D01*
X177355428Y-150209285D01*
X177393523Y-150361666D01*
X177393523Y-150552142D01*
X177355428Y-150704523D01*
X177317333Y-150780714D01*
X177279238Y-150818809D01*
X177203047Y-150856904D01*
X177126857Y-150856904D01*
X177050666Y-150818809D01*
X177012571Y-150780714D01*
X176974476Y-150704523D01*
X176936380Y-150552142D01*
X176936380Y-150361666D01*
X176974476Y-150209285D01*
X177012571Y-150133095D01*
X177050666Y-150095000D01*
X177126857Y-150056904D01*
X174091619Y-150856904D02*
X173634476Y-150856904D01*
X173863047Y-150856904D02*
X173863047Y-150056904D01*
X173786857Y-150171190D01*
X173710666Y-150247380D01*
X173634476Y-150285476D01*
X174396380Y-150133095D02*
X174434476Y-150095000D01*
X174510666Y-150056904D01*
X174701142Y-150056904D01*
X174777333Y-150095000D01*
X174815428Y-150133095D01*
X174853523Y-150209285D01*
X174853523Y-150285476D01*
X174815428Y-150399761D01*
X174358285Y-150856904D01*
X174853523Y-150856904D01*
X171551619Y-150856904D02*
X171094476Y-150856904D01*
X171323047Y-150856904D02*
X171323047Y-150056904D01*
X171246857Y-150171190D01*
X171170666Y-150247380D01*
X171094476Y-150285476D01*
X172237333Y-150323571D02*
X172237333Y-150856904D01*
X172046857Y-150018809D02*
X171856380Y-150590238D01*
X172351619Y-150590238D01*
X169011619Y-150856904D02*
X168554476Y-150856904D01*
X168783047Y-150856904D02*
X168783047Y-150056904D01*
X168706857Y-150171190D01*
X168630666Y-150247380D01*
X168554476Y-150285476D01*
X169697333Y-150056904D02*
X169544952Y-150056904D01*
X169468761Y-150095000D01*
X169430666Y-150133095D01*
X169354476Y-150247380D01*
X169316380Y-150399761D01*
X169316380Y-150704523D01*
X169354476Y-150780714D01*
X169392571Y-150818809D01*
X169468761Y-150856904D01*
X169621142Y-150856904D01*
X169697333Y-150818809D01*
X169735428Y-150780714D01*
X169773523Y-150704523D01*
X169773523Y-150514047D01*
X169735428Y-150437857D01*
X169697333Y-150399761D01*
X169621142Y-150361666D01*
X169468761Y-150361666D01*
X169392571Y-150399761D01*
X169354476Y-150437857D01*
X169316380Y-150514047D01*
X166471619Y-150856904D02*
X166014476Y-150856904D01*
X166243047Y-150856904D02*
X166243047Y-150056904D01*
X166166857Y-150171190D01*
X166090666Y-150247380D01*
X166014476Y-150285476D01*
X166928761Y-150399761D02*
X166852571Y-150361666D01*
X166814476Y-150323571D01*
X166776380Y-150247380D01*
X166776380Y-150209285D01*
X166814476Y-150133095D01*
X166852571Y-150095000D01*
X166928761Y-150056904D01*
X167081142Y-150056904D01*
X167157333Y-150095000D01*
X167195428Y-150133095D01*
X167233523Y-150209285D01*
X167233523Y-150247380D01*
X167195428Y-150323571D01*
X167157333Y-150361666D01*
X167081142Y-150399761D01*
X166928761Y-150399761D01*
X166852571Y-150437857D01*
X166814476Y-150475952D01*
X166776380Y-150552142D01*
X166776380Y-150704523D01*
X166814476Y-150780714D01*
X166852571Y-150818809D01*
X166928761Y-150856904D01*
X167081142Y-150856904D01*
X167157333Y-150818809D01*
X167195428Y-150780714D01*
X167233523Y-150704523D01*
X167233523Y-150552142D01*
X167195428Y-150475952D01*
X167157333Y-150437857D01*
X167081142Y-150399761D01*
X163474476Y-150133095D02*
X163512571Y-150095000D01*
X163588761Y-150056904D01*
X163779238Y-150056904D01*
X163855428Y-150095000D01*
X163893523Y-150133095D01*
X163931619Y-150209285D01*
X163931619Y-150285476D01*
X163893523Y-150399761D01*
X163436380Y-150856904D01*
X163931619Y-150856904D01*
X164426857Y-150056904D02*
X164503047Y-150056904D01*
X164579238Y-150095000D01*
X164617333Y-150133095D01*
X164655428Y-150209285D01*
X164693523Y-150361666D01*
X164693523Y-150552142D01*
X164655428Y-150704523D01*
X164617333Y-150780714D01*
X164579238Y-150818809D01*
X164503047Y-150856904D01*
X164426857Y-150856904D01*
X164350666Y-150818809D01*
X164312571Y-150780714D01*
X164274476Y-150704523D01*
X164236380Y-150552142D01*
X164236380Y-150361666D01*
X164274476Y-150209285D01*
X164312571Y-150133095D01*
X164350666Y-150095000D01*
X164426857Y-150056904D01*
X160934476Y-150133095D02*
X160972571Y-150095000D01*
X161048761Y-150056904D01*
X161239238Y-150056904D01*
X161315428Y-150095000D01*
X161353523Y-150133095D01*
X161391619Y-150209285D01*
X161391619Y-150285476D01*
X161353523Y-150399761D01*
X160896380Y-150856904D01*
X161391619Y-150856904D01*
X161696380Y-150133095D02*
X161734476Y-150095000D01*
X161810666Y-150056904D01*
X162001142Y-150056904D01*
X162077333Y-150095000D01*
X162115428Y-150133095D01*
X162153523Y-150209285D01*
X162153523Y-150285476D01*
X162115428Y-150399761D01*
X161658285Y-150856904D01*
X162153523Y-150856904D01*
X158394476Y-150133095D02*
X158432571Y-150095000D01*
X158508761Y-150056904D01*
X158699238Y-150056904D01*
X158775428Y-150095000D01*
X158813523Y-150133095D01*
X158851619Y-150209285D01*
X158851619Y-150285476D01*
X158813523Y-150399761D01*
X158356380Y-150856904D01*
X158851619Y-150856904D01*
X159537333Y-150323571D02*
X159537333Y-150856904D01*
X159346857Y-150018809D02*
X159156380Y-150590238D01*
X159651619Y-150590238D01*
X155854476Y-150133095D02*
X155892571Y-150095000D01*
X155968761Y-150056904D01*
X156159238Y-150056904D01*
X156235428Y-150095000D01*
X156273523Y-150133095D01*
X156311619Y-150209285D01*
X156311619Y-150285476D01*
X156273523Y-150399761D01*
X155816380Y-150856904D01*
X156311619Y-150856904D01*
X156997333Y-150056904D02*
X156844952Y-150056904D01*
X156768761Y-150095000D01*
X156730666Y-150133095D01*
X156654476Y-150247380D01*
X156616380Y-150399761D01*
X156616380Y-150704523D01*
X156654476Y-150780714D01*
X156692571Y-150818809D01*
X156768761Y-150856904D01*
X156921142Y-150856904D01*
X156997333Y-150818809D01*
X157035428Y-150780714D01*
X157073523Y-150704523D01*
X157073523Y-150514047D01*
X157035428Y-150437857D01*
X156997333Y-150399761D01*
X156921142Y-150361666D01*
X156768761Y-150361666D01*
X156692571Y-150399761D01*
X156654476Y-150437857D01*
X156616380Y-150514047D01*
X153314476Y-150133095D02*
X153352571Y-150095000D01*
X153428761Y-150056904D01*
X153619238Y-150056904D01*
X153695428Y-150095000D01*
X153733523Y-150133095D01*
X153771619Y-150209285D01*
X153771619Y-150285476D01*
X153733523Y-150399761D01*
X153276380Y-150856904D01*
X153771619Y-150856904D01*
X154228761Y-150399761D02*
X154152571Y-150361666D01*
X154114476Y-150323571D01*
X154076380Y-150247380D01*
X154076380Y-150209285D01*
X154114476Y-150133095D01*
X154152571Y-150095000D01*
X154228761Y-150056904D01*
X154381142Y-150056904D01*
X154457333Y-150095000D01*
X154495428Y-150133095D01*
X154533523Y-150209285D01*
X154533523Y-150247380D01*
X154495428Y-150323571D01*
X154457333Y-150361666D01*
X154381142Y-150399761D01*
X154228761Y-150399761D01*
X154152571Y-150437857D01*
X154114476Y-150475952D01*
X154076380Y-150552142D01*
X154076380Y-150704523D01*
X154114476Y-150780714D01*
X154152571Y-150818809D01*
X154228761Y-150856904D01*
X154381142Y-150856904D01*
X154457333Y-150818809D01*
X154495428Y-150780714D01*
X154533523Y-150704523D01*
X154533523Y-150552142D01*
X154495428Y-150475952D01*
X154457333Y-150437857D01*
X154381142Y-150399761D01*
X150736380Y-150056904D02*
X151231619Y-150056904D01*
X150964952Y-150361666D01*
X151079238Y-150361666D01*
X151155428Y-150399761D01*
X151193523Y-150437857D01*
X151231619Y-150514047D01*
X151231619Y-150704523D01*
X151193523Y-150780714D01*
X151155428Y-150818809D01*
X151079238Y-150856904D01*
X150850666Y-150856904D01*
X150774476Y-150818809D01*
X150736380Y-150780714D01*
X151726857Y-150056904D02*
X151803047Y-150056904D01*
X151879238Y-150095000D01*
X151917333Y-150133095D01*
X151955428Y-150209285D01*
X151993523Y-150361666D01*
X151993523Y-150552142D01*
X151955428Y-150704523D01*
X151917333Y-150780714D01*
X151879238Y-150818809D01*
X151803047Y-150856904D01*
X151726857Y-150856904D01*
X151650666Y-150818809D01*
X151612571Y-150780714D01*
X151574476Y-150704523D01*
X151536380Y-150552142D01*
X151536380Y-150361666D01*
X151574476Y-150209285D01*
X151612571Y-150133095D01*
X151650666Y-150095000D01*
X151726857Y-150056904D01*
X148196380Y-150056904D02*
X148691619Y-150056904D01*
X148424952Y-150361666D01*
X148539238Y-150361666D01*
X148615428Y-150399761D01*
X148653523Y-150437857D01*
X148691619Y-150514047D01*
X148691619Y-150704523D01*
X148653523Y-150780714D01*
X148615428Y-150818809D01*
X148539238Y-150856904D01*
X148310666Y-150856904D01*
X148234476Y-150818809D01*
X148196380Y-150780714D01*
X148996380Y-150133095D02*
X149034476Y-150095000D01*
X149110666Y-150056904D01*
X149301142Y-150056904D01*
X149377333Y-150095000D01*
X149415428Y-150133095D01*
X149453523Y-150209285D01*
X149453523Y-150285476D01*
X149415428Y-150399761D01*
X148958285Y-150856904D01*
X149453523Y-150856904D01*
X145656380Y-150056904D02*
X146151619Y-150056904D01*
X145884952Y-150361666D01*
X145999238Y-150361666D01*
X146075428Y-150399761D01*
X146113523Y-150437857D01*
X146151619Y-150514047D01*
X146151619Y-150704523D01*
X146113523Y-150780714D01*
X146075428Y-150818809D01*
X145999238Y-150856904D01*
X145770666Y-150856904D01*
X145694476Y-150818809D01*
X145656380Y-150780714D01*
X146837333Y-150323571D02*
X146837333Y-150856904D01*
X146646857Y-150018809D02*
X146456380Y-150590238D01*
X146951619Y-150590238D01*
X143116380Y-150056904D02*
X143611619Y-150056904D01*
X143344952Y-150361666D01*
X143459238Y-150361666D01*
X143535428Y-150399761D01*
X143573523Y-150437857D01*
X143611619Y-150514047D01*
X143611619Y-150704523D01*
X143573523Y-150780714D01*
X143535428Y-150818809D01*
X143459238Y-150856904D01*
X143230666Y-150856904D01*
X143154476Y-150818809D01*
X143116380Y-150780714D01*
X144297333Y-150056904D02*
X144144952Y-150056904D01*
X144068761Y-150095000D01*
X144030666Y-150133095D01*
X143954476Y-150247380D01*
X143916380Y-150399761D01*
X143916380Y-150704523D01*
X143954476Y-150780714D01*
X143992571Y-150818809D01*
X144068761Y-150856904D01*
X144221142Y-150856904D01*
X144297333Y-150818809D01*
X144335428Y-150780714D01*
X144373523Y-150704523D01*
X144373523Y-150514047D01*
X144335428Y-150437857D01*
X144297333Y-150399761D01*
X144221142Y-150361666D01*
X144068761Y-150361666D01*
X143992571Y-150399761D01*
X143954476Y-150437857D01*
X143916380Y-150514047D01*
X140576380Y-150056904D02*
X141071619Y-150056904D01*
X140804952Y-150361666D01*
X140919238Y-150361666D01*
X140995428Y-150399761D01*
X141033523Y-150437857D01*
X141071619Y-150514047D01*
X141071619Y-150704523D01*
X141033523Y-150780714D01*
X140995428Y-150818809D01*
X140919238Y-150856904D01*
X140690666Y-150856904D01*
X140614476Y-150818809D01*
X140576380Y-150780714D01*
X141528761Y-150399761D02*
X141452571Y-150361666D01*
X141414476Y-150323571D01*
X141376380Y-150247380D01*
X141376380Y-150209285D01*
X141414476Y-150133095D01*
X141452571Y-150095000D01*
X141528761Y-150056904D01*
X141681142Y-150056904D01*
X141757333Y-150095000D01*
X141795428Y-150133095D01*
X141833523Y-150209285D01*
X141833523Y-150247380D01*
X141795428Y-150323571D01*
X141757333Y-150361666D01*
X141681142Y-150399761D01*
X141528761Y-150399761D01*
X141452571Y-150437857D01*
X141414476Y-150475952D01*
X141376380Y-150552142D01*
X141376380Y-150704523D01*
X141414476Y-150780714D01*
X141452571Y-150818809D01*
X141528761Y-150856904D01*
X141681142Y-150856904D01*
X141757333Y-150818809D01*
X141795428Y-150780714D01*
X141833523Y-150704523D01*
X141833523Y-150552142D01*
X141795428Y-150475952D01*
X141757333Y-150437857D01*
X141681142Y-150399761D01*
X138455428Y-150323571D02*
X138455428Y-150856904D01*
X138264952Y-150018809D02*
X138074476Y-150590238D01*
X138569714Y-150590238D01*
X139026857Y-150056904D02*
X139103047Y-150056904D01*
X139179238Y-150095000D01*
X139217333Y-150133095D01*
X139255428Y-150209285D01*
X139293523Y-150361666D01*
X139293523Y-150552142D01*
X139255428Y-150704523D01*
X139217333Y-150780714D01*
X139179238Y-150818809D01*
X139103047Y-150856904D01*
X139026857Y-150856904D01*
X138950666Y-150818809D01*
X138912571Y-150780714D01*
X138874476Y-150704523D01*
X138836380Y-150552142D01*
X138836380Y-150361666D01*
X138874476Y-150209285D01*
X138912571Y-150133095D01*
X138950666Y-150095000D01*
X139026857Y-150056904D01*
D12*
X181324666Y-69516761D02*
X181705619Y-69516761D01*
X181896095Y-69612000D01*
X182086571Y-69802476D01*
X182181809Y-70183428D01*
X182181809Y-70850095D01*
X182086571Y-71231047D01*
X181896095Y-71421523D01*
X181705619Y-71516761D01*
X181324666Y-71516761D01*
X181134190Y-71421523D01*
X180943714Y-71231047D01*
X180848476Y-70850095D01*
X180848476Y-70183428D01*
X180943714Y-69802476D01*
X181134190Y-69612000D01*
X181324666Y-69516761D01*
X182943714Y-71421523D02*
X183229428Y-71516761D01*
X183705619Y-71516761D01*
X183896095Y-71421523D01*
X183991333Y-71326285D01*
X184086571Y-71135809D01*
X184086571Y-70945333D01*
X183991333Y-70754857D01*
X183896095Y-70659619D01*
X183705619Y-70564380D01*
X183324666Y-70469142D01*
X183134190Y-70373904D01*
X183038952Y-70278666D01*
X182943714Y-70088190D01*
X182943714Y-69897714D01*
X183038952Y-69707238D01*
X183134190Y-69612000D01*
X183324666Y-69516761D01*
X183800857Y-69516761D01*
X184086571Y-69612000D01*
X184943714Y-71516761D02*
X184943714Y-69516761D01*
X184943714Y-70469142D02*
X186086571Y-70469142D01*
X186086571Y-71516761D02*
X186086571Y-69516761D01*
X186848476Y-69516761D02*
X187324666Y-71516761D01*
X187705619Y-70088190D01*
X188086571Y-71516761D01*
X188562761Y-69516761D01*
X148385428Y-153078571D02*
X148385428Y-152078571D01*
X148385428Y-151578571D02*
X148314000Y-151650000D01*
X148385428Y-151721428D01*
X148456857Y-151650000D01*
X148385428Y-151578571D01*
X148385428Y-151721428D01*
X149956857Y-152935714D02*
X149885428Y-153007142D01*
X149671142Y-153078571D01*
X149528285Y-153078571D01*
X149314000Y-153007142D01*
X149171142Y-152864285D01*
X149099714Y-152721428D01*
X149028285Y-152435714D01*
X149028285Y-152221428D01*
X149099714Y-151935714D01*
X149171142Y-151792857D01*
X149314000Y-151650000D01*
X149528285Y-151578571D01*
X149671142Y-151578571D01*
X149885428Y-151650000D01*
X149956857Y-151721428D01*
X150814000Y-152221428D02*
X150671142Y-152150000D01*
X150599714Y-152078571D01*
X150528285Y-151935714D01*
X150528285Y-151864285D01*
X150599714Y-151721428D01*
X150671142Y-151650000D01*
X150814000Y-151578571D01*
X151099714Y-151578571D01*
X151242571Y-151650000D01*
X151314000Y-151721428D01*
X151385428Y-151864285D01*
X151385428Y-151935714D01*
X151314000Y-152078571D01*
X151242571Y-152150000D01*
X151099714Y-152221428D01*
X150814000Y-152221428D01*
X150671142Y-152292857D01*
X150599714Y-152364285D01*
X150528285Y-152507142D01*
X150528285Y-152792857D01*
X150599714Y-152935714D01*
X150671142Y-153007142D01*
X150814000Y-153078571D01*
X151099714Y-153078571D01*
X151242571Y-153007142D01*
X151314000Y-152935714D01*
X151385428Y-152792857D01*
X151385428Y-152507142D01*
X151314000Y-152364285D01*
X151242571Y-152292857D01*
X151099714Y-152221428D01*
X152242571Y-152221428D02*
X152099714Y-152150000D01*
X152028285Y-152078571D01*
X151956857Y-151935714D01*
X151956857Y-151864285D01*
X152028285Y-151721428D01*
X152099714Y-151650000D01*
X152242571Y-151578571D01*
X152528285Y-151578571D01*
X152671142Y-151650000D01*
X152742571Y-151721428D01*
X152814000Y-151864285D01*
X152814000Y-151935714D01*
X152742571Y-152078571D01*
X152671142Y-152150000D01*
X152528285Y-152221428D01*
X152242571Y-152221428D01*
X152099714Y-152292857D01*
X152028285Y-152364285D01*
X151956857Y-152507142D01*
X151956857Y-152792857D01*
X152028285Y-152935714D01*
X152099714Y-153007142D01*
X152242571Y-153078571D01*
X152528285Y-153078571D01*
X152671142Y-153007142D01*
X152742571Y-152935714D01*
X152814000Y-152792857D01*
X152814000Y-152507142D01*
X152742571Y-152364285D01*
X152671142Y-152292857D01*
X152528285Y-152221428D01*
X153742571Y-151578571D02*
X153885428Y-151578571D01*
X154028285Y-151650000D01*
X154099714Y-151721428D01*
X154171142Y-151864285D01*
X154242571Y-152150000D01*
X154242571Y-152507142D01*
X154171142Y-152792857D01*
X154099714Y-152935714D01*
X154028285Y-153007142D01*
X153885428Y-153078571D01*
X153742571Y-153078571D01*
X153599714Y-153007142D01*
X153528285Y-152935714D01*
X153456857Y-152792857D01*
X153385428Y-152507142D01*
X153385428Y-152150000D01*
X153456857Y-151864285D01*
X153528285Y-151721428D01*
X153599714Y-151650000D01*
X153742571Y-151578571D01*
X154814000Y-152650000D02*
X155528285Y-152650000D01*
X154671142Y-153078571D02*
X155171142Y-151578571D01*
X155671142Y-153078571D01*
X157814000Y-152292857D02*
X158028285Y-152364285D01*
X158099714Y-152435714D01*
X158171142Y-152578571D01*
X158171142Y-152792857D01*
X158099714Y-152935714D01*
X158028285Y-153007142D01*
X157885428Y-153078571D01*
X157314000Y-153078571D01*
X157314000Y-151578571D01*
X157814000Y-151578571D01*
X157956857Y-151650000D01*
X158028285Y-151721428D01*
X158099714Y-151864285D01*
X158099714Y-152007142D01*
X158028285Y-152150000D01*
X157956857Y-152221428D01*
X157814000Y-152292857D01*
X157314000Y-152292857D01*
X159456857Y-153078571D02*
X159456857Y-152292857D01*
X159385428Y-152150000D01*
X159242571Y-152078571D01*
X158956857Y-152078571D01*
X158814000Y-152150000D01*
X159456857Y-153007142D02*
X159314000Y-153078571D01*
X158956857Y-153078571D01*
X158814000Y-153007142D01*
X158742571Y-152864285D01*
X158742571Y-152721428D01*
X158814000Y-152578571D01*
X158956857Y-152507142D01*
X159314000Y-152507142D01*
X159456857Y-152435714D01*
X160814000Y-153007142D02*
X160671142Y-153078571D01*
X160385428Y-153078571D01*
X160242571Y-153007142D01*
X160171142Y-152935714D01*
X160099714Y-152792857D01*
X160099714Y-152364285D01*
X160171142Y-152221428D01*
X160242571Y-152150000D01*
X160385428Y-152078571D01*
X160671142Y-152078571D01*
X160814000Y-152150000D01*
X161456857Y-153078571D02*
X161456857Y-151578571D01*
X161599714Y-152507142D02*
X162028285Y-153078571D01*
X162028285Y-152078571D02*
X161456857Y-152650000D01*
X162671142Y-152078571D02*
X162671142Y-153578571D01*
X162671142Y-152150000D02*
X162814000Y-152078571D01*
X163099714Y-152078571D01*
X163242571Y-152150000D01*
X163314000Y-152221428D01*
X163385428Y-152364285D01*
X163385428Y-152792857D01*
X163314000Y-152935714D01*
X163242571Y-153007142D01*
X163099714Y-153078571D01*
X162814000Y-153078571D01*
X162671142Y-153007142D01*
X164242571Y-153078571D02*
X164099714Y-153007142D01*
X164028285Y-152864285D01*
X164028285Y-151578571D01*
X165456857Y-153078571D02*
X165456857Y-152292857D01*
X165385428Y-152150000D01*
X165242571Y-152078571D01*
X164956857Y-152078571D01*
X164814000Y-152150000D01*
X165456857Y-153007142D02*
X165314000Y-153078571D01*
X164956857Y-153078571D01*
X164814000Y-153007142D01*
X164742571Y-152864285D01*
X164742571Y-152721428D01*
X164814000Y-152578571D01*
X164956857Y-152507142D01*
X165314000Y-152507142D01*
X165456857Y-152435714D01*
X166171142Y-152078571D02*
X166171142Y-153078571D01*
X166171142Y-152221428D02*
X166242571Y-152150000D01*
X166385428Y-152078571D01*
X166599714Y-152078571D01*
X166742571Y-152150000D01*
X166814000Y-152292857D01*
X166814000Y-153078571D01*
X168099714Y-153007142D02*
X167956857Y-153078571D01*
X167671142Y-153078571D01*
X167528285Y-153007142D01*
X167456857Y-152864285D01*
X167456857Y-152292857D01*
X167528285Y-152150000D01*
X167671142Y-152078571D01*
X167956857Y-152078571D01*
X168099714Y-152150000D01*
X168171142Y-152292857D01*
X168171142Y-152435714D01*
X167456857Y-152578571D01*
X169814000Y-152078571D02*
X170171142Y-153078571D01*
X170528285Y-152078571D01*
X171028285Y-151721428D02*
X171099714Y-151650000D01*
X171242571Y-151578571D01*
X171599714Y-151578571D01*
X171742571Y-151650000D01*
X171814000Y-151721428D01*
X171885428Y-151864285D01*
X171885428Y-152007142D01*
X171814000Y-152221428D01*
X170956857Y-153078571D01*
X171885428Y-153078571D01*
X172528285Y-152935714D02*
X172599714Y-153007142D01*
X172528285Y-153078571D01*
X172456857Y-153007142D01*
X172528285Y-152935714D01*
X172528285Y-153078571D01*
X174028285Y-153078571D02*
X173171142Y-153078571D01*
X173599714Y-153078571D02*
X173599714Y-151578571D01*
X173456857Y-151792857D01*
X173314000Y-151935714D01*
X173171142Y-152007142D01*
X174671142Y-152507142D02*
X175814000Y-152507142D01*
X176456857Y-151721428D02*
X176528285Y-151650000D01*
X176671142Y-151578571D01*
X177028285Y-151578571D01*
X177171142Y-151650000D01*
X177242571Y-151721428D01*
X177314000Y-151864285D01*
X177314000Y-152007142D01*
X177242571Y-152221428D01*
X176385428Y-153078571D01*
X177314000Y-153078571D01*
D10*
X123084000Y-76670000D02*
X202884000Y-76670000D01*
D11*
X202884000Y-76670000D02*
X202884000Y-143970000D01*
D10*
X202884000Y-143970000D02*
X123084000Y-143970000D01*
X123084000Y-143970000D02*
X123084000Y-76670000D01*
D13*
X202270000Y-124852000D02*
X202270000Y-123052000D01*
X199050000Y-123052000D02*
X199050000Y-125502000D01*
D12*
X199760000Y-126365000D02*
G75*
G03X199760000Y-126365000I-50000J0D01*
G01*
X196699000Y-108549000D02*
G75*
G03X196699000Y-108549000I-50000J0D01*
G01*
D11*
X197249000Y-111300000D02*
X197249000Y-109100000D01*
X195049000Y-109100000D02*
X195049000Y-111300000D01*
X195996000Y-119394000D02*
X197196000Y-119394000D01*
X197196000Y-121144000D02*
X195996000Y-121144000D01*
X186631000Y-107267000D02*
X186631000Y-105267000D01*
X188781000Y-105267000D02*
X188781000Y-107267000D01*
X182059000Y-107267000D02*
X182059000Y-105267000D01*
X184209000Y-105267000D02*
X184209000Y-107267000D01*
D13*
X144153000Y-103431000D02*
X140553000Y-103431000D01*
X140553000Y-106881000D02*
X144153000Y-106881000D01*
X120308000Y-131150000D02*
X122008000Y-131150000D01*
X122008000Y-131100000D02*
X122008000Y-127050000D01*
X120308000Y-131100000D02*
X120308000Y-127050000D01*
X120308000Y-123404000D02*
X122008000Y-123404000D01*
X122008000Y-123354000D02*
X122008000Y-119304000D01*
X120308000Y-123354000D02*
X120308000Y-119304000D01*
X120308000Y-115656000D02*
X122008000Y-115656000D01*
X122008000Y-115606000D02*
X122008000Y-111556000D01*
X120308000Y-115606000D02*
X120308000Y-111556000D01*
X198759000Y-109200000D02*
X198759000Y-111200000D01*
X200809000Y-111200000D02*
X200809000Y-109200000D01*
D11*
X116067840Y-84229080D02*
X116067840Y-78630920D01*
X115570000Y-78829040D02*
X116067840Y-78829040D01*
X116067840Y-84030960D02*
X115570000Y-84030960D01*
X115570000Y-81430000D02*
X116067840Y-81430000D01*
X121368820Y-78630920D02*
X121368820Y-84229080D01*
X115570000Y-78630920D02*
X115570000Y-84229080D01*
X115570000Y-84229080D02*
X121767600Y-84229080D01*
X121767600Y-84229080D02*
X121767600Y-78630920D01*
X121767600Y-78630920D02*
X115570000Y-78630920D01*
X116067840Y-94031280D02*
X116067840Y-88433120D01*
X115570000Y-88631240D02*
X116067840Y-88631240D01*
X116067840Y-93833160D02*
X115570000Y-93833160D01*
X115570000Y-91232200D02*
X116067840Y-91232200D01*
X121368820Y-88433120D02*
X121368820Y-94031280D01*
X115570000Y-88433120D02*
X115570000Y-94031280D01*
X115570000Y-94031280D02*
X121767600Y-94031280D01*
X121767600Y-94031280D02*
X121767600Y-88433120D01*
X121767600Y-88433120D02*
X115570000Y-88433120D01*
D13*
X198383000Y-128000000D02*
X198383000Y-126000000D01*
X196333000Y-126000000D02*
X196333000Y-128000000D01*
X143312000Y-109603000D02*
X142382000Y-109603000D01*
X140152000Y-109603000D02*
X141082000Y-109603000D01*
X140152000Y-109603000D02*
X140152000Y-111763000D01*
X143312000Y-109603000D02*
X143312000Y-111063000D01*
D11*
X137144000Y-112454000D02*
X135144000Y-112454000D01*
X135144000Y-110304000D02*
X137144000Y-110304000D01*
X192981000Y-82788000D02*
X192981000Y-80788000D01*
X195131000Y-80788000D02*
X195131000Y-82788000D01*
D13*
X189603500Y-83060000D02*
X188673500Y-83060000D01*
X186443500Y-83060000D02*
X187373500Y-83060000D01*
X186443500Y-83060000D02*
X186443500Y-85220000D01*
X189603500Y-83060000D02*
X189603500Y-84520000D01*
D11*
X200060000Y-129300000D02*
X201260000Y-129300000D01*
X201260000Y-131050000D02*
X200060000Y-131050000D01*
X195439000Y-126948640D02*
X195439000Y-128148640D01*
X193689000Y-128148640D02*
X193689000Y-126948640D01*
D14*
X141919960Y-98549460D02*
X141919960Y-101249480D01*
X141615160Y-98602800D02*
X141615160Y-101252020D01*
X141488160Y-98549460D02*
X141488160Y-101297740D01*
X144627600Y-98549460D02*
X140025120Y-98549460D01*
X140025120Y-101348540D02*
X144627600Y-101348540D01*
X141122400Y-116842540D02*
X141122400Y-114142520D01*
X141427200Y-116789200D02*
X141427200Y-114139980D01*
X141554200Y-116842540D02*
X141554200Y-114094260D01*
X138414760Y-116842540D02*
X143017240Y-116842540D01*
X143017240Y-114043460D02*
X138414760Y-114043460D01*
X195986400Y-91569540D02*
X195986400Y-88869520D01*
X196291200Y-91516200D02*
X196291200Y-88866980D01*
X196418200Y-91569540D02*
X196418200Y-88821260D01*
X193278760Y-91569540D02*
X197881240Y-91569540D01*
X197881240Y-88770460D02*
X193278760Y-88770460D01*
D13*
X129084000Y-150166000D02*
X128884000Y-150166000D01*
X122884000Y-150166000D02*
X123084000Y-150166000D01*
X122884000Y-143966000D02*
X123084000Y-143966000D01*
X129084000Y-143966000D02*
X128884000Y-143966000D01*
X127184000Y-143966000D02*
X124784000Y-143966000D01*
X127184000Y-150166000D02*
X124784000Y-150166000D01*
X129084000Y-150166000D02*
X129084000Y-143966000D01*
X122884000Y-143966000D02*
X122884000Y-150166000D01*
D11*
X128075000Y-127450000D02*
X128075000Y-129450000D01*
X125925000Y-129450000D02*
X125925000Y-127450000D01*
X128075000Y-119724000D02*
X128075000Y-121724000D01*
X125925000Y-121724000D02*
X125925000Y-119724000D01*
X128075000Y-111956000D02*
X128075000Y-113956000D01*
X125925000Y-113956000D02*
X125925000Y-111956000D01*
D13*
X185674000Y-144025000D02*
X137294000Y-144025000D01*
X137294000Y-144025000D02*
X137294000Y-149345000D01*
X137294000Y-149345000D02*
X188334000Y-149345000D01*
X188334000Y-149345000D02*
X188334000Y-146685000D01*
X188334000Y-146685000D02*
X185674000Y-146685000D01*
X185674000Y-146685000D02*
X185674000Y-144025000D01*
X186944000Y-144025000D02*
X188334000Y-144025000D01*
X188334000Y-144025000D02*
X188334000Y-145415000D01*
D10*
X203962000Y-147701000D02*
X203962000Y-142621000D01*
X206502000Y-147701000D02*
X203962000Y-147701000D01*
X206502000Y-142621000D02*
X206502000Y-147701000D01*
X203962000Y-142621000D02*
X206502000Y-142621000D01*
X203962000Y-137795000D02*
X203962000Y-125095000D01*
X206502000Y-137795000D02*
X203962000Y-137795000D01*
X206502000Y-125095000D02*
X206502000Y-137795000D01*
X203962000Y-125095000D02*
X206502000Y-125095000D01*
X203962000Y-100914200D02*
X203962000Y-88214200D01*
X206502000Y-100914200D02*
X203962000Y-100914200D01*
X206502000Y-88214200D02*
X206502000Y-100914200D01*
X203962000Y-88214200D02*
X206502000Y-88214200D01*
X203962000Y-83820000D02*
X203962000Y-78740000D01*
X206502000Y-83820000D02*
X203962000Y-83820000D01*
X206502000Y-78740000D02*
X206502000Y-83820000D01*
X203962000Y-78740000D02*
X206502000Y-78740000D01*
D11*
X160298000Y-82327000D02*
X160298000Y-97727000D01*
X139898000Y-82327000D02*
X139898000Y-97727000D01*
X139898000Y-82327000D02*
X160298000Y-82327000D01*
X139898000Y-97727000D02*
X160298000Y-97727000D01*
D13*
X204322000Y-106266064D02*
X204322000Y-105061936D01*
X206142000Y-106266064D02*
X206142000Y-105061936D01*
X203902000Y-120710000D02*
X206562000Y-120710000D01*
X203902000Y-113030000D02*
X203902000Y-120710000D01*
X206562000Y-113030000D02*
X206562000Y-120710000D01*
X203902000Y-113030000D02*
X206562000Y-113030000D01*
X203902000Y-111760000D02*
X203902000Y-110430000D01*
X203902000Y-110430000D02*
X205232000Y-110430000D01*
D11*
X162222095Y-145332380D02*
X162222095Y-146141904D01*
X162269714Y-146237142D01*
X162317333Y-146284761D01*
X162412571Y-146332380D01*
X162603047Y-146332380D01*
X162698285Y-146284761D01*
X162745904Y-146237142D01*
X162793523Y-146141904D01*
X162793523Y-145332380D01*
X163222095Y-145427619D02*
X163269714Y-145380000D01*
X163364952Y-145332380D01*
X163603047Y-145332380D01*
X163698285Y-145380000D01*
X163745904Y-145427619D01*
X163793523Y-145522857D01*
X163793523Y-145618095D01*
X163745904Y-145760952D01*
X163174476Y-146332380D01*
X163793523Y-146332380D01*
X199898095Y-120737380D02*
X199898095Y-121546904D01*
X199945714Y-121642142D01*
X199993333Y-121689761D01*
X200088571Y-121737380D01*
X200279047Y-121737380D01*
X200374285Y-121689761D01*
X200421904Y-121642142D01*
X200469523Y-121546904D01*
X200469523Y-120737380D01*
X201421904Y-120737380D02*
X200945714Y-120737380D01*
X200898095Y-121213571D01*
X200945714Y-121165952D01*
X201040952Y-121118333D01*
X201279047Y-121118333D01*
X201374285Y-121165952D01*
X201421904Y-121213571D01*
X201469523Y-121308809D01*
X201469523Y-121546904D01*
X201421904Y-121642142D01*
X201374285Y-121689761D01*
X201279047Y-121737380D01*
X201040952Y-121737380D01*
X200945714Y-121689761D01*
X200898095Y-121642142D01*
X195141904Y-108305523D02*
X195789523Y-108305523D01*
X195865714Y-108267428D01*
X195903809Y-108229333D01*
X195941904Y-108153142D01*
X195941904Y-108000761D01*
X195903809Y-107924571D01*
X195865714Y-107886476D01*
X195789523Y-107848380D01*
X195141904Y-107848380D01*
X195141904Y-107124571D02*
X195141904Y-107276952D01*
X195180000Y-107353142D01*
X195218095Y-107391238D01*
X195332380Y-107467428D01*
X195484761Y-107505523D01*
X195789523Y-107505523D01*
X195865714Y-107467428D01*
X195903809Y-107429333D01*
X195941904Y-107353142D01*
X195941904Y-107200761D01*
X195903809Y-107124571D01*
X195865714Y-107086476D01*
X195789523Y-107048380D01*
X195599047Y-107048380D01*
X195522857Y-107086476D01*
X195484761Y-107124571D01*
X195446666Y-107200761D01*
X195446666Y-107353142D01*
X195484761Y-107429333D01*
X195522857Y-107467428D01*
X195599047Y-107505523D01*
X194379809Y-111969333D02*
X194417904Y-111855047D01*
X194417904Y-111664571D01*
X194379809Y-111588380D01*
X194341714Y-111550285D01*
X194265523Y-111512190D01*
X194189333Y-111512190D01*
X194113142Y-111550285D01*
X194075047Y-111588380D01*
X194036952Y-111664571D01*
X193998857Y-111816952D01*
X193960761Y-111893142D01*
X193922666Y-111931238D01*
X193846476Y-111969333D01*
X193770285Y-111969333D01*
X193694095Y-111931238D01*
X193656000Y-111893142D01*
X193617904Y-111816952D01*
X193617904Y-111626476D01*
X193656000Y-111512190D01*
X194417904Y-111169333D02*
X193617904Y-111169333D01*
X193998857Y-111169333D02*
X193998857Y-110712190D01*
X194417904Y-110712190D02*
X193617904Y-110712190D01*
X193617904Y-110445523D02*
X193617904Y-109988380D01*
X194417904Y-110216952D02*
X193617904Y-110216952D01*
X194341714Y-109264571D02*
X194379809Y-109302666D01*
X194417904Y-109416952D01*
X194417904Y-109493142D01*
X194379809Y-109607428D01*
X194303619Y-109683619D01*
X194227428Y-109721714D01*
X194075047Y-109759809D01*
X193960761Y-109759809D01*
X193808380Y-109721714D01*
X193732190Y-109683619D01*
X193656000Y-109607428D01*
X193617904Y-109493142D01*
X193617904Y-109416952D01*
X193656000Y-109302666D01*
X193694095Y-109264571D01*
X193617904Y-108997904D02*
X193617904Y-108502666D01*
X193922666Y-108769333D01*
X193922666Y-108655047D01*
X193960761Y-108578857D01*
X193998857Y-108540761D01*
X194075047Y-108502666D01*
X194265523Y-108502666D01*
X194341714Y-108540761D01*
X194379809Y-108578857D01*
X194417904Y-108655047D01*
X194417904Y-108883619D01*
X194379809Y-108959809D01*
X194341714Y-108997904D01*
X195953142Y-118943380D02*
X195619809Y-118467190D01*
X195381714Y-118943380D02*
X195381714Y-117943380D01*
X195762666Y-117943380D01*
X195857904Y-117991000D01*
X195905523Y-118038619D01*
X195953142Y-118133857D01*
X195953142Y-118276714D01*
X195905523Y-118371952D01*
X195857904Y-118419571D01*
X195762666Y-118467190D01*
X195381714Y-118467190D01*
X196905523Y-118943380D02*
X196334095Y-118943380D01*
X196619809Y-118943380D02*
X196619809Y-117943380D01*
X196524571Y-118086238D01*
X196429333Y-118181476D01*
X196334095Y-118229095D01*
X197286476Y-118038619D02*
X197334095Y-117991000D01*
X197429333Y-117943380D01*
X197667428Y-117943380D01*
X197762666Y-117991000D01*
X197810285Y-118038619D01*
X197857904Y-118133857D01*
X197857904Y-118229095D01*
X197810285Y-118371952D01*
X197238857Y-118943380D01*
X197857904Y-118943380D01*
X186126380Y-106433666D02*
X185650190Y-106767000D01*
X186126380Y-107005095D02*
X185126380Y-107005095D01*
X185126380Y-106624142D01*
X185174000Y-106528904D01*
X185221619Y-106481285D01*
X185316857Y-106433666D01*
X185459714Y-106433666D01*
X185554952Y-106481285D01*
X185602571Y-106528904D01*
X185650190Y-106624142D01*
X185650190Y-107005095D01*
X185126380Y-105528904D02*
X185126380Y-106005095D01*
X185602571Y-106052714D01*
X185554952Y-106005095D01*
X185507333Y-105909857D01*
X185507333Y-105671761D01*
X185554952Y-105576523D01*
X185602571Y-105528904D01*
X185697809Y-105481285D01*
X185935904Y-105481285D01*
X186031142Y-105528904D01*
X186078761Y-105576523D01*
X186126380Y-105671761D01*
X186126380Y-105909857D01*
X186078761Y-106005095D01*
X186031142Y-106052714D01*
X181554380Y-106433666D02*
X181078190Y-106767000D01*
X181554380Y-107005095D02*
X180554380Y-107005095D01*
X180554380Y-106624142D01*
X180602000Y-106528904D01*
X180649619Y-106481285D01*
X180744857Y-106433666D01*
X180887714Y-106433666D01*
X180982952Y-106481285D01*
X181030571Y-106528904D01*
X181078190Y-106624142D01*
X181078190Y-107005095D01*
X180887714Y-105576523D02*
X181554380Y-105576523D01*
X180506761Y-105814619D02*
X181221047Y-106052714D01*
X181221047Y-105433666D01*
X142033666Y-102290571D02*
X141700333Y-102290571D01*
X141700333Y-102814380D02*
X141700333Y-101814380D01*
X142176523Y-101814380D01*
X143081285Y-102814380D02*
X142509857Y-102814380D01*
X142795571Y-102814380D02*
X142795571Y-101814380D01*
X142700333Y-101957238D01*
X142605095Y-102052476D01*
X142509857Y-102100095D01*
X119578380Y-131026095D02*
X118578380Y-131026095D01*
X118578380Y-130788000D01*
X118626000Y-130645142D01*
X118721238Y-130549904D01*
X118816476Y-130502285D01*
X119006952Y-130454666D01*
X119149809Y-130454666D01*
X119340285Y-130502285D01*
X119435523Y-130549904D01*
X119530761Y-130645142D01*
X119578380Y-130788000D01*
X119578380Y-131026095D01*
X119578380Y-129502285D02*
X119578380Y-130073714D01*
X119578380Y-129788000D02*
X118578380Y-129788000D01*
X118721238Y-129883238D01*
X118816476Y-129978476D01*
X118864095Y-130073714D01*
X119578380Y-123229595D02*
X118578380Y-123229595D01*
X118578380Y-122991500D01*
X118626000Y-122848642D01*
X118721238Y-122753404D01*
X118816476Y-122705785D01*
X119006952Y-122658166D01*
X119149809Y-122658166D01*
X119340285Y-122705785D01*
X119435523Y-122753404D01*
X119530761Y-122848642D01*
X119578380Y-122991500D01*
X119578380Y-123229595D01*
X118673619Y-122277214D02*
X118626000Y-122229595D01*
X118578380Y-122134357D01*
X118578380Y-121896261D01*
X118626000Y-121801023D01*
X118673619Y-121753404D01*
X118768857Y-121705785D01*
X118864095Y-121705785D01*
X119006952Y-121753404D01*
X119578380Y-122324833D01*
X119578380Y-121705785D01*
X119578380Y-115494595D02*
X118578380Y-115494595D01*
X118578380Y-115256500D01*
X118626000Y-115113642D01*
X118721238Y-115018404D01*
X118816476Y-114970785D01*
X119006952Y-114923166D01*
X119149809Y-114923166D01*
X119340285Y-114970785D01*
X119435523Y-115018404D01*
X119530761Y-115113642D01*
X119578380Y-115256500D01*
X119578380Y-115494595D01*
X118578380Y-114589833D02*
X118578380Y-113970785D01*
X118959333Y-114304119D01*
X118959333Y-114161261D01*
X119006952Y-114066023D01*
X119054571Y-114018404D01*
X119149809Y-113970785D01*
X119387904Y-113970785D01*
X119483142Y-114018404D01*
X119530761Y-114066023D01*
X119578380Y-114161261D01*
X119578380Y-114446976D01*
X119530761Y-114542214D01*
X119483142Y-114589833D01*
X201961714Y-110369333D02*
X201999809Y-110407428D01*
X202037904Y-110521714D01*
X202037904Y-110597904D01*
X201999809Y-110712190D01*
X201923619Y-110788380D01*
X201847428Y-110826476D01*
X201695047Y-110864571D01*
X201580761Y-110864571D01*
X201428380Y-110826476D01*
X201352190Y-110788380D01*
X201276000Y-110712190D01*
X201237904Y-110597904D01*
X201237904Y-110521714D01*
X201276000Y-110407428D01*
X201314095Y-110369333D01*
X202037904Y-109607428D02*
X202037904Y-110064571D01*
X202037904Y-109836000D02*
X201237904Y-109836000D01*
X201352190Y-109912190D01*
X201428380Y-109988380D01*
X201466476Y-110064571D01*
X197191333Y-124309142D02*
X197143714Y-124356761D01*
X197000857Y-124404380D01*
X196905619Y-124404380D01*
X196762761Y-124356761D01*
X196667523Y-124261523D01*
X196619904Y-124166285D01*
X196572285Y-123975809D01*
X196572285Y-123832952D01*
X196619904Y-123642476D01*
X196667523Y-123547238D01*
X196762761Y-123452000D01*
X196905619Y-123404380D01*
X197000857Y-123404380D01*
X197143714Y-123452000D01*
X197191333Y-123499619D01*
X197524666Y-123404380D02*
X198143714Y-123404380D01*
X197810380Y-123785333D01*
X197953238Y-123785333D01*
X198048476Y-123832952D01*
X198096095Y-123880571D01*
X198143714Y-123975809D01*
X198143714Y-124213904D01*
X198096095Y-124309142D01*
X198048476Y-124356761D01*
X197953238Y-124404380D01*
X197667523Y-124404380D01*
X197572285Y-124356761D01*
X197524666Y-124309142D01*
X143922761Y-109132619D02*
X143827523Y-109085000D01*
X143732285Y-108989761D01*
X143589428Y-108846904D01*
X143494190Y-108799285D01*
X143398952Y-108799285D01*
X143446571Y-109037380D02*
X143351333Y-108989761D01*
X143256095Y-108894523D01*
X143208476Y-108704047D01*
X143208476Y-108370714D01*
X143256095Y-108180238D01*
X143351333Y-108085000D01*
X143446571Y-108037380D01*
X143637047Y-108037380D01*
X143732285Y-108085000D01*
X143827523Y-108180238D01*
X143875142Y-108370714D01*
X143875142Y-108704047D01*
X143827523Y-108894523D01*
X143732285Y-108989761D01*
X143637047Y-109037380D01*
X143446571Y-109037380D01*
X144779904Y-108037380D02*
X144303714Y-108037380D01*
X144256095Y-108513571D01*
X144303714Y-108465952D01*
X144398952Y-108418333D01*
X144637047Y-108418333D01*
X144732285Y-108465952D01*
X144779904Y-108513571D01*
X144827523Y-108608809D01*
X144827523Y-108846904D01*
X144779904Y-108942142D01*
X144732285Y-108989761D01*
X144637047Y-109037380D01*
X144398952Y-109037380D01*
X144303714Y-108989761D01*
X144256095Y-108942142D01*
X135501142Y-109799380D02*
X135167809Y-109323190D01*
X134929714Y-109799380D02*
X134929714Y-108799380D01*
X135310666Y-108799380D01*
X135405904Y-108847000D01*
X135453523Y-108894619D01*
X135501142Y-108989857D01*
X135501142Y-109132714D01*
X135453523Y-109227952D01*
X135405904Y-109275571D01*
X135310666Y-109323190D01*
X134929714Y-109323190D01*
X136453523Y-109799380D02*
X135882095Y-109799380D01*
X136167809Y-109799380D02*
X136167809Y-108799380D01*
X136072571Y-108942238D01*
X135977333Y-109037476D01*
X135882095Y-109085095D01*
X136786857Y-108799380D02*
X137405904Y-108799380D01*
X137072571Y-109180333D01*
X137215428Y-109180333D01*
X137310666Y-109227952D01*
X137358285Y-109275571D01*
X137405904Y-109370809D01*
X137405904Y-109608904D01*
X137358285Y-109704142D01*
X137310666Y-109751761D01*
X137215428Y-109799380D01*
X136929714Y-109799380D01*
X136834476Y-109751761D01*
X136786857Y-109704142D01*
X196794380Y-81954666D02*
X196318190Y-82288000D01*
X196794380Y-82526095D02*
X195794380Y-82526095D01*
X195794380Y-82145142D01*
X195842000Y-82049904D01*
X195889619Y-82002285D01*
X195984857Y-81954666D01*
X196127714Y-81954666D01*
X196222952Y-82002285D01*
X196270571Y-82049904D01*
X196318190Y-82145142D01*
X196318190Y-82526095D01*
X196794380Y-81478476D02*
X196794380Y-81288000D01*
X196746761Y-81192761D01*
X196699142Y-81145142D01*
X196556285Y-81049904D01*
X196365809Y-81002285D01*
X195984857Y-81002285D01*
X195889619Y-81049904D01*
X195842000Y-81097523D01*
X195794380Y-81192761D01*
X195794380Y-81383238D01*
X195842000Y-81478476D01*
X195889619Y-81526095D01*
X195984857Y-81573714D01*
X196222952Y-81573714D01*
X196318190Y-81526095D01*
X196365809Y-81478476D01*
X196413428Y-81383238D01*
X196413428Y-81192761D01*
X196365809Y-81097523D01*
X196318190Y-81049904D01*
X196222952Y-81002285D01*
X185713619Y-84296238D02*
X185666000Y-84391476D01*
X185570761Y-84486714D01*
X185427904Y-84629571D01*
X185380285Y-84724809D01*
X185380285Y-84820047D01*
X185618380Y-84772428D02*
X185570761Y-84867666D01*
X185475523Y-84962904D01*
X185285047Y-85010523D01*
X184951714Y-85010523D01*
X184761238Y-84962904D01*
X184666000Y-84867666D01*
X184618380Y-84772428D01*
X184618380Y-84581952D01*
X184666000Y-84486714D01*
X184761238Y-84391476D01*
X184951714Y-84343857D01*
X185285047Y-84343857D01*
X185475523Y-84391476D01*
X185570761Y-84486714D01*
X185618380Y-84581952D01*
X185618380Y-84772428D01*
X184951714Y-83486714D02*
X185618380Y-83486714D01*
X184570761Y-83724809D02*
X185285047Y-83962904D01*
X185285047Y-83343857D01*
X200017142Y-132532380D02*
X199683809Y-132056190D01*
X199445714Y-132532380D02*
X199445714Y-131532380D01*
X199826666Y-131532380D01*
X199921904Y-131580000D01*
X199969523Y-131627619D01*
X200017142Y-131722857D01*
X200017142Y-131865714D01*
X199969523Y-131960952D01*
X199921904Y-132008571D01*
X199826666Y-132056190D01*
X199445714Y-132056190D01*
X200969523Y-132532380D02*
X200398095Y-132532380D01*
X200683809Y-132532380D02*
X200683809Y-131532380D01*
X200588571Y-131675238D01*
X200493333Y-131770476D01*
X200398095Y-131818095D01*
X201588571Y-131532380D02*
X201683809Y-131532380D01*
X201779047Y-131580000D01*
X201826666Y-131627619D01*
X201874285Y-131722857D01*
X201921904Y-131913333D01*
X201921904Y-132151428D01*
X201874285Y-132341904D01*
X201826666Y-132437142D01*
X201779047Y-132484761D01*
X201683809Y-132532380D01*
X201588571Y-132532380D01*
X201493333Y-132484761D01*
X201445714Y-132437142D01*
X201398095Y-132341904D01*
X201350476Y-132151428D01*
X201350476Y-131913333D01*
X201398095Y-131722857D01*
X201445714Y-131627619D01*
X201493333Y-131580000D01*
X201588571Y-131532380D01*
X192916380Y-128191497D02*
X192440190Y-128524830D01*
X192916380Y-128762925D02*
X191916380Y-128762925D01*
X191916380Y-128381973D01*
X191964000Y-128286735D01*
X192011619Y-128239116D01*
X192106857Y-128191497D01*
X192249714Y-128191497D01*
X192344952Y-128239116D01*
X192392571Y-128286735D01*
X192440190Y-128381973D01*
X192440190Y-128762925D01*
X192916380Y-127239116D02*
X192916380Y-127810544D01*
X192916380Y-127524830D02*
X191916380Y-127524830D01*
X192059238Y-127620068D01*
X192154476Y-127715306D01*
X192202095Y-127810544D01*
X192916380Y-126286735D02*
X192916380Y-126858163D01*
X192916380Y-126572449D02*
X191916380Y-126572449D01*
X192059238Y-126667687D01*
X192154476Y-126762925D01*
X192202095Y-126858163D01*
X147350740Y-100687095D02*
X146350740Y-100687095D01*
X146350740Y-100449000D01*
X146398360Y-100306142D01*
X146493598Y-100210904D01*
X146588836Y-100163285D01*
X146779312Y-100115666D01*
X146922169Y-100115666D01*
X147112645Y-100163285D01*
X147207883Y-100210904D01*
X147303121Y-100306142D01*
X147350740Y-100449000D01*
X147350740Y-100687095D01*
X146350740Y-99258523D02*
X146350740Y-99449000D01*
X146398360Y-99544238D01*
X146445979Y-99591857D01*
X146588836Y-99687095D01*
X146779312Y-99734714D01*
X147160264Y-99734714D01*
X147255502Y-99687095D01*
X147303121Y-99639476D01*
X147350740Y-99544238D01*
X147350740Y-99353761D01*
X147303121Y-99258523D01*
X147255502Y-99210904D01*
X147160264Y-99163285D01*
X146922169Y-99163285D01*
X146826931Y-99210904D01*
X146779312Y-99258523D01*
X146731693Y-99353761D01*
X146731693Y-99544238D01*
X146779312Y-99639476D01*
X146826931Y-99687095D01*
X146922169Y-99734714D01*
X145676880Y-116253095D02*
X144676880Y-116253095D01*
X144676880Y-116015000D01*
X144724500Y-115872142D01*
X144819738Y-115776904D01*
X144914976Y-115729285D01*
X145105452Y-115681666D01*
X145248309Y-115681666D01*
X145438785Y-115729285D01*
X145534023Y-115776904D01*
X145629261Y-115872142D01*
X145676880Y-116015000D01*
X145676880Y-116253095D01*
X144676880Y-114776904D02*
X144676880Y-115253095D01*
X145153071Y-115300714D01*
X145105452Y-115253095D01*
X145057833Y-115157857D01*
X145057833Y-114919761D01*
X145105452Y-114824523D01*
X145153071Y-114776904D01*
X145248309Y-114729285D01*
X145486404Y-114729285D01*
X145581642Y-114776904D01*
X145629261Y-114824523D01*
X145676880Y-114919761D01*
X145676880Y-115157857D01*
X145629261Y-115253095D01*
X145581642Y-115300714D01*
X200731380Y-90908095D02*
X199731380Y-90908095D01*
X199731380Y-90670000D01*
X199779000Y-90527142D01*
X199874238Y-90431904D01*
X199969476Y-90384285D01*
X200159952Y-90336666D01*
X200302809Y-90336666D01*
X200493285Y-90384285D01*
X200588523Y-90431904D01*
X200683761Y-90527142D01*
X200731380Y-90670000D01*
X200731380Y-90908095D01*
X200064714Y-89479523D02*
X200731380Y-89479523D01*
X199683761Y-89717619D02*
X200398047Y-89955714D01*
X200398047Y-89336666D01*
X130706761Y-148399333D02*
X130754380Y-148256476D01*
X130754380Y-148018380D01*
X130706761Y-147923142D01*
X130659142Y-147875523D01*
X130563904Y-147827904D01*
X130468666Y-147827904D01*
X130373428Y-147875523D01*
X130325809Y-147923142D01*
X130278190Y-148018380D01*
X130230571Y-148208857D01*
X130182952Y-148304095D01*
X130135333Y-148351714D01*
X130040095Y-148399333D01*
X129944857Y-148399333D01*
X129849619Y-148351714D01*
X129802000Y-148304095D01*
X129754380Y-148208857D01*
X129754380Y-147970761D01*
X129802000Y-147827904D01*
X129754380Y-147494571D02*
X130754380Y-147256476D01*
X130040095Y-147066000D01*
X130754380Y-146875523D01*
X129754380Y-146637428D01*
X130754380Y-145732666D02*
X130754380Y-146304095D01*
X130754380Y-146018380D02*
X129754380Y-146018380D01*
X129897238Y-146113619D01*
X129992476Y-146208857D01*
X130040095Y-146304095D01*
X194722904Y-145232380D02*
X194722904Y-144232380D01*
X195103857Y-144232380D01*
X195199095Y-144280000D01*
X195246714Y-144327619D01*
X195294333Y-144422857D01*
X195294333Y-144565714D01*
X195246714Y-144660952D01*
X195199095Y-144708571D01*
X195103857Y-144756190D01*
X194722904Y-144756190D01*
X195722904Y-145232380D02*
X195722904Y-144232380D01*
X196103857Y-144232380D01*
X196199095Y-144280000D01*
X196246714Y-144327619D01*
X196294333Y-144422857D01*
X196294333Y-144565714D01*
X196246714Y-144660952D01*
X196199095Y-144708571D01*
X196103857Y-144756190D01*
X195722904Y-144756190D01*
X196675285Y-145184761D02*
X196818142Y-145232380D01*
X197056238Y-145232380D01*
X197151476Y-145184761D01*
X197199095Y-145137142D01*
X197246714Y-145041904D01*
X197246714Y-144946666D01*
X197199095Y-144851428D01*
X197151476Y-144803809D01*
X197056238Y-144756190D01*
X196865761Y-144708571D01*
X196770523Y-144660952D01*
X196722904Y-144613333D01*
X196675285Y-144518095D01*
X196675285Y-144422857D01*
X196722904Y-144327619D01*
X196770523Y-144280000D01*
X196865761Y-144232380D01*
X197103857Y-144232380D01*
X197246714Y-144280000D01*
X129852380Y-128616666D02*
X129376190Y-128950000D01*
X129852380Y-129188095D02*
X128852380Y-129188095D01*
X128852380Y-128807142D01*
X128900000Y-128711904D01*
X128947619Y-128664285D01*
X129042857Y-128616666D01*
X129185714Y-128616666D01*
X129280952Y-128664285D01*
X129328571Y-128711904D01*
X129376190Y-128807142D01*
X129376190Y-129188095D01*
X129852380Y-127664285D02*
X129852380Y-128235714D01*
X129852380Y-127950000D02*
X128852380Y-127950000D01*
X128995238Y-128045238D01*
X129090476Y-128140476D01*
X129138095Y-128235714D01*
X129852380Y-120886666D02*
X129376190Y-121220000D01*
X129852380Y-121458095D02*
X128852380Y-121458095D01*
X128852380Y-121077142D01*
X128900000Y-120981904D01*
X128947619Y-120934285D01*
X129042857Y-120886666D01*
X129185714Y-120886666D01*
X129280952Y-120934285D01*
X129328571Y-120981904D01*
X129376190Y-121077142D01*
X129376190Y-121458095D01*
X128947619Y-120505714D02*
X128900000Y-120458095D01*
X128852380Y-120362857D01*
X128852380Y-120124761D01*
X128900000Y-120029523D01*
X128947619Y-119981904D01*
X129042857Y-119934285D01*
X129138095Y-119934285D01*
X129280952Y-119981904D01*
X129852380Y-120553333D01*
X129852380Y-119934285D01*
X129852380Y-113116666D02*
X129376190Y-113450000D01*
X129852380Y-113688095D02*
X128852380Y-113688095D01*
X128852380Y-113307142D01*
X128900000Y-113211904D01*
X128947619Y-113164285D01*
X129042857Y-113116666D01*
X129185714Y-113116666D01*
X129280952Y-113164285D01*
X129328571Y-113211904D01*
X129376190Y-113307142D01*
X129376190Y-113688095D01*
X128852380Y-112783333D02*
X128852380Y-112164285D01*
X129233333Y-112497619D01*
X129233333Y-112354761D01*
X129280952Y-112259523D01*
X129328571Y-112211904D01*
X129423809Y-112164285D01*
X129661904Y-112164285D01*
X129757142Y-112211904D01*
X129804761Y-112259523D01*
X129852380Y-112354761D01*
X129852380Y-112640476D01*
X129804761Y-112735714D01*
X129757142Y-112783333D01*
X204898666Y-140930380D02*
X204898666Y-141644666D01*
X204851047Y-141787523D01*
X204755809Y-141882761D01*
X204612952Y-141930380D01*
X204517714Y-141930380D01*
X205279619Y-140930380D02*
X205898666Y-140930380D01*
X205565333Y-141311333D01*
X205708190Y-141311333D01*
X205803428Y-141358952D01*
X205851047Y-141406571D01*
X205898666Y-141501809D01*
X205898666Y-141739904D01*
X205851047Y-141835142D01*
X205803428Y-141882761D01*
X205708190Y-141930380D01*
X205422476Y-141930380D01*
X205327238Y-141882761D01*
X205279619Y-141835142D01*
X203993904Y-149335761D02*
X204136761Y-149383380D01*
X204374857Y-149383380D01*
X204470095Y-149335761D01*
X204517714Y-149288142D01*
X204565333Y-149192904D01*
X204565333Y-149097666D01*
X204517714Y-149002428D01*
X204470095Y-148954809D01*
X204374857Y-148907190D01*
X204184380Y-148859571D01*
X204089142Y-148811952D01*
X204041523Y-148764333D01*
X203993904Y-148669095D01*
X203993904Y-148573857D01*
X204041523Y-148478619D01*
X204089142Y-148431000D01*
X204184380Y-148383380D01*
X204422476Y-148383380D01*
X204565333Y-148431000D01*
X204993904Y-148859571D02*
X205327238Y-148859571D01*
X205470095Y-149383380D02*
X204993904Y-149383380D01*
X204993904Y-148383380D01*
X205470095Y-148383380D01*
X206470095Y-149383380D02*
X206136761Y-148907190D01*
X205898666Y-149383380D02*
X205898666Y-148383380D01*
X206279619Y-148383380D01*
X206374857Y-148431000D01*
X206422476Y-148478619D01*
X206470095Y-148573857D01*
X206470095Y-148716714D01*
X206422476Y-148811952D01*
X206374857Y-148859571D01*
X206279619Y-148907190D01*
X205898666Y-148907190D01*
X204898666Y-123427380D02*
X204898666Y-124141666D01*
X204851047Y-124284523D01*
X204755809Y-124379761D01*
X204612952Y-124427380D01*
X204517714Y-124427380D01*
X205898666Y-124427380D02*
X205327238Y-124427380D01*
X205612952Y-124427380D02*
X205612952Y-123427380D01*
X205517714Y-123570238D01*
X205422476Y-123665476D01*
X205327238Y-123713095D01*
X204255809Y-139367380D02*
X204255809Y-138367380D01*
X204684380Y-138462619D02*
X204732000Y-138415000D01*
X204827238Y-138367380D01*
X205065333Y-138367380D01*
X205160571Y-138415000D01*
X205208190Y-138462619D01*
X205255809Y-138557857D01*
X205255809Y-138653095D01*
X205208190Y-138795952D01*
X204636761Y-139367380D01*
X205255809Y-139367380D01*
X206255809Y-139272142D02*
X206208190Y-139319761D01*
X206065333Y-139367380D01*
X205970095Y-139367380D01*
X205827238Y-139319761D01*
X205732000Y-139224523D01*
X205684380Y-139129285D01*
X205636761Y-138938809D01*
X205636761Y-138795952D01*
X205684380Y-138605476D01*
X205732000Y-138510238D01*
X205827238Y-138415000D01*
X205970095Y-138367380D01*
X206065333Y-138367380D01*
X206208190Y-138415000D01*
X206255809Y-138462619D01*
X204898666Y-86546580D02*
X204898666Y-87260866D01*
X204851047Y-87403723D01*
X204755809Y-87498961D01*
X204612952Y-87546580D01*
X204517714Y-87546580D01*
X205327238Y-86641819D02*
X205374857Y-86594200D01*
X205470095Y-86546580D01*
X205708190Y-86546580D01*
X205803428Y-86594200D01*
X205851047Y-86641819D01*
X205898666Y-86737057D01*
X205898666Y-86832295D01*
X205851047Y-86975152D01*
X205279619Y-87546580D01*
X205898666Y-87546580D01*
X204255809Y-102486580D02*
X204255809Y-101486580D01*
X204684380Y-101581819D02*
X204732000Y-101534200D01*
X204827238Y-101486580D01*
X205065333Y-101486580D01*
X205160571Y-101534200D01*
X205208190Y-101581819D01*
X205255809Y-101677057D01*
X205255809Y-101772295D01*
X205208190Y-101915152D01*
X204636761Y-102486580D01*
X205255809Y-102486580D01*
X206255809Y-102391342D02*
X206208190Y-102438961D01*
X206065333Y-102486580D01*
X205970095Y-102486580D01*
X205827238Y-102438961D01*
X205732000Y-102343723D01*
X205684380Y-102248485D01*
X205636761Y-102058009D01*
X205636761Y-101915152D01*
X205684380Y-101724676D01*
X205732000Y-101629438D01*
X205827238Y-101534200D01*
X205970095Y-101486580D01*
X206065333Y-101486580D01*
X206208190Y-101534200D01*
X206255809Y-101581819D01*
X204926166Y-84415380D02*
X204926166Y-85129666D01*
X204878547Y-85272523D01*
X204783309Y-85367761D01*
X204640452Y-85415380D01*
X204545214Y-85415380D01*
X205830928Y-84415380D02*
X205640452Y-84415380D01*
X205545214Y-84463000D01*
X205497595Y-84510619D01*
X205402357Y-84653476D01*
X205354738Y-84843952D01*
X205354738Y-85224904D01*
X205402357Y-85320142D01*
X205449976Y-85367761D01*
X205545214Y-85415380D01*
X205735690Y-85415380D01*
X205830928Y-85367761D01*
X205878547Y-85320142D01*
X205926166Y-85224904D01*
X205926166Y-84986809D01*
X205878547Y-84891571D01*
X205830928Y-84843952D01*
X205735690Y-84796333D01*
X205545214Y-84796333D01*
X205449976Y-84843952D01*
X205402357Y-84891571D01*
X205354738Y-84986809D01*
X204449976Y-77398571D02*
X204116642Y-77398571D01*
X204116642Y-77922380D02*
X204116642Y-76922380D01*
X204592833Y-76922380D01*
X204926166Y-77636666D02*
X205402357Y-77636666D01*
X204830928Y-77922380D02*
X205164261Y-76922380D01*
X205497595Y-77922380D01*
X205830928Y-77922380D02*
X205830928Y-76922380D01*
X206402357Y-77922380D01*
X206402357Y-76922380D01*
X158480095Y-98369380D02*
X158480095Y-99178904D01*
X158527714Y-99274142D01*
X158575333Y-99321761D01*
X158670571Y-99369380D01*
X158861047Y-99369380D01*
X158956285Y-99321761D01*
X159003904Y-99274142D01*
X159051523Y-99178904D01*
X159051523Y-98369380D01*
X159956285Y-98702714D02*
X159956285Y-99369380D01*
X159718190Y-98321761D02*
X159480095Y-99036047D01*
X160099142Y-99036047D01*
X155686047Y-95178428D02*
X156447952Y-95178428D01*
X156067000Y-95559380D02*
X156067000Y-94797476D01*
X141263619Y-90479380D02*
X141263619Y-89479380D01*
X141739809Y-89812714D02*
X141739809Y-90479380D01*
X141739809Y-89907952D02*
X141787428Y-89860333D01*
X141882666Y-89812714D01*
X142025523Y-89812714D01*
X142120761Y-89860333D01*
X142168380Y-89955571D01*
X142168380Y-90479380D01*
X156884666Y-89479380D02*
X157075142Y-89479380D01*
X157170380Y-89527000D01*
X157265619Y-89622238D01*
X157313238Y-89812714D01*
X157313238Y-90146047D01*
X157265619Y-90336523D01*
X157170380Y-90431761D01*
X157075142Y-90479380D01*
X156884666Y-90479380D01*
X156789428Y-90431761D01*
X156694190Y-90336523D01*
X156646571Y-90146047D01*
X156646571Y-89812714D01*
X156694190Y-89622238D01*
X156789428Y-89527000D01*
X156884666Y-89479380D01*
X158170380Y-89812714D02*
X158170380Y-90479380D01*
X157741809Y-89812714D02*
X157741809Y-90336523D01*
X157789428Y-90431761D01*
X157884666Y-90479380D01*
X158027523Y-90479380D01*
X158122761Y-90431761D01*
X158170380Y-90384142D01*
X158503714Y-89812714D02*
X158884666Y-89812714D01*
X158646571Y-89479380D02*
X158646571Y-90336523D01*
X158694190Y-90431761D01*
X158789428Y-90479380D01*
X158884666Y-90479380D01*
X143748047Y-95178428D02*
X144509952Y-95178428D01*
X144129000Y-95559380D02*
X144129000Y-94797476D01*
X155686047Y-85018428D02*
X156447952Y-85018428D01*
X143748047Y-85018428D02*
X144509952Y-85018428D01*
X203864380Y-105830666D02*
X203388190Y-106164000D01*
X203864380Y-106402095D02*
X202864380Y-106402095D01*
X202864380Y-106021142D01*
X202912000Y-105925904D01*
X202959619Y-105878285D01*
X203054857Y-105830666D01*
X203197714Y-105830666D01*
X203292952Y-105878285D01*
X203340571Y-105925904D01*
X203388190Y-106021142D01*
X203388190Y-106402095D01*
X202864380Y-104973523D02*
X202864380Y-105164000D01*
X202912000Y-105259238D01*
X202959619Y-105306857D01*
X203102476Y-105402095D01*
X203292952Y-105449714D01*
X203673904Y-105449714D01*
X203769142Y-105402095D01*
X203816761Y-105354476D01*
X203864380Y-105259238D01*
X203864380Y-105068761D01*
X203816761Y-104973523D01*
X203769142Y-104925904D01*
X203673904Y-104878285D01*
X203435809Y-104878285D01*
X203340571Y-104925904D01*
X203292952Y-104973523D01*
X203245333Y-105068761D01*
X203245333Y-105259238D01*
X203292952Y-105354476D01*
X203340571Y-105402095D01*
X203435809Y-105449714D01*
X204470095Y-108882380D02*
X204470095Y-109691904D01*
X204517714Y-109787142D01*
X204565333Y-109834761D01*
X204660571Y-109882380D01*
X204851047Y-109882380D01*
X204946285Y-109834761D01*
X204993904Y-109787142D01*
X205041523Y-109691904D01*
X205041523Y-108882380D01*
X205422476Y-108882380D02*
X206041523Y-108882380D01*
X205708190Y-109263333D01*
X205851047Y-109263333D01*
X205946285Y-109310952D01*
X205993904Y-109358571D01*
X206041523Y-109453809D01*
X206041523Y-109691904D01*
X205993904Y-109787142D01*
X205946285Y-109834761D01*
X205851047Y-109882380D01*
X205565333Y-109882380D01*
X205470095Y-109834761D01*
X205422476Y-109787142D01*
M02*
