M48
; DRILL file {KiCad 5.1.4-3.fc30} date St 16. října 2019, 23:50:48 CEST
; FORMAT={-:-/ absolute / metric / decimal}
; #@! TF.CreationDate,2019-10-16T23:50:48+02:00
; #@! TF.GenerationSoftware,Kicad,Pcbnew,5.1.4-3.fc30
; #@! TF.FileFunction,Plated,1,2,PTH
FMAT,2
METRIC
T1C0.400
T2C0.600
T3C0.762
T4C0.800
T5C0.900
T6C1.000
T7C1.100
%
G90
G05
T1
X180.848Y-142.61
X182.245Y-142.61
X184.912Y-135.636
X185.42Y-137.668
X186.309Y-135.636
X186.368Y-111.354
X187.24Y-111.379
X187.325Y-87.884
X188.135Y-111.334
X188.15Y-113.919
X189.357Y-111.379
X194.056Y-85.09
X205.232Y-140.081
X191.135Y-123.825
X118.618Y-74.803
X118.745Y-142.621
X189.23Y-137.795
X205.232Y-68.834
X202.692Y-117.475
X125.095Y-68.834
X177.292Y-89.916
X202.692Y-102.87
X118.618Y-97.155
X205.359Y-150.368
X183.388Y-133.858
X194.691Y-143.891
X169.164Y-100.584
X118.618Y-86.487
X143.764Y-128.016
X133.858Y-89.916
T2
X200.66Y-127.0
T3
X149.86Y-70.104
X149.86Y-110.236
X169.164Y-70.104
X169.164Y-110.236
T4
X149.098Y-96.52
X189.484Y-102.362
X189.865Y-133.35
X191.77Y-131.445
T5
X205.232Y-143.891
X205.232Y-146.431
X138.684Y-140.97
X140.984Y-79.67
X141.224Y-140.97
X143.724Y-79.67
X143.764Y-140.97
X146.264Y-79.67
X146.304Y-140.97
X148.844Y-140.97
X151.384Y-140.97
X153.924Y-140.97
X156.464Y-140.97
X159.004Y-140.97
X161.544Y-140.97
X164.084Y-140.97
X166.624Y-140.97
X169.164Y-140.97
X171.704Y-140.97
X174.244Y-140.97
X176.784Y-140.97
X179.324Y-140.97
X181.864Y-140.97
X184.384Y-79.67
X184.404Y-140.97
X186.924Y-79.67
X186.944Y-140.97
X189.464Y-79.67
X205.232Y-89.484
X205.232Y-92.024
X205.232Y-94.564
X205.232Y-97.104
X205.232Y-99.644
X205.232Y-80.01
X205.232Y-82.55
X205.232Y-126.365
X205.232Y-128.905
X205.232Y-131.445
X205.232Y-133.985
X205.232Y-136.525
T6
X142.098Y-83.677
X142.098Y-86.217
X142.098Y-93.837
X142.098Y-96.377
X158.098Y-83.677
X158.098Y-86.217
X158.098Y-93.837
X158.098Y-96.377
X205.232Y-111.76
X205.232Y-114.3
X205.232Y-116.84
X205.232Y-119.38
X138.684Y-145.415
X138.684Y-147.955
X141.224Y-145.415
X141.224Y-147.955
X143.764Y-145.415
X143.764Y-147.955
X146.304Y-145.415
X146.304Y-147.955
X148.844Y-145.415
X148.844Y-147.955
X151.384Y-145.415
X151.384Y-147.955
X153.924Y-145.415
X153.924Y-147.955
X156.464Y-145.415
X156.464Y-147.955
X159.004Y-145.415
X159.004Y-147.955
X161.544Y-145.415
X161.544Y-147.955
X164.084Y-145.415
X164.084Y-147.955
X166.624Y-145.415
X166.624Y-147.955
X169.164Y-145.415
X169.164Y-147.955
X171.704Y-145.415
X171.704Y-147.955
X174.244Y-145.415
X174.244Y-147.955
X176.784Y-145.415
X176.784Y-147.955
X179.324Y-145.415
X179.324Y-147.955
X181.864Y-145.415
X181.864Y-147.955
X184.404Y-145.415
X184.404Y-147.955
X186.944Y-145.415
X186.944Y-147.955
X198.882Y-144.78
T7
X119.38Y-80.16
X119.38Y-82.7
X119.38Y-89.962
X119.38Y-92.502
T0
M30
