G04 #@! TF.GenerationSoftware,KiCad,Pcbnew,5.1.4-3.fc30*
G04 #@! TF.CreationDate,2019-10-16T23:50:31+02:00*
G04 #@! TF.ProjectId,backplane,6261636b-706c-4616-9e65-2e6b69636164,v2.1-2*
G04 #@! TF.SameCoordinates,Original*
G04 #@! TF.FileFunction,Copper,L2,Bot*
G04 #@! TF.FilePolarity,Positive*
%FSLAX46Y46*%
G04 Gerber Fmt 4.6, Leading zero omitted, Abs format (unit mm)*
G04 Created by KiCad (PCBNEW 5.1.4-3.fc30) date 2019-10-16 23:50:31*
%MOMM*%
%LPD*%
G04 APERTURE LIST*
%ADD10C,0.600000*%
%ADD11C,0.300000*%
%ADD12C,0.100000*%
%ADD13R,1.800000X1.800000*%
%ADD14C,1.800000*%
%ADD15R,2.000000X2.000000*%
%ADD16C,2.000000*%
%ADD17C,1.700000*%
%ADD18O,2.000000X2.000000*%
%ADD19R,1.700000X1.700000*%
%ADD20O,1.700000X1.700000*%
%ADD21R,4.000000X3.000000*%
%ADD22R,2.200000X2.200000*%
%ADD23C,2.200000*%
%ADD24C,0.800000*%
%ADD25C,1.000000*%
%ADD26C,0.250000*%
%ADD27C,0.400000*%
%ADD28C,0.800000*%
%ADD29C,0.254000*%
G04 APERTURE END LIST*
D10*
X169164000Y-100584000D03*
X125095000Y-68834000D03*
X191135000Y-123825000D03*
X183388000Y-133858000D03*
D11*
X182118000Y-131662000D03*
D12*
G36*
X181368000Y-132162000D02*
G01*
X181368000Y-131012000D01*
X182118000Y-131512000D01*
X182868000Y-131012000D01*
X182868000Y-132162000D01*
X181368000Y-132162000D01*
X181368000Y-132162000D01*
G37*
D11*
X182118000Y-130212000D03*
D12*
G36*
X182118000Y-131212000D02*
G01*
X181368000Y-130712000D01*
X181368000Y-129712000D01*
X182868000Y-129712000D01*
X182868000Y-130712000D01*
X182118000Y-131212000D01*
X182118000Y-131212000D01*
G37*
D11*
X184785000Y-130212000D03*
D12*
G36*
X184785000Y-131212000D02*
G01*
X184035000Y-130712000D01*
X184035000Y-129712000D01*
X185535000Y-129712000D01*
X185535000Y-130712000D01*
X184785000Y-131212000D01*
X184785000Y-131212000D01*
G37*
D11*
X184785000Y-131662000D03*
D12*
G36*
X184035000Y-132162000D02*
G01*
X184035000Y-131012000D01*
X184785000Y-131512000D01*
X185535000Y-131012000D01*
X185535000Y-132162000D01*
X184035000Y-132162000D01*
X184035000Y-132162000D01*
G37*
D13*
X138684000Y-140970000D03*
D14*
X141224000Y-140970000D03*
X143764000Y-140970000D03*
X146304000Y-140970000D03*
X148844000Y-140970000D03*
X151384000Y-140970000D03*
X153924000Y-140970000D03*
X156464000Y-140970000D03*
X159004000Y-140970000D03*
X161544000Y-140970000D03*
X164084000Y-140970000D03*
X166624000Y-140970000D03*
X169164000Y-140970000D03*
X171704000Y-140970000D03*
X174244000Y-140970000D03*
X176784000Y-140970000D03*
X179324000Y-140970000D03*
X181864000Y-140970000D03*
X184404000Y-140970000D03*
X186944000Y-140970000D03*
D15*
X140984000Y-79670000D03*
D16*
X143724000Y-79670000D03*
X146264000Y-79670000D03*
D15*
X184384000Y-79670000D03*
D16*
X186924000Y-79670000D03*
X189464000Y-79670000D03*
D10*
X118618000Y-97155000D03*
X143764000Y-128016000D03*
X177292000Y-89916000D03*
X133858000Y-89916000D03*
X118618000Y-74803000D03*
X118618000Y-86487000D03*
X118745000Y-142621000D03*
X205359000Y-150368000D03*
X205232000Y-68834000D03*
X202692000Y-117475000D03*
X202692000Y-102870000D03*
X189230000Y-137795000D03*
X194691000Y-143891000D03*
D17*
X198882000Y-144780000D03*
D16*
X205232000Y-143891000D03*
D18*
X205232000Y-146431000D03*
D16*
X205232000Y-126365000D03*
D18*
X205232000Y-128905000D03*
X205232000Y-131445000D03*
X205232000Y-133985000D03*
X205232000Y-136525000D03*
D16*
X205232000Y-89484200D03*
D18*
X205232000Y-92024200D03*
X205232000Y-94564200D03*
X205232000Y-97104200D03*
X205232000Y-99644200D03*
D16*
X142098000Y-83677000D03*
X142098000Y-86217000D03*
D15*
X142098000Y-93837000D03*
X142098000Y-96377000D03*
D16*
X158098000Y-86217000D03*
D15*
X158098000Y-93837000D03*
D16*
X158098000Y-83677000D03*
D15*
X158098000Y-96377000D03*
D19*
X205232000Y-111760000D03*
D20*
X205232000Y-114300000D03*
X205232000Y-116840000D03*
X205232000Y-119380000D03*
D21*
X149860000Y-70104000D03*
X149860000Y-110236000D03*
X169164000Y-70104000D03*
X169164000Y-110236000D03*
D10*
X205232000Y-140081000D03*
D22*
X119380000Y-89962200D03*
D23*
X119380000Y-92502200D03*
X119380000Y-82700000D03*
D22*
X119380000Y-80160000D03*
D16*
X205232000Y-80010000D03*
D18*
X205232000Y-82550000D03*
D19*
X186944000Y-145415000D03*
D20*
X186944000Y-147955000D03*
X184404000Y-145415000D03*
X184404000Y-147955000D03*
X181864000Y-145415000D03*
X181864000Y-147955000D03*
X179324000Y-145415000D03*
X179324000Y-147955000D03*
X176784000Y-145415000D03*
X176784000Y-147955000D03*
X174244000Y-145415000D03*
X174244000Y-147955000D03*
X171704000Y-145415000D03*
X171704000Y-147955000D03*
X169164000Y-145415000D03*
X169164000Y-147955000D03*
X166624000Y-145415000D03*
X166624000Y-147955000D03*
X164084000Y-145415000D03*
X164084000Y-147955000D03*
X161544000Y-145415000D03*
X161544000Y-147955000D03*
X159004000Y-145415000D03*
X159004000Y-147955000D03*
X156464000Y-145415000D03*
X156464000Y-147955000D03*
X153924000Y-145415000D03*
X153924000Y-147955000D03*
X151384000Y-145415000D03*
X151384000Y-147955000D03*
X148844000Y-145415000D03*
X148844000Y-147955000D03*
X146304000Y-145415000D03*
X146304000Y-147955000D03*
X143764000Y-145415000D03*
X143764000Y-147955000D03*
X141224000Y-145415000D03*
X141224000Y-147955000D03*
X138684000Y-145415000D03*
X138684000Y-147955000D03*
D24*
X200660000Y-127000000D03*
D10*
X188150500Y-113919000D03*
X189357000Y-111379000D03*
D25*
X189484000Y-102362000D03*
X191770000Y-131445000D03*
X189865000Y-133350000D03*
D10*
X186309000Y-135636000D03*
X188134600Y-111334400D03*
X186368021Y-111353600D03*
X185420000Y-137668000D03*
X187240158Y-111379009D03*
X194056000Y-85090000D03*
X187325000Y-87884000D03*
X184912000Y-135636000D03*
D25*
X149098000Y-96520000D03*
D10*
X182245000Y-142610000D03*
X180848000Y-142610000D03*
D26*
X171704000Y-147955000D02*
X172974000Y-146685000D01*
X172974000Y-146685000D02*
X175514000Y-146685000D01*
X175514000Y-146685000D02*
X175934001Y-146264999D01*
X175934001Y-146264999D02*
X176784000Y-145415000D01*
D27*
X200660000Y-123952000D02*
X205232000Y-119380000D01*
X200660000Y-127000000D02*
X200660000Y-123952000D01*
D28*
X189357000Y-112712500D02*
X188150500Y-113919000D01*
X189357000Y-111379000D02*
X189357000Y-112712500D01*
X149860000Y-107936000D02*
X147447000Y-105523000D01*
X149860000Y-110236000D02*
X149860000Y-107936000D01*
X147447000Y-91566000D02*
X142098000Y-86217000D01*
X147447000Y-105523000D02*
X147447000Y-91566000D01*
D27*
X190191106Y-102362000D02*
X189484000Y-102362000D01*
X199974200Y-102362000D02*
X190191106Y-102362000D01*
X205232000Y-97104200D02*
X199974200Y-102362000D01*
X202692000Y-131445000D02*
X205232000Y-133985000D01*
X194703700Y-131445000D02*
X202692000Y-131445000D01*
X194703700Y-131445000D02*
X191770000Y-131445000D01*
X191770000Y-131445000D02*
X189865000Y-133350000D01*
D28*
X167523999Y-144515001D02*
X166624000Y-145415000D01*
X168529000Y-143510000D02*
X167523999Y-144515001D01*
X186944000Y-145415000D02*
X185039000Y-143510000D01*
X185039000Y-143510000D02*
X168529000Y-143510000D01*
D26*
X188115400Y-111353600D02*
X188134600Y-111334400D01*
X205232000Y-126365000D02*
X207137000Y-124460000D01*
X207137000Y-124460000D02*
X207137000Y-91389200D01*
X207137000Y-91389200D02*
X205232000Y-89484200D01*
X188102600Y-111334400D02*
X188134600Y-111334400D01*
X186967622Y-110753999D02*
X186668020Y-111053601D01*
X187554199Y-110753999D02*
X186967622Y-110753999D01*
X188134600Y-111334400D02*
X187554199Y-110753999D01*
X186668020Y-111053601D02*
X186368021Y-111353600D01*
X186368021Y-128518816D02*
X186368021Y-111777864D01*
X186368021Y-111777864D02*
X186368021Y-111353600D01*
X186944000Y-129094795D02*
X186368021Y-128518816D01*
X186309000Y-135636000D02*
X186944000Y-135001000D01*
X186944000Y-135001000D02*
X186944000Y-129094795D01*
X206686989Y-108100000D02*
X206686989Y-108450000D01*
X206686989Y-108450000D02*
X206686989Y-121735011D01*
X206686989Y-93479189D02*
X206686989Y-108100000D01*
X205232000Y-92024200D02*
X206686989Y-93479189D01*
X206686989Y-121735011D02*
X203327000Y-125095000D01*
X203327000Y-125095000D02*
X203327000Y-128905000D01*
X203327000Y-128905000D02*
X202819000Y-128905000D01*
X204029919Y-128905000D02*
X202819000Y-128905000D01*
X205232000Y-128905000D02*
X204029919Y-128905000D01*
X185547000Y-137668000D02*
X185547000Y-137795000D01*
X187325000Y-111480600D02*
X187240158Y-111395758D01*
X187240158Y-111395758D02*
X187240158Y-111379009D01*
X187240158Y-111803273D02*
X187240158Y-111379009D01*
X187452000Y-128651000D02*
X186944000Y-128143000D01*
X186944000Y-128143000D02*
X186944000Y-112099431D01*
X186944000Y-112099431D02*
X187240158Y-111803273D01*
X187706000Y-128905000D02*
X187452000Y-128651000D01*
X205232000Y-128905000D02*
X187706000Y-128905000D01*
X187521009Y-135566991D02*
X187521009Y-128720009D01*
X185420000Y-137668000D02*
X187521009Y-135566991D01*
X187521009Y-128720009D02*
X187452000Y-128651000D01*
X178424001Y-141869999D02*
X179324000Y-140970000D01*
X177673000Y-142621000D02*
X178424001Y-141869999D01*
X168149411Y-142621000D02*
X177673000Y-142621000D01*
X162858999Y-147402001D02*
X163620999Y-146640001D01*
X167191400Y-143579011D02*
X168149411Y-142621000D01*
X165398999Y-145913003D02*
X165398999Y-144826999D01*
X162858999Y-148453003D02*
X162858999Y-147402001D01*
X164672001Y-146640001D02*
X165398999Y-145913003D01*
X165398999Y-144826999D02*
X166646987Y-143579011D01*
X162132001Y-149180001D02*
X162858999Y-148453003D01*
X160229001Y-149180001D02*
X162132001Y-149180001D01*
X163620999Y-146640001D02*
X164672001Y-146640001D01*
X159004000Y-147955000D02*
X160229001Y-149180001D01*
X166646987Y-143579011D02*
X167191400Y-143579011D01*
X191262000Y-87884000D02*
X194056000Y-85090000D01*
X187325000Y-87884000D02*
X191262000Y-87884000D01*
X186309000Y-134239000D02*
X186309000Y-129413000D01*
X184912000Y-135636000D02*
X186309000Y-134239000D01*
X186309000Y-129413000D02*
X185743011Y-128847011D01*
X187025001Y-88183999D02*
X187325000Y-87884000D01*
X185743011Y-128847011D02*
X185743011Y-89465989D01*
X185743011Y-89465989D02*
X187025001Y-88183999D01*
X167005000Y-143129000D02*
X168164001Y-141969999D01*
X165608000Y-143129000D02*
X167005000Y-143129000D01*
X163495999Y-144189999D02*
X164547001Y-144189999D01*
X162858999Y-146640001D02*
X162858999Y-144826999D01*
X168164001Y-141969999D02*
X169164000Y-140970000D01*
X164547001Y-144189999D02*
X165608000Y-143129000D01*
X161544000Y-147955000D02*
X162858999Y-146640001D01*
X162858999Y-144826999D02*
X163495999Y-144189999D01*
X144763999Y-141969999D02*
X143764000Y-140970000D01*
X145923000Y-143129000D02*
X144763999Y-141969999D01*
X151384000Y-145415000D02*
X149098000Y-143129000D01*
X149098000Y-143129000D02*
X145923000Y-143129000D01*
D28*
X159131000Y-110236000D02*
X165864000Y-110236000D01*
X165864000Y-110236000D02*
X169164000Y-110236000D01*
X149098000Y-96520000D02*
X149098000Y-100203000D01*
X149098000Y-100203000D02*
X159131000Y-110236000D01*
D26*
X184785000Y-134493000D02*
X184785000Y-131662000D01*
X183134000Y-141732000D02*
X183134000Y-136144000D01*
X182245000Y-142610000D02*
X182245000Y-142621000D01*
X183134000Y-136144000D02*
X184785000Y-134493000D01*
X182245000Y-142621000D02*
X183134000Y-141732000D01*
X180848000Y-141986000D02*
X180594000Y-141732000D01*
X182118000Y-135890000D02*
X182118000Y-131662000D01*
X180848000Y-142610000D02*
X180848000Y-141986000D01*
X180594000Y-141732000D02*
X180594000Y-139954000D01*
X180594000Y-139954000D02*
X182118000Y-138430000D01*
X182118000Y-138430000D02*
X182118000Y-135890000D01*
X185403999Y-141969999D02*
X184404000Y-140970000D01*
X186182000Y-142748000D02*
X185403999Y-141969999D01*
X198882000Y-144780000D02*
X196850000Y-142748000D01*
X196850000Y-142748000D02*
X186182000Y-142748000D01*
D28*
X169164000Y-70104000D02*
X169164000Y-89281000D01*
X164608000Y-93837000D02*
X158098000Y-93837000D01*
X169164000Y-89281000D02*
X164608000Y-93837000D01*
D26*
X189443000Y-79670000D02*
X189464000Y-79670000D01*
X185293000Y-83820000D02*
X189443000Y-79670000D01*
X185293000Y-127127000D02*
X185293000Y-83820000D01*
X184785000Y-130212000D02*
X184785000Y-127635000D01*
X184785000Y-127635000D02*
X185293000Y-127127000D01*
X186924000Y-81300000D02*
X186924000Y-79670000D01*
X184785000Y-126238000D02*
X184785000Y-83439000D01*
X184785000Y-83439000D02*
X186924000Y-81300000D01*
X182118000Y-130212000D02*
X182118000Y-128905000D01*
X182118000Y-128905000D02*
X184785000Y-126238000D01*
D29*
G36*
X208633001Y-153214000D02*
G01*
X116153000Y-153214000D01*
X116153000Y-150194495D01*
X117012000Y-150194495D01*
X117012000Y-150585505D01*
X117088282Y-150969003D01*
X117237915Y-151330250D01*
X117455149Y-151655364D01*
X117731636Y-151931851D01*
X118056750Y-152149085D01*
X118417997Y-152298718D01*
X118801495Y-152375000D01*
X119192505Y-152375000D01*
X119576003Y-152298718D01*
X119937250Y-152149085D01*
X120262364Y-151931851D01*
X120538851Y-151655364D01*
X120756085Y-151330250D01*
X120905718Y-150969003D01*
X120982000Y-150585505D01*
X120982000Y-150194495D01*
X197913000Y-150194495D01*
X197913000Y-150585505D01*
X197989282Y-150969003D01*
X198138915Y-151330250D01*
X198356149Y-151655364D01*
X198632636Y-151931851D01*
X198957750Y-152149085D01*
X199318997Y-152298718D01*
X199702495Y-152375000D01*
X200093505Y-152375000D01*
X200477003Y-152298718D01*
X200838250Y-152149085D01*
X201163364Y-151931851D01*
X201439851Y-151655364D01*
X201657085Y-151330250D01*
X201806718Y-150969003D01*
X201883000Y-150585505D01*
X201883000Y-150194495D01*
X201806718Y-149810997D01*
X201657085Y-149449750D01*
X201439851Y-149124636D01*
X201163364Y-148848149D01*
X200838250Y-148630915D01*
X200477003Y-148481282D01*
X200093505Y-148405000D01*
X199702495Y-148405000D01*
X199318997Y-148481282D01*
X198957750Y-148630915D01*
X198632636Y-148848149D01*
X198356149Y-149124636D01*
X198138915Y-149449750D01*
X197989282Y-149810997D01*
X197913000Y-150194495D01*
X120982000Y-150194495D01*
X120905718Y-149810997D01*
X120756085Y-149449750D01*
X120538851Y-149124636D01*
X120262364Y-148848149D01*
X119937250Y-148630915D01*
X119576003Y-148481282D01*
X119192505Y-148405000D01*
X118801495Y-148405000D01*
X118417997Y-148481282D01*
X118056750Y-148630915D01*
X117731636Y-148848149D01*
X117455149Y-149124636D01*
X117237915Y-149449750D01*
X117088282Y-149810997D01*
X117012000Y-150194495D01*
X116153000Y-150194495D01*
X116153000Y-146489495D01*
X131829000Y-146489495D01*
X131829000Y-146880505D01*
X131905282Y-147264003D01*
X132054915Y-147625250D01*
X132272149Y-147950364D01*
X132548636Y-148226851D01*
X132873750Y-148444085D01*
X133234997Y-148593718D01*
X133618495Y-148670000D01*
X134009505Y-148670000D01*
X134393003Y-148593718D01*
X134754250Y-148444085D01*
X135079364Y-148226851D01*
X135351215Y-147955000D01*
X137191815Y-147955000D01*
X137220487Y-148246111D01*
X137305401Y-148526034D01*
X137443294Y-148784014D01*
X137628866Y-149010134D01*
X137854986Y-149195706D01*
X138112966Y-149333599D01*
X138392889Y-149418513D01*
X138611050Y-149440000D01*
X138756950Y-149440000D01*
X138975111Y-149418513D01*
X139255034Y-149333599D01*
X139513014Y-149195706D01*
X139739134Y-149010134D01*
X139924706Y-148784014D01*
X139954000Y-148729209D01*
X139983294Y-148784014D01*
X140168866Y-149010134D01*
X140394986Y-149195706D01*
X140652966Y-149333599D01*
X140932889Y-149418513D01*
X141151050Y-149440000D01*
X141296950Y-149440000D01*
X141515111Y-149418513D01*
X141795034Y-149333599D01*
X142053014Y-149195706D01*
X142279134Y-149010134D01*
X142464706Y-148784014D01*
X142494000Y-148729209D01*
X142523294Y-148784014D01*
X142708866Y-149010134D01*
X142934986Y-149195706D01*
X143192966Y-149333599D01*
X143472889Y-149418513D01*
X143691050Y-149440000D01*
X143836950Y-149440000D01*
X144055111Y-149418513D01*
X144335034Y-149333599D01*
X144593014Y-149195706D01*
X144819134Y-149010134D01*
X145004706Y-148784014D01*
X145039201Y-148719477D01*
X145108822Y-148836355D01*
X145303731Y-149052588D01*
X145537080Y-149226641D01*
X145799901Y-149351825D01*
X145947110Y-149396476D01*
X146177000Y-149275155D01*
X146177000Y-148082000D01*
X146157000Y-148082000D01*
X146157000Y-147828000D01*
X146177000Y-147828000D01*
X146177000Y-147808000D01*
X146431000Y-147808000D01*
X146431000Y-147828000D01*
X146451000Y-147828000D01*
X146451000Y-148082000D01*
X146431000Y-148082000D01*
X146431000Y-149275155D01*
X146660890Y-149396476D01*
X146808099Y-149351825D01*
X147070920Y-149226641D01*
X147304269Y-149052588D01*
X147499178Y-148836355D01*
X147568799Y-148719477D01*
X147603294Y-148784014D01*
X147788866Y-149010134D01*
X148014986Y-149195706D01*
X148272966Y-149333599D01*
X148552889Y-149418513D01*
X148771050Y-149440000D01*
X148916950Y-149440000D01*
X149135111Y-149418513D01*
X149415034Y-149333599D01*
X149673014Y-149195706D01*
X149899134Y-149010134D01*
X150084706Y-148784014D01*
X150119201Y-148719477D01*
X150188822Y-148836355D01*
X150383731Y-149052588D01*
X150617080Y-149226641D01*
X150879901Y-149351825D01*
X151027110Y-149396476D01*
X151257000Y-149275155D01*
X151257000Y-148082000D01*
X151237000Y-148082000D01*
X151237000Y-147828000D01*
X151257000Y-147828000D01*
X151257000Y-147808000D01*
X151511000Y-147808000D01*
X151511000Y-147828000D01*
X151531000Y-147828000D01*
X151531000Y-148082000D01*
X151511000Y-148082000D01*
X151511000Y-149275155D01*
X151740890Y-149396476D01*
X151888099Y-149351825D01*
X152150920Y-149226641D01*
X152384269Y-149052588D01*
X152579178Y-148836355D01*
X152648799Y-148719477D01*
X152683294Y-148784014D01*
X152868866Y-149010134D01*
X153094986Y-149195706D01*
X153352966Y-149333599D01*
X153632889Y-149418513D01*
X153851050Y-149440000D01*
X153996950Y-149440000D01*
X154215111Y-149418513D01*
X154495034Y-149333599D01*
X154753014Y-149195706D01*
X154979134Y-149010134D01*
X155164706Y-148784014D01*
X155194000Y-148729209D01*
X155223294Y-148784014D01*
X155408866Y-149010134D01*
X155634986Y-149195706D01*
X155892966Y-149333599D01*
X156172889Y-149418513D01*
X156391050Y-149440000D01*
X156536950Y-149440000D01*
X156755111Y-149418513D01*
X157035034Y-149333599D01*
X157293014Y-149195706D01*
X157519134Y-149010134D01*
X157704706Y-148784014D01*
X157734000Y-148729209D01*
X157763294Y-148784014D01*
X157948866Y-149010134D01*
X158174986Y-149195706D01*
X158432966Y-149333599D01*
X158712889Y-149418513D01*
X158931050Y-149440000D01*
X159076950Y-149440000D01*
X159295111Y-149418513D01*
X159369995Y-149395797D01*
X159665202Y-149691004D01*
X159689000Y-149720002D01*
X159717998Y-149743800D01*
X159804724Y-149814975D01*
X159936754Y-149885547D01*
X160080015Y-149929004D01*
X160191668Y-149940001D01*
X160191677Y-149940001D01*
X160229000Y-149943677D01*
X160266323Y-149940001D01*
X162094679Y-149940001D01*
X162132001Y-149943677D01*
X162169323Y-149940001D01*
X162169334Y-149940001D01*
X162280987Y-149929004D01*
X162424248Y-149885547D01*
X162556277Y-149814975D01*
X162672002Y-149720002D01*
X162695804Y-149690999D01*
X163227202Y-149159602D01*
X163317080Y-149226641D01*
X163579901Y-149351825D01*
X163727110Y-149396476D01*
X163957000Y-149275155D01*
X163957000Y-148082000D01*
X163937000Y-148082000D01*
X163937000Y-147828000D01*
X163957000Y-147828000D01*
X163957000Y-147808000D01*
X164211000Y-147808000D01*
X164211000Y-147828000D01*
X164231000Y-147828000D01*
X164231000Y-148082000D01*
X164211000Y-148082000D01*
X164211000Y-149275155D01*
X164440890Y-149396476D01*
X164588099Y-149351825D01*
X164850920Y-149226641D01*
X165084269Y-149052588D01*
X165279178Y-148836355D01*
X165348799Y-148719477D01*
X165383294Y-148784014D01*
X165568866Y-149010134D01*
X165794986Y-149195706D01*
X166052966Y-149333599D01*
X166332889Y-149418513D01*
X166551050Y-149440000D01*
X166696950Y-149440000D01*
X166915111Y-149418513D01*
X167195034Y-149333599D01*
X167453014Y-149195706D01*
X167679134Y-149010134D01*
X167864706Y-148784014D01*
X167894000Y-148729209D01*
X167923294Y-148784014D01*
X168108866Y-149010134D01*
X168334986Y-149195706D01*
X168592966Y-149333599D01*
X168872889Y-149418513D01*
X169091050Y-149440000D01*
X169236950Y-149440000D01*
X169455111Y-149418513D01*
X169735034Y-149333599D01*
X169993014Y-149195706D01*
X170219134Y-149010134D01*
X170404706Y-148784014D01*
X170439201Y-148719477D01*
X170508822Y-148836355D01*
X170703731Y-149052588D01*
X170937080Y-149226641D01*
X171199901Y-149351825D01*
X171347110Y-149396476D01*
X171577000Y-149275155D01*
X171577000Y-148082000D01*
X171557000Y-148082000D01*
X171557000Y-147828000D01*
X171577000Y-147828000D01*
X171577000Y-147808000D01*
X171831000Y-147808000D01*
X171831000Y-147828000D01*
X171851000Y-147828000D01*
X171851000Y-148082000D01*
X171831000Y-148082000D01*
X171831000Y-149275155D01*
X172060890Y-149396476D01*
X172208099Y-149351825D01*
X172470920Y-149226641D01*
X172704269Y-149052588D01*
X172899178Y-148836355D01*
X172968799Y-148719477D01*
X173003294Y-148784014D01*
X173188866Y-149010134D01*
X173414986Y-149195706D01*
X173672966Y-149333599D01*
X173952889Y-149418513D01*
X174171050Y-149440000D01*
X174316950Y-149440000D01*
X174535111Y-149418513D01*
X174815034Y-149333599D01*
X175073014Y-149195706D01*
X175299134Y-149010134D01*
X175484706Y-148784014D01*
X175514000Y-148729209D01*
X175543294Y-148784014D01*
X175728866Y-149010134D01*
X175954986Y-149195706D01*
X176212966Y-149333599D01*
X176492889Y-149418513D01*
X176711050Y-149440000D01*
X176856950Y-149440000D01*
X177075111Y-149418513D01*
X177355034Y-149333599D01*
X177613014Y-149195706D01*
X177839134Y-149010134D01*
X178024706Y-148784014D01*
X178054000Y-148729209D01*
X178083294Y-148784014D01*
X178268866Y-149010134D01*
X178494986Y-149195706D01*
X178752966Y-149333599D01*
X179032889Y-149418513D01*
X179251050Y-149440000D01*
X179396950Y-149440000D01*
X179615111Y-149418513D01*
X179895034Y-149333599D01*
X180153014Y-149195706D01*
X180379134Y-149010134D01*
X180564706Y-148784014D01*
X180594000Y-148729209D01*
X180623294Y-148784014D01*
X180808866Y-149010134D01*
X181034986Y-149195706D01*
X181292966Y-149333599D01*
X181572889Y-149418513D01*
X181791050Y-149440000D01*
X181936950Y-149440000D01*
X182155111Y-149418513D01*
X182435034Y-149333599D01*
X182693014Y-149195706D01*
X182919134Y-149010134D01*
X183104706Y-148784014D01*
X183134000Y-148729209D01*
X183163294Y-148784014D01*
X183348866Y-149010134D01*
X183574986Y-149195706D01*
X183832966Y-149333599D01*
X184112889Y-149418513D01*
X184331050Y-149440000D01*
X184476950Y-149440000D01*
X184695111Y-149418513D01*
X184975034Y-149333599D01*
X185233014Y-149195706D01*
X185459134Y-149010134D01*
X185644706Y-148784014D01*
X185674000Y-148729209D01*
X185703294Y-148784014D01*
X185888866Y-149010134D01*
X186114986Y-149195706D01*
X186372966Y-149333599D01*
X186652889Y-149418513D01*
X186871050Y-149440000D01*
X187016950Y-149440000D01*
X187235111Y-149418513D01*
X187515034Y-149333599D01*
X187773014Y-149195706D01*
X187999134Y-149010134D01*
X188184706Y-148784014D01*
X188322599Y-148526034D01*
X188407513Y-148246111D01*
X188436185Y-147955000D01*
X188407513Y-147663889D01*
X188322599Y-147383966D01*
X188184706Y-147125986D01*
X187999134Y-146899866D01*
X187969313Y-146875393D01*
X188038180Y-146854502D01*
X188148494Y-146795537D01*
X188245185Y-146716185D01*
X188324537Y-146619494D01*
X188383502Y-146509180D01*
X188389473Y-146489495D01*
X189829000Y-146489495D01*
X189829000Y-146880505D01*
X189905282Y-147264003D01*
X190054915Y-147625250D01*
X190272149Y-147950364D01*
X190548636Y-148226851D01*
X190873750Y-148444085D01*
X191234997Y-148593718D01*
X191618495Y-148670000D01*
X192009505Y-148670000D01*
X192393003Y-148593718D01*
X192754250Y-148444085D01*
X193079364Y-148226851D01*
X193355851Y-147950364D01*
X193573085Y-147625250D01*
X193722718Y-147264003D01*
X193799000Y-146880505D01*
X193799000Y-146489495D01*
X193787365Y-146431000D01*
X203589089Y-146431000D01*
X203620657Y-146751516D01*
X203714148Y-147059715D01*
X203865969Y-147343752D01*
X204070286Y-147592714D01*
X204319248Y-147797031D01*
X204603285Y-147948852D01*
X204911484Y-148042343D01*
X205151678Y-148066000D01*
X205312322Y-148066000D01*
X205552516Y-148042343D01*
X205860715Y-147948852D01*
X206144752Y-147797031D01*
X206393714Y-147592714D01*
X206598031Y-147343752D01*
X206749852Y-147059715D01*
X206843343Y-146751516D01*
X206874911Y-146431000D01*
X206843343Y-146110484D01*
X206749852Y-145802285D01*
X206598031Y-145518248D01*
X206393714Y-145269286D01*
X206267361Y-145165591D01*
X206274252Y-145160987D01*
X206501987Y-144933252D01*
X206680918Y-144665463D01*
X206804168Y-144367912D01*
X206867000Y-144052033D01*
X206867000Y-143729967D01*
X206804168Y-143414088D01*
X206680918Y-143116537D01*
X206501987Y-142848748D01*
X206274252Y-142621013D01*
X206006463Y-142442082D01*
X205708912Y-142318832D01*
X205393033Y-142256000D01*
X205070967Y-142256000D01*
X204755088Y-142318832D01*
X204457537Y-142442082D01*
X204189748Y-142621013D01*
X203962013Y-142848748D01*
X203783082Y-143116537D01*
X203659832Y-143414088D01*
X203597000Y-143729967D01*
X203597000Y-144052033D01*
X203659832Y-144367912D01*
X203783082Y-144665463D01*
X203962013Y-144933252D01*
X204189748Y-145160987D01*
X204196639Y-145165591D01*
X204070286Y-145269286D01*
X203865969Y-145518248D01*
X203714148Y-145802285D01*
X203620657Y-146110484D01*
X203589089Y-146431000D01*
X193787365Y-146431000D01*
X193722718Y-146105997D01*
X193573085Y-145744750D01*
X193355851Y-145419636D01*
X193079364Y-145143149D01*
X192754250Y-144925915D01*
X192393003Y-144776282D01*
X192009505Y-144700000D01*
X191618495Y-144700000D01*
X191234997Y-144776282D01*
X190873750Y-144925915D01*
X190548636Y-145143149D01*
X190272149Y-145419636D01*
X190054915Y-145744750D01*
X189905282Y-146105997D01*
X189829000Y-146489495D01*
X188389473Y-146489495D01*
X188419812Y-146389482D01*
X188432072Y-146265000D01*
X188432072Y-144565000D01*
X188419812Y-144440518D01*
X188383502Y-144320820D01*
X188324537Y-144210506D01*
X188245185Y-144113815D01*
X188148494Y-144034463D01*
X188038180Y-143975498D01*
X187918482Y-143939188D01*
X187794000Y-143926928D01*
X186919639Y-143926928D01*
X186500710Y-143508000D01*
X196535199Y-143508000D01*
X197440790Y-144413592D01*
X197397000Y-144633740D01*
X197397000Y-144926260D01*
X197454068Y-145213158D01*
X197566010Y-145483411D01*
X197728525Y-145726632D01*
X197935368Y-145933475D01*
X198178589Y-146095990D01*
X198448842Y-146207932D01*
X198735740Y-146265000D01*
X199028260Y-146265000D01*
X199315158Y-146207932D01*
X199585411Y-146095990D01*
X199828632Y-145933475D01*
X200035475Y-145726632D01*
X200197990Y-145483411D01*
X200309932Y-145213158D01*
X200367000Y-144926260D01*
X200367000Y-144633740D01*
X200309932Y-144346842D01*
X200197990Y-144076589D01*
X200035475Y-143833368D01*
X199828632Y-143626525D01*
X199585411Y-143464010D01*
X199315158Y-143352068D01*
X199028260Y-143295000D01*
X198735740Y-143295000D01*
X198515592Y-143338790D01*
X197413804Y-142237003D01*
X197390001Y-142207999D01*
X197274276Y-142113026D01*
X197142247Y-142042454D01*
X196998986Y-141998997D01*
X196887333Y-141988000D01*
X196887322Y-141988000D01*
X196850000Y-141984324D01*
X196812678Y-141988000D01*
X188106452Y-141988000D01*
X188124030Y-141970422D01*
X188008082Y-141854474D01*
X188262261Y-141770792D01*
X188393158Y-141498225D01*
X188468365Y-141205358D01*
X188484991Y-140903447D01*
X188442397Y-140604093D01*
X188342222Y-140318801D01*
X188262261Y-140169208D01*
X188008080Y-140085525D01*
X187123605Y-140970000D01*
X187137748Y-140984143D01*
X186958143Y-141163748D01*
X186944000Y-141149605D01*
X186929858Y-141163748D01*
X186750253Y-140984143D01*
X186764395Y-140970000D01*
X185879920Y-140085525D01*
X185698951Y-140145105D01*
X185596312Y-139991495D01*
X185510737Y-139905920D01*
X186059525Y-139905920D01*
X186944000Y-140790395D01*
X187828475Y-139905920D01*
X187744792Y-139651739D01*
X187472225Y-139520842D01*
X187179358Y-139445635D01*
X186877447Y-139429009D01*
X186578093Y-139471603D01*
X186292801Y-139571778D01*
X186143208Y-139651739D01*
X186059525Y-139905920D01*
X185510737Y-139905920D01*
X185382505Y-139777688D01*
X185131095Y-139609701D01*
X184851743Y-139493989D01*
X184555184Y-139435000D01*
X184252816Y-139435000D01*
X183956257Y-139493989D01*
X183894000Y-139519777D01*
X183894000Y-136458801D01*
X184159717Y-136193084D01*
X184185738Y-136232028D01*
X184315972Y-136362262D01*
X184469111Y-136464586D01*
X184639271Y-136535068D01*
X184819911Y-136571000D01*
X185004089Y-136571000D01*
X185184729Y-136535068D01*
X185354889Y-136464586D01*
X185508028Y-136362262D01*
X185610500Y-136259790D01*
X185681954Y-136331244D01*
X185268351Y-136744847D01*
X185147271Y-136768932D01*
X184977111Y-136839414D01*
X184823972Y-136941738D01*
X184693738Y-137071972D01*
X184591414Y-137225111D01*
X184520932Y-137395271D01*
X184485000Y-137575911D01*
X184485000Y-137760089D01*
X184520932Y-137940729D01*
X184591414Y-138110889D01*
X184693738Y-138264028D01*
X184823972Y-138394262D01*
X184977111Y-138496586D01*
X185147271Y-138567068D01*
X185327911Y-138603000D01*
X185512089Y-138603000D01*
X185692729Y-138567068D01*
X185862889Y-138496586D01*
X185927809Y-138453208D01*
X185971276Y-138429974D01*
X186009372Y-138398709D01*
X186016028Y-138394262D01*
X186021688Y-138388602D01*
X186087001Y-138335001D01*
X186140602Y-138269688D01*
X186146262Y-138264028D01*
X186150709Y-138257372D01*
X186181974Y-138219276D01*
X186205207Y-138175810D01*
X186248586Y-138110889D01*
X186319068Y-137940729D01*
X186343153Y-137819649D01*
X187706307Y-136456495D01*
X197913000Y-136456495D01*
X197913000Y-136847505D01*
X197989282Y-137231003D01*
X198138915Y-137592250D01*
X198356149Y-137917364D01*
X198632636Y-138193851D01*
X198957750Y-138411085D01*
X199318997Y-138560718D01*
X199702495Y-138637000D01*
X200093505Y-138637000D01*
X200477003Y-138560718D01*
X200838250Y-138411085D01*
X201163364Y-138193851D01*
X201439851Y-137917364D01*
X201657085Y-137592250D01*
X201806718Y-137231003D01*
X201883000Y-136847505D01*
X201883000Y-136456495D01*
X201806718Y-136072997D01*
X201657085Y-135711750D01*
X201439851Y-135386636D01*
X201163364Y-135110149D01*
X200838250Y-134892915D01*
X200477003Y-134743282D01*
X200093505Y-134667000D01*
X199702495Y-134667000D01*
X199318997Y-134743282D01*
X198957750Y-134892915D01*
X198632636Y-135110149D01*
X198356149Y-135386636D01*
X198138915Y-135711750D01*
X197989282Y-136072997D01*
X197913000Y-136456495D01*
X187706307Y-136456495D01*
X188032018Y-136130785D01*
X188061010Y-136106992D01*
X188084804Y-136077999D01*
X188084808Y-136077995D01*
X188155982Y-135991268D01*
X188155983Y-135991267D01*
X188226555Y-135859238D01*
X188270012Y-135715977D01*
X188281009Y-135604324D01*
X188281009Y-135604315D01*
X188284685Y-135566992D01*
X188281009Y-135529669D01*
X188281009Y-129665000D01*
X203289667Y-129665000D01*
X203327000Y-129668677D01*
X203364333Y-129665000D01*
X203784321Y-129665000D01*
X203865969Y-129817752D01*
X204070286Y-130066714D01*
X204207154Y-130179038D01*
X204032252Y-130334215D01*
X203838601Y-130589618D01*
X203698498Y-130877893D01*
X203641876Y-131064566D01*
X203761222Y-131317998D01*
X203745865Y-131317998D01*
X203311446Y-130883579D01*
X203285291Y-130851709D01*
X203158146Y-130747364D01*
X203013087Y-130669828D01*
X202855689Y-130622082D01*
X202733019Y-130610000D01*
X202733018Y-130610000D01*
X202692000Y-130605960D01*
X202650982Y-130610000D01*
X192540132Y-130610000D01*
X192493520Y-130563388D01*
X192307624Y-130439176D01*
X192101067Y-130353617D01*
X191881788Y-130310000D01*
X191658212Y-130310000D01*
X191438933Y-130353617D01*
X191232376Y-130439176D01*
X191046480Y-130563388D01*
X190888388Y-130721480D01*
X190764176Y-130907376D01*
X190678617Y-131113933D01*
X190635000Y-131333212D01*
X190635000Y-131399132D01*
X189819132Y-132215000D01*
X189753212Y-132215000D01*
X189533933Y-132258617D01*
X189327376Y-132344176D01*
X189141480Y-132468388D01*
X188983388Y-132626480D01*
X188859176Y-132812376D01*
X188773617Y-133018933D01*
X188730000Y-133238212D01*
X188730000Y-133461788D01*
X188773617Y-133681067D01*
X188859176Y-133887624D01*
X188983388Y-134073520D01*
X189141480Y-134231612D01*
X189327376Y-134355824D01*
X189533933Y-134441383D01*
X189753212Y-134485000D01*
X189976788Y-134485000D01*
X190196067Y-134441383D01*
X190402624Y-134355824D01*
X190588520Y-134231612D01*
X190746612Y-134073520D01*
X190870824Y-133887624D01*
X190956383Y-133681067D01*
X191000000Y-133461788D01*
X191000000Y-133395868D01*
X191815868Y-132580000D01*
X191881788Y-132580000D01*
X192101067Y-132536383D01*
X192307624Y-132450824D01*
X192493520Y-132326612D01*
X192540132Y-132280000D01*
X202346133Y-132280000D01*
X203646249Y-133580117D01*
X203620657Y-133664484D01*
X203589089Y-133985000D01*
X203620657Y-134305516D01*
X203714148Y-134613715D01*
X203865969Y-134897752D01*
X204070286Y-135146714D01*
X204202233Y-135255000D01*
X204070286Y-135363286D01*
X203865969Y-135612248D01*
X203714148Y-135896285D01*
X203620657Y-136204484D01*
X203589089Y-136525000D01*
X203620657Y-136845516D01*
X203714148Y-137153715D01*
X203865969Y-137437752D01*
X204070286Y-137686714D01*
X204319248Y-137891031D01*
X204603285Y-138042852D01*
X204911484Y-138136343D01*
X205151678Y-138160000D01*
X205312322Y-138160000D01*
X205552516Y-138136343D01*
X205860715Y-138042852D01*
X206144752Y-137891031D01*
X206393714Y-137686714D01*
X206598031Y-137437752D01*
X206749852Y-137153715D01*
X206843343Y-136845516D01*
X206874911Y-136525000D01*
X206843343Y-136204484D01*
X206749852Y-135896285D01*
X206598031Y-135612248D01*
X206393714Y-135363286D01*
X206261767Y-135255000D01*
X206393714Y-135146714D01*
X206598031Y-134897752D01*
X206749852Y-134613715D01*
X206843343Y-134305516D01*
X206874911Y-133985000D01*
X206843343Y-133664484D01*
X206749852Y-133356285D01*
X206598031Y-133072248D01*
X206393714Y-132823286D01*
X206256846Y-132710962D01*
X206431748Y-132555785D01*
X206625399Y-132300382D01*
X206765502Y-132012107D01*
X206822124Y-131825434D01*
X206702777Y-131572000D01*
X205359000Y-131572000D01*
X205359000Y-131592000D01*
X205105000Y-131592000D01*
X205105000Y-131572000D01*
X205085000Y-131572000D01*
X205085000Y-131318000D01*
X205105000Y-131318000D01*
X205105000Y-131298000D01*
X205359000Y-131298000D01*
X205359000Y-131318000D01*
X206702777Y-131318000D01*
X206822124Y-131064566D01*
X206765502Y-130877893D01*
X206625399Y-130589618D01*
X206431748Y-130334215D01*
X206256846Y-130179038D01*
X206393714Y-130066714D01*
X206598031Y-129817752D01*
X206749852Y-129533715D01*
X206843343Y-129225516D01*
X206874911Y-128905000D01*
X206843343Y-128584484D01*
X206749852Y-128276285D01*
X206598031Y-127992248D01*
X206393714Y-127743286D01*
X206267361Y-127639591D01*
X206274252Y-127634987D01*
X206501987Y-127407252D01*
X206680918Y-127139463D01*
X206804168Y-126841912D01*
X206867000Y-126526033D01*
X206867000Y-126203967D01*
X206804168Y-125888088D01*
X206798177Y-125873625D01*
X207648004Y-125023798D01*
X207677001Y-125000001D01*
X207771974Y-124884276D01*
X207842546Y-124752247D01*
X207886003Y-124608986D01*
X207897000Y-124497333D01*
X207897000Y-124497323D01*
X207900676Y-124460000D01*
X207897000Y-124422677D01*
X207897000Y-91426523D01*
X207900676Y-91389200D01*
X207897000Y-91351877D01*
X207897000Y-91351867D01*
X207886003Y-91240214D01*
X207842546Y-91096953D01*
X207771974Y-90964924D01*
X207677001Y-90849199D01*
X207648003Y-90825401D01*
X206798177Y-89975575D01*
X206804168Y-89961112D01*
X206867000Y-89645233D01*
X206867000Y-89323167D01*
X206804168Y-89007288D01*
X206680918Y-88709737D01*
X206501987Y-88441948D01*
X206274252Y-88214213D01*
X206006463Y-88035282D01*
X205708912Y-87912032D01*
X205393033Y-87849200D01*
X205070967Y-87849200D01*
X204755088Y-87912032D01*
X204457537Y-88035282D01*
X204189748Y-88214213D01*
X203962013Y-88441948D01*
X203783082Y-88709737D01*
X203659832Y-89007288D01*
X203597000Y-89323167D01*
X203597000Y-89645233D01*
X203659832Y-89961112D01*
X203783082Y-90258663D01*
X203962013Y-90526452D01*
X204189748Y-90754187D01*
X204196639Y-90758791D01*
X204070286Y-90862486D01*
X203865969Y-91111448D01*
X203714148Y-91395485D01*
X203620657Y-91703684D01*
X203589089Y-92024200D01*
X203620657Y-92344716D01*
X203714148Y-92652915D01*
X203865969Y-92936952D01*
X204070286Y-93185914D01*
X204207154Y-93298238D01*
X204032252Y-93453415D01*
X203838601Y-93708818D01*
X203698498Y-93997093D01*
X203641876Y-94183766D01*
X203761223Y-94437200D01*
X205105000Y-94437200D01*
X205105000Y-94417200D01*
X205359000Y-94417200D01*
X205359000Y-94437200D01*
X205379000Y-94437200D01*
X205379000Y-94691200D01*
X205359000Y-94691200D01*
X205359000Y-94711200D01*
X205105000Y-94711200D01*
X205105000Y-94691200D01*
X203761223Y-94691200D01*
X203641876Y-94944634D01*
X203698498Y-95131307D01*
X203838601Y-95419582D01*
X204032252Y-95674985D01*
X204207154Y-95830162D01*
X204070286Y-95942486D01*
X203865969Y-96191448D01*
X203714148Y-96475485D01*
X203620657Y-96783684D01*
X203589089Y-97104200D01*
X203620657Y-97424716D01*
X203646249Y-97509083D01*
X199628333Y-101527000D01*
X190254132Y-101527000D01*
X190207520Y-101480388D01*
X190021624Y-101356176D01*
X189815067Y-101270617D01*
X189595788Y-101227000D01*
X189372212Y-101227000D01*
X189152933Y-101270617D01*
X188946376Y-101356176D01*
X188760480Y-101480388D01*
X188602388Y-101638480D01*
X188478176Y-101824376D01*
X188392617Y-102030933D01*
X188349000Y-102250212D01*
X188349000Y-102473788D01*
X188392617Y-102693067D01*
X188478176Y-102899624D01*
X188602388Y-103085520D01*
X188760480Y-103243612D01*
X188946376Y-103367824D01*
X189152933Y-103453383D01*
X189372212Y-103497000D01*
X189595788Y-103497000D01*
X189815067Y-103453383D01*
X190021624Y-103367824D01*
X190207520Y-103243612D01*
X190254132Y-103197000D01*
X199933182Y-103197000D01*
X199974200Y-103201040D01*
X200015218Y-103197000D01*
X200015219Y-103197000D01*
X200137889Y-103184918D01*
X200295287Y-103137172D01*
X200440346Y-103059636D01*
X200567491Y-102955291D01*
X200593646Y-102923421D01*
X203614533Y-99902535D01*
X203620657Y-99964716D01*
X203714148Y-100272915D01*
X203865969Y-100556952D01*
X204070286Y-100805914D01*
X204319248Y-101010231D01*
X204603285Y-101162052D01*
X204911484Y-101255543D01*
X205151678Y-101279200D01*
X205312322Y-101279200D01*
X205552516Y-101255543D01*
X205860715Y-101162052D01*
X205926990Y-101126628D01*
X205926990Y-108062658D01*
X205926989Y-108062668D01*
X205926989Y-110271928D01*
X204382000Y-110271928D01*
X204257518Y-110284188D01*
X204137820Y-110320498D01*
X204027506Y-110379463D01*
X203930815Y-110458815D01*
X203851463Y-110555506D01*
X203792498Y-110665820D01*
X203756188Y-110785518D01*
X203743928Y-110910000D01*
X203743928Y-112610000D01*
X203756188Y-112734482D01*
X203792498Y-112854180D01*
X203851463Y-112964494D01*
X203930815Y-113061185D01*
X204027506Y-113140537D01*
X204137820Y-113199502D01*
X204206687Y-113220393D01*
X204176866Y-113244866D01*
X203991294Y-113470986D01*
X203853401Y-113728966D01*
X203768487Y-114008889D01*
X203739815Y-114300000D01*
X203768487Y-114591111D01*
X203853401Y-114871034D01*
X203991294Y-115129014D01*
X204176866Y-115355134D01*
X204402986Y-115540706D01*
X204457791Y-115570000D01*
X204402986Y-115599294D01*
X204176866Y-115784866D01*
X203991294Y-116010986D01*
X203853401Y-116268966D01*
X203768487Y-116548889D01*
X203739815Y-116840000D01*
X203768487Y-117131111D01*
X203853401Y-117411034D01*
X203991294Y-117669014D01*
X204176866Y-117895134D01*
X204402986Y-118080706D01*
X204467523Y-118115201D01*
X204350645Y-118184822D01*
X204134412Y-118379731D01*
X203960359Y-118613080D01*
X203835175Y-118875901D01*
X203790524Y-119023110D01*
X203911845Y-119253000D01*
X205105000Y-119253000D01*
X205105000Y-119233000D01*
X205359000Y-119233000D01*
X205359000Y-119253000D01*
X205379000Y-119253000D01*
X205379000Y-119507000D01*
X205359000Y-119507000D01*
X205359000Y-120700814D01*
X205588891Y-120821481D01*
X205863252Y-120724157D01*
X205926990Y-120686190D01*
X205926990Y-121420208D01*
X202816003Y-124531196D01*
X202786999Y-124554999D01*
X202731871Y-124622174D01*
X202692026Y-124670724D01*
X202660342Y-124730000D01*
X202621454Y-124802754D01*
X202577997Y-124946015D01*
X202567000Y-125057668D01*
X202567000Y-125057678D01*
X202563324Y-125095000D01*
X202567000Y-125132323D01*
X202567001Y-128145000D01*
X188020801Y-128145000D01*
X188015802Y-128140000D01*
X188015799Y-128139997D01*
X187704000Y-127828199D01*
X187704000Y-119736890D01*
X203790524Y-119736890D01*
X203835175Y-119884099D01*
X203960359Y-120146920D01*
X204134412Y-120380269D01*
X204350645Y-120575178D01*
X204600748Y-120724157D01*
X204875109Y-120821481D01*
X205105000Y-120700814D01*
X205105000Y-119507000D01*
X203911845Y-119507000D01*
X203790524Y-119736890D01*
X187704000Y-119736890D01*
X187704000Y-112414232D01*
X187751156Y-112367076D01*
X187780159Y-112343274D01*
X187869095Y-112234905D01*
X188042511Y-112269400D01*
X188226689Y-112269400D01*
X188407329Y-112233468D01*
X188577489Y-112162986D01*
X188730628Y-112060662D01*
X188860862Y-111930428D01*
X188963186Y-111777289D01*
X189033668Y-111607129D01*
X189069600Y-111426489D01*
X189069600Y-111242311D01*
X189033668Y-111061671D01*
X188963186Y-110891511D01*
X188860862Y-110738372D01*
X188730628Y-110608138D01*
X188577489Y-110505814D01*
X188407329Y-110435332D01*
X188286249Y-110411247D01*
X188118002Y-110243001D01*
X188094200Y-110213998D01*
X187978475Y-110119025D01*
X187846446Y-110048453D01*
X187703185Y-110004996D01*
X187591532Y-109993999D01*
X187591521Y-109993999D01*
X187554199Y-109990323D01*
X187516877Y-109993999D01*
X187004944Y-109993999D01*
X186967621Y-109990323D01*
X186930298Y-109993999D01*
X186930289Y-109993999D01*
X186818636Y-110004996D01*
X186675375Y-110048453D01*
X186543346Y-110119025D01*
X186503011Y-110152127D01*
X186503011Y-103759000D01*
X189738000Y-103759000D01*
X189738000Y-116586000D01*
X189740440Y-116610776D01*
X189747667Y-116634601D01*
X189759403Y-116656557D01*
X189775197Y-116675803D01*
X189794443Y-116691597D01*
X189816399Y-116703333D01*
X189840224Y-116710560D01*
X189865000Y-116713000D01*
X203200000Y-116713000D01*
X203224776Y-116710560D01*
X203248601Y-116703333D01*
X203270557Y-116691597D01*
X203289803Y-116675803D01*
X203305597Y-116656557D01*
X203317333Y-116634601D01*
X203324560Y-116610776D01*
X203327000Y-116586000D01*
X203327000Y-103759000D01*
X203324560Y-103734224D01*
X203317333Y-103710399D01*
X203305597Y-103688443D01*
X203289803Y-103669197D01*
X203270557Y-103653403D01*
X203248601Y-103641667D01*
X203224776Y-103634440D01*
X203200000Y-103632000D01*
X189865000Y-103632000D01*
X189840224Y-103634440D01*
X189816399Y-103641667D01*
X189794443Y-103653403D01*
X189775197Y-103669197D01*
X189759403Y-103688443D01*
X189747667Y-103710399D01*
X189740440Y-103734224D01*
X189738000Y-103759000D01*
X186503011Y-103759000D01*
X186503011Y-97489495D01*
X189829000Y-97489495D01*
X189829000Y-97880505D01*
X189905282Y-98264003D01*
X190054915Y-98625250D01*
X190272149Y-98950364D01*
X190548636Y-99226851D01*
X190873750Y-99444085D01*
X191234997Y-99593718D01*
X191618495Y-99670000D01*
X192009505Y-99670000D01*
X192393003Y-99593718D01*
X192754250Y-99444085D01*
X193079364Y-99226851D01*
X193355851Y-98950364D01*
X193573085Y-98625250D01*
X193722718Y-98264003D01*
X193799000Y-97880505D01*
X193799000Y-97489495D01*
X193722718Y-97105997D01*
X193573085Y-96744750D01*
X193355851Y-96419636D01*
X193079364Y-96143149D01*
X192754250Y-95925915D01*
X192393003Y-95776282D01*
X192009505Y-95700000D01*
X191618495Y-95700000D01*
X191234997Y-95776282D01*
X190873750Y-95925915D01*
X190548636Y-96143149D01*
X190272149Y-96419636D01*
X190054915Y-96744750D01*
X189905282Y-97105997D01*
X189829000Y-97489495D01*
X186503011Y-97489495D01*
X186503011Y-89780790D01*
X187476649Y-88807153D01*
X187597729Y-88783068D01*
X187767889Y-88712586D01*
X187870535Y-88644000D01*
X191224678Y-88644000D01*
X191262000Y-88647676D01*
X191299322Y-88644000D01*
X191299333Y-88644000D01*
X191410986Y-88633003D01*
X191554247Y-88589546D01*
X191686276Y-88518974D01*
X191802001Y-88424001D01*
X191825804Y-88394997D01*
X194207649Y-86013153D01*
X194328729Y-85989068D01*
X194498889Y-85918586D01*
X194652028Y-85816262D01*
X194782262Y-85686028D01*
X194884586Y-85532889D01*
X194955068Y-85362729D01*
X194991000Y-85182089D01*
X194991000Y-84997911D01*
X194955068Y-84817271D01*
X194884586Y-84647111D01*
X194782262Y-84493972D01*
X194652028Y-84363738D01*
X194498889Y-84261414D01*
X194328729Y-84190932D01*
X194148089Y-84155000D01*
X193963911Y-84155000D01*
X193783271Y-84190932D01*
X193613111Y-84261414D01*
X193459972Y-84363738D01*
X193329738Y-84493972D01*
X193227414Y-84647111D01*
X193156932Y-84817271D01*
X193132847Y-84938351D01*
X190947199Y-87124000D01*
X187870535Y-87124000D01*
X187767889Y-87055414D01*
X187597729Y-86984932D01*
X187417089Y-86949000D01*
X187232911Y-86949000D01*
X187052271Y-86984932D01*
X186882111Y-87055414D01*
X186728972Y-87157738D01*
X186598738Y-87287972D01*
X186496414Y-87441111D01*
X186425932Y-87611271D01*
X186401847Y-87732351D01*
X186053000Y-88081198D01*
X186053000Y-84134801D01*
X188722306Y-81465495D01*
X197913000Y-81465495D01*
X197913000Y-81856505D01*
X197989282Y-82240003D01*
X198138915Y-82601250D01*
X198356149Y-82926364D01*
X198632636Y-83202851D01*
X198957750Y-83420085D01*
X199318997Y-83569718D01*
X199702495Y-83646000D01*
X200093505Y-83646000D01*
X200477003Y-83569718D01*
X200838250Y-83420085D01*
X201163364Y-83202851D01*
X201439851Y-82926364D01*
X201657085Y-82601250D01*
X201678313Y-82550000D01*
X203589089Y-82550000D01*
X203620657Y-82870516D01*
X203714148Y-83178715D01*
X203865969Y-83462752D01*
X204070286Y-83711714D01*
X204319248Y-83916031D01*
X204603285Y-84067852D01*
X204911484Y-84161343D01*
X205151678Y-84185000D01*
X205312322Y-84185000D01*
X205552516Y-84161343D01*
X205860715Y-84067852D01*
X206144752Y-83916031D01*
X206393714Y-83711714D01*
X206598031Y-83462752D01*
X206749852Y-83178715D01*
X206843343Y-82870516D01*
X206874911Y-82550000D01*
X206843343Y-82229484D01*
X206749852Y-81921285D01*
X206598031Y-81637248D01*
X206393714Y-81388286D01*
X206267361Y-81284591D01*
X206274252Y-81279987D01*
X206501987Y-81052252D01*
X206680918Y-80784463D01*
X206804168Y-80486912D01*
X206867000Y-80171033D01*
X206867000Y-79848967D01*
X206804168Y-79533088D01*
X206680918Y-79235537D01*
X206501987Y-78967748D01*
X206274252Y-78740013D01*
X206006463Y-78561082D01*
X205708912Y-78437832D01*
X205393033Y-78375000D01*
X205070967Y-78375000D01*
X204755088Y-78437832D01*
X204457537Y-78561082D01*
X204189748Y-78740013D01*
X203962013Y-78967748D01*
X203783082Y-79235537D01*
X203659832Y-79533088D01*
X203597000Y-79848967D01*
X203597000Y-80171033D01*
X203659832Y-80486912D01*
X203783082Y-80784463D01*
X203962013Y-81052252D01*
X204189748Y-81279987D01*
X204196639Y-81284591D01*
X204070286Y-81388286D01*
X203865969Y-81637248D01*
X203714148Y-81921285D01*
X203620657Y-82229484D01*
X203589089Y-82550000D01*
X201678313Y-82550000D01*
X201806718Y-82240003D01*
X201883000Y-81856505D01*
X201883000Y-81465495D01*
X201806718Y-81081997D01*
X201657085Y-80720750D01*
X201439851Y-80395636D01*
X201163364Y-80119149D01*
X200838250Y-79901915D01*
X200477003Y-79752282D01*
X200093505Y-79676000D01*
X199702495Y-79676000D01*
X199318997Y-79752282D01*
X198957750Y-79901915D01*
X198632636Y-80119149D01*
X198356149Y-80395636D01*
X198138915Y-80720750D01*
X197989282Y-81081997D01*
X197913000Y-81465495D01*
X188722306Y-81465495D01*
X188957775Y-81230026D01*
X188987088Y-81242168D01*
X189302967Y-81305000D01*
X189625033Y-81305000D01*
X189940912Y-81242168D01*
X190238463Y-81118918D01*
X190506252Y-80939987D01*
X190733987Y-80712252D01*
X190912918Y-80444463D01*
X191036168Y-80146912D01*
X191099000Y-79831033D01*
X191099000Y-79508967D01*
X191036168Y-79193088D01*
X190912918Y-78895537D01*
X190733987Y-78627748D01*
X190506252Y-78400013D01*
X190238463Y-78221082D01*
X189940912Y-78097832D01*
X189625033Y-78035000D01*
X189302967Y-78035000D01*
X188987088Y-78097832D01*
X188689537Y-78221082D01*
X188421748Y-78400013D01*
X188194013Y-78627748D01*
X188194000Y-78627767D01*
X188193987Y-78627748D01*
X187966252Y-78400013D01*
X187698463Y-78221082D01*
X187400912Y-78097832D01*
X187085033Y-78035000D01*
X186762967Y-78035000D01*
X186447088Y-78097832D01*
X186149537Y-78221082D01*
X185939191Y-78361630D01*
X185914537Y-78315506D01*
X185835185Y-78218815D01*
X185738494Y-78139463D01*
X185628180Y-78080498D01*
X185508482Y-78044188D01*
X185384000Y-78031928D01*
X184669750Y-78035000D01*
X184511000Y-78193750D01*
X184511000Y-79543000D01*
X184531000Y-79543000D01*
X184531000Y-79797000D01*
X184511000Y-79797000D01*
X184511000Y-81146250D01*
X184669750Y-81305000D01*
X185384000Y-81308072D01*
X185508482Y-81295812D01*
X185628180Y-81259502D01*
X185738494Y-81200537D01*
X185835185Y-81121185D01*
X185914537Y-81024494D01*
X185939191Y-80978370D01*
X186078048Y-81071150D01*
X184273998Y-82875201D01*
X184245000Y-82898999D01*
X184221202Y-82927997D01*
X184221201Y-82927998D01*
X184150026Y-83014724D01*
X184079454Y-83146754D01*
X184035998Y-83290015D01*
X184021324Y-83439000D01*
X184025001Y-83476333D01*
X184025000Y-125923198D01*
X181606998Y-128341201D01*
X181578000Y-128364999D01*
X181554202Y-128393997D01*
X181554201Y-128393998D01*
X181483026Y-128480724D01*
X181412454Y-128612754D01*
X181395756Y-128667802D01*
X181368998Y-128756014D01*
X181359884Y-128848546D01*
X181354324Y-128905000D01*
X181358001Y-128942332D01*
X181358001Y-129074913D01*
X181243518Y-129086188D01*
X181123820Y-129122498D01*
X181013506Y-129181463D01*
X180916815Y-129260815D01*
X180837463Y-129357506D01*
X180778498Y-129467820D01*
X180742188Y-129587518D01*
X180729928Y-129712000D01*
X180729928Y-130712000D01*
X180742319Y-130837136D01*
X180749909Y-130862064D01*
X180742188Y-130887518D01*
X180729928Y-131012000D01*
X180729928Y-132162000D01*
X180742188Y-132286482D01*
X180778498Y-132406180D01*
X180837463Y-132516494D01*
X180916815Y-132613185D01*
X181013506Y-132692537D01*
X181123820Y-132751502D01*
X181243518Y-132787812D01*
X181358001Y-132799087D01*
X181358000Y-135927332D01*
X181358001Y-135927342D01*
X181358000Y-138115197D01*
X180082998Y-139390201D01*
X180054000Y-139413999D01*
X180030202Y-139442997D01*
X180030201Y-139442998D01*
X179959026Y-139529724D01*
X179940716Y-139563980D01*
X179771743Y-139493989D01*
X179475184Y-139435000D01*
X179172816Y-139435000D01*
X178876257Y-139493989D01*
X178596905Y-139609701D01*
X178345495Y-139777688D01*
X178131688Y-139991495D01*
X178054000Y-140107763D01*
X177976312Y-139991495D01*
X177762505Y-139777688D01*
X177511095Y-139609701D01*
X177231743Y-139493989D01*
X176935184Y-139435000D01*
X176632816Y-139435000D01*
X176336257Y-139493989D01*
X176056905Y-139609701D01*
X175805495Y-139777688D01*
X175591688Y-139991495D01*
X175514000Y-140107763D01*
X175436312Y-139991495D01*
X175222505Y-139777688D01*
X174971095Y-139609701D01*
X174691743Y-139493989D01*
X174395184Y-139435000D01*
X174092816Y-139435000D01*
X173796257Y-139493989D01*
X173516905Y-139609701D01*
X173265495Y-139777688D01*
X173051688Y-139991495D01*
X172974000Y-140107763D01*
X172896312Y-139991495D01*
X172682505Y-139777688D01*
X172431095Y-139609701D01*
X172151743Y-139493989D01*
X171855184Y-139435000D01*
X171552816Y-139435000D01*
X171256257Y-139493989D01*
X170976905Y-139609701D01*
X170725495Y-139777688D01*
X170511688Y-139991495D01*
X170434000Y-140107763D01*
X170356312Y-139991495D01*
X170142505Y-139777688D01*
X169891095Y-139609701D01*
X169611743Y-139493989D01*
X169315184Y-139435000D01*
X169012816Y-139435000D01*
X168716257Y-139493989D01*
X168436905Y-139609701D01*
X168185495Y-139777688D01*
X167971688Y-139991495D01*
X167869049Y-140145105D01*
X167688080Y-140085525D01*
X166803605Y-140970000D01*
X166817748Y-140984143D01*
X166638143Y-141163748D01*
X166624000Y-141149605D01*
X165739525Y-142034080D01*
X165823208Y-142288261D01*
X165991331Y-142369000D01*
X165645322Y-142369000D01*
X165607999Y-142365324D01*
X165570676Y-142369000D01*
X165570667Y-142369000D01*
X165459014Y-142379997D01*
X165315753Y-142423454D01*
X165183724Y-142494026D01*
X165067999Y-142588999D01*
X165044201Y-142617997D01*
X164232200Y-143429999D01*
X163533321Y-143429999D01*
X163495998Y-143426323D01*
X163458675Y-143429999D01*
X163458666Y-143429999D01*
X163347013Y-143440996D01*
X163234935Y-143474994D01*
X163203752Y-143484453D01*
X163071722Y-143555025D01*
X162988082Y-143623667D01*
X162955998Y-143649998D01*
X162932199Y-143678997D01*
X162408105Y-144203092D01*
X162373014Y-144174294D01*
X162115034Y-144036401D01*
X161835111Y-143951487D01*
X161616950Y-143930000D01*
X161471050Y-143930000D01*
X161252889Y-143951487D01*
X160972966Y-144036401D01*
X160714986Y-144174294D01*
X160488866Y-144359866D01*
X160303294Y-144585986D01*
X160274000Y-144640791D01*
X160244706Y-144585986D01*
X160059134Y-144359866D01*
X159833014Y-144174294D01*
X159575034Y-144036401D01*
X159295111Y-143951487D01*
X159076950Y-143930000D01*
X158931050Y-143930000D01*
X158712889Y-143951487D01*
X158432966Y-144036401D01*
X158174986Y-144174294D01*
X157948866Y-144359866D01*
X157763294Y-144585986D01*
X157728799Y-144650523D01*
X157659178Y-144533645D01*
X157464269Y-144317412D01*
X157230920Y-144143359D01*
X156968099Y-144018175D01*
X156820890Y-143973524D01*
X156591000Y-144094845D01*
X156591000Y-145288000D01*
X156611000Y-145288000D01*
X156611000Y-145542000D01*
X156591000Y-145542000D01*
X156591000Y-145562000D01*
X156337000Y-145562000D01*
X156337000Y-145542000D01*
X156317000Y-145542000D01*
X156317000Y-145288000D01*
X156337000Y-145288000D01*
X156337000Y-144094845D01*
X156107110Y-143973524D01*
X155959901Y-144018175D01*
X155697080Y-144143359D01*
X155463731Y-144317412D01*
X155268822Y-144533645D01*
X155199201Y-144650523D01*
X155164706Y-144585986D01*
X154979134Y-144359866D01*
X154753014Y-144174294D01*
X154495034Y-144036401D01*
X154215111Y-143951487D01*
X153996950Y-143930000D01*
X153851050Y-143930000D01*
X153632889Y-143951487D01*
X153352966Y-144036401D01*
X153094986Y-144174294D01*
X152868866Y-144359866D01*
X152683294Y-144585986D01*
X152654000Y-144640791D01*
X152624706Y-144585986D01*
X152439134Y-144359866D01*
X152213014Y-144174294D01*
X151955034Y-144036401D01*
X151675111Y-143951487D01*
X151456950Y-143930000D01*
X151311050Y-143930000D01*
X151092889Y-143951487D01*
X151018005Y-143974203D01*
X149661804Y-142618003D01*
X149638001Y-142588999D01*
X149522276Y-142494026D01*
X149390247Y-142423454D01*
X149364821Y-142415741D01*
X149571095Y-142330299D01*
X149822505Y-142162312D01*
X150036312Y-141948505D01*
X150114000Y-141832237D01*
X150191688Y-141948505D01*
X150405495Y-142162312D01*
X150656905Y-142330299D01*
X150936257Y-142446011D01*
X151232816Y-142505000D01*
X151535184Y-142505000D01*
X151831743Y-142446011D01*
X152111095Y-142330299D01*
X152362505Y-142162312D01*
X152576312Y-141948505D01*
X152654000Y-141832237D01*
X152731688Y-141948505D01*
X152945495Y-142162312D01*
X153196905Y-142330299D01*
X153476257Y-142446011D01*
X153772816Y-142505000D01*
X154075184Y-142505000D01*
X154371743Y-142446011D01*
X154651095Y-142330299D01*
X154902505Y-142162312D01*
X155116312Y-141948505D01*
X155194000Y-141832237D01*
X155271688Y-141948505D01*
X155485495Y-142162312D01*
X155736905Y-142330299D01*
X156016257Y-142446011D01*
X156312816Y-142505000D01*
X156615184Y-142505000D01*
X156911743Y-142446011D01*
X157191095Y-142330299D01*
X157442505Y-142162312D01*
X157656312Y-141948505D01*
X157734000Y-141832237D01*
X157811688Y-141948505D01*
X158025495Y-142162312D01*
X158276905Y-142330299D01*
X158556257Y-142446011D01*
X158852816Y-142505000D01*
X159155184Y-142505000D01*
X159451743Y-142446011D01*
X159731095Y-142330299D01*
X159982505Y-142162312D01*
X160196312Y-141948505D01*
X160274000Y-141832237D01*
X160351688Y-141948505D01*
X160565495Y-142162312D01*
X160816905Y-142330299D01*
X161096257Y-142446011D01*
X161392816Y-142505000D01*
X161695184Y-142505000D01*
X161991743Y-142446011D01*
X162271095Y-142330299D01*
X162522505Y-142162312D01*
X162736312Y-141948505D01*
X162814000Y-141832237D01*
X162891688Y-141948505D01*
X163105495Y-142162312D01*
X163356905Y-142330299D01*
X163636257Y-142446011D01*
X163932816Y-142505000D01*
X164235184Y-142505000D01*
X164531743Y-142446011D01*
X164811095Y-142330299D01*
X165062505Y-142162312D01*
X165276312Y-141948505D01*
X165378951Y-141794895D01*
X165559920Y-141854475D01*
X166444395Y-140970000D01*
X165559920Y-140085525D01*
X165378951Y-140145105D01*
X165276312Y-139991495D01*
X165190737Y-139905920D01*
X165739525Y-139905920D01*
X166624000Y-140790395D01*
X167508475Y-139905920D01*
X167424792Y-139651739D01*
X167152225Y-139520842D01*
X166859358Y-139445635D01*
X166557447Y-139429009D01*
X166258093Y-139471603D01*
X165972801Y-139571778D01*
X165823208Y-139651739D01*
X165739525Y-139905920D01*
X165190737Y-139905920D01*
X165062505Y-139777688D01*
X164811095Y-139609701D01*
X164531743Y-139493989D01*
X164235184Y-139435000D01*
X163932816Y-139435000D01*
X163636257Y-139493989D01*
X163356905Y-139609701D01*
X163105495Y-139777688D01*
X162891688Y-139991495D01*
X162814000Y-140107763D01*
X162736312Y-139991495D01*
X162522505Y-139777688D01*
X162271095Y-139609701D01*
X161991743Y-139493989D01*
X161695184Y-139435000D01*
X161392816Y-139435000D01*
X161096257Y-139493989D01*
X160816905Y-139609701D01*
X160565495Y-139777688D01*
X160351688Y-139991495D01*
X160274000Y-140107763D01*
X160196312Y-139991495D01*
X159982505Y-139777688D01*
X159731095Y-139609701D01*
X159451743Y-139493989D01*
X159155184Y-139435000D01*
X158852816Y-139435000D01*
X158556257Y-139493989D01*
X158276905Y-139609701D01*
X158025495Y-139777688D01*
X157811688Y-139991495D01*
X157734000Y-140107763D01*
X157656312Y-139991495D01*
X157442505Y-139777688D01*
X157191095Y-139609701D01*
X156911743Y-139493989D01*
X156615184Y-139435000D01*
X156312816Y-139435000D01*
X156016257Y-139493989D01*
X155736905Y-139609701D01*
X155485495Y-139777688D01*
X155271688Y-139991495D01*
X155194000Y-140107763D01*
X155116312Y-139991495D01*
X154902505Y-139777688D01*
X154651095Y-139609701D01*
X154371743Y-139493989D01*
X154075184Y-139435000D01*
X153772816Y-139435000D01*
X153476257Y-139493989D01*
X153196905Y-139609701D01*
X152945495Y-139777688D01*
X152731688Y-139991495D01*
X152654000Y-140107763D01*
X152576312Y-139991495D01*
X152362505Y-139777688D01*
X152111095Y-139609701D01*
X151831743Y-139493989D01*
X151535184Y-139435000D01*
X151232816Y-139435000D01*
X150936257Y-139493989D01*
X150656905Y-139609701D01*
X150405495Y-139777688D01*
X150191688Y-139991495D01*
X150114000Y-140107763D01*
X150036312Y-139991495D01*
X149822505Y-139777688D01*
X149571095Y-139609701D01*
X149291743Y-139493989D01*
X148995184Y-139435000D01*
X148692816Y-139435000D01*
X148396257Y-139493989D01*
X148116905Y-139609701D01*
X147865495Y-139777688D01*
X147651688Y-139991495D01*
X147574000Y-140107763D01*
X147496312Y-139991495D01*
X147282505Y-139777688D01*
X147031095Y-139609701D01*
X146751743Y-139493989D01*
X146455184Y-139435000D01*
X146152816Y-139435000D01*
X145856257Y-139493989D01*
X145576905Y-139609701D01*
X145325495Y-139777688D01*
X145111688Y-139991495D01*
X145034000Y-140107763D01*
X144956312Y-139991495D01*
X144742505Y-139777688D01*
X144491095Y-139609701D01*
X144211743Y-139493989D01*
X143915184Y-139435000D01*
X143612816Y-139435000D01*
X143316257Y-139493989D01*
X143036905Y-139609701D01*
X142785495Y-139777688D01*
X142571688Y-139991495D01*
X142494000Y-140107763D01*
X142416312Y-139991495D01*
X142202505Y-139777688D01*
X141951095Y-139609701D01*
X141671743Y-139493989D01*
X141375184Y-139435000D01*
X141072816Y-139435000D01*
X140776257Y-139493989D01*
X140496905Y-139609701D01*
X140245495Y-139777688D01*
X140179056Y-139844127D01*
X140173502Y-139825820D01*
X140114537Y-139715506D01*
X140035185Y-139618815D01*
X139938494Y-139539463D01*
X139828180Y-139480498D01*
X139708482Y-139444188D01*
X139584000Y-139431928D01*
X138969750Y-139435000D01*
X138811000Y-139593750D01*
X138811000Y-140843000D01*
X138831000Y-140843000D01*
X138831000Y-141097000D01*
X138811000Y-141097000D01*
X138811000Y-142346250D01*
X138969750Y-142505000D01*
X139584000Y-142508072D01*
X139708482Y-142495812D01*
X139828180Y-142459502D01*
X139938494Y-142400537D01*
X140035185Y-142321185D01*
X140114537Y-142224494D01*
X140173502Y-142114180D01*
X140179056Y-142095873D01*
X140245495Y-142162312D01*
X140496905Y-142330299D01*
X140776257Y-142446011D01*
X141072816Y-142505000D01*
X141375184Y-142505000D01*
X141671743Y-142446011D01*
X141951095Y-142330299D01*
X142202505Y-142162312D01*
X142416312Y-141948505D01*
X142494000Y-141832237D01*
X142571688Y-141948505D01*
X142785495Y-142162312D01*
X143036905Y-142330299D01*
X143316257Y-142446011D01*
X143612816Y-142505000D01*
X143915184Y-142505000D01*
X144172930Y-142453731D01*
X144252996Y-142533798D01*
X144253001Y-142533802D01*
X145359200Y-143640002D01*
X145382999Y-143669001D01*
X145411997Y-143692799D01*
X145498723Y-143763974D01*
X145601845Y-143819094D01*
X145630753Y-143834546D01*
X145774014Y-143878003D01*
X145885667Y-143889000D01*
X145885677Y-143889000D01*
X145923000Y-143892676D01*
X145960323Y-143889000D01*
X148783199Y-143889000D01*
X148824199Y-143930000D01*
X148771050Y-143930000D01*
X148552889Y-143951487D01*
X148272966Y-144036401D01*
X148014986Y-144174294D01*
X147788866Y-144359866D01*
X147603294Y-144585986D01*
X147574000Y-144640791D01*
X147544706Y-144585986D01*
X147359134Y-144359866D01*
X147133014Y-144174294D01*
X146875034Y-144036401D01*
X146595111Y-143951487D01*
X146376950Y-143930000D01*
X146231050Y-143930000D01*
X146012889Y-143951487D01*
X145732966Y-144036401D01*
X145474986Y-144174294D01*
X145248866Y-144359866D01*
X145063294Y-144585986D01*
X145034000Y-144640791D01*
X145004706Y-144585986D01*
X144819134Y-144359866D01*
X144593014Y-144174294D01*
X144335034Y-144036401D01*
X144055111Y-143951487D01*
X143836950Y-143930000D01*
X143691050Y-143930000D01*
X143472889Y-143951487D01*
X143192966Y-144036401D01*
X142934986Y-144174294D01*
X142708866Y-144359866D01*
X142523294Y-144585986D01*
X142494000Y-144640791D01*
X142464706Y-144585986D01*
X142279134Y-144359866D01*
X142053014Y-144174294D01*
X141795034Y-144036401D01*
X141515111Y-143951487D01*
X141296950Y-143930000D01*
X141151050Y-143930000D01*
X140932889Y-143951487D01*
X140652966Y-144036401D01*
X140394986Y-144174294D01*
X140168866Y-144359866D01*
X139983294Y-144585986D01*
X139948799Y-144650523D01*
X139879178Y-144533645D01*
X139684269Y-144317412D01*
X139450920Y-144143359D01*
X139188099Y-144018175D01*
X139040890Y-143973524D01*
X138811000Y-144094845D01*
X138811000Y-145288000D01*
X138831000Y-145288000D01*
X138831000Y-145542000D01*
X138811000Y-145542000D01*
X138811000Y-145562000D01*
X138557000Y-145562000D01*
X138557000Y-145542000D01*
X137363186Y-145542000D01*
X137242519Y-145771891D01*
X137339843Y-146046252D01*
X137488822Y-146296355D01*
X137683731Y-146512588D01*
X137912756Y-146683416D01*
X137854986Y-146714294D01*
X137628866Y-146899866D01*
X137443294Y-147125986D01*
X137305401Y-147383966D01*
X137220487Y-147663889D01*
X137191815Y-147955000D01*
X135351215Y-147955000D01*
X135355851Y-147950364D01*
X135573085Y-147625250D01*
X135722718Y-147264003D01*
X135799000Y-146880505D01*
X135799000Y-146489495D01*
X135722718Y-146105997D01*
X135573085Y-145744750D01*
X135355851Y-145419636D01*
X135079364Y-145143149D01*
X134952093Y-145058109D01*
X137242519Y-145058109D01*
X137363186Y-145288000D01*
X138557000Y-145288000D01*
X138557000Y-144094845D01*
X138327110Y-143973524D01*
X138179901Y-144018175D01*
X137917080Y-144143359D01*
X137683731Y-144317412D01*
X137488822Y-144533645D01*
X137339843Y-144783748D01*
X137242519Y-145058109D01*
X134952093Y-145058109D01*
X134754250Y-144925915D01*
X134393003Y-144776282D01*
X134009505Y-144700000D01*
X133618495Y-144700000D01*
X133234997Y-144776282D01*
X132873750Y-144925915D01*
X132548636Y-145143149D01*
X132272149Y-145419636D01*
X132054915Y-145744750D01*
X131905282Y-146105997D01*
X131829000Y-146489495D01*
X116153000Y-146489495D01*
X116153000Y-141870000D01*
X137145928Y-141870000D01*
X137158188Y-141994482D01*
X137194498Y-142114180D01*
X137253463Y-142224494D01*
X137332815Y-142321185D01*
X137429506Y-142400537D01*
X137539820Y-142459502D01*
X137659518Y-142495812D01*
X137784000Y-142508072D01*
X138398250Y-142505000D01*
X138557000Y-142346250D01*
X138557000Y-141097000D01*
X137307750Y-141097000D01*
X137149000Y-141255750D01*
X137145928Y-141870000D01*
X116153000Y-141870000D01*
X116153000Y-140070000D01*
X137145928Y-140070000D01*
X137149000Y-140684250D01*
X137307750Y-140843000D01*
X138557000Y-140843000D01*
X138557000Y-139593750D01*
X138398250Y-139435000D01*
X137784000Y-139431928D01*
X137659518Y-139444188D01*
X137539820Y-139480498D01*
X137429506Y-139539463D01*
X137332815Y-139618815D01*
X137253463Y-139715506D01*
X137194498Y-139825820D01*
X137158188Y-139945518D01*
X137145928Y-140070000D01*
X116153000Y-140070000D01*
X116153000Y-136456495D01*
X123994100Y-136456495D01*
X123994100Y-136847505D01*
X124070382Y-137231003D01*
X124220015Y-137592250D01*
X124437249Y-137917364D01*
X124713736Y-138193851D01*
X125038850Y-138411085D01*
X125400097Y-138560718D01*
X125783595Y-138637000D01*
X126174605Y-138637000D01*
X126558103Y-138560718D01*
X126919350Y-138411085D01*
X127244464Y-138193851D01*
X127520951Y-137917364D01*
X127738185Y-137592250D01*
X127887818Y-137231003D01*
X127964100Y-136847505D01*
X127964100Y-136678495D01*
X155971000Y-136678495D01*
X155971000Y-137069505D01*
X156047282Y-137453003D01*
X156196915Y-137814250D01*
X156414149Y-138139364D01*
X156690636Y-138415851D01*
X157015750Y-138633085D01*
X157376997Y-138782718D01*
X157760495Y-138859000D01*
X158151505Y-138859000D01*
X158535003Y-138782718D01*
X158896250Y-138633085D01*
X159221364Y-138415851D01*
X159497851Y-138139364D01*
X159715085Y-137814250D01*
X159864718Y-137453003D01*
X159941000Y-137069505D01*
X159941000Y-136678495D01*
X159864718Y-136294997D01*
X159715085Y-135933750D01*
X159497851Y-135608636D01*
X159221364Y-135332149D01*
X158896250Y-135114915D01*
X158535003Y-134965282D01*
X158151505Y-134889000D01*
X157760495Y-134889000D01*
X157376997Y-134965282D01*
X157015750Y-135114915D01*
X156690636Y-135332149D01*
X156414149Y-135608636D01*
X156196915Y-135933750D01*
X156047282Y-136294997D01*
X155971000Y-136678495D01*
X127964100Y-136678495D01*
X127964100Y-136456495D01*
X127887818Y-136072997D01*
X127738185Y-135711750D01*
X127520951Y-135386636D01*
X127244464Y-135110149D01*
X126919350Y-134892915D01*
X126558103Y-134743282D01*
X126174605Y-134667000D01*
X125783595Y-134667000D01*
X125400097Y-134743282D01*
X125038850Y-134892915D01*
X124713736Y-135110149D01*
X124437249Y-135386636D01*
X124220015Y-135711750D01*
X124070382Y-136072997D01*
X123994100Y-136456495D01*
X116153000Y-136456495D01*
X116153000Y-126181760D01*
X156153401Y-126181760D01*
X156153401Y-127598240D01*
X156324138Y-129004392D01*
X156663124Y-130379711D01*
X157165415Y-131704142D01*
X157823686Y-132958373D01*
X158628338Y-134124112D01*
X159567637Y-135184363D01*
X160627888Y-136123662D01*
X161793627Y-136928314D01*
X163047858Y-137586585D01*
X164372289Y-138088876D01*
X165747608Y-138427862D01*
X167153760Y-138598599D01*
X168570240Y-138598599D01*
X169976392Y-138427862D01*
X171351711Y-138088876D01*
X172676142Y-137586585D01*
X173930373Y-136928314D01*
X174292298Y-136678495D01*
X176037000Y-136678495D01*
X176037000Y-137069505D01*
X176113282Y-137453003D01*
X176262915Y-137814250D01*
X176480149Y-138139364D01*
X176756636Y-138415851D01*
X177081750Y-138633085D01*
X177442997Y-138782718D01*
X177826495Y-138859000D01*
X178217505Y-138859000D01*
X178601003Y-138782718D01*
X178962250Y-138633085D01*
X179287364Y-138415851D01*
X179563851Y-138139364D01*
X179781085Y-137814250D01*
X179930718Y-137453003D01*
X180007000Y-137069505D01*
X180007000Y-136678495D01*
X179930718Y-136294997D01*
X179781085Y-135933750D01*
X179563851Y-135608636D01*
X179287364Y-135332149D01*
X178962250Y-135114915D01*
X178601003Y-134965282D01*
X178217505Y-134889000D01*
X177826495Y-134889000D01*
X177442997Y-134965282D01*
X177081750Y-135114915D01*
X176756636Y-135332149D01*
X176480149Y-135608636D01*
X176262915Y-135933750D01*
X176113282Y-136294997D01*
X176037000Y-136678495D01*
X174292298Y-136678495D01*
X175096112Y-136123662D01*
X176156363Y-135184363D01*
X177095662Y-134124112D01*
X177900314Y-132958373D01*
X178558585Y-131704142D01*
X179060876Y-130379711D01*
X179399862Y-129004392D01*
X179570599Y-127598240D01*
X179570599Y-126181760D01*
X179399862Y-124775608D01*
X179060876Y-123400289D01*
X178558585Y-122075858D01*
X177900314Y-120821627D01*
X177095662Y-119655888D01*
X176156363Y-118595637D01*
X175096112Y-117656338D01*
X173930373Y-116851686D01*
X173474633Y-116612495D01*
X176037000Y-116612495D01*
X176037000Y-117003505D01*
X176113282Y-117387003D01*
X176262915Y-117748250D01*
X176480149Y-118073364D01*
X176756636Y-118349851D01*
X177081750Y-118567085D01*
X177442997Y-118716718D01*
X177826495Y-118793000D01*
X178217505Y-118793000D01*
X178601003Y-118716718D01*
X178962250Y-118567085D01*
X179287364Y-118349851D01*
X179563851Y-118073364D01*
X179781085Y-117748250D01*
X179930718Y-117387003D01*
X180007000Y-117003505D01*
X180007000Y-116612495D01*
X179930718Y-116228997D01*
X179781085Y-115867750D01*
X179563851Y-115542636D01*
X179287364Y-115266149D01*
X178962250Y-115048915D01*
X178601003Y-114899282D01*
X178217505Y-114823000D01*
X177826495Y-114823000D01*
X177442997Y-114899282D01*
X177081750Y-115048915D01*
X176756636Y-115266149D01*
X176480149Y-115542636D01*
X176262915Y-115867750D01*
X176113282Y-116228997D01*
X176037000Y-116612495D01*
X173474633Y-116612495D01*
X172676142Y-116193415D01*
X171351711Y-115691124D01*
X169976392Y-115352138D01*
X168570240Y-115181401D01*
X167153760Y-115181401D01*
X165747608Y-115352138D01*
X164372289Y-115691124D01*
X163047858Y-116193415D01*
X161793627Y-116851686D01*
X160627888Y-117656338D01*
X159567637Y-118595637D01*
X158628338Y-119655888D01*
X157823686Y-120821627D01*
X157165415Y-122075858D01*
X156663124Y-123400289D01*
X156324138Y-124775608D01*
X156153401Y-126181760D01*
X116153000Y-126181760D01*
X116153000Y-116612495D01*
X155971000Y-116612495D01*
X155971000Y-117003505D01*
X156047282Y-117387003D01*
X156196915Y-117748250D01*
X156414149Y-118073364D01*
X156690636Y-118349851D01*
X157015750Y-118567085D01*
X157376997Y-118716718D01*
X157760495Y-118793000D01*
X158151505Y-118793000D01*
X158535003Y-118716718D01*
X158896250Y-118567085D01*
X159221364Y-118349851D01*
X159497851Y-118073364D01*
X159715085Y-117748250D01*
X159864718Y-117387003D01*
X159941000Y-117003505D01*
X159941000Y-116612495D01*
X159864718Y-116228997D01*
X159715085Y-115867750D01*
X159497851Y-115542636D01*
X159221364Y-115266149D01*
X158896250Y-115048915D01*
X158535003Y-114899282D01*
X158151505Y-114823000D01*
X157760495Y-114823000D01*
X157376997Y-114899282D01*
X157015750Y-115048915D01*
X156690636Y-115266149D01*
X156414149Y-115542636D01*
X156196915Y-115867750D01*
X156047282Y-116228997D01*
X155971000Y-116612495D01*
X116153000Y-116612495D01*
X116153000Y-97489495D01*
X131829000Y-97489495D01*
X131829000Y-97880505D01*
X131905282Y-98264003D01*
X132054915Y-98625250D01*
X132272149Y-98950364D01*
X132548636Y-99226851D01*
X132873750Y-99444085D01*
X133234997Y-99593718D01*
X133618495Y-99670000D01*
X134009505Y-99670000D01*
X134393003Y-99593718D01*
X134754250Y-99444085D01*
X135079364Y-99226851D01*
X135355851Y-98950364D01*
X135573085Y-98625250D01*
X135722718Y-98264003D01*
X135799000Y-97880505D01*
X135799000Y-97489495D01*
X135722718Y-97105997D01*
X135573085Y-96744750D01*
X135355851Y-96419636D01*
X135079364Y-96143149D01*
X134754250Y-95925915D01*
X134393003Y-95776282D01*
X134009505Y-95700000D01*
X133618495Y-95700000D01*
X133234997Y-95776282D01*
X132873750Y-95925915D01*
X132548636Y-96143149D01*
X132272149Y-96419636D01*
X132054915Y-96744750D01*
X131905282Y-97105997D01*
X131829000Y-97489495D01*
X116153000Y-97489495D01*
X116153000Y-93468349D01*
X116278692Y-93552334D01*
X116494348Y-93641661D01*
X116723288Y-93687200D01*
X116956712Y-93687200D01*
X117185652Y-93641661D01*
X117401308Y-93552334D01*
X117595394Y-93422650D01*
X117760450Y-93257594D01*
X117794090Y-93207248D01*
X117842463Y-93324031D01*
X118032337Y-93608198D01*
X118274002Y-93849863D01*
X118558169Y-94039737D01*
X118873919Y-94170525D01*
X119209117Y-94237200D01*
X119550883Y-94237200D01*
X119886081Y-94170525D01*
X120201831Y-94039737D01*
X120485998Y-93849863D01*
X120727663Y-93608198D01*
X120917537Y-93324031D01*
X121048325Y-93008281D01*
X121082394Y-92837000D01*
X140459928Y-92837000D01*
X140459928Y-94837000D01*
X140472188Y-94961482D01*
X140508498Y-95081180D01*
X140522299Y-95107000D01*
X140508498Y-95132820D01*
X140472188Y-95252518D01*
X140459928Y-95377000D01*
X140459928Y-97377000D01*
X140472188Y-97501482D01*
X140508498Y-97621180D01*
X140567463Y-97731494D01*
X140646815Y-97828185D01*
X140743506Y-97907537D01*
X140853820Y-97966502D01*
X140973518Y-98002812D01*
X141098000Y-98015072D01*
X143098000Y-98015072D01*
X143222482Y-98002812D01*
X143342180Y-97966502D01*
X143452494Y-97907537D01*
X143549185Y-97828185D01*
X143628537Y-97731494D01*
X143687502Y-97621180D01*
X143723812Y-97501482D01*
X143736072Y-97377000D01*
X143736072Y-95377000D01*
X143723812Y-95252518D01*
X143687502Y-95132820D01*
X143673701Y-95107000D01*
X143687502Y-95081180D01*
X143723812Y-94961482D01*
X143736072Y-94837000D01*
X143736072Y-92837000D01*
X143723812Y-92712518D01*
X143687502Y-92592820D01*
X143628537Y-92482506D01*
X143549185Y-92385815D01*
X143452494Y-92306463D01*
X143342180Y-92247498D01*
X143222482Y-92211188D01*
X143098000Y-92198928D01*
X141098000Y-92198928D01*
X140973518Y-92211188D01*
X140853820Y-92247498D01*
X140743506Y-92306463D01*
X140646815Y-92385815D01*
X140567463Y-92482506D01*
X140508498Y-92592820D01*
X140472188Y-92712518D01*
X140459928Y-92837000D01*
X121082394Y-92837000D01*
X121115000Y-92673083D01*
X121115000Y-92331317D01*
X121048325Y-91996119D01*
X120917537Y-91680369D01*
X120850310Y-91579757D01*
X120931185Y-91513385D01*
X121010537Y-91416694D01*
X121069502Y-91306380D01*
X121105812Y-91186682D01*
X121118072Y-91062200D01*
X121115000Y-90247950D01*
X120956250Y-90089200D01*
X119507000Y-90089200D01*
X119507000Y-90109200D01*
X119253000Y-90109200D01*
X119253000Y-90089200D01*
X119233000Y-90089200D01*
X119233000Y-89835200D01*
X119253000Y-89835200D01*
X119253000Y-88385950D01*
X119507000Y-88385950D01*
X119507000Y-89835200D01*
X120956250Y-89835200D01*
X121115000Y-89676450D01*
X121118072Y-88862200D01*
X121105812Y-88737718D01*
X121069502Y-88618020D01*
X121010537Y-88507706D01*
X120931185Y-88411015D01*
X120834494Y-88331663D01*
X120724180Y-88272698D01*
X120604482Y-88236388D01*
X120480000Y-88224128D01*
X119665750Y-88227200D01*
X119507000Y-88385950D01*
X119253000Y-88385950D01*
X119094250Y-88227200D01*
X118280000Y-88224128D01*
X118155518Y-88236388D01*
X118035820Y-88272698D01*
X117925506Y-88331663D01*
X117828815Y-88411015D01*
X117749463Y-88507706D01*
X117690498Y-88618020D01*
X117654188Y-88737718D01*
X117641928Y-88862200D01*
X117642784Y-89089140D01*
X117595394Y-89041750D01*
X117401308Y-88912066D01*
X117185652Y-88822739D01*
X116956712Y-88777200D01*
X116723288Y-88777200D01*
X116494348Y-88822739D01*
X116278692Y-88912066D01*
X116153000Y-88996051D01*
X116153000Y-83666149D01*
X116278692Y-83750134D01*
X116494348Y-83839461D01*
X116723288Y-83885000D01*
X116956712Y-83885000D01*
X117185652Y-83839461D01*
X117401308Y-83750134D01*
X117595394Y-83620450D01*
X117760450Y-83455394D01*
X117794090Y-83405048D01*
X117842463Y-83521831D01*
X118032337Y-83805998D01*
X118274002Y-84047663D01*
X118558169Y-84237537D01*
X118873919Y-84368325D01*
X119209117Y-84435000D01*
X119550883Y-84435000D01*
X119886081Y-84368325D01*
X120201831Y-84237537D01*
X120485998Y-84047663D01*
X120727663Y-83805998D01*
X120917537Y-83521831D01*
X121048325Y-83206081D01*
X121115000Y-82870883D01*
X121115000Y-82529117D01*
X121048325Y-82193919D01*
X120917537Y-81878169D01*
X120850310Y-81777557D01*
X120931185Y-81711185D01*
X121010537Y-81614494D01*
X121069502Y-81504180D01*
X121081236Y-81465495D01*
X123994100Y-81465495D01*
X123994100Y-81856505D01*
X124070382Y-82240003D01*
X124220015Y-82601250D01*
X124437249Y-82926364D01*
X124713736Y-83202851D01*
X125038850Y-83420085D01*
X125400097Y-83569718D01*
X125783595Y-83646000D01*
X126174605Y-83646000D01*
X126558103Y-83569718D01*
X126687869Y-83515967D01*
X140463000Y-83515967D01*
X140463000Y-83838033D01*
X140525832Y-84153912D01*
X140649082Y-84451463D01*
X140828013Y-84719252D01*
X141055748Y-84946987D01*
X141055767Y-84947000D01*
X141055748Y-84947013D01*
X140828013Y-85174748D01*
X140649082Y-85442537D01*
X140525832Y-85740088D01*
X140463000Y-86055967D01*
X140463000Y-86378033D01*
X140525832Y-86693912D01*
X140649082Y-86991463D01*
X140828013Y-87259252D01*
X141055748Y-87486987D01*
X141323537Y-87665918D01*
X141621088Y-87789168D01*
X141936967Y-87852000D01*
X142259033Y-87852000D01*
X142267588Y-87850298D01*
X146412001Y-91994712D01*
X146412000Y-105472172D01*
X146406994Y-105523000D01*
X146412000Y-105573828D01*
X146412000Y-105573837D01*
X146426976Y-105725894D01*
X146486159Y-105920992D01*
X146582266Y-106100797D01*
X146711604Y-106258396D01*
X146751097Y-106290807D01*
X148558217Y-108097928D01*
X147860000Y-108097928D01*
X147735518Y-108110188D01*
X147615820Y-108146498D01*
X147505506Y-108205463D01*
X147408815Y-108284815D01*
X147329463Y-108381506D01*
X147270498Y-108491820D01*
X147234188Y-108611518D01*
X147221928Y-108736000D01*
X147221928Y-111736000D01*
X147234188Y-111860482D01*
X147270498Y-111980180D01*
X147329463Y-112090494D01*
X147408815Y-112187185D01*
X147505506Y-112266537D01*
X147615820Y-112325502D01*
X147735518Y-112361812D01*
X147860000Y-112374072D01*
X151860000Y-112374072D01*
X151984482Y-112361812D01*
X152104180Y-112325502D01*
X152214494Y-112266537D01*
X152311185Y-112187185D01*
X152390537Y-112090494D01*
X152449502Y-111980180D01*
X152485812Y-111860482D01*
X152498072Y-111736000D01*
X152498072Y-108736000D01*
X152485812Y-108611518D01*
X152449502Y-108491820D01*
X152390537Y-108381506D01*
X152311185Y-108284815D01*
X152214494Y-108205463D01*
X152104180Y-108146498D01*
X151984482Y-108110188D01*
X151860000Y-108097928D01*
X150895000Y-108097928D01*
X150895000Y-107986827D01*
X150900006Y-107935999D01*
X150895000Y-107885171D01*
X150895000Y-107885162D01*
X150880024Y-107733105D01*
X150820841Y-107538007D01*
X150733811Y-107375184D01*
X150724734Y-107358202D01*
X150627803Y-107240092D01*
X150595396Y-107200604D01*
X150555908Y-107168197D01*
X148482000Y-105094290D01*
X148482000Y-101050710D01*
X158363197Y-110931908D01*
X158395604Y-110971396D01*
X158435092Y-111003803D01*
X158553202Y-111100734D01*
X158649309Y-111152104D01*
X158733007Y-111196841D01*
X158928105Y-111256024D01*
X159080162Y-111271000D01*
X159080165Y-111271000D01*
X159131000Y-111276007D01*
X159181835Y-111271000D01*
X166525928Y-111271000D01*
X166525928Y-111736000D01*
X166538188Y-111860482D01*
X166574498Y-111980180D01*
X166633463Y-112090494D01*
X166712815Y-112187185D01*
X166809506Y-112266537D01*
X166919820Y-112325502D01*
X167039518Y-112361812D01*
X167164000Y-112374072D01*
X171164000Y-112374072D01*
X171288482Y-112361812D01*
X171408180Y-112325502D01*
X171518494Y-112266537D01*
X171615185Y-112187185D01*
X171694537Y-112090494D01*
X171753502Y-111980180D01*
X171789812Y-111860482D01*
X171802072Y-111736000D01*
X171802072Y-108736000D01*
X171789812Y-108611518D01*
X171753502Y-108491820D01*
X171694537Y-108381506D01*
X171615185Y-108284815D01*
X171518494Y-108205463D01*
X171408180Y-108146498D01*
X171288482Y-108110188D01*
X171164000Y-108097928D01*
X167164000Y-108097928D01*
X167039518Y-108110188D01*
X166919820Y-108146498D01*
X166809506Y-108205463D01*
X166712815Y-108284815D01*
X166633463Y-108381506D01*
X166574498Y-108491820D01*
X166538188Y-108611518D01*
X166525928Y-108736000D01*
X166525928Y-109201000D01*
X159559711Y-109201000D01*
X150133000Y-99774290D01*
X150133000Y-96987187D01*
X150189383Y-96851067D01*
X150233000Y-96631788D01*
X150233000Y-96408212D01*
X150189383Y-96188933D01*
X150103824Y-95982376D01*
X149979612Y-95796480D01*
X149821520Y-95638388D01*
X149635624Y-95514176D01*
X149429067Y-95428617D01*
X149209788Y-95385000D01*
X148986212Y-95385000D01*
X148766933Y-95428617D01*
X148560376Y-95514176D01*
X148482000Y-95566545D01*
X148482000Y-92837000D01*
X156459928Y-92837000D01*
X156459928Y-94837000D01*
X156472188Y-94961482D01*
X156508498Y-95081180D01*
X156522299Y-95107000D01*
X156508498Y-95132820D01*
X156472188Y-95252518D01*
X156459928Y-95377000D01*
X156459928Y-97377000D01*
X156472188Y-97501482D01*
X156508498Y-97621180D01*
X156567463Y-97731494D01*
X156646815Y-97828185D01*
X156743506Y-97907537D01*
X156853820Y-97966502D01*
X156973518Y-98002812D01*
X157098000Y-98015072D01*
X159098000Y-98015072D01*
X159222482Y-98002812D01*
X159342180Y-97966502D01*
X159452494Y-97907537D01*
X159549185Y-97828185D01*
X159628537Y-97731494D01*
X159687502Y-97621180D01*
X159723812Y-97501482D01*
X159736072Y-97377000D01*
X159736072Y-95377000D01*
X159723812Y-95252518D01*
X159687502Y-95132820D01*
X159673701Y-95107000D01*
X159687502Y-95081180D01*
X159723812Y-94961482D01*
X159732625Y-94872000D01*
X164557172Y-94872000D01*
X164608000Y-94877006D01*
X164658828Y-94872000D01*
X164658838Y-94872000D01*
X164810895Y-94857024D01*
X165005993Y-94797841D01*
X165185797Y-94701734D01*
X165343396Y-94572396D01*
X165375807Y-94532903D01*
X169859908Y-90048803D01*
X169899396Y-90016396D01*
X169931803Y-89976908D01*
X170028734Y-89858798D01*
X170124840Y-89678994D01*
X170124841Y-89678993D01*
X170184024Y-89483895D01*
X170199000Y-89331838D01*
X170199000Y-89331836D01*
X170204007Y-89281000D01*
X170199000Y-89230165D01*
X170199000Y-80670000D01*
X182745928Y-80670000D01*
X182758188Y-80794482D01*
X182794498Y-80914180D01*
X182853463Y-81024494D01*
X182932815Y-81121185D01*
X183029506Y-81200537D01*
X183139820Y-81259502D01*
X183259518Y-81295812D01*
X183384000Y-81308072D01*
X184098250Y-81305000D01*
X184257000Y-81146250D01*
X184257000Y-79797000D01*
X182907750Y-79797000D01*
X182749000Y-79955750D01*
X182745928Y-80670000D01*
X170199000Y-80670000D01*
X170199000Y-78670000D01*
X182745928Y-78670000D01*
X182749000Y-79384250D01*
X182907750Y-79543000D01*
X184257000Y-79543000D01*
X184257000Y-78193750D01*
X184098250Y-78035000D01*
X183384000Y-78031928D01*
X183259518Y-78044188D01*
X183139820Y-78080498D01*
X183029506Y-78139463D01*
X182932815Y-78218815D01*
X182853463Y-78315506D01*
X182794498Y-78425820D01*
X182758188Y-78545518D01*
X182745928Y-78670000D01*
X170199000Y-78670000D01*
X170199000Y-72242072D01*
X171164000Y-72242072D01*
X171288482Y-72229812D01*
X171408180Y-72193502D01*
X171518494Y-72134537D01*
X171615185Y-72055185D01*
X171694537Y-71958494D01*
X171753502Y-71848180D01*
X171789812Y-71728482D01*
X171802072Y-71604000D01*
X171802072Y-69019495D01*
X197913000Y-69019495D01*
X197913000Y-69410505D01*
X197989282Y-69794003D01*
X198138915Y-70155250D01*
X198356149Y-70480364D01*
X198632636Y-70756851D01*
X198957750Y-70974085D01*
X199318997Y-71123718D01*
X199702495Y-71200000D01*
X200093505Y-71200000D01*
X200477003Y-71123718D01*
X200838250Y-70974085D01*
X201163364Y-70756851D01*
X201439851Y-70480364D01*
X201657085Y-70155250D01*
X201806718Y-69794003D01*
X201883000Y-69410505D01*
X201883000Y-69019495D01*
X201806718Y-68635997D01*
X201657085Y-68274750D01*
X201439851Y-67949636D01*
X201163364Y-67673149D01*
X200838250Y-67455915D01*
X200477003Y-67306282D01*
X200093505Y-67230000D01*
X199702495Y-67230000D01*
X199318997Y-67306282D01*
X198957750Y-67455915D01*
X198632636Y-67673149D01*
X198356149Y-67949636D01*
X198138915Y-68274750D01*
X197989282Y-68635997D01*
X197913000Y-69019495D01*
X171802072Y-69019495D01*
X171802072Y-68604000D01*
X171789812Y-68479518D01*
X171753502Y-68359820D01*
X171694537Y-68249506D01*
X171615185Y-68152815D01*
X171518494Y-68073463D01*
X171408180Y-68014498D01*
X171288482Y-67978188D01*
X171164000Y-67965928D01*
X167164000Y-67965928D01*
X167039518Y-67978188D01*
X166919820Y-68014498D01*
X166809506Y-68073463D01*
X166712815Y-68152815D01*
X166633463Y-68249506D01*
X166574498Y-68359820D01*
X166538188Y-68479518D01*
X166525928Y-68604000D01*
X166525928Y-71604000D01*
X166538188Y-71728482D01*
X166574498Y-71848180D01*
X166633463Y-71958494D01*
X166712815Y-72055185D01*
X166809506Y-72134537D01*
X166919820Y-72193502D01*
X167039518Y-72229812D01*
X167164000Y-72242072D01*
X168129000Y-72242072D01*
X168129000Y-79397557D01*
X168062282Y-79276197D01*
X168025933Y-79223110D01*
X167990315Y-79169501D01*
X167983996Y-79161863D01*
X167840606Y-78990978D01*
X167794640Y-78945966D01*
X167749288Y-78900295D01*
X167741606Y-78894030D01*
X167567756Y-78754250D01*
X167513919Y-78719020D01*
X167460556Y-78683026D01*
X167451803Y-78678372D01*
X167254113Y-78575023D01*
X167194485Y-78550933D01*
X167135128Y-78525981D01*
X167125637Y-78523116D01*
X166911639Y-78460133D01*
X166848456Y-78448080D01*
X166785392Y-78435135D01*
X166775526Y-78434168D01*
X166553370Y-78413950D01*
X166489055Y-78414399D01*
X166424673Y-78413950D01*
X166414807Y-78414917D01*
X166192955Y-78438234D01*
X166129931Y-78451171D01*
X166066705Y-78463232D01*
X166057221Y-78466096D01*
X166057217Y-78466097D01*
X166057214Y-78466098D01*
X166057215Y-78466098D01*
X165844117Y-78532062D01*
X165784808Y-78556994D01*
X165725129Y-78581106D01*
X165716376Y-78585760D01*
X165520149Y-78691860D01*
X165466817Y-78727833D01*
X165412955Y-78763079D01*
X165405275Y-78769343D01*
X165405271Y-78769346D01*
X165405267Y-78769350D01*
X165233390Y-78911538D01*
X165188053Y-78957193D01*
X165142070Y-79002223D01*
X165135751Y-79009861D01*
X164994761Y-79182731D01*
X164959141Y-79236343D01*
X164922792Y-79289430D01*
X164918077Y-79298150D01*
X164813350Y-79495114D01*
X164788827Y-79554612D01*
X164763479Y-79613753D01*
X164760548Y-79623223D01*
X164696072Y-79836776D01*
X164683584Y-79899844D01*
X164670192Y-79962848D01*
X164669156Y-79972707D01*
X164647388Y-80194717D01*
X164647388Y-80194724D01*
X164644000Y-80229124D01*
X164644001Y-87029877D01*
X164647499Y-87065394D01*
X164647499Y-87080244D01*
X164648536Y-87090102D01*
X164673402Y-87311786D01*
X164686772Y-87374687D01*
X164699280Y-87437855D01*
X164702211Y-87447325D01*
X164769662Y-87659958D01*
X164795011Y-87719100D01*
X164819536Y-87778602D01*
X164824251Y-87787322D01*
X164931718Y-87982803D01*
X164968067Y-88035890D01*
X165003685Y-88089499D01*
X165010004Y-88097137D01*
X165153394Y-88268022D01*
X165199360Y-88313034D01*
X165244712Y-88358705D01*
X165252394Y-88364970D01*
X165426245Y-88504751D01*
X165480075Y-88539977D01*
X165533444Y-88575974D01*
X165542197Y-88580628D01*
X165739887Y-88683977D01*
X165799515Y-88708067D01*
X165858872Y-88733019D01*
X165868363Y-88735884D01*
X166082361Y-88798867D01*
X166145544Y-88810920D01*
X166208608Y-88823865D01*
X166218473Y-88824832D01*
X166440630Y-88845050D01*
X166504945Y-88844601D01*
X166569327Y-88845050D01*
X166579193Y-88844083D01*
X166801045Y-88820766D01*
X166864069Y-88807829D01*
X166927295Y-88795768D01*
X166936785Y-88792903D01*
X167149883Y-88726938D01*
X167209178Y-88702012D01*
X167268872Y-88677894D01*
X167277624Y-88673240D01*
X167473852Y-88567140D01*
X167527187Y-88531164D01*
X167581046Y-88495920D01*
X167588728Y-88489655D01*
X167760610Y-88347461D01*
X167805928Y-88301826D01*
X167851930Y-88256777D01*
X167858249Y-88249139D01*
X167999238Y-88076269D01*
X168034813Y-88022725D01*
X168071208Y-87969571D01*
X168075923Y-87960850D01*
X168129001Y-87861023D01*
X168129001Y-88852288D01*
X164179290Y-92802000D01*
X159732625Y-92802000D01*
X159723812Y-92712518D01*
X159687502Y-92592820D01*
X159628537Y-92482506D01*
X159549185Y-92385815D01*
X159452494Y-92306463D01*
X159342180Y-92247498D01*
X159222482Y-92211188D01*
X159098000Y-92198928D01*
X157098000Y-92198928D01*
X156973518Y-92211188D01*
X156853820Y-92247498D01*
X156743506Y-92306463D01*
X156646815Y-92385815D01*
X156567463Y-92482506D01*
X156508498Y-92592820D01*
X156472188Y-92712518D01*
X156459928Y-92837000D01*
X148482000Y-92837000D01*
X148482000Y-91616827D01*
X148487006Y-91565999D01*
X148482000Y-91515171D01*
X148482000Y-91515162D01*
X148467024Y-91363105D01*
X148407841Y-91168007D01*
X148348169Y-91056368D01*
X148311734Y-90988202D01*
X148214803Y-90870092D01*
X148182396Y-90830604D01*
X148142908Y-90798197D01*
X144697124Y-87352413D01*
X157142192Y-87352413D01*
X157237956Y-87616814D01*
X157527571Y-87757704D01*
X157839108Y-87839384D01*
X158160595Y-87858718D01*
X158479675Y-87814961D01*
X158784088Y-87709795D01*
X158958044Y-87616814D01*
X159053808Y-87352413D01*
X158098000Y-86396605D01*
X157142192Y-87352413D01*
X144697124Y-87352413D01*
X143731298Y-86386588D01*
X143733000Y-86378033D01*
X143733000Y-86279595D01*
X156456282Y-86279595D01*
X156500039Y-86598675D01*
X156605205Y-86903088D01*
X156698186Y-87077044D01*
X156962587Y-87172808D01*
X157918395Y-86217000D01*
X158277605Y-86217000D01*
X159233413Y-87172808D01*
X159497814Y-87077044D01*
X159638704Y-86787429D01*
X159720384Y-86475892D01*
X159739718Y-86154405D01*
X159695961Y-85835325D01*
X159590795Y-85530912D01*
X159497814Y-85356956D01*
X159233413Y-85261192D01*
X158277605Y-86217000D01*
X157918395Y-86217000D01*
X156962587Y-85261192D01*
X156698186Y-85356956D01*
X156557296Y-85646571D01*
X156475616Y-85958108D01*
X156456282Y-86279595D01*
X143733000Y-86279595D01*
X143733000Y-86055967D01*
X143670168Y-85740088D01*
X143546918Y-85442537D01*
X143367987Y-85174748D01*
X143140252Y-84947013D01*
X143140233Y-84947000D01*
X143140252Y-84946987D01*
X143274826Y-84812413D01*
X157142192Y-84812413D01*
X157190938Y-84947000D01*
X157142192Y-85081587D01*
X158098000Y-86037395D01*
X159053808Y-85081587D01*
X159005062Y-84947000D01*
X159053808Y-84812413D01*
X158098000Y-83856605D01*
X157142192Y-84812413D01*
X143274826Y-84812413D01*
X143367987Y-84719252D01*
X143546918Y-84451463D01*
X143670168Y-84153912D01*
X143733000Y-83838033D01*
X143733000Y-83739595D01*
X156456282Y-83739595D01*
X156500039Y-84058675D01*
X156605205Y-84363088D01*
X156698186Y-84537044D01*
X156962587Y-84632808D01*
X157918395Y-83677000D01*
X158277605Y-83677000D01*
X159233413Y-84632808D01*
X159497814Y-84537044D01*
X159638704Y-84247429D01*
X159720384Y-83935892D01*
X159739718Y-83614405D01*
X159695961Y-83295325D01*
X159590795Y-82990912D01*
X159497814Y-82816956D01*
X159233413Y-82721192D01*
X158277605Y-83677000D01*
X157918395Y-83677000D01*
X156962587Y-82721192D01*
X156698186Y-82816956D01*
X156557296Y-83106571D01*
X156475616Y-83418108D01*
X156456282Y-83739595D01*
X143733000Y-83739595D01*
X143733000Y-83515967D01*
X143670168Y-83200088D01*
X143546918Y-82902537D01*
X143367987Y-82634748D01*
X143274826Y-82541587D01*
X157142192Y-82541587D01*
X158098000Y-83497395D01*
X159053808Y-82541587D01*
X158958044Y-82277186D01*
X158668429Y-82136296D01*
X158356892Y-82054616D01*
X158035405Y-82035282D01*
X157716325Y-82079039D01*
X157411912Y-82184205D01*
X157237956Y-82277186D01*
X157142192Y-82541587D01*
X143274826Y-82541587D01*
X143140252Y-82407013D01*
X142872463Y-82228082D01*
X142574912Y-82104832D01*
X142259033Y-82042000D01*
X141936967Y-82042000D01*
X141621088Y-82104832D01*
X141323537Y-82228082D01*
X141055748Y-82407013D01*
X140828013Y-82634748D01*
X140649082Y-82902537D01*
X140525832Y-83200088D01*
X140463000Y-83515967D01*
X126687869Y-83515967D01*
X126919350Y-83420085D01*
X127244464Y-83202851D01*
X127520951Y-82926364D01*
X127738185Y-82601250D01*
X127887818Y-82240003D01*
X127964100Y-81856505D01*
X127964100Y-81465495D01*
X127887818Y-81081997D01*
X127738185Y-80720750D01*
X127520951Y-80395636D01*
X127244464Y-80119149D01*
X126919350Y-79901915D01*
X126558103Y-79752282D01*
X126174605Y-79676000D01*
X125783595Y-79676000D01*
X125400097Y-79752282D01*
X125038850Y-79901915D01*
X124713736Y-80119149D01*
X124437249Y-80395636D01*
X124220015Y-80720750D01*
X124070382Y-81081997D01*
X123994100Y-81465495D01*
X121081236Y-81465495D01*
X121105812Y-81384482D01*
X121118072Y-81260000D01*
X121118072Y-79060000D01*
X121105812Y-78935518D01*
X121069502Y-78815820D01*
X121010537Y-78705506D01*
X120981399Y-78670000D01*
X139345928Y-78670000D01*
X139345928Y-80670000D01*
X139358188Y-80794482D01*
X139394498Y-80914180D01*
X139453463Y-81024494D01*
X139532815Y-81121185D01*
X139629506Y-81200537D01*
X139739820Y-81259502D01*
X139859518Y-81295812D01*
X139984000Y-81308072D01*
X141984000Y-81308072D01*
X142108482Y-81295812D01*
X142228180Y-81259502D01*
X142338494Y-81200537D01*
X142435185Y-81121185D01*
X142514537Y-81024494D01*
X142573502Y-80914180D01*
X142590288Y-80858846D01*
X142652525Y-80921083D01*
X142768193Y-80805415D01*
X142863956Y-81069814D01*
X143153571Y-81210704D01*
X143465108Y-81292384D01*
X143786595Y-81311718D01*
X144105675Y-81267961D01*
X144410088Y-81162795D01*
X144584044Y-81069814D01*
X144679808Y-80805413D01*
X143724000Y-79849605D01*
X143709858Y-79863748D01*
X143530253Y-79684143D01*
X143544395Y-79670000D01*
X143903605Y-79670000D01*
X144859413Y-80625808D01*
X144921280Y-80603400D01*
X144994013Y-80712252D01*
X145221748Y-80939987D01*
X145489537Y-81118918D01*
X145787088Y-81242168D01*
X146102967Y-81305000D01*
X146425033Y-81305000D01*
X146740912Y-81242168D01*
X147038463Y-81118918D01*
X147306252Y-80939987D01*
X147533987Y-80712252D01*
X147712918Y-80444463D01*
X147836168Y-80146912D01*
X147899000Y-79831033D01*
X147899000Y-79508967D01*
X147836168Y-79193088D01*
X147712918Y-78895537D01*
X147533987Y-78627748D01*
X147306252Y-78400013D01*
X147038463Y-78221082D01*
X146740912Y-78097832D01*
X146425033Y-78035000D01*
X146102967Y-78035000D01*
X145787088Y-78097832D01*
X145489537Y-78221082D01*
X145221748Y-78400013D01*
X144994013Y-78627748D01*
X144921280Y-78736600D01*
X144859413Y-78714192D01*
X143903605Y-79670000D01*
X143544395Y-79670000D01*
X143530253Y-79655858D01*
X143709858Y-79476253D01*
X143724000Y-79490395D01*
X144679808Y-78534587D01*
X144584044Y-78270186D01*
X144294429Y-78129296D01*
X143982892Y-78047616D01*
X143661405Y-78028282D01*
X143342325Y-78072039D01*
X143037912Y-78177205D01*
X142863956Y-78270186D01*
X142768193Y-78534585D01*
X142652525Y-78418917D01*
X142590288Y-78481154D01*
X142573502Y-78425820D01*
X142514537Y-78315506D01*
X142435185Y-78218815D01*
X142338494Y-78139463D01*
X142228180Y-78080498D01*
X142108482Y-78044188D01*
X141984000Y-78031928D01*
X139984000Y-78031928D01*
X139859518Y-78044188D01*
X139739820Y-78080498D01*
X139629506Y-78139463D01*
X139532815Y-78218815D01*
X139453463Y-78315506D01*
X139394498Y-78425820D01*
X139358188Y-78545518D01*
X139345928Y-78670000D01*
X120981399Y-78670000D01*
X120931185Y-78608815D01*
X120834494Y-78529463D01*
X120724180Y-78470498D01*
X120604482Y-78434188D01*
X120480000Y-78421928D01*
X118280000Y-78421928D01*
X118155518Y-78434188D01*
X118035820Y-78470498D01*
X117925506Y-78529463D01*
X117828815Y-78608815D01*
X117749463Y-78705506D01*
X117690498Y-78815820D01*
X117654188Y-78935518D01*
X117641928Y-79060000D01*
X117641928Y-79286084D01*
X117595394Y-79239550D01*
X117401308Y-79109866D01*
X117185652Y-79020539D01*
X116956712Y-78975000D01*
X116723288Y-78975000D01*
X116494348Y-79020539D01*
X116278692Y-79109866D01*
X116153000Y-79193851D01*
X116153000Y-71604000D01*
X147221928Y-71604000D01*
X147234188Y-71728482D01*
X147270498Y-71848180D01*
X147329463Y-71958494D01*
X147408815Y-72055185D01*
X147505506Y-72134537D01*
X147615820Y-72193502D01*
X147735518Y-72229812D01*
X147860000Y-72242072D01*
X149574250Y-72239000D01*
X149733000Y-72080250D01*
X149733000Y-70231000D01*
X149987000Y-70231000D01*
X149987000Y-72080250D01*
X150145750Y-72239000D01*
X151860000Y-72242072D01*
X151984482Y-72229812D01*
X152104180Y-72193502D01*
X152214494Y-72134537D01*
X152311185Y-72055185D01*
X152390537Y-71958494D01*
X152449502Y-71848180D01*
X152485812Y-71728482D01*
X152498072Y-71604000D01*
X152495000Y-70389750D01*
X152336250Y-70231000D01*
X149987000Y-70231000D01*
X149733000Y-70231000D01*
X147383750Y-70231000D01*
X147225000Y-70389750D01*
X147221928Y-71604000D01*
X116153000Y-71604000D01*
X116153000Y-69019495D01*
X117012000Y-69019495D01*
X117012000Y-69410505D01*
X117088282Y-69794003D01*
X117237915Y-70155250D01*
X117455149Y-70480364D01*
X117731636Y-70756851D01*
X118056750Y-70974085D01*
X118417997Y-71123718D01*
X118801495Y-71200000D01*
X119192505Y-71200000D01*
X119576003Y-71123718D01*
X119937250Y-70974085D01*
X120262364Y-70756851D01*
X120538851Y-70480364D01*
X120756085Y-70155250D01*
X120905718Y-69794003D01*
X120982000Y-69410505D01*
X120982000Y-69019495D01*
X120905718Y-68635997D01*
X120892465Y-68604000D01*
X147221928Y-68604000D01*
X147225000Y-69818250D01*
X147383750Y-69977000D01*
X149733000Y-69977000D01*
X149733000Y-68127750D01*
X149987000Y-68127750D01*
X149987000Y-69977000D01*
X152336250Y-69977000D01*
X152495000Y-69818250D01*
X152498072Y-68604000D01*
X152485812Y-68479518D01*
X152449502Y-68359820D01*
X152390537Y-68249506D01*
X152311185Y-68152815D01*
X152214494Y-68073463D01*
X152104180Y-68014498D01*
X151984482Y-67978188D01*
X151860000Y-67965928D01*
X150145750Y-67969000D01*
X149987000Y-68127750D01*
X149733000Y-68127750D01*
X149574250Y-67969000D01*
X147860000Y-67965928D01*
X147735518Y-67978188D01*
X147615820Y-68014498D01*
X147505506Y-68073463D01*
X147408815Y-68152815D01*
X147329463Y-68249506D01*
X147270498Y-68359820D01*
X147234188Y-68479518D01*
X147221928Y-68604000D01*
X120892465Y-68604000D01*
X120756085Y-68274750D01*
X120538851Y-67949636D01*
X120262364Y-67673149D01*
X119937250Y-67455915D01*
X119576003Y-67306282D01*
X119192505Y-67230000D01*
X118801495Y-67230000D01*
X118417997Y-67306282D01*
X118056750Y-67455915D01*
X117731636Y-67673149D01*
X117455149Y-67949636D01*
X117237915Y-68274750D01*
X117088282Y-68635997D01*
X117012000Y-69019495D01*
X116153000Y-69019495D01*
X116153000Y-66242000D01*
X208633000Y-66242000D01*
X208633001Y-153214000D01*
X208633001Y-153214000D01*
G37*
X208633001Y-153214000D02*
X116153000Y-153214000D01*
X116153000Y-150194495D01*
X117012000Y-150194495D01*
X117012000Y-150585505D01*
X117088282Y-150969003D01*
X117237915Y-151330250D01*
X117455149Y-151655364D01*
X117731636Y-151931851D01*
X118056750Y-152149085D01*
X118417997Y-152298718D01*
X118801495Y-152375000D01*
X119192505Y-152375000D01*
X119576003Y-152298718D01*
X119937250Y-152149085D01*
X120262364Y-151931851D01*
X120538851Y-151655364D01*
X120756085Y-151330250D01*
X120905718Y-150969003D01*
X120982000Y-150585505D01*
X120982000Y-150194495D01*
X197913000Y-150194495D01*
X197913000Y-150585505D01*
X197989282Y-150969003D01*
X198138915Y-151330250D01*
X198356149Y-151655364D01*
X198632636Y-151931851D01*
X198957750Y-152149085D01*
X199318997Y-152298718D01*
X199702495Y-152375000D01*
X200093505Y-152375000D01*
X200477003Y-152298718D01*
X200838250Y-152149085D01*
X201163364Y-151931851D01*
X201439851Y-151655364D01*
X201657085Y-151330250D01*
X201806718Y-150969003D01*
X201883000Y-150585505D01*
X201883000Y-150194495D01*
X201806718Y-149810997D01*
X201657085Y-149449750D01*
X201439851Y-149124636D01*
X201163364Y-148848149D01*
X200838250Y-148630915D01*
X200477003Y-148481282D01*
X200093505Y-148405000D01*
X199702495Y-148405000D01*
X199318997Y-148481282D01*
X198957750Y-148630915D01*
X198632636Y-148848149D01*
X198356149Y-149124636D01*
X198138915Y-149449750D01*
X197989282Y-149810997D01*
X197913000Y-150194495D01*
X120982000Y-150194495D01*
X120905718Y-149810997D01*
X120756085Y-149449750D01*
X120538851Y-149124636D01*
X120262364Y-148848149D01*
X119937250Y-148630915D01*
X119576003Y-148481282D01*
X119192505Y-148405000D01*
X118801495Y-148405000D01*
X118417997Y-148481282D01*
X118056750Y-148630915D01*
X117731636Y-148848149D01*
X117455149Y-149124636D01*
X117237915Y-149449750D01*
X117088282Y-149810997D01*
X117012000Y-150194495D01*
X116153000Y-150194495D01*
X116153000Y-146489495D01*
X131829000Y-146489495D01*
X131829000Y-146880505D01*
X131905282Y-147264003D01*
X132054915Y-147625250D01*
X132272149Y-147950364D01*
X132548636Y-148226851D01*
X132873750Y-148444085D01*
X133234997Y-148593718D01*
X133618495Y-148670000D01*
X134009505Y-148670000D01*
X134393003Y-148593718D01*
X134754250Y-148444085D01*
X135079364Y-148226851D01*
X135351215Y-147955000D01*
X137191815Y-147955000D01*
X137220487Y-148246111D01*
X137305401Y-148526034D01*
X137443294Y-148784014D01*
X137628866Y-149010134D01*
X137854986Y-149195706D01*
X138112966Y-149333599D01*
X138392889Y-149418513D01*
X138611050Y-149440000D01*
X138756950Y-149440000D01*
X138975111Y-149418513D01*
X139255034Y-149333599D01*
X139513014Y-149195706D01*
X139739134Y-149010134D01*
X139924706Y-148784014D01*
X139954000Y-148729209D01*
X139983294Y-148784014D01*
X140168866Y-149010134D01*
X140394986Y-149195706D01*
X140652966Y-149333599D01*
X140932889Y-149418513D01*
X141151050Y-149440000D01*
X141296950Y-149440000D01*
X141515111Y-149418513D01*
X141795034Y-149333599D01*
X142053014Y-149195706D01*
X142279134Y-149010134D01*
X142464706Y-148784014D01*
X142494000Y-148729209D01*
X142523294Y-148784014D01*
X142708866Y-149010134D01*
X142934986Y-149195706D01*
X143192966Y-149333599D01*
X143472889Y-149418513D01*
X143691050Y-149440000D01*
X143836950Y-149440000D01*
X144055111Y-149418513D01*
X144335034Y-149333599D01*
X144593014Y-149195706D01*
X144819134Y-149010134D01*
X145004706Y-148784014D01*
X145039201Y-148719477D01*
X145108822Y-148836355D01*
X145303731Y-149052588D01*
X145537080Y-149226641D01*
X145799901Y-149351825D01*
X145947110Y-149396476D01*
X146177000Y-149275155D01*
X146177000Y-148082000D01*
X146157000Y-148082000D01*
X146157000Y-147828000D01*
X146177000Y-147828000D01*
X146177000Y-147808000D01*
X146431000Y-147808000D01*
X146431000Y-147828000D01*
X146451000Y-147828000D01*
X146451000Y-148082000D01*
X146431000Y-148082000D01*
X146431000Y-149275155D01*
X146660890Y-149396476D01*
X146808099Y-149351825D01*
X147070920Y-149226641D01*
X147304269Y-149052588D01*
X147499178Y-148836355D01*
X147568799Y-148719477D01*
X147603294Y-148784014D01*
X147788866Y-149010134D01*
X148014986Y-149195706D01*
X148272966Y-149333599D01*
X148552889Y-149418513D01*
X148771050Y-149440000D01*
X148916950Y-149440000D01*
X149135111Y-149418513D01*
X149415034Y-149333599D01*
X149673014Y-149195706D01*
X149899134Y-149010134D01*
X150084706Y-148784014D01*
X150119201Y-148719477D01*
X150188822Y-148836355D01*
X150383731Y-149052588D01*
X150617080Y-149226641D01*
X150879901Y-149351825D01*
X151027110Y-149396476D01*
X151257000Y-149275155D01*
X151257000Y-148082000D01*
X151237000Y-148082000D01*
X151237000Y-147828000D01*
X151257000Y-147828000D01*
X151257000Y-147808000D01*
X151511000Y-147808000D01*
X151511000Y-147828000D01*
X151531000Y-147828000D01*
X151531000Y-148082000D01*
X151511000Y-148082000D01*
X151511000Y-149275155D01*
X151740890Y-149396476D01*
X151888099Y-149351825D01*
X152150920Y-149226641D01*
X152384269Y-149052588D01*
X152579178Y-148836355D01*
X152648799Y-148719477D01*
X152683294Y-148784014D01*
X152868866Y-149010134D01*
X153094986Y-149195706D01*
X153352966Y-149333599D01*
X153632889Y-149418513D01*
X153851050Y-149440000D01*
X153996950Y-149440000D01*
X154215111Y-149418513D01*
X154495034Y-149333599D01*
X154753014Y-149195706D01*
X154979134Y-149010134D01*
X155164706Y-148784014D01*
X155194000Y-148729209D01*
X155223294Y-148784014D01*
X155408866Y-149010134D01*
X155634986Y-149195706D01*
X155892966Y-149333599D01*
X156172889Y-149418513D01*
X156391050Y-149440000D01*
X156536950Y-149440000D01*
X156755111Y-149418513D01*
X157035034Y-149333599D01*
X157293014Y-149195706D01*
X157519134Y-149010134D01*
X157704706Y-148784014D01*
X157734000Y-148729209D01*
X157763294Y-148784014D01*
X157948866Y-149010134D01*
X158174986Y-149195706D01*
X158432966Y-149333599D01*
X158712889Y-149418513D01*
X158931050Y-149440000D01*
X159076950Y-149440000D01*
X159295111Y-149418513D01*
X159369995Y-149395797D01*
X159665202Y-149691004D01*
X159689000Y-149720002D01*
X159717998Y-149743800D01*
X159804724Y-149814975D01*
X159936754Y-149885547D01*
X160080015Y-149929004D01*
X160191668Y-149940001D01*
X160191677Y-149940001D01*
X160229000Y-149943677D01*
X160266323Y-149940001D01*
X162094679Y-149940001D01*
X162132001Y-149943677D01*
X162169323Y-149940001D01*
X162169334Y-149940001D01*
X162280987Y-149929004D01*
X162424248Y-149885547D01*
X162556277Y-149814975D01*
X162672002Y-149720002D01*
X162695804Y-149690999D01*
X163227202Y-149159602D01*
X163317080Y-149226641D01*
X163579901Y-149351825D01*
X163727110Y-149396476D01*
X163957000Y-149275155D01*
X163957000Y-148082000D01*
X163937000Y-148082000D01*
X163937000Y-147828000D01*
X163957000Y-147828000D01*
X163957000Y-147808000D01*
X164211000Y-147808000D01*
X164211000Y-147828000D01*
X164231000Y-147828000D01*
X164231000Y-148082000D01*
X164211000Y-148082000D01*
X164211000Y-149275155D01*
X164440890Y-149396476D01*
X164588099Y-149351825D01*
X164850920Y-149226641D01*
X165084269Y-149052588D01*
X165279178Y-148836355D01*
X165348799Y-148719477D01*
X165383294Y-148784014D01*
X165568866Y-149010134D01*
X165794986Y-149195706D01*
X166052966Y-149333599D01*
X166332889Y-149418513D01*
X166551050Y-149440000D01*
X166696950Y-149440000D01*
X166915111Y-149418513D01*
X167195034Y-149333599D01*
X167453014Y-149195706D01*
X167679134Y-149010134D01*
X167864706Y-148784014D01*
X167894000Y-148729209D01*
X167923294Y-148784014D01*
X168108866Y-149010134D01*
X168334986Y-149195706D01*
X168592966Y-149333599D01*
X168872889Y-149418513D01*
X169091050Y-149440000D01*
X169236950Y-149440000D01*
X169455111Y-149418513D01*
X169735034Y-149333599D01*
X169993014Y-149195706D01*
X170219134Y-149010134D01*
X170404706Y-148784014D01*
X170439201Y-148719477D01*
X170508822Y-148836355D01*
X170703731Y-149052588D01*
X170937080Y-149226641D01*
X171199901Y-149351825D01*
X171347110Y-149396476D01*
X171577000Y-149275155D01*
X171577000Y-148082000D01*
X171557000Y-148082000D01*
X171557000Y-147828000D01*
X171577000Y-147828000D01*
X171577000Y-147808000D01*
X171831000Y-147808000D01*
X171831000Y-147828000D01*
X171851000Y-147828000D01*
X171851000Y-148082000D01*
X171831000Y-148082000D01*
X171831000Y-149275155D01*
X172060890Y-149396476D01*
X172208099Y-149351825D01*
X172470920Y-149226641D01*
X172704269Y-149052588D01*
X172899178Y-148836355D01*
X172968799Y-148719477D01*
X173003294Y-148784014D01*
X173188866Y-149010134D01*
X173414986Y-149195706D01*
X173672966Y-149333599D01*
X173952889Y-149418513D01*
X174171050Y-149440000D01*
X174316950Y-149440000D01*
X174535111Y-149418513D01*
X174815034Y-149333599D01*
X175073014Y-149195706D01*
X175299134Y-149010134D01*
X175484706Y-148784014D01*
X175514000Y-148729209D01*
X175543294Y-148784014D01*
X175728866Y-149010134D01*
X175954986Y-149195706D01*
X176212966Y-149333599D01*
X176492889Y-149418513D01*
X176711050Y-149440000D01*
X176856950Y-149440000D01*
X177075111Y-149418513D01*
X177355034Y-149333599D01*
X177613014Y-149195706D01*
X177839134Y-149010134D01*
X178024706Y-148784014D01*
X178054000Y-148729209D01*
X178083294Y-148784014D01*
X178268866Y-149010134D01*
X178494986Y-149195706D01*
X178752966Y-149333599D01*
X179032889Y-149418513D01*
X179251050Y-149440000D01*
X179396950Y-149440000D01*
X179615111Y-149418513D01*
X179895034Y-149333599D01*
X180153014Y-149195706D01*
X180379134Y-149010134D01*
X180564706Y-148784014D01*
X180594000Y-148729209D01*
X180623294Y-148784014D01*
X180808866Y-149010134D01*
X181034986Y-149195706D01*
X181292966Y-149333599D01*
X181572889Y-149418513D01*
X181791050Y-149440000D01*
X181936950Y-149440000D01*
X182155111Y-149418513D01*
X182435034Y-149333599D01*
X182693014Y-149195706D01*
X182919134Y-149010134D01*
X183104706Y-148784014D01*
X183134000Y-148729209D01*
X183163294Y-148784014D01*
X183348866Y-149010134D01*
X183574986Y-149195706D01*
X183832966Y-149333599D01*
X184112889Y-149418513D01*
X184331050Y-149440000D01*
X184476950Y-149440000D01*
X184695111Y-149418513D01*
X184975034Y-149333599D01*
X185233014Y-149195706D01*
X185459134Y-149010134D01*
X185644706Y-148784014D01*
X185674000Y-148729209D01*
X185703294Y-148784014D01*
X185888866Y-149010134D01*
X186114986Y-149195706D01*
X186372966Y-149333599D01*
X186652889Y-149418513D01*
X186871050Y-149440000D01*
X187016950Y-149440000D01*
X187235111Y-149418513D01*
X187515034Y-149333599D01*
X187773014Y-149195706D01*
X187999134Y-149010134D01*
X188184706Y-148784014D01*
X188322599Y-148526034D01*
X188407513Y-148246111D01*
X188436185Y-147955000D01*
X188407513Y-147663889D01*
X188322599Y-147383966D01*
X188184706Y-147125986D01*
X187999134Y-146899866D01*
X187969313Y-146875393D01*
X188038180Y-146854502D01*
X188148494Y-146795537D01*
X188245185Y-146716185D01*
X188324537Y-146619494D01*
X188383502Y-146509180D01*
X188389473Y-146489495D01*
X189829000Y-146489495D01*
X189829000Y-146880505D01*
X189905282Y-147264003D01*
X190054915Y-147625250D01*
X190272149Y-147950364D01*
X190548636Y-148226851D01*
X190873750Y-148444085D01*
X191234997Y-148593718D01*
X191618495Y-148670000D01*
X192009505Y-148670000D01*
X192393003Y-148593718D01*
X192754250Y-148444085D01*
X193079364Y-148226851D01*
X193355851Y-147950364D01*
X193573085Y-147625250D01*
X193722718Y-147264003D01*
X193799000Y-146880505D01*
X193799000Y-146489495D01*
X193787365Y-146431000D01*
X203589089Y-146431000D01*
X203620657Y-146751516D01*
X203714148Y-147059715D01*
X203865969Y-147343752D01*
X204070286Y-147592714D01*
X204319248Y-147797031D01*
X204603285Y-147948852D01*
X204911484Y-148042343D01*
X205151678Y-148066000D01*
X205312322Y-148066000D01*
X205552516Y-148042343D01*
X205860715Y-147948852D01*
X206144752Y-147797031D01*
X206393714Y-147592714D01*
X206598031Y-147343752D01*
X206749852Y-147059715D01*
X206843343Y-146751516D01*
X206874911Y-146431000D01*
X206843343Y-146110484D01*
X206749852Y-145802285D01*
X206598031Y-145518248D01*
X206393714Y-145269286D01*
X206267361Y-145165591D01*
X206274252Y-145160987D01*
X206501987Y-144933252D01*
X206680918Y-144665463D01*
X206804168Y-144367912D01*
X206867000Y-144052033D01*
X206867000Y-143729967D01*
X206804168Y-143414088D01*
X206680918Y-143116537D01*
X206501987Y-142848748D01*
X206274252Y-142621013D01*
X206006463Y-142442082D01*
X205708912Y-142318832D01*
X205393033Y-142256000D01*
X205070967Y-142256000D01*
X204755088Y-142318832D01*
X204457537Y-142442082D01*
X204189748Y-142621013D01*
X203962013Y-142848748D01*
X203783082Y-143116537D01*
X203659832Y-143414088D01*
X203597000Y-143729967D01*
X203597000Y-144052033D01*
X203659832Y-144367912D01*
X203783082Y-144665463D01*
X203962013Y-144933252D01*
X204189748Y-145160987D01*
X204196639Y-145165591D01*
X204070286Y-145269286D01*
X203865969Y-145518248D01*
X203714148Y-145802285D01*
X203620657Y-146110484D01*
X203589089Y-146431000D01*
X193787365Y-146431000D01*
X193722718Y-146105997D01*
X193573085Y-145744750D01*
X193355851Y-145419636D01*
X193079364Y-145143149D01*
X192754250Y-144925915D01*
X192393003Y-144776282D01*
X192009505Y-144700000D01*
X191618495Y-144700000D01*
X191234997Y-144776282D01*
X190873750Y-144925915D01*
X190548636Y-145143149D01*
X190272149Y-145419636D01*
X190054915Y-145744750D01*
X189905282Y-146105997D01*
X189829000Y-146489495D01*
X188389473Y-146489495D01*
X188419812Y-146389482D01*
X188432072Y-146265000D01*
X188432072Y-144565000D01*
X188419812Y-144440518D01*
X188383502Y-144320820D01*
X188324537Y-144210506D01*
X188245185Y-144113815D01*
X188148494Y-144034463D01*
X188038180Y-143975498D01*
X187918482Y-143939188D01*
X187794000Y-143926928D01*
X186919639Y-143926928D01*
X186500710Y-143508000D01*
X196535199Y-143508000D01*
X197440790Y-144413592D01*
X197397000Y-144633740D01*
X197397000Y-144926260D01*
X197454068Y-145213158D01*
X197566010Y-145483411D01*
X197728525Y-145726632D01*
X197935368Y-145933475D01*
X198178589Y-146095990D01*
X198448842Y-146207932D01*
X198735740Y-146265000D01*
X199028260Y-146265000D01*
X199315158Y-146207932D01*
X199585411Y-146095990D01*
X199828632Y-145933475D01*
X200035475Y-145726632D01*
X200197990Y-145483411D01*
X200309932Y-145213158D01*
X200367000Y-144926260D01*
X200367000Y-144633740D01*
X200309932Y-144346842D01*
X200197990Y-144076589D01*
X200035475Y-143833368D01*
X199828632Y-143626525D01*
X199585411Y-143464010D01*
X199315158Y-143352068D01*
X199028260Y-143295000D01*
X198735740Y-143295000D01*
X198515592Y-143338790D01*
X197413804Y-142237003D01*
X197390001Y-142207999D01*
X197274276Y-142113026D01*
X197142247Y-142042454D01*
X196998986Y-141998997D01*
X196887333Y-141988000D01*
X196887322Y-141988000D01*
X196850000Y-141984324D01*
X196812678Y-141988000D01*
X188106452Y-141988000D01*
X188124030Y-141970422D01*
X188008082Y-141854474D01*
X188262261Y-141770792D01*
X188393158Y-141498225D01*
X188468365Y-141205358D01*
X188484991Y-140903447D01*
X188442397Y-140604093D01*
X188342222Y-140318801D01*
X188262261Y-140169208D01*
X188008080Y-140085525D01*
X187123605Y-140970000D01*
X187137748Y-140984143D01*
X186958143Y-141163748D01*
X186944000Y-141149605D01*
X186929858Y-141163748D01*
X186750253Y-140984143D01*
X186764395Y-140970000D01*
X185879920Y-140085525D01*
X185698951Y-140145105D01*
X185596312Y-139991495D01*
X185510737Y-139905920D01*
X186059525Y-139905920D01*
X186944000Y-140790395D01*
X187828475Y-139905920D01*
X187744792Y-139651739D01*
X187472225Y-139520842D01*
X187179358Y-139445635D01*
X186877447Y-139429009D01*
X186578093Y-139471603D01*
X186292801Y-139571778D01*
X186143208Y-139651739D01*
X186059525Y-139905920D01*
X185510737Y-139905920D01*
X185382505Y-139777688D01*
X185131095Y-139609701D01*
X184851743Y-139493989D01*
X184555184Y-139435000D01*
X184252816Y-139435000D01*
X183956257Y-139493989D01*
X183894000Y-139519777D01*
X183894000Y-136458801D01*
X184159717Y-136193084D01*
X184185738Y-136232028D01*
X184315972Y-136362262D01*
X184469111Y-136464586D01*
X184639271Y-136535068D01*
X184819911Y-136571000D01*
X185004089Y-136571000D01*
X185184729Y-136535068D01*
X185354889Y-136464586D01*
X185508028Y-136362262D01*
X185610500Y-136259790D01*
X185681954Y-136331244D01*
X185268351Y-136744847D01*
X185147271Y-136768932D01*
X184977111Y-136839414D01*
X184823972Y-136941738D01*
X184693738Y-137071972D01*
X184591414Y-137225111D01*
X184520932Y-137395271D01*
X184485000Y-137575911D01*
X184485000Y-137760089D01*
X184520932Y-137940729D01*
X184591414Y-138110889D01*
X184693738Y-138264028D01*
X184823972Y-138394262D01*
X184977111Y-138496586D01*
X185147271Y-138567068D01*
X185327911Y-138603000D01*
X185512089Y-138603000D01*
X185692729Y-138567068D01*
X185862889Y-138496586D01*
X185927809Y-138453208D01*
X185971276Y-138429974D01*
X186009372Y-138398709D01*
X186016028Y-138394262D01*
X186021688Y-138388602D01*
X186087001Y-138335001D01*
X186140602Y-138269688D01*
X186146262Y-138264028D01*
X186150709Y-138257372D01*
X186181974Y-138219276D01*
X186205207Y-138175810D01*
X186248586Y-138110889D01*
X186319068Y-137940729D01*
X186343153Y-137819649D01*
X187706307Y-136456495D01*
X197913000Y-136456495D01*
X197913000Y-136847505D01*
X197989282Y-137231003D01*
X198138915Y-137592250D01*
X198356149Y-137917364D01*
X198632636Y-138193851D01*
X198957750Y-138411085D01*
X199318997Y-138560718D01*
X199702495Y-138637000D01*
X200093505Y-138637000D01*
X200477003Y-138560718D01*
X200838250Y-138411085D01*
X201163364Y-138193851D01*
X201439851Y-137917364D01*
X201657085Y-137592250D01*
X201806718Y-137231003D01*
X201883000Y-136847505D01*
X201883000Y-136456495D01*
X201806718Y-136072997D01*
X201657085Y-135711750D01*
X201439851Y-135386636D01*
X201163364Y-135110149D01*
X200838250Y-134892915D01*
X200477003Y-134743282D01*
X200093505Y-134667000D01*
X199702495Y-134667000D01*
X199318997Y-134743282D01*
X198957750Y-134892915D01*
X198632636Y-135110149D01*
X198356149Y-135386636D01*
X198138915Y-135711750D01*
X197989282Y-136072997D01*
X197913000Y-136456495D01*
X187706307Y-136456495D01*
X188032018Y-136130785D01*
X188061010Y-136106992D01*
X188084804Y-136077999D01*
X188084808Y-136077995D01*
X188155982Y-135991268D01*
X188155983Y-135991267D01*
X188226555Y-135859238D01*
X188270012Y-135715977D01*
X188281009Y-135604324D01*
X188281009Y-135604315D01*
X188284685Y-135566992D01*
X188281009Y-135529669D01*
X188281009Y-129665000D01*
X203289667Y-129665000D01*
X203327000Y-129668677D01*
X203364333Y-129665000D01*
X203784321Y-129665000D01*
X203865969Y-129817752D01*
X204070286Y-130066714D01*
X204207154Y-130179038D01*
X204032252Y-130334215D01*
X203838601Y-130589618D01*
X203698498Y-130877893D01*
X203641876Y-131064566D01*
X203761222Y-131317998D01*
X203745865Y-131317998D01*
X203311446Y-130883579D01*
X203285291Y-130851709D01*
X203158146Y-130747364D01*
X203013087Y-130669828D01*
X202855689Y-130622082D01*
X202733019Y-130610000D01*
X202733018Y-130610000D01*
X202692000Y-130605960D01*
X202650982Y-130610000D01*
X192540132Y-130610000D01*
X192493520Y-130563388D01*
X192307624Y-130439176D01*
X192101067Y-130353617D01*
X191881788Y-130310000D01*
X191658212Y-130310000D01*
X191438933Y-130353617D01*
X191232376Y-130439176D01*
X191046480Y-130563388D01*
X190888388Y-130721480D01*
X190764176Y-130907376D01*
X190678617Y-131113933D01*
X190635000Y-131333212D01*
X190635000Y-131399132D01*
X189819132Y-132215000D01*
X189753212Y-132215000D01*
X189533933Y-132258617D01*
X189327376Y-132344176D01*
X189141480Y-132468388D01*
X188983388Y-132626480D01*
X188859176Y-132812376D01*
X188773617Y-133018933D01*
X188730000Y-133238212D01*
X188730000Y-133461788D01*
X188773617Y-133681067D01*
X188859176Y-133887624D01*
X188983388Y-134073520D01*
X189141480Y-134231612D01*
X189327376Y-134355824D01*
X189533933Y-134441383D01*
X189753212Y-134485000D01*
X189976788Y-134485000D01*
X190196067Y-134441383D01*
X190402624Y-134355824D01*
X190588520Y-134231612D01*
X190746612Y-134073520D01*
X190870824Y-133887624D01*
X190956383Y-133681067D01*
X191000000Y-133461788D01*
X191000000Y-133395868D01*
X191815868Y-132580000D01*
X191881788Y-132580000D01*
X192101067Y-132536383D01*
X192307624Y-132450824D01*
X192493520Y-132326612D01*
X192540132Y-132280000D01*
X202346133Y-132280000D01*
X203646249Y-133580117D01*
X203620657Y-133664484D01*
X203589089Y-133985000D01*
X203620657Y-134305516D01*
X203714148Y-134613715D01*
X203865969Y-134897752D01*
X204070286Y-135146714D01*
X204202233Y-135255000D01*
X204070286Y-135363286D01*
X203865969Y-135612248D01*
X203714148Y-135896285D01*
X203620657Y-136204484D01*
X203589089Y-136525000D01*
X203620657Y-136845516D01*
X203714148Y-137153715D01*
X203865969Y-137437752D01*
X204070286Y-137686714D01*
X204319248Y-137891031D01*
X204603285Y-138042852D01*
X204911484Y-138136343D01*
X205151678Y-138160000D01*
X205312322Y-138160000D01*
X205552516Y-138136343D01*
X205860715Y-138042852D01*
X206144752Y-137891031D01*
X206393714Y-137686714D01*
X206598031Y-137437752D01*
X206749852Y-137153715D01*
X206843343Y-136845516D01*
X206874911Y-136525000D01*
X206843343Y-136204484D01*
X206749852Y-135896285D01*
X206598031Y-135612248D01*
X206393714Y-135363286D01*
X206261767Y-135255000D01*
X206393714Y-135146714D01*
X206598031Y-134897752D01*
X206749852Y-134613715D01*
X206843343Y-134305516D01*
X206874911Y-133985000D01*
X206843343Y-133664484D01*
X206749852Y-133356285D01*
X206598031Y-133072248D01*
X206393714Y-132823286D01*
X206256846Y-132710962D01*
X206431748Y-132555785D01*
X206625399Y-132300382D01*
X206765502Y-132012107D01*
X206822124Y-131825434D01*
X206702777Y-131572000D01*
X205359000Y-131572000D01*
X205359000Y-131592000D01*
X205105000Y-131592000D01*
X205105000Y-131572000D01*
X205085000Y-131572000D01*
X205085000Y-131318000D01*
X205105000Y-131318000D01*
X205105000Y-131298000D01*
X205359000Y-131298000D01*
X205359000Y-131318000D01*
X206702777Y-131318000D01*
X206822124Y-131064566D01*
X206765502Y-130877893D01*
X206625399Y-130589618D01*
X206431748Y-130334215D01*
X206256846Y-130179038D01*
X206393714Y-130066714D01*
X206598031Y-129817752D01*
X206749852Y-129533715D01*
X206843343Y-129225516D01*
X206874911Y-128905000D01*
X206843343Y-128584484D01*
X206749852Y-128276285D01*
X206598031Y-127992248D01*
X206393714Y-127743286D01*
X206267361Y-127639591D01*
X206274252Y-127634987D01*
X206501987Y-127407252D01*
X206680918Y-127139463D01*
X206804168Y-126841912D01*
X206867000Y-126526033D01*
X206867000Y-126203967D01*
X206804168Y-125888088D01*
X206798177Y-125873625D01*
X207648004Y-125023798D01*
X207677001Y-125000001D01*
X207771974Y-124884276D01*
X207842546Y-124752247D01*
X207886003Y-124608986D01*
X207897000Y-124497333D01*
X207897000Y-124497323D01*
X207900676Y-124460000D01*
X207897000Y-124422677D01*
X207897000Y-91426523D01*
X207900676Y-91389200D01*
X207897000Y-91351877D01*
X207897000Y-91351867D01*
X207886003Y-91240214D01*
X207842546Y-91096953D01*
X207771974Y-90964924D01*
X207677001Y-90849199D01*
X207648003Y-90825401D01*
X206798177Y-89975575D01*
X206804168Y-89961112D01*
X206867000Y-89645233D01*
X206867000Y-89323167D01*
X206804168Y-89007288D01*
X206680918Y-88709737D01*
X206501987Y-88441948D01*
X206274252Y-88214213D01*
X206006463Y-88035282D01*
X205708912Y-87912032D01*
X205393033Y-87849200D01*
X205070967Y-87849200D01*
X204755088Y-87912032D01*
X204457537Y-88035282D01*
X204189748Y-88214213D01*
X203962013Y-88441948D01*
X203783082Y-88709737D01*
X203659832Y-89007288D01*
X203597000Y-89323167D01*
X203597000Y-89645233D01*
X203659832Y-89961112D01*
X203783082Y-90258663D01*
X203962013Y-90526452D01*
X204189748Y-90754187D01*
X204196639Y-90758791D01*
X204070286Y-90862486D01*
X203865969Y-91111448D01*
X203714148Y-91395485D01*
X203620657Y-91703684D01*
X203589089Y-92024200D01*
X203620657Y-92344716D01*
X203714148Y-92652915D01*
X203865969Y-92936952D01*
X204070286Y-93185914D01*
X204207154Y-93298238D01*
X204032252Y-93453415D01*
X203838601Y-93708818D01*
X203698498Y-93997093D01*
X203641876Y-94183766D01*
X203761223Y-94437200D01*
X205105000Y-94437200D01*
X205105000Y-94417200D01*
X205359000Y-94417200D01*
X205359000Y-94437200D01*
X205379000Y-94437200D01*
X205379000Y-94691200D01*
X205359000Y-94691200D01*
X205359000Y-94711200D01*
X205105000Y-94711200D01*
X205105000Y-94691200D01*
X203761223Y-94691200D01*
X203641876Y-94944634D01*
X203698498Y-95131307D01*
X203838601Y-95419582D01*
X204032252Y-95674985D01*
X204207154Y-95830162D01*
X204070286Y-95942486D01*
X203865969Y-96191448D01*
X203714148Y-96475485D01*
X203620657Y-96783684D01*
X203589089Y-97104200D01*
X203620657Y-97424716D01*
X203646249Y-97509083D01*
X199628333Y-101527000D01*
X190254132Y-101527000D01*
X190207520Y-101480388D01*
X190021624Y-101356176D01*
X189815067Y-101270617D01*
X189595788Y-101227000D01*
X189372212Y-101227000D01*
X189152933Y-101270617D01*
X188946376Y-101356176D01*
X188760480Y-101480388D01*
X188602388Y-101638480D01*
X188478176Y-101824376D01*
X188392617Y-102030933D01*
X188349000Y-102250212D01*
X188349000Y-102473788D01*
X188392617Y-102693067D01*
X188478176Y-102899624D01*
X188602388Y-103085520D01*
X188760480Y-103243612D01*
X188946376Y-103367824D01*
X189152933Y-103453383D01*
X189372212Y-103497000D01*
X189595788Y-103497000D01*
X189815067Y-103453383D01*
X190021624Y-103367824D01*
X190207520Y-103243612D01*
X190254132Y-103197000D01*
X199933182Y-103197000D01*
X199974200Y-103201040D01*
X200015218Y-103197000D01*
X200015219Y-103197000D01*
X200137889Y-103184918D01*
X200295287Y-103137172D01*
X200440346Y-103059636D01*
X200567491Y-102955291D01*
X200593646Y-102923421D01*
X203614533Y-99902535D01*
X203620657Y-99964716D01*
X203714148Y-100272915D01*
X203865969Y-100556952D01*
X204070286Y-100805914D01*
X204319248Y-101010231D01*
X204603285Y-101162052D01*
X204911484Y-101255543D01*
X205151678Y-101279200D01*
X205312322Y-101279200D01*
X205552516Y-101255543D01*
X205860715Y-101162052D01*
X205926990Y-101126628D01*
X205926990Y-108062658D01*
X205926989Y-108062668D01*
X205926989Y-110271928D01*
X204382000Y-110271928D01*
X204257518Y-110284188D01*
X204137820Y-110320498D01*
X204027506Y-110379463D01*
X203930815Y-110458815D01*
X203851463Y-110555506D01*
X203792498Y-110665820D01*
X203756188Y-110785518D01*
X203743928Y-110910000D01*
X203743928Y-112610000D01*
X203756188Y-112734482D01*
X203792498Y-112854180D01*
X203851463Y-112964494D01*
X203930815Y-113061185D01*
X204027506Y-113140537D01*
X204137820Y-113199502D01*
X204206687Y-113220393D01*
X204176866Y-113244866D01*
X203991294Y-113470986D01*
X203853401Y-113728966D01*
X203768487Y-114008889D01*
X203739815Y-114300000D01*
X203768487Y-114591111D01*
X203853401Y-114871034D01*
X203991294Y-115129014D01*
X204176866Y-115355134D01*
X204402986Y-115540706D01*
X204457791Y-115570000D01*
X204402986Y-115599294D01*
X204176866Y-115784866D01*
X203991294Y-116010986D01*
X203853401Y-116268966D01*
X203768487Y-116548889D01*
X203739815Y-116840000D01*
X203768487Y-117131111D01*
X203853401Y-117411034D01*
X203991294Y-117669014D01*
X204176866Y-117895134D01*
X204402986Y-118080706D01*
X204467523Y-118115201D01*
X204350645Y-118184822D01*
X204134412Y-118379731D01*
X203960359Y-118613080D01*
X203835175Y-118875901D01*
X203790524Y-119023110D01*
X203911845Y-119253000D01*
X205105000Y-119253000D01*
X205105000Y-119233000D01*
X205359000Y-119233000D01*
X205359000Y-119253000D01*
X205379000Y-119253000D01*
X205379000Y-119507000D01*
X205359000Y-119507000D01*
X205359000Y-120700814D01*
X205588891Y-120821481D01*
X205863252Y-120724157D01*
X205926990Y-120686190D01*
X205926990Y-121420208D01*
X202816003Y-124531196D01*
X202786999Y-124554999D01*
X202731871Y-124622174D01*
X202692026Y-124670724D01*
X202660342Y-124730000D01*
X202621454Y-124802754D01*
X202577997Y-124946015D01*
X202567000Y-125057668D01*
X202567000Y-125057678D01*
X202563324Y-125095000D01*
X202567000Y-125132323D01*
X202567001Y-128145000D01*
X188020801Y-128145000D01*
X188015802Y-128140000D01*
X188015799Y-128139997D01*
X187704000Y-127828199D01*
X187704000Y-119736890D01*
X203790524Y-119736890D01*
X203835175Y-119884099D01*
X203960359Y-120146920D01*
X204134412Y-120380269D01*
X204350645Y-120575178D01*
X204600748Y-120724157D01*
X204875109Y-120821481D01*
X205105000Y-120700814D01*
X205105000Y-119507000D01*
X203911845Y-119507000D01*
X203790524Y-119736890D01*
X187704000Y-119736890D01*
X187704000Y-112414232D01*
X187751156Y-112367076D01*
X187780159Y-112343274D01*
X187869095Y-112234905D01*
X188042511Y-112269400D01*
X188226689Y-112269400D01*
X188407329Y-112233468D01*
X188577489Y-112162986D01*
X188730628Y-112060662D01*
X188860862Y-111930428D01*
X188963186Y-111777289D01*
X189033668Y-111607129D01*
X189069600Y-111426489D01*
X189069600Y-111242311D01*
X189033668Y-111061671D01*
X188963186Y-110891511D01*
X188860862Y-110738372D01*
X188730628Y-110608138D01*
X188577489Y-110505814D01*
X188407329Y-110435332D01*
X188286249Y-110411247D01*
X188118002Y-110243001D01*
X188094200Y-110213998D01*
X187978475Y-110119025D01*
X187846446Y-110048453D01*
X187703185Y-110004996D01*
X187591532Y-109993999D01*
X187591521Y-109993999D01*
X187554199Y-109990323D01*
X187516877Y-109993999D01*
X187004944Y-109993999D01*
X186967621Y-109990323D01*
X186930298Y-109993999D01*
X186930289Y-109993999D01*
X186818636Y-110004996D01*
X186675375Y-110048453D01*
X186543346Y-110119025D01*
X186503011Y-110152127D01*
X186503011Y-103759000D01*
X189738000Y-103759000D01*
X189738000Y-116586000D01*
X189740440Y-116610776D01*
X189747667Y-116634601D01*
X189759403Y-116656557D01*
X189775197Y-116675803D01*
X189794443Y-116691597D01*
X189816399Y-116703333D01*
X189840224Y-116710560D01*
X189865000Y-116713000D01*
X203200000Y-116713000D01*
X203224776Y-116710560D01*
X203248601Y-116703333D01*
X203270557Y-116691597D01*
X203289803Y-116675803D01*
X203305597Y-116656557D01*
X203317333Y-116634601D01*
X203324560Y-116610776D01*
X203327000Y-116586000D01*
X203327000Y-103759000D01*
X203324560Y-103734224D01*
X203317333Y-103710399D01*
X203305597Y-103688443D01*
X203289803Y-103669197D01*
X203270557Y-103653403D01*
X203248601Y-103641667D01*
X203224776Y-103634440D01*
X203200000Y-103632000D01*
X189865000Y-103632000D01*
X189840224Y-103634440D01*
X189816399Y-103641667D01*
X189794443Y-103653403D01*
X189775197Y-103669197D01*
X189759403Y-103688443D01*
X189747667Y-103710399D01*
X189740440Y-103734224D01*
X189738000Y-103759000D01*
X186503011Y-103759000D01*
X186503011Y-97489495D01*
X189829000Y-97489495D01*
X189829000Y-97880505D01*
X189905282Y-98264003D01*
X190054915Y-98625250D01*
X190272149Y-98950364D01*
X190548636Y-99226851D01*
X190873750Y-99444085D01*
X191234997Y-99593718D01*
X191618495Y-99670000D01*
X192009505Y-99670000D01*
X192393003Y-99593718D01*
X192754250Y-99444085D01*
X193079364Y-99226851D01*
X193355851Y-98950364D01*
X193573085Y-98625250D01*
X193722718Y-98264003D01*
X193799000Y-97880505D01*
X193799000Y-97489495D01*
X193722718Y-97105997D01*
X193573085Y-96744750D01*
X193355851Y-96419636D01*
X193079364Y-96143149D01*
X192754250Y-95925915D01*
X192393003Y-95776282D01*
X192009505Y-95700000D01*
X191618495Y-95700000D01*
X191234997Y-95776282D01*
X190873750Y-95925915D01*
X190548636Y-96143149D01*
X190272149Y-96419636D01*
X190054915Y-96744750D01*
X189905282Y-97105997D01*
X189829000Y-97489495D01*
X186503011Y-97489495D01*
X186503011Y-89780790D01*
X187476649Y-88807153D01*
X187597729Y-88783068D01*
X187767889Y-88712586D01*
X187870535Y-88644000D01*
X191224678Y-88644000D01*
X191262000Y-88647676D01*
X191299322Y-88644000D01*
X191299333Y-88644000D01*
X191410986Y-88633003D01*
X191554247Y-88589546D01*
X191686276Y-88518974D01*
X191802001Y-88424001D01*
X191825804Y-88394997D01*
X194207649Y-86013153D01*
X194328729Y-85989068D01*
X194498889Y-85918586D01*
X194652028Y-85816262D01*
X194782262Y-85686028D01*
X194884586Y-85532889D01*
X194955068Y-85362729D01*
X194991000Y-85182089D01*
X194991000Y-84997911D01*
X194955068Y-84817271D01*
X194884586Y-84647111D01*
X194782262Y-84493972D01*
X194652028Y-84363738D01*
X194498889Y-84261414D01*
X194328729Y-84190932D01*
X194148089Y-84155000D01*
X193963911Y-84155000D01*
X193783271Y-84190932D01*
X193613111Y-84261414D01*
X193459972Y-84363738D01*
X193329738Y-84493972D01*
X193227414Y-84647111D01*
X193156932Y-84817271D01*
X193132847Y-84938351D01*
X190947199Y-87124000D01*
X187870535Y-87124000D01*
X187767889Y-87055414D01*
X187597729Y-86984932D01*
X187417089Y-86949000D01*
X187232911Y-86949000D01*
X187052271Y-86984932D01*
X186882111Y-87055414D01*
X186728972Y-87157738D01*
X186598738Y-87287972D01*
X186496414Y-87441111D01*
X186425932Y-87611271D01*
X186401847Y-87732351D01*
X186053000Y-88081198D01*
X186053000Y-84134801D01*
X188722306Y-81465495D01*
X197913000Y-81465495D01*
X197913000Y-81856505D01*
X197989282Y-82240003D01*
X198138915Y-82601250D01*
X198356149Y-82926364D01*
X198632636Y-83202851D01*
X198957750Y-83420085D01*
X199318997Y-83569718D01*
X199702495Y-83646000D01*
X200093505Y-83646000D01*
X200477003Y-83569718D01*
X200838250Y-83420085D01*
X201163364Y-83202851D01*
X201439851Y-82926364D01*
X201657085Y-82601250D01*
X201678313Y-82550000D01*
X203589089Y-82550000D01*
X203620657Y-82870516D01*
X203714148Y-83178715D01*
X203865969Y-83462752D01*
X204070286Y-83711714D01*
X204319248Y-83916031D01*
X204603285Y-84067852D01*
X204911484Y-84161343D01*
X205151678Y-84185000D01*
X205312322Y-84185000D01*
X205552516Y-84161343D01*
X205860715Y-84067852D01*
X206144752Y-83916031D01*
X206393714Y-83711714D01*
X206598031Y-83462752D01*
X206749852Y-83178715D01*
X206843343Y-82870516D01*
X206874911Y-82550000D01*
X206843343Y-82229484D01*
X206749852Y-81921285D01*
X206598031Y-81637248D01*
X206393714Y-81388286D01*
X206267361Y-81284591D01*
X206274252Y-81279987D01*
X206501987Y-81052252D01*
X206680918Y-80784463D01*
X206804168Y-80486912D01*
X206867000Y-80171033D01*
X206867000Y-79848967D01*
X206804168Y-79533088D01*
X206680918Y-79235537D01*
X206501987Y-78967748D01*
X206274252Y-78740013D01*
X206006463Y-78561082D01*
X205708912Y-78437832D01*
X205393033Y-78375000D01*
X205070967Y-78375000D01*
X204755088Y-78437832D01*
X204457537Y-78561082D01*
X204189748Y-78740013D01*
X203962013Y-78967748D01*
X203783082Y-79235537D01*
X203659832Y-79533088D01*
X203597000Y-79848967D01*
X203597000Y-80171033D01*
X203659832Y-80486912D01*
X203783082Y-80784463D01*
X203962013Y-81052252D01*
X204189748Y-81279987D01*
X204196639Y-81284591D01*
X204070286Y-81388286D01*
X203865969Y-81637248D01*
X203714148Y-81921285D01*
X203620657Y-82229484D01*
X203589089Y-82550000D01*
X201678313Y-82550000D01*
X201806718Y-82240003D01*
X201883000Y-81856505D01*
X201883000Y-81465495D01*
X201806718Y-81081997D01*
X201657085Y-80720750D01*
X201439851Y-80395636D01*
X201163364Y-80119149D01*
X200838250Y-79901915D01*
X200477003Y-79752282D01*
X200093505Y-79676000D01*
X199702495Y-79676000D01*
X199318997Y-79752282D01*
X198957750Y-79901915D01*
X198632636Y-80119149D01*
X198356149Y-80395636D01*
X198138915Y-80720750D01*
X197989282Y-81081997D01*
X197913000Y-81465495D01*
X188722306Y-81465495D01*
X188957775Y-81230026D01*
X188987088Y-81242168D01*
X189302967Y-81305000D01*
X189625033Y-81305000D01*
X189940912Y-81242168D01*
X190238463Y-81118918D01*
X190506252Y-80939987D01*
X190733987Y-80712252D01*
X190912918Y-80444463D01*
X191036168Y-80146912D01*
X191099000Y-79831033D01*
X191099000Y-79508967D01*
X191036168Y-79193088D01*
X190912918Y-78895537D01*
X190733987Y-78627748D01*
X190506252Y-78400013D01*
X190238463Y-78221082D01*
X189940912Y-78097832D01*
X189625033Y-78035000D01*
X189302967Y-78035000D01*
X188987088Y-78097832D01*
X188689537Y-78221082D01*
X188421748Y-78400013D01*
X188194013Y-78627748D01*
X188194000Y-78627767D01*
X188193987Y-78627748D01*
X187966252Y-78400013D01*
X187698463Y-78221082D01*
X187400912Y-78097832D01*
X187085033Y-78035000D01*
X186762967Y-78035000D01*
X186447088Y-78097832D01*
X186149537Y-78221082D01*
X185939191Y-78361630D01*
X185914537Y-78315506D01*
X185835185Y-78218815D01*
X185738494Y-78139463D01*
X185628180Y-78080498D01*
X185508482Y-78044188D01*
X185384000Y-78031928D01*
X184669750Y-78035000D01*
X184511000Y-78193750D01*
X184511000Y-79543000D01*
X184531000Y-79543000D01*
X184531000Y-79797000D01*
X184511000Y-79797000D01*
X184511000Y-81146250D01*
X184669750Y-81305000D01*
X185384000Y-81308072D01*
X185508482Y-81295812D01*
X185628180Y-81259502D01*
X185738494Y-81200537D01*
X185835185Y-81121185D01*
X185914537Y-81024494D01*
X185939191Y-80978370D01*
X186078048Y-81071150D01*
X184273998Y-82875201D01*
X184245000Y-82898999D01*
X184221202Y-82927997D01*
X184221201Y-82927998D01*
X184150026Y-83014724D01*
X184079454Y-83146754D01*
X184035998Y-83290015D01*
X184021324Y-83439000D01*
X184025001Y-83476333D01*
X184025000Y-125923198D01*
X181606998Y-128341201D01*
X181578000Y-128364999D01*
X181554202Y-128393997D01*
X181554201Y-128393998D01*
X181483026Y-128480724D01*
X181412454Y-128612754D01*
X181395756Y-128667802D01*
X181368998Y-128756014D01*
X181359884Y-128848546D01*
X181354324Y-128905000D01*
X181358001Y-128942332D01*
X181358001Y-129074913D01*
X181243518Y-129086188D01*
X181123820Y-129122498D01*
X181013506Y-129181463D01*
X180916815Y-129260815D01*
X180837463Y-129357506D01*
X180778498Y-129467820D01*
X180742188Y-129587518D01*
X180729928Y-129712000D01*
X180729928Y-130712000D01*
X180742319Y-130837136D01*
X180749909Y-130862064D01*
X180742188Y-130887518D01*
X180729928Y-131012000D01*
X180729928Y-132162000D01*
X180742188Y-132286482D01*
X180778498Y-132406180D01*
X180837463Y-132516494D01*
X180916815Y-132613185D01*
X181013506Y-132692537D01*
X181123820Y-132751502D01*
X181243518Y-132787812D01*
X181358001Y-132799087D01*
X181358000Y-135927332D01*
X181358001Y-135927342D01*
X181358000Y-138115197D01*
X180082998Y-139390201D01*
X180054000Y-139413999D01*
X180030202Y-139442997D01*
X180030201Y-139442998D01*
X179959026Y-139529724D01*
X179940716Y-139563980D01*
X179771743Y-139493989D01*
X179475184Y-139435000D01*
X179172816Y-139435000D01*
X178876257Y-139493989D01*
X178596905Y-139609701D01*
X178345495Y-139777688D01*
X178131688Y-139991495D01*
X178054000Y-140107763D01*
X177976312Y-139991495D01*
X177762505Y-139777688D01*
X177511095Y-139609701D01*
X177231743Y-139493989D01*
X176935184Y-139435000D01*
X176632816Y-139435000D01*
X176336257Y-139493989D01*
X176056905Y-139609701D01*
X175805495Y-139777688D01*
X175591688Y-139991495D01*
X175514000Y-140107763D01*
X175436312Y-139991495D01*
X175222505Y-139777688D01*
X174971095Y-139609701D01*
X174691743Y-139493989D01*
X174395184Y-139435000D01*
X174092816Y-139435000D01*
X173796257Y-139493989D01*
X173516905Y-139609701D01*
X173265495Y-139777688D01*
X173051688Y-139991495D01*
X172974000Y-140107763D01*
X172896312Y-139991495D01*
X172682505Y-139777688D01*
X172431095Y-139609701D01*
X172151743Y-139493989D01*
X171855184Y-139435000D01*
X171552816Y-139435000D01*
X171256257Y-139493989D01*
X170976905Y-139609701D01*
X170725495Y-139777688D01*
X170511688Y-139991495D01*
X170434000Y-140107763D01*
X170356312Y-139991495D01*
X170142505Y-139777688D01*
X169891095Y-139609701D01*
X169611743Y-139493989D01*
X169315184Y-139435000D01*
X169012816Y-139435000D01*
X168716257Y-139493989D01*
X168436905Y-139609701D01*
X168185495Y-139777688D01*
X167971688Y-139991495D01*
X167869049Y-140145105D01*
X167688080Y-140085525D01*
X166803605Y-140970000D01*
X166817748Y-140984143D01*
X166638143Y-141163748D01*
X166624000Y-141149605D01*
X165739525Y-142034080D01*
X165823208Y-142288261D01*
X165991331Y-142369000D01*
X165645322Y-142369000D01*
X165607999Y-142365324D01*
X165570676Y-142369000D01*
X165570667Y-142369000D01*
X165459014Y-142379997D01*
X165315753Y-142423454D01*
X165183724Y-142494026D01*
X165067999Y-142588999D01*
X165044201Y-142617997D01*
X164232200Y-143429999D01*
X163533321Y-143429999D01*
X163495998Y-143426323D01*
X163458675Y-143429999D01*
X163458666Y-143429999D01*
X163347013Y-143440996D01*
X163234935Y-143474994D01*
X163203752Y-143484453D01*
X163071722Y-143555025D01*
X162988082Y-143623667D01*
X162955998Y-143649998D01*
X162932199Y-143678997D01*
X162408105Y-144203092D01*
X162373014Y-144174294D01*
X162115034Y-144036401D01*
X161835111Y-143951487D01*
X161616950Y-143930000D01*
X161471050Y-143930000D01*
X161252889Y-143951487D01*
X160972966Y-144036401D01*
X160714986Y-144174294D01*
X160488866Y-144359866D01*
X160303294Y-144585986D01*
X160274000Y-144640791D01*
X160244706Y-144585986D01*
X160059134Y-144359866D01*
X159833014Y-144174294D01*
X159575034Y-144036401D01*
X159295111Y-143951487D01*
X159076950Y-143930000D01*
X158931050Y-143930000D01*
X158712889Y-143951487D01*
X158432966Y-144036401D01*
X158174986Y-144174294D01*
X157948866Y-144359866D01*
X157763294Y-144585986D01*
X157728799Y-144650523D01*
X157659178Y-144533645D01*
X157464269Y-144317412D01*
X157230920Y-144143359D01*
X156968099Y-144018175D01*
X156820890Y-143973524D01*
X156591000Y-144094845D01*
X156591000Y-145288000D01*
X156611000Y-145288000D01*
X156611000Y-145542000D01*
X156591000Y-145542000D01*
X156591000Y-145562000D01*
X156337000Y-145562000D01*
X156337000Y-145542000D01*
X156317000Y-145542000D01*
X156317000Y-145288000D01*
X156337000Y-145288000D01*
X156337000Y-144094845D01*
X156107110Y-143973524D01*
X155959901Y-144018175D01*
X155697080Y-144143359D01*
X155463731Y-144317412D01*
X155268822Y-144533645D01*
X155199201Y-144650523D01*
X155164706Y-144585986D01*
X154979134Y-144359866D01*
X154753014Y-144174294D01*
X154495034Y-144036401D01*
X154215111Y-143951487D01*
X153996950Y-143930000D01*
X153851050Y-143930000D01*
X153632889Y-143951487D01*
X153352966Y-144036401D01*
X153094986Y-144174294D01*
X152868866Y-144359866D01*
X152683294Y-144585986D01*
X152654000Y-144640791D01*
X152624706Y-144585986D01*
X152439134Y-144359866D01*
X152213014Y-144174294D01*
X151955034Y-144036401D01*
X151675111Y-143951487D01*
X151456950Y-143930000D01*
X151311050Y-143930000D01*
X151092889Y-143951487D01*
X151018005Y-143974203D01*
X149661804Y-142618003D01*
X149638001Y-142588999D01*
X149522276Y-142494026D01*
X149390247Y-142423454D01*
X149364821Y-142415741D01*
X149571095Y-142330299D01*
X149822505Y-142162312D01*
X150036312Y-141948505D01*
X150114000Y-141832237D01*
X150191688Y-141948505D01*
X150405495Y-142162312D01*
X150656905Y-142330299D01*
X150936257Y-142446011D01*
X151232816Y-142505000D01*
X151535184Y-142505000D01*
X151831743Y-142446011D01*
X152111095Y-142330299D01*
X152362505Y-142162312D01*
X152576312Y-141948505D01*
X152654000Y-141832237D01*
X152731688Y-141948505D01*
X152945495Y-142162312D01*
X153196905Y-142330299D01*
X153476257Y-142446011D01*
X153772816Y-142505000D01*
X154075184Y-142505000D01*
X154371743Y-142446011D01*
X154651095Y-142330299D01*
X154902505Y-142162312D01*
X155116312Y-141948505D01*
X155194000Y-141832237D01*
X155271688Y-141948505D01*
X155485495Y-142162312D01*
X155736905Y-142330299D01*
X156016257Y-142446011D01*
X156312816Y-142505000D01*
X156615184Y-142505000D01*
X156911743Y-142446011D01*
X157191095Y-142330299D01*
X157442505Y-142162312D01*
X157656312Y-141948505D01*
X157734000Y-141832237D01*
X157811688Y-141948505D01*
X158025495Y-142162312D01*
X158276905Y-142330299D01*
X158556257Y-142446011D01*
X158852816Y-142505000D01*
X159155184Y-142505000D01*
X159451743Y-142446011D01*
X159731095Y-142330299D01*
X159982505Y-142162312D01*
X160196312Y-141948505D01*
X160274000Y-141832237D01*
X160351688Y-141948505D01*
X160565495Y-142162312D01*
X160816905Y-142330299D01*
X161096257Y-142446011D01*
X161392816Y-142505000D01*
X161695184Y-142505000D01*
X161991743Y-142446011D01*
X162271095Y-142330299D01*
X162522505Y-142162312D01*
X162736312Y-141948505D01*
X162814000Y-141832237D01*
X162891688Y-141948505D01*
X163105495Y-142162312D01*
X163356905Y-142330299D01*
X163636257Y-142446011D01*
X163932816Y-142505000D01*
X164235184Y-142505000D01*
X164531743Y-142446011D01*
X164811095Y-142330299D01*
X165062505Y-142162312D01*
X165276312Y-141948505D01*
X165378951Y-141794895D01*
X165559920Y-141854475D01*
X166444395Y-140970000D01*
X165559920Y-140085525D01*
X165378951Y-140145105D01*
X165276312Y-139991495D01*
X165190737Y-139905920D01*
X165739525Y-139905920D01*
X166624000Y-140790395D01*
X167508475Y-139905920D01*
X167424792Y-139651739D01*
X167152225Y-139520842D01*
X166859358Y-139445635D01*
X166557447Y-139429009D01*
X166258093Y-139471603D01*
X165972801Y-139571778D01*
X165823208Y-139651739D01*
X165739525Y-139905920D01*
X165190737Y-139905920D01*
X165062505Y-139777688D01*
X164811095Y-139609701D01*
X164531743Y-139493989D01*
X164235184Y-139435000D01*
X163932816Y-139435000D01*
X163636257Y-139493989D01*
X163356905Y-139609701D01*
X163105495Y-139777688D01*
X162891688Y-139991495D01*
X162814000Y-140107763D01*
X162736312Y-139991495D01*
X162522505Y-139777688D01*
X162271095Y-139609701D01*
X161991743Y-139493989D01*
X161695184Y-139435000D01*
X161392816Y-139435000D01*
X161096257Y-139493989D01*
X160816905Y-139609701D01*
X160565495Y-139777688D01*
X160351688Y-139991495D01*
X160274000Y-140107763D01*
X160196312Y-139991495D01*
X159982505Y-139777688D01*
X159731095Y-139609701D01*
X159451743Y-139493989D01*
X159155184Y-139435000D01*
X158852816Y-139435000D01*
X158556257Y-139493989D01*
X158276905Y-139609701D01*
X158025495Y-139777688D01*
X157811688Y-139991495D01*
X157734000Y-140107763D01*
X157656312Y-139991495D01*
X157442505Y-139777688D01*
X157191095Y-139609701D01*
X156911743Y-139493989D01*
X156615184Y-139435000D01*
X156312816Y-139435000D01*
X156016257Y-139493989D01*
X155736905Y-139609701D01*
X155485495Y-139777688D01*
X155271688Y-139991495D01*
X155194000Y-140107763D01*
X155116312Y-139991495D01*
X154902505Y-139777688D01*
X154651095Y-139609701D01*
X154371743Y-139493989D01*
X154075184Y-139435000D01*
X153772816Y-139435000D01*
X153476257Y-139493989D01*
X153196905Y-139609701D01*
X152945495Y-139777688D01*
X152731688Y-139991495D01*
X152654000Y-140107763D01*
X152576312Y-139991495D01*
X152362505Y-139777688D01*
X152111095Y-139609701D01*
X151831743Y-139493989D01*
X151535184Y-139435000D01*
X151232816Y-139435000D01*
X150936257Y-139493989D01*
X150656905Y-139609701D01*
X150405495Y-139777688D01*
X150191688Y-139991495D01*
X150114000Y-140107763D01*
X150036312Y-139991495D01*
X149822505Y-139777688D01*
X149571095Y-139609701D01*
X149291743Y-139493989D01*
X148995184Y-139435000D01*
X148692816Y-139435000D01*
X148396257Y-139493989D01*
X148116905Y-139609701D01*
X147865495Y-139777688D01*
X147651688Y-139991495D01*
X147574000Y-140107763D01*
X147496312Y-139991495D01*
X147282505Y-139777688D01*
X147031095Y-139609701D01*
X146751743Y-139493989D01*
X146455184Y-139435000D01*
X146152816Y-139435000D01*
X145856257Y-139493989D01*
X145576905Y-139609701D01*
X145325495Y-139777688D01*
X145111688Y-139991495D01*
X145034000Y-140107763D01*
X144956312Y-139991495D01*
X144742505Y-139777688D01*
X144491095Y-139609701D01*
X144211743Y-139493989D01*
X143915184Y-139435000D01*
X143612816Y-139435000D01*
X143316257Y-139493989D01*
X143036905Y-139609701D01*
X142785495Y-139777688D01*
X142571688Y-139991495D01*
X142494000Y-140107763D01*
X142416312Y-139991495D01*
X142202505Y-139777688D01*
X141951095Y-139609701D01*
X141671743Y-139493989D01*
X141375184Y-139435000D01*
X141072816Y-139435000D01*
X140776257Y-139493989D01*
X140496905Y-139609701D01*
X140245495Y-139777688D01*
X140179056Y-139844127D01*
X140173502Y-139825820D01*
X140114537Y-139715506D01*
X140035185Y-139618815D01*
X139938494Y-139539463D01*
X139828180Y-139480498D01*
X139708482Y-139444188D01*
X139584000Y-139431928D01*
X138969750Y-139435000D01*
X138811000Y-139593750D01*
X138811000Y-140843000D01*
X138831000Y-140843000D01*
X138831000Y-141097000D01*
X138811000Y-141097000D01*
X138811000Y-142346250D01*
X138969750Y-142505000D01*
X139584000Y-142508072D01*
X139708482Y-142495812D01*
X139828180Y-142459502D01*
X139938494Y-142400537D01*
X140035185Y-142321185D01*
X140114537Y-142224494D01*
X140173502Y-142114180D01*
X140179056Y-142095873D01*
X140245495Y-142162312D01*
X140496905Y-142330299D01*
X140776257Y-142446011D01*
X141072816Y-142505000D01*
X141375184Y-142505000D01*
X141671743Y-142446011D01*
X141951095Y-142330299D01*
X142202505Y-142162312D01*
X142416312Y-141948505D01*
X142494000Y-141832237D01*
X142571688Y-141948505D01*
X142785495Y-142162312D01*
X143036905Y-142330299D01*
X143316257Y-142446011D01*
X143612816Y-142505000D01*
X143915184Y-142505000D01*
X144172930Y-142453731D01*
X144252996Y-142533798D01*
X144253001Y-142533802D01*
X145359200Y-143640002D01*
X145382999Y-143669001D01*
X145411997Y-143692799D01*
X145498723Y-143763974D01*
X145601845Y-143819094D01*
X145630753Y-143834546D01*
X145774014Y-143878003D01*
X145885667Y-143889000D01*
X145885677Y-143889000D01*
X145923000Y-143892676D01*
X145960323Y-143889000D01*
X148783199Y-143889000D01*
X148824199Y-143930000D01*
X148771050Y-143930000D01*
X148552889Y-143951487D01*
X148272966Y-144036401D01*
X148014986Y-144174294D01*
X147788866Y-144359866D01*
X147603294Y-144585986D01*
X147574000Y-144640791D01*
X147544706Y-144585986D01*
X147359134Y-144359866D01*
X147133014Y-144174294D01*
X146875034Y-144036401D01*
X146595111Y-143951487D01*
X146376950Y-143930000D01*
X146231050Y-143930000D01*
X146012889Y-143951487D01*
X145732966Y-144036401D01*
X145474986Y-144174294D01*
X145248866Y-144359866D01*
X145063294Y-144585986D01*
X145034000Y-144640791D01*
X145004706Y-144585986D01*
X144819134Y-144359866D01*
X144593014Y-144174294D01*
X144335034Y-144036401D01*
X144055111Y-143951487D01*
X143836950Y-143930000D01*
X143691050Y-143930000D01*
X143472889Y-143951487D01*
X143192966Y-144036401D01*
X142934986Y-144174294D01*
X142708866Y-144359866D01*
X142523294Y-144585986D01*
X142494000Y-144640791D01*
X142464706Y-144585986D01*
X142279134Y-144359866D01*
X142053014Y-144174294D01*
X141795034Y-144036401D01*
X141515111Y-143951487D01*
X141296950Y-143930000D01*
X141151050Y-143930000D01*
X140932889Y-143951487D01*
X140652966Y-144036401D01*
X140394986Y-144174294D01*
X140168866Y-144359866D01*
X139983294Y-144585986D01*
X139948799Y-144650523D01*
X139879178Y-144533645D01*
X139684269Y-144317412D01*
X139450920Y-144143359D01*
X139188099Y-144018175D01*
X139040890Y-143973524D01*
X138811000Y-144094845D01*
X138811000Y-145288000D01*
X138831000Y-145288000D01*
X138831000Y-145542000D01*
X138811000Y-145542000D01*
X138811000Y-145562000D01*
X138557000Y-145562000D01*
X138557000Y-145542000D01*
X137363186Y-145542000D01*
X137242519Y-145771891D01*
X137339843Y-146046252D01*
X137488822Y-146296355D01*
X137683731Y-146512588D01*
X137912756Y-146683416D01*
X137854986Y-146714294D01*
X137628866Y-146899866D01*
X137443294Y-147125986D01*
X137305401Y-147383966D01*
X137220487Y-147663889D01*
X137191815Y-147955000D01*
X135351215Y-147955000D01*
X135355851Y-147950364D01*
X135573085Y-147625250D01*
X135722718Y-147264003D01*
X135799000Y-146880505D01*
X135799000Y-146489495D01*
X135722718Y-146105997D01*
X135573085Y-145744750D01*
X135355851Y-145419636D01*
X135079364Y-145143149D01*
X134952093Y-145058109D01*
X137242519Y-145058109D01*
X137363186Y-145288000D01*
X138557000Y-145288000D01*
X138557000Y-144094845D01*
X138327110Y-143973524D01*
X138179901Y-144018175D01*
X137917080Y-144143359D01*
X137683731Y-144317412D01*
X137488822Y-144533645D01*
X137339843Y-144783748D01*
X137242519Y-145058109D01*
X134952093Y-145058109D01*
X134754250Y-144925915D01*
X134393003Y-144776282D01*
X134009505Y-144700000D01*
X133618495Y-144700000D01*
X133234997Y-144776282D01*
X132873750Y-144925915D01*
X132548636Y-145143149D01*
X132272149Y-145419636D01*
X132054915Y-145744750D01*
X131905282Y-146105997D01*
X131829000Y-146489495D01*
X116153000Y-146489495D01*
X116153000Y-141870000D01*
X137145928Y-141870000D01*
X137158188Y-141994482D01*
X137194498Y-142114180D01*
X137253463Y-142224494D01*
X137332815Y-142321185D01*
X137429506Y-142400537D01*
X137539820Y-142459502D01*
X137659518Y-142495812D01*
X137784000Y-142508072D01*
X138398250Y-142505000D01*
X138557000Y-142346250D01*
X138557000Y-141097000D01*
X137307750Y-141097000D01*
X137149000Y-141255750D01*
X137145928Y-141870000D01*
X116153000Y-141870000D01*
X116153000Y-140070000D01*
X137145928Y-140070000D01*
X137149000Y-140684250D01*
X137307750Y-140843000D01*
X138557000Y-140843000D01*
X138557000Y-139593750D01*
X138398250Y-139435000D01*
X137784000Y-139431928D01*
X137659518Y-139444188D01*
X137539820Y-139480498D01*
X137429506Y-139539463D01*
X137332815Y-139618815D01*
X137253463Y-139715506D01*
X137194498Y-139825820D01*
X137158188Y-139945518D01*
X137145928Y-140070000D01*
X116153000Y-140070000D01*
X116153000Y-136456495D01*
X123994100Y-136456495D01*
X123994100Y-136847505D01*
X124070382Y-137231003D01*
X124220015Y-137592250D01*
X124437249Y-137917364D01*
X124713736Y-138193851D01*
X125038850Y-138411085D01*
X125400097Y-138560718D01*
X125783595Y-138637000D01*
X126174605Y-138637000D01*
X126558103Y-138560718D01*
X126919350Y-138411085D01*
X127244464Y-138193851D01*
X127520951Y-137917364D01*
X127738185Y-137592250D01*
X127887818Y-137231003D01*
X127964100Y-136847505D01*
X127964100Y-136678495D01*
X155971000Y-136678495D01*
X155971000Y-137069505D01*
X156047282Y-137453003D01*
X156196915Y-137814250D01*
X156414149Y-138139364D01*
X156690636Y-138415851D01*
X157015750Y-138633085D01*
X157376997Y-138782718D01*
X157760495Y-138859000D01*
X158151505Y-138859000D01*
X158535003Y-138782718D01*
X158896250Y-138633085D01*
X159221364Y-138415851D01*
X159497851Y-138139364D01*
X159715085Y-137814250D01*
X159864718Y-137453003D01*
X159941000Y-137069505D01*
X159941000Y-136678495D01*
X159864718Y-136294997D01*
X159715085Y-135933750D01*
X159497851Y-135608636D01*
X159221364Y-135332149D01*
X158896250Y-135114915D01*
X158535003Y-134965282D01*
X158151505Y-134889000D01*
X157760495Y-134889000D01*
X157376997Y-134965282D01*
X157015750Y-135114915D01*
X156690636Y-135332149D01*
X156414149Y-135608636D01*
X156196915Y-135933750D01*
X156047282Y-136294997D01*
X155971000Y-136678495D01*
X127964100Y-136678495D01*
X127964100Y-136456495D01*
X127887818Y-136072997D01*
X127738185Y-135711750D01*
X127520951Y-135386636D01*
X127244464Y-135110149D01*
X126919350Y-134892915D01*
X126558103Y-134743282D01*
X126174605Y-134667000D01*
X125783595Y-134667000D01*
X125400097Y-134743282D01*
X125038850Y-134892915D01*
X124713736Y-135110149D01*
X124437249Y-135386636D01*
X124220015Y-135711750D01*
X124070382Y-136072997D01*
X123994100Y-136456495D01*
X116153000Y-136456495D01*
X116153000Y-126181760D01*
X156153401Y-126181760D01*
X156153401Y-127598240D01*
X156324138Y-129004392D01*
X156663124Y-130379711D01*
X157165415Y-131704142D01*
X157823686Y-132958373D01*
X158628338Y-134124112D01*
X159567637Y-135184363D01*
X160627888Y-136123662D01*
X161793627Y-136928314D01*
X163047858Y-137586585D01*
X164372289Y-138088876D01*
X165747608Y-138427862D01*
X167153760Y-138598599D01*
X168570240Y-138598599D01*
X169976392Y-138427862D01*
X171351711Y-138088876D01*
X172676142Y-137586585D01*
X173930373Y-136928314D01*
X174292298Y-136678495D01*
X176037000Y-136678495D01*
X176037000Y-137069505D01*
X176113282Y-137453003D01*
X176262915Y-137814250D01*
X176480149Y-138139364D01*
X176756636Y-138415851D01*
X177081750Y-138633085D01*
X177442997Y-138782718D01*
X177826495Y-138859000D01*
X178217505Y-138859000D01*
X178601003Y-138782718D01*
X178962250Y-138633085D01*
X179287364Y-138415851D01*
X179563851Y-138139364D01*
X179781085Y-137814250D01*
X179930718Y-137453003D01*
X180007000Y-137069505D01*
X180007000Y-136678495D01*
X179930718Y-136294997D01*
X179781085Y-135933750D01*
X179563851Y-135608636D01*
X179287364Y-135332149D01*
X178962250Y-135114915D01*
X178601003Y-134965282D01*
X178217505Y-134889000D01*
X177826495Y-134889000D01*
X177442997Y-134965282D01*
X177081750Y-135114915D01*
X176756636Y-135332149D01*
X176480149Y-135608636D01*
X176262915Y-135933750D01*
X176113282Y-136294997D01*
X176037000Y-136678495D01*
X174292298Y-136678495D01*
X175096112Y-136123662D01*
X176156363Y-135184363D01*
X177095662Y-134124112D01*
X177900314Y-132958373D01*
X178558585Y-131704142D01*
X179060876Y-130379711D01*
X179399862Y-129004392D01*
X179570599Y-127598240D01*
X179570599Y-126181760D01*
X179399862Y-124775608D01*
X179060876Y-123400289D01*
X178558585Y-122075858D01*
X177900314Y-120821627D01*
X177095662Y-119655888D01*
X176156363Y-118595637D01*
X175096112Y-117656338D01*
X173930373Y-116851686D01*
X173474633Y-116612495D01*
X176037000Y-116612495D01*
X176037000Y-117003505D01*
X176113282Y-117387003D01*
X176262915Y-117748250D01*
X176480149Y-118073364D01*
X176756636Y-118349851D01*
X177081750Y-118567085D01*
X177442997Y-118716718D01*
X177826495Y-118793000D01*
X178217505Y-118793000D01*
X178601003Y-118716718D01*
X178962250Y-118567085D01*
X179287364Y-118349851D01*
X179563851Y-118073364D01*
X179781085Y-117748250D01*
X179930718Y-117387003D01*
X180007000Y-117003505D01*
X180007000Y-116612495D01*
X179930718Y-116228997D01*
X179781085Y-115867750D01*
X179563851Y-115542636D01*
X179287364Y-115266149D01*
X178962250Y-115048915D01*
X178601003Y-114899282D01*
X178217505Y-114823000D01*
X177826495Y-114823000D01*
X177442997Y-114899282D01*
X177081750Y-115048915D01*
X176756636Y-115266149D01*
X176480149Y-115542636D01*
X176262915Y-115867750D01*
X176113282Y-116228997D01*
X176037000Y-116612495D01*
X173474633Y-116612495D01*
X172676142Y-116193415D01*
X171351711Y-115691124D01*
X169976392Y-115352138D01*
X168570240Y-115181401D01*
X167153760Y-115181401D01*
X165747608Y-115352138D01*
X164372289Y-115691124D01*
X163047858Y-116193415D01*
X161793627Y-116851686D01*
X160627888Y-117656338D01*
X159567637Y-118595637D01*
X158628338Y-119655888D01*
X157823686Y-120821627D01*
X157165415Y-122075858D01*
X156663124Y-123400289D01*
X156324138Y-124775608D01*
X156153401Y-126181760D01*
X116153000Y-126181760D01*
X116153000Y-116612495D01*
X155971000Y-116612495D01*
X155971000Y-117003505D01*
X156047282Y-117387003D01*
X156196915Y-117748250D01*
X156414149Y-118073364D01*
X156690636Y-118349851D01*
X157015750Y-118567085D01*
X157376997Y-118716718D01*
X157760495Y-118793000D01*
X158151505Y-118793000D01*
X158535003Y-118716718D01*
X158896250Y-118567085D01*
X159221364Y-118349851D01*
X159497851Y-118073364D01*
X159715085Y-117748250D01*
X159864718Y-117387003D01*
X159941000Y-117003505D01*
X159941000Y-116612495D01*
X159864718Y-116228997D01*
X159715085Y-115867750D01*
X159497851Y-115542636D01*
X159221364Y-115266149D01*
X158896250Y-115048915D01*
X158535003Y-114899282D01*
X158151505Y-114823000D01*
X157760495Y-114823000D01*
X157376997Y-114899282D01*
X157015750Y-115048915D01*
X156690636Y-115266149D01*
X156414149Y-115542636D01*
X156196915Y-115867750D01*
X156047282Y-116228997D01*
X155971000Y-116612495D01*
X116153000Y-116612495D01*
X116153000Y-97489495D01*
X131829000Y-97489495D01*
X131829000Y-97880505D01*
X131905282Y-98264003D01*
X132054915Y-98625250D01*
X132272149Y-98950364D01*
X132548636Y-99226851D01*
X132873750Y-99444085D01*
X133234997Y-99593718D01*
X133618495Y-99670000D01*
X134009505Y-99670000D01*
X134393003Y-99593718D01*
X134754250Y-99444085D01*
X135079364Y-99226851D01*
X135355851Y-98950364D01*
X135573085Y-98625250D01*
X135722718Y-98264003D01*
X135799000Y-97880505D01*
X135799000Y-97489495D01*
X135722718Y-97105997D01*
X135573085Y-96744750D01*
X135355851Y-96419636D01*
X135079364Y-96143149D01*
X134754250Y-95925915D01*
X134393003Y-95776282D01*
X134009505Y-95700000D01*
X133618495Y-95700000D01*
X133234997Y-95776282D01*
X132873750Y-95925915D01*
X132548636Y-96143149D01*
X132272149Y-96419636D01*
X132054915Y-96744750D01*
X131905282Y-97105997D01*
X131829000Y-97489495D01*
X116153000Y-97489495D01*
X116153000Y-93468349D01*
X116278692Y-93552334D01*
X116494348Y-93641661D01*
X116723288Y-93687200D01*
X116956712Y-93687200D01*
X117185652Y-93641661D01*
X117401308Y-93552334D01*
X117595394Y-93422650D01*
X117760450Y-93257594D01*
X117794090Y-93207248D01*
X117842463Y-93324031D01*
X118032337Y-93608198D01*
X118274002Y-93849863D01*
X118558169Y-94039737D01*
X118873919Y-94170525D01*
X119209117Y-94237200D01*
X119550883Y-94237200D01*
X119886081Y-94170525D01*
X120201831Y-94039737D01*
X120485998Y-93849863D01*
X120727663Y-93608198D01*
X120917537Y-93324031D01*
X121048325Y-93008281D01*
X121082394Y-92837000D01*
X140459928Y-92837000D01*
X140459928Y-94837000D01*
X140472188Y-94961482D01*
X140508498Y-95081180D01*
X140522299Y-95107000D01*
X140508498Y-95132820D01*
X140472188Y-95252518D01*
X140459928Y-95377000D01*
X140459928Y-97377000D01*
X140472188Y-97501482D01*
X140508498Y-97621180D01*
X140567463Y-97731494D01*
X140646815Y-97828185D01*
X140743506Y-97907537D01*
X140853820Y-97966502D01*
X140973518Y-98002812D01*
X141098000Y-98015072D01*
X143098000Y-98015072D01*
X143222482Y-98002812D01*
X143342180Y-97966502D01*
X143452494Y-97907537D01*
X143549185Y-97828185D01*
X143628537Y-97731494D01*
X143687502Y-97621180D01*
X143723812Y-97501482D01*
X143736072Y-97377000D01*
X143736072Y-95377000D01*
X143723812Y-95252518D01*
X143687502Y-95132820D01*
X143673701Y-95107000D01*
X143687502Y-95081180D01*
X143723812Y-94961482D01*
X143736072Y-94837000D01*
X143736072Y-92837000D01*
X143723812Y-92712518D01*
X143687502Y-92592820D01*
X143628537Y-92482506D01*
X143549185Y-92385815D01*
X143452494Y-92306463D01*
X143342180Y-92247498D01*
X143222482Y-92211188D01*
X143098000Y-92198928D01*
X141098000Y-92198928D01*
X140973518Y-92211188D01*
X140853820Y-92247498D01*
X140743506Y-92306463D01*
X140646815Y-92385815D01*
X140567463Y-92482506D01*
X140508498Y-92592820D01*
X140472188Y-92712518D01*
X140459928Y-92837000D01*
X121082394Y-92837000D01*
X121115000Y-92673083D01*
X121115000Y-92331317D01*
X121048325Y-91996119D01*
X120917537Y-91680369D01*
X120850310Y-91579757D01*
X120931185Y-91513385D01*
X121010537Y-91416694D01*
X121069502Y-91306380D01*
X121105812Y-91186682D01*
X121118072Y-91062200D01*
X121115000Y-90247950D01*
X120956250Y-90089200D01*
X119507000Y-90089200D01*
X119507000Y-90109200D01*
X119253000Y-90109200D01*
X119253000Y-90089200D01*
X119233000Y-90089200D01*
X119233000Y-89835200D01*
X119253000Y-89835200D01*
X119253000Y-88385950D01*
X119507000Y-88385950D01*
X119507000Y-89835200D01*
X120956250Y-89835200D01*
X121115000Y-89676450D01*
X121118072Y-88862200D01*
X121105812Y-88737718D01*
X121069502Y-88618020D01*
X121010537Y-88507706D01*
X120931185Y-88411015D01*
X120834494Y-88331663D01*
X120724180Y-88272698D01*
X120604482Y-88236388D01*
X120480000Y-88224128D01*
X119665750Y-88227200D01*
X119507000Y-88385950D01*
X119253000Y-88385950D01*
X119094250Y-88227200D01*
X118280000Y-88224128D01*
X118155518Y-88236388D01*
X118035820Y-88272698D01*
X117925506Y-88331663D01*
X117828815Y-88411015D01*
X117749463Y-88507706D01*
X117690498Y-88618020D01*
X117654188Y-88737718D01*
X117641928Y-88862200D01*
X117642784Y-89089140D01*
X117595394Y-89041750D01*
X117401308Y-88912066D01*
X117185652Y-88822739D01*
X116956712Y-88777200D01*
X116723288Y-88777200D01*
X116494348Y-88822739D01*
X116278692Y-88912066D01*
X116153000Y-88996051D01*
X116153000Y-83666149D01*
X116278692Y-83750134D01*
X116494348Y-83839461D01*
X116723288Y-83885000D01*
X116956712Y-83885000D01*
X117185652Y-83839461D01*
X117401308Y-83750134D01*
X117595394Y-83620450D01*
X117760450Y-83455394D01*
X117794090Y-83405048D01*
X117842463Y-83521831D01*
X118032337Y-83805998D01*
X118274002Y-84047663D01*
X118558169Y-84237537D01*
X118873919Y-84368325D01*
X119209117Y-84435000D01*
X119550883Y-84435000D01*
X119886081Y-84368325D01*
X120201831Y-84237537D01*
X120485998Y-84047663D01*
X120727663Y-83805998D01*
X120917537Y-83521831D01*
X121048325Y-83206081D01*
X121115000Y-82870883D01*
X121115000Y-82529117D01*
X121048325Y-82193919D01*
X120917537Y-81878169D01*
X120850310Y-81777557D01*
X120931185Y-81711185D01*
X121010537Y-81614494D01*
X121069502Y-81504180D01*
X121081236Y-81465495D01*
X123994100Y-81465495D01*
X123994100Y-81856505D01*
X124070382Y-82240003D01*
X124220015Y-82601250D01*
X124437249Y-82926364D01*
X124713736Y-83202851D01*
X125038850Y-83420085D01*
X125400097Y-83569718D01*
X125783595Y-83646000D01*
X126174605Y-83646000D01*
X126558103Y-83569718D01*
X126687869Y-83515967D01*
X140463000Y-83515967D01*
X140463000Y-83838033D01*
X140525832Y-84153912D01*
X140649082Y-84451463D01*
X140828013Y-84719252D01*
X141055748Y-84946987D01*
X141055767Y-84947000D01*
X141055748Y-84947013D01*
X140828013Y-85174748D01*
X140649082Y-85442537D01*
X140525832Y-85740088D01*
X140463000Y-86055967D01*
X140463000Y-86378033D01*
X140525832Y-86693912D01*
X140649082Y-86991463D01*
X140828013Y-87259252D01*
X141055748Y-87486987D01*
X141323537Y-87665918D01*
X141621088Y-87789168D01*
X141936967Y-87852000D01*
X142259033Y-87852000D01*
X142267588Y-87850298D01*
X146412001Y-91994712D01*
X146412000Y-105472172D01*
X146406994Y-105523000D01*
X146412000Y-105573828D01*
X146412000Y-105573837D01*
X146426976Y-105725894D01*
X146486159Y-105920992D01*
X146582266Y-106100797D01*
X146711604Y-106258396D01*
X146751097Y-106290807D01*
X148558217Y-108097928D01*
X147860000Y-108097928D01*
X147735518Y-108110188D01*
X147615820Y-108146498D01*
X147505506Y-108205463D01*
X147408815Y-108284815D01*
X147329463Y-108381506D01*
X147270498Y-108491820D01*
X147234188Y-108611518D01*
X147221928Y-108736000D01*
X147221928Y-111736000D01*
X147234188Y-111860482D01*
X147270498Y-111980180D01*
X147329463Y-112090494D01*
X147408815Y-112187185D01*
X147505506Y-112266537D01*
X147615820Y-112325502D01*
X147735518Y-112361812D01*
X147860000Y-112374072D01*
X151860000Y-112374072D01*
X151984482Y-112361812D01*
X152104180Y-112325502D01*
X152214494Y-112266537D01*
X152311185Y-112187185D01*
X152390537Y-112090494D01*
X152449502Y-111980180D01*
X152485812Y-111860482D01*
X152498072Y-111736000D01*
X152498072Y-108736000D01*
X152485812Y-108611518D01*
X152449502Y-108491820D01*
X152390537Y-108381506D01*
X152311185Y-108284815D01*
X152214494Y-108205463D01*
X152104180Y-108146498D01*
X151984482Y-108110188D01*
X151860000Y-108097928D01*
X150895000Y-108097928D01*
X150895000Y-107986827D01*
X150900006Y-107935999D01*
X150895000Y-107885171D01*
X150895000Y-107885162D01*
X150880024Y-107733105D01*
X150820841Y-107538007D01*
X150733811Y-107375184D01*
X150724734Y-107358202D01*
X150627803Y-107240092D01*
X150595396Y-107200604D01*
X150555908Y-107168197D01*
X148482000Y-105094290D01*
X148482000Y-101050710D01*
X158363197Y-110931908D01*
X158395604Y-110971396D01*
X158435092Y-111003803D01*
X158553202Y-111100734D01*
X158649309Y-111152104D01*
X158733007Y-111196841D01*
X158928105Y-111256024D01*
X159080162Y-111271000D01*
X159080165Y-111271000D01*
X159131000Y-111276007D01*
X159181835Y-111271000D01*
X166525928Y-111271000D01*
X166525928Y-111736000D01*
X166538188Y-111860482D01*
X166574498Y-111980180D01*
X166633463Y-112090494D01*
X166712815Y-112187185D01*
X166809506Y-112266537D01*
X166919820Y-112325502D01*
X167039518Y-112361812D01*
X167164000Y-112374072D01*
X171164000Y-112374072D01*
X171288482Y-112361812D01*
X171408180Y-112325502D01*
X171518494Y-112266537D01*
X171615185Y-112187185D01*
X171694537Y-112090494D01*
X171753502Y-111980180D01*
X171789812Y-111860482D01*
X171802072Y-111736000D01*
X171802072Y-108736000D01*
X171789812Y-108611518D01*
X171753502Y-108491820D01*
X171694537Y-108381506D01*
X171615185Y-108284815D01*
X171518494Y-108205463D01*
X171408180Y-108146498D01*
X171288482Y-108110188D01*
X171164000Y-108097928D01*
X167164000Y-108097928D01*
X167039518Y-108110188D01*
X166919820Y-108146498D01*
X166809506Y-108205463D01*
X166712815Y-108284815D01*
X166633463Y-108381506D01*
X166574498Y-108491820D01*
X166538188Y-108611518D01*
X166525928Y-108736000D01*
X166525928Y-109201000D01*
X159559711Y-109201000D01*
X150133000Y-99774290D01*
X150133000Y-96987187D01*
X150189383Y-96851067D01*
X150233000Y-96631788D01*
X150233000Y-96408212D01*
X150189383Y-96188933D01*
X150103824Y-95982376D01*
X149979612Y-95796480D01*
X149821520Y-95638388D01*
X149635624Y-95514176D01*
X149429067Y-95428617D01*
X149209788Y-95385000D01*
X148986212Y-95385000D01*
X148766933Y-95428617D01*
X148560376Y-95514176D01*
X148482000Y-95566545D01*
X148482000Y-92837000D01*
X156459928Y-92837000D01*
X156459928Y-94837000D01*
X156472188Y-94961482D01*
X156508498Y-95081180D01*
X156522299Y-95107000D01*
X156508498Y-95132820D01*
X156472188Y-95252518D01*
X156459928Y-95377000D01*
X156459928Y-97377000D01*
X156472188Y-97501482D01*
X156508498Y-97621180D01*
X156567463Y-97731494D01*
X156646815Y-97828185D01*
X156743506Y-97907537D01*
X156853820Y-97966502D01*
X156973518Y-98002812D01*
X157098000Y-98015072D01*
X159098000Y-98015072D01*
X159222482Y-98002812D01*
X159342180Y-97966502D01*
X159452494Y-97907537D01*
X159549185Y-97828185D01*
X159628537Y-97731494D01*
X159687502Y-97621180D01*
X159723812Y-97501482D01*
X159736072Y-97377000D01*
X159736072Y-95377000D01*
X159723812Y-95252518D01*
X159687502Y-95132820D01*
X159673701Y-95107000D01*
X159687502Y-95081180D01*
X159723812Y-94961482D01*
X159732625Y-94872000D01*
X164557172Y-94872000D01*
X164608000Y-94877006D01*
X164658828Y-94872000D01*
X164658838Y-94872000D01*
X164810895Y-94857024D01*
X165005993Y-94797841D01*
X165185797Y-94701734D01*
X165343396Y-94572396D01*
X165375807Y-94532903D01*
X169859908Y-90048803D01*
X169899396Y-90016396D01*
X169931803Y-89976908D01*
X170028734Y-89858798D01*
X170124840Y-89678994D01*
X170124841Y-89678993D01*
X170184024Y-89483895D01*
X170199000Y-89331838D01*
X170199000Y-89331836D01*
X170204007Y-89281000D01*
X170199000Y-89230165D01*
X170199000Y-80670000D01*
X182745928Y-80670000D01*
X182758188Y-80794482D01*
X182794498Y-80914180D01*
X182853463Y-81024494D01*
X182932815Y-81121185D01*
X183029506Y-81200537D01*
X183139820Y-81259502D01*
X183259518Y-81295812D01*
X183384000Y-81308072D01*
X184098250Y-81305000D01*
X184257000Y-81146250D01*
X184257000Y-79797000D01*
X182907750Y-79797000D01*
X182749000Y-79955750D01*
X182745928Y-80670000D01*
X170199000Y-80670000D01*
X170199000Y-78670000D01*
X182745928Y-78670000D01*
X182749000Y-79384250D01*
X182907750Y-79543000D01*
X184257000Y-79543000D01*
X184257000Y-78193750D01*
X184098250Y-78035000D01*
X183384000Y-78031928D01*
X183259518Y-78044188D01*
X183139820Y-78080498D01*
X183029506Y-78139463D01*
X182932815Y-78218815D01*
X182853463Y-78315506D01*
X182794498Y-78425820D01*
X182758188Y-78545518D01*
X182745928Y-78670000D01*
X170199000Y-78670000D01*
X170199000Y-72242072D01*
X171164000Y-72242072D01*
X171288482Y-72229812D01*
X171408180Y-72193502D01*
X171518494Y-72134537D01*
X171615185Y-72055185D01*
X171694537Y-71958494D01*
X171753502Y-71848180D01*
X171789812Y-71728482D01*
X171802072Y-71604000D01*
X171802072Y-69019495D01*
X197913000Y-69019495D01*
X197913000Y-69410505D01*
X197989282Y-69794003D01*
X198138915Y-70155250D01*
X198356149Y-70480364D01*
X198632636Y-70756851D01*
X198957750Y-70974085D01*
X199318997Y-71123718D01*
X199702495Y-71200000D01*
X200093505Y-71200000D01*
X200477003Y-71123718D01*
X200838250Y-70974085D01*
X201163364Y-70756851D01*
X201439851Y-70480364D01*
X201657085Y-70155250D01*
X201806718Y-69794003D01*
X201883000Y-69410505D01*
X201883000Y-69019495D01*
X201806718Y-68635997D01*
X201657085Y-68274750D01*
X201439851Y-67949636D01*
X201163364Y-67673149D01*
X200838250Y-67455915D01*
X200477003Y-67306282D01*
X200093505Y-67230000D01*
X199702495Y-67230000D01*
X199318997Y-67306282D01*
X198957750Y-67455915D01*
X198632636Y-67673149D01*
X198356149Y-67949636D01*
X198138915Y-68274750D01*
X197989282Y-68635997D01*
X197913000Y-69019495D01*
X171802072Y-69019495D01*
X171802072Y-68604000D01*
X171789812Y-68479518D01*
X171753502Y-68359820D01*
X171694537Y-68249506D01*
X171615185Y-68152815D01*
X171518494Y-68073463D01*
X171408180Y-68014498D01*
X171288482Y-67978188D01*
X171164000Y-67965928D01*
X167164000Y-67965928D01*
X167039518Y-67978188D01*
X166919820Y-68014498D01*
X166809506Y-68073463D01*
X166712815Y-68152815D01*
X166633463Y-68249506D01*
X166574498Y-68359820D01*
X166538188Y-68479518D01*
X166525928Y-68604000D01*
X166525928Y-71604000D01*
X166538188Y-71728482D01*
X166574498Y-71848180D01*
X166633463Y-71958494D01*
X166712815Y-72055185D01*
X166809506Y-72134537D01*
X166919820Y-72193502D01*
X167039518Y-72229812D01*
X167164000Y-72242072D01*
X168129000Y-72242072D01*
X168129000Y-79397557D01*
X168062282Y-79276197D01*
X168025933Y-79223110D01*
X167990315Y-79169501D01*
X167983996Y-79161863D01*
X167840606Y-78990978D01*
X167794640Y-78945966D01*
X167749288Y-78900295D01*
X167741606Y-78894030D01*
X167567756Y-78754250D01*
X167513919Y-78719020D01*
X167460556Y-78683026D01*
X167451803Y-78678372D01*
X167254113Y-78575023D01*
X167194485Y-78550933D01*
X167135128Y-78525981D01*
X167125637Y-78523116D01*
X166911639Y-78460133D01*
X166848456Y-78448080D01*
X166785392Y-78435135D01*
X166775526Y-78434168D01*
X166553370Y-78413950D01*
X166489055Y-78414399D01*
X166424673Y-78413950D01*
X166414807Y-78414917D01*
X166192955Y-78438234D01*
X166129931Y-78451171D01*
X166066705Y-78463232D01*
X166057221Y-78466096D01*
X166057217Y-78466097D01*
X166057214Y-78466098D01*
X166057215Y-78466098D01*
X165844117Y-78532062D01*
X165784808Y-78556994D01*
X165725129Y-78581106D01*
X165716376Y-78585760D01*
X165520149Y-78691860D01*
X165466817Y-78727833D01*
X165412955Y-78763079D01*
X165405275Y-78769343D01*
X165405271Y-78769346D01*
X165405267Y-78769350D01*
X165233390Y-78911538D01*
X165188053Y-78957193D01*
X165142070Y-79002223D01*
X165135751Y-79009861D01*
X164994761Y-79182731D01*
X164959141Y-79236343D01*
X164922792Y-79289430D01*
X164918077Y-79298150D01*
X164813350Y-79495114D01*
X164788827Y-79554612D01*
X164763479Y-79613753D01*
X164760548Y-79623223D01*
X164696072Y-79836776D01*
X164683584Y-79899844D01*
X164670192Y-79962848D01*
X164669156Y-79972707D01*
X164647388Y-80194717D01*
X164647388Y-80194724D01*
X164644000Y-80229124D01*
X164644001Y-87029877D01*
X164647499Y-87065394D01*
X164647499Y-87080244D01*
X164648536Y-87090102D01*
X164673402Y-87311786D01*
X164686772Y-87374687D01*
X164699280Y-87437855D01*
X164702211Y-87447325D01*
X164769662Y-87659958D01*
X164795011Y-87719100D01*
X164819536Y-87778602D01*
X164824251Y-87787322D01*
X164931718Y-87982803D01*
X164968067Y-88035890D01*
X165003685Y-88089499D01*
X165010004Y-88097137D01*
X165153394Y-88268022D01*
X165199360Y-88313034D01*
X165244712Y-88358705D01*
X165252394Y-88364970D01*
X165426245Y-88504751D01*
X165480075Y-88539977D01*
X165533444Y-88575974D01*
X165542197Y-88580628D01*
X165739887Y-88683977D01*
X165799515Y-88708067D01*
X165858872Y-88733019D01*
X165868363Y-88735884D01*
X166082361Y-88798867D01*
X166145544Y-88810920D01*
X166208608Y-88823865D01*
X166218473Y-88824832D01*
X166440630Y-88845050D01*
X166504945Y-88844601D01*
X166569327Y-88845050D01*
X166579193Y-88844083D01*
X166801045Y-88820766D01*
X166864069Y-88807829D01*
X166927295Y-88795768D01*
X166936785Y-88792903D01*
X167149883Y-88726938D01*
X167209178Y-88702012D01*
X167268872Y-88677894D01*
X167277624Y-88673240D01*
X167473852Y-88567140D01*
X167527187Y-88531164D01*
X167581046Y-88495920D01*
X167588728Y-88489655D01*
X167760610Y-88347461D01*
X167805928Y-88301826D01*
X167851930Y-88256777D01*
X167858249Y-88249139D01*
X167999238Y-88076269D01*
X168034813Y-88022725D01*
X168071208Y-87969571D01*
X168075923Y-87960850D01*
X168129001Y-87861023D01*
X168129001Y-88852288D01*
X164179290Y-92802000D01*
X159732625Y-92802000D01*
X159723812Y-92712518D01*
X159687502Y-92592820D01*
X159628537Y-92482506D01*
X159549185Y-92385815D01*
X159452494Y-92306463D01*
X159342180Y-92247498D01*
X159222482Y-92211188D01*
X159098000Y-92198928D01*
X157098000Y-92198928D01*
X156973518Y-92211188D01*
X156853820Y-92247498D01*
X156743506Y-92306463D01*
X156646815Y-92385815D01*
X156567463Y-92482506D01*
X156508498Y-92592820D01*
X156472188Y-92712518D01*
X156459928Y-92837000D01*
X148482000Y-92837000D01*
X148482000Y-91616827D01*
X148487006Y-91565999D01*
X148482000Y-91515171D01*
X148482000Y-91515162D01*
X148467024Y-91363105D01*
X148407841Y-91168007D01*
X148348169Y-91056368D01*
X148311734Y-90988202D01*
X148214803Y-90870092D01*
X148182396Y-90830604D01*
X148142908Y-90798197D01*
X144697124Y-87352413D01*
X157142192Y-87352413D01*
X157237956Y-87616814D01*
X157527571Y-87757704D01*
X157839108Y-87839384D01*
X158160595Y-87858718D01*
X158479675Y-87814961D01*
X158784088Y-87709795D01*
X158958044Y-87616814D01*
X159053808Y-87352413D01*
X158098000Y-86396605D01*
X157142192Y-87352413D01*
X144697124Y-87352413D01*
X143731298Y-86386588D01*
X143733000Y-86378033D01*
X143733000Y-86279595D01*
X156456282Y-86279595D01*
X156500039Y-86598675D01*
X156605205Y-86903088D01*
X156698186Y-87077044D01*
X156962587Y-87172808D01*
X157918395Y-86217000D01*
X158277605Y-86217000D01*
X159233413Y-87172808D01*
X159497814Y-87077044D01*
X159638704Y-86787429D01*
X159720384Y-86475892D01*
X159739718Y-86154405D01*
X159695961Y-85835325D01*
X159590795Y-85530912D01*
X159497814Y-85356956D01*
X159233413Y-85261192D01*
X158277605Y-86217000D01*
X157918395Y-86217000D01*
X156962587Y-85261192D01*
X156698186Y-85356956D01*
X156557296Y-85646571D01*
X156475616Y-85958108D01*
X156456282Y-86279595D01*
X143733000Y-86279595D01*
X143733000Y-86055967D01*
X143670168Y-85740088D01*
X143546918Y-85442537D01*
X143367987Y-85174748D01*
X143140252Y-84947013D01*
X143140233Y-84947000D01*
X143140252Y-84946987D01*
X143274826Y-84812413D01*
X157142192Y-84812413D01*
X157190938Y-84947000D01*
X157142192Y-85081587D01*
X158098000Y-86037395D01*
X159053808Y-85081587D01*
X159005062Y-84947000D01*
X159053808Y-84812413D01*
X158098000Y-83856605D01*
X157142192Y-84812413D01*
X143274826Y-84812413D01*
X143367987Y-84719252D01*
X143546918Y-84451463D01*
X143670168Y-84153912D01*
X143733000Y-83838033D01*
X143733000Y-83739595D01*
X156456282Y-83739595D01*
X156500039Y-84058675D01*
X156605205Y-84363088D01*
X156698186Y-84537044D01*
X156962587Y-84632808D01*
X157918395Y-83677000D01*
X158277605Y-83677000D01*
X159233413Y-84632808D01*
X159497814Y-84537044D01*
X159638704Y-84247429D01*
X159720384Y-83935892D01*
X159739718Y-83614405D01*
X159695961Y-83295325D01*
X159590795Y-82990912D01*
X159497814Y-82816956D01*
X159233413Y-82721192D01*
X158277605Y-83677000D01*
X157918395Y-83677000D01*
X156962587Y-82721192D01*
X156698186Y-82816956D01*
X156557296Y-83106571D01*
X156475616Y-83418108D01*
X156456282Y-83739595D01*
X143733000Y-83739595D01*
X143733000Y-83515967D01*
X143670168Y-83200088D01*
X143546918Y-82902537D01*
X143367987Y-82634748D01*
X143274826Y-82541587D01*
X157142192Y-82541587D01*
X158098000Y-83497395D01*
X159053808Y-82541587D01*
X158958044Y-82277186D01*
X158668429Y-82136296D01*
X158356892Y-82054616D01*
X158035405Y-82035282D01*
X157716325Y-82079039D01*
X157411912Y-82184205D01*
X157237956Y-82277186D01*
X157142192Y-82541587D01*
X143274826Y-82541587D01*
X143140252Y-82407013D01*
X142872463Y-82228082D01*
X142574912Y-82104832D01*
X142259033Y-82042000D01*
X141936967Y-82042000D01*
X141621088Y-82104832D01*
X141323537Y-82228082D01*
X141055748Y-82407013D01*
X140828013Y-82634748D01*
X140649082Y-82902537D01*
X140525832Y-83200088D01*
X140463000Y-83515967D01*
X126687869Y-83515967D01*
X126919350Y-83420085D01*
X127244464Y-83202851D01*
X127520951Y-82926364D01*
X127738185Y-82601250D01*
X127887818Y-82240003D01*
X127964100Y-81856505D01*
X127964100Y-81465495D01*
X127887818Y-81081997D01*
X127738185Y-80720750D01*
X127520951Y-80395636D01*
X127244464Y-80119149D01*
X126919350Y-79901915D01*
X126558103Y-79752282D01*
X126174605Y-79676000D01*
X125783595Y-79676000D01*
X125400097Y-79752282D01*
X125038850Y-79901915D01*
X124713736Y-80119149D01*
X124437249Y-80395636D01*
X124220015Y-80720750D01*
X124070382Y-81081997D01*
X123994100Y-81465495D01*
X121081236Y-81465495D01*
X121105812Y-81384482D01*
X121118072Y-81260000D01*
X121118072Y-79060000D01*
X121105812Y-78935518D01*
X121069502Y-78815820D01*
X121010537Y-78705506D01*
X120981399Y-78670000D01*
X139345928Y-78670000D01*
X139345928Y-80670000D01*
X139358188Y-80794482D01*
X139394498Y-80914180D01*
X139453463Y-81024494D01*
X139532815Y-81121185D01*
X139629506Y-81200537D01*
X139739820Y-81259502D01*
X139859518Y-81295812D01*
X139984000Y-81308072D01*
X141984000Y-81308072D01*
X142108482Y-81295812D01*
X142228180Y-81259502D01*
X142338494Y-81200537D01*
X142435185Y-81121185D01*
X142514537Y-81024494D01*
X142573502Y-80914180D01*
X142590288Y-80858846D01*
X142652525Y-80921083D01*
X142768193Y-80805415D01*
X142863956Y-81069814D01*
X143153571Y-81210704D01*
X143465108Y-81292384D01*
X143786595Y-81311718D01*
X144105675Y-81267961D01*
X144410088Y-81162795D01*
X144584044Y-81069814D01*
X144679808Y-80805413D01*
X143724000Y-79849605D01*
X143709858Y-79863748D01*
X143530253Y-79684143D01*
X143544395Y-79670000D01*
X143903605Y-79670000D01*
X144859413Y-80625808D01*
X144921280Y-80603400D01*
X144994013Y-80712252D01*
X145221748Y-80939987D01*
X145489537Y-81118918D01*
X145787088Y-81242168D01*
X146102967Y-81305000D01*
X146425033Y-81305000D01*
X146740912Y-81242168D01*
X147038463Y-81118918D01*
X147306252Y-80939987D01*
X147533987Y-80712252D01*
X147712918Y-80444463D01*
X147836168Y-80146912D01*
X147899000Y-79831033D01*
X147899000Y-79508967D01*
X147836168Y-79193088D01*
X147712918Y-78895537D01*
X147533987Y-78627748D01*
X147306252Y-78400013D01*
X147038463Y-78221082D01*
X146740912Y-78097832D01*
X146425033Y-78035000D01*
X146102967Y-78035000D01*
X145787088Y-78097832D01*
X145489537Y-78221082D01*
X145221748Y-78400013D01*
X144994013Y-78627748D01*
X144921280Y-78736600D01*
X144859413Y-78714192D01*
X143903605Y-79670000D01*
X143544395Y-79670000D01*
X143530253Y-79655858D01*
X143709858Y-79476253D01*
X143724000Y-79490395D01*
X144679808Y-78534587D01*
X144584044Y-78270186D01*
X144294429Y-78129296D01*
X143982892Y-78047616D01*
X143661405Y-78028282D01*
X143342325Y-78072039D01*
X143037912Y-78177205D01*
X142863956Y-78270186D01*
X142768193Y-78534585D01*
X142652525Y-78418917D01*
X142590288Y-78481154D01*
X142573502Y-78425820D01*
X142514537Y-78315506D01*
X142435185Y-78218815D01*
X142338494Y-78139463D01*
X142228180Y-78080498D01*
X142108482Y-78044188D01*
X141984000Y-78031928D01*
X139984000Y-78031928D01*
X139859518Y-78044188D01*
X139739820Y-78080498D01*
X139629506Y-78139463D01*
X139532815Y-78218815D01*
X139453463Y-78315506D01*
X139394498Y-78425820D01*
X139358188Y-78545518D01*
X139345928Y-78670000D01*
X120981399Y-78670000D01*
X120931185Y-78608815D01*
X120834494Y-78529463D01*
X120724180Y-78470498D01*
X120604482Y-78434188D01*
X120480000Y-78421928D01*
X118280000Y-78421928D01*
X118155518Y-78434188D01*
X118035820Y-78470498D01*
X117925506Y-78529463D01*
X117828815Y-78608815D01*
X117749463Y-78705506D01*
X117690498Y-78815820D01*
X117654188Y-78935518D01*
X117641928Y-79060000D01*
X117641928Y-79286084D01*
X117595394Y-79239550D01*
X117401308Y-79109866D01*
X117185652Y-79020539D01*
X116956712Y-78975000D01*
X116723288Y-78975000D01*
X116494348Y-79020539D01*
X116278692Y-79109866D01*
X116153000Y-79193851D01*
X116153000Y-71604000D01*
X147221928Y-71604000D01*
X147234188Y-71728482D01*
X147270498Y-71848180D01*
X147329463Y-71958494D01*
X147408815Y-72055185D01*
X147505506Y-72134537D01*
X147615820Y-72193502D01*
X147735518Y-72229812D01*
X147860000Y-72242072D01*
X149574250Y-72239000D01*
X149733000Y-72080250D01*
X149733000Y-70231000D01*
X149987000Y-70231000D01*
X149987000Y-72080250D01*
X150145750Y-72239000D01*
X151860000Y-72242072D01*
X151984482Y-72229812D01*
X152104180Y-72193502D01*
X152214494Y-72134537D01*
X152311185Y-72055185D01*
X152390537Y-71958494D01*
X152449502Y-71848180D01*
X152485812Y-71728482D01*
X152498072Y-71604000D01*
X152495000Y-70389750D01*
X152336250Y-70231000D01*
X149987000Y-70231000D01*
X149733000Y-70231000D01*
X147383750Y-70231000D01*
X147225000Y-70389750D01*
X147221928Y-71604000D01*
X116153000Y-71604000D01*
X116153000Y-69019495D01*
X117012000Y-69019495D01*
X117012000Y-69410505D01*
X117088282Y-69794003D01*
X117237915Y-70155250D01*
X117455149Y-70480364D01*
X117731636Y-70756851D01*
X118056750Y-70974085D01*
X118417997Y-71123718D01*
X118801495Y-71200000D01*
X119192505Y-71200000D01*
X119576003Y-71123718D01*
X119937250Y-70974085D01*
X120262364Y-70756851D01*
X120538851Y-70480364D01*
X120756085Y-70155250D01*
X120905718Y-69794003D01*
X120982000Y-69410505D01*
X120982000Y-69019495D01*
X120905718Y-68635997D01*
X120892465Y-68604000D01*
X147221928Y-68604000D01*
X147225000Y-69818250D01*
X147383750Y-69977000D01*
X149733000Y-69977000D01*
X149733000Y-68127750D01*
X149987000Y-68127750D01*
X149987000Y-69977000D01*
X152336250Y-69977000D01*
X152495000Y-69818250D01*
X152498072Y-68604000D01*
X152485812Y-68479518D01*
X152449502Y-68359820D01*
X152390537Y-68249506D01*
X152311185Y-68152815D01*
X152214494Y-68073463D01*
X152104180Y-68014498D01*
X151984482Y-67978188D01*
X151860000Y-67965928D01*
X150145750Y-67969000D01*
X149987000Y-68127750D01*
X149733000Y-68127750D01*
X149574250Y-67969000D01*
X147860000Y-67965928D01*
X147735518Y-67978188D01*
X147615820Y-68014498D01*
X147505506Y-68073463D01*
X147408815Y-68152815D01*
X147329463Y-68249506D01*
X147270498Y-68359820D01*
X147234188Y-68479518D01*
X147221928Y-68604000D01*
X120892465Y-68604000D01*
X120756085Y-68274750D01*
X120538851Y-67949636D01*
X120262364Y-67673149D01*
X119937250Y-67455915D01*
X119576003Y-67306282D01*
X119192505Y-67230000D01*
X118801495Y-67230000D01*
X118417997Y-67306282D01*
X118056750Y-67455915D01*
X117731636Y-67673149D01*
X117455149Y-67949636D01*
X117237915Y-68274750D01*
X117088282Y-68635997D01*
X117012000Y-69019495D01*
X116153000Y-69019495D01*
X116153000Y-66242000D01*
X208633000Y-66242000D01*
X208633001Y-153214000D01*
G36*
X173003294Y-146244014D02*
G01*
X173188866Y-146470134D01*
X173414986Y-146655706D01*
X173469791Y-146685000D01*
X173414986Y-146714294D01*
X173188866Y-146899866D01*
X173003294Y-147125986D01*
X172968799Y-147190523D01*
X172899178Y-147073645D01*
X172704269Y-146857412D01*
X172475244Y-146686584D01*
X172533014Y-146655706D01*
X172759134Y-146470134D01*
X172944706Y-146244014D01*
X172974000Y-146189209D01*
X173003294Y-146244014D01*
X173003294Y-146244014D01*
G37*
X173003294Y-146244014D02*
X173188866Y-146470134D01*
X173414986Y-146655706D01*
X173469791Y-146685000D01*
X173414986Y-146714294D01*
X173188866Y-146899866D01*
X173003294Y-147125986D01*
X172968799Y-147190523D01*
X172899178Y-147073645D01*
X172704269Y-146857412D01*
X172475244Y-146686584D01*
X172533014Y-146655706D01*
X172759134Y-146470134D01*
X172944706Y-146244014D01*
X172974000Y-146189209D01*
X173003294Y-146244014D01*
G36*
X175588822Y-146296355D02*
G01*
X175783731Y-146512588D01*
X176012756Y-146683416D01*
X175954986Y-146714294D01*
X175728866Y-146899866D01*
X175543294Y-147125986D01*
X175514000Y-147180791D01*
X175484706Y-147125986D01*
X175299134Y-146899866D01*
X175073014Y-146714294D01*
X175018209Y-146685000D01*
X175073014Y-146655706D01*
X175299134Y-146470134D01*
X175484706Y-146244014D01*
X175519201Y-146179477D01*
X175588822Y-146296355D01*
X175588822Y-146296355D01*
G37*
X175588822Y-146296355D02*
X175783731Y-146512588D01*
X176012756Y-146683416D01*
X175954986Y-146714294D01*
X175728866Y-146899866D01*
X175543294Y-147125986D01*
X175514000Y-147180791D01*
X175484706Y-147125986D01*
X175299134Y-146899866D01*
X175073014Y-146714294D01*
X175018209Y-146685000D01*
X175073014Y-146655706D01*
X175299134Y-146470134D01*
X175484706Y-146244014D01*
X175519201Y-146179477D01*
X175588822Y-146296355D01*
G36*
X176911000Y-145288000D02*
G01*
X176931000Y-145288000D01*
X176931000Y-145542000D01*
X176911000Y-145542000D01*
X176911000Y-145562000D01*
X176657000Y-145562000D01*
X176657000Y-145542000D01*
X176637000Y-145542000D01*
X176637000Y-145288000D01*
X176657000Y-145288000D01*
X176657000Y-145268000D01*
X176911000Y-145268000D01*
X176911000Y-145288000D01*
X176911000Y-145288000D01*
G37*
X176911000Y-145288000D02*
X176931000Y-145288000D01*
X176931000Y-145542000D01*
X176911000Y-145542000D01*
X176911000Y-145562000D01*
X176657000Y-145562000D01*
X176657000Y-145542000D01*
X176637000Y-145542000D01*
X176637000Y-145288000D01*
X176657000Y-145288000D01*
X176657000Y-145268000D01*
X176911000Y-145268000D01*
X176911000Y-145288000D01*
G36*
X183504463Y-132516494D02*
G01*
X183583815Y-132613185D01*
X183680506Y-132692537D01*
X183790820Y-132751502D01*
X183910518Y-132787812D01*
X184025001Y-132799087D01*
X184025000Y-134178198D01*
X182878000Y-135325199D01*
X182878000Y-132799087D01*
X182992482Y-132787812D01*
X183112180Y-132751502D01*
X183222494Y-132692537D01*
X183319185Y-132613185D01*
X183398537Y-132516494D01*
X183451500Y-132417409D01*
X183504463Y-132516494D01*
X183504463Y-132516494D01*
G37*
X183504463Y-132516494D02*
X183583815Y-132613185D01*
X183680506Y-132692537D01*
X183790820Y-132751502D01*
X183910518Y-132787812D01*
X184025001Y-132799087D01*
X184025000Y-134178198D01*
X182878000Y-135325199D01*
X182878000Y-132799087D01*
X182992482Y-132787812D01*
X183112180Y-132751502D01*
X183222494Y-132692537D01*
X183319185Y-132613185D01*
X183398537Y-132516494D01*
X183451500Y-132417409D01*
X183504463Y-132516494D01*
M02*
