M48
; DRILL file {KiCad 5.1.4-3.fc30} date St 16. října 2019, 23:50:48 CEST
; FORMAT={-:-/ absolute / metric / decimal}
; #@! TF.CreationDate,2019-10-16T23:50:48+02:00
; #@! TF.GenerationSoftware,Kicad,Pcbnew,5.1.4-3.fc30
; #@! TF.FileFunction,NonPlated,1,2,NPTH
FMAT,2
METRIC
T1C1.100
T2C2.700
%
G90
G05
T1
X116.84Y-80.16
X116.84Y-82.7
X116.84Y-89.962
X116.84Y-92.502
T2
X199.898Y-150.39
X178.022Y-136.874
X133.814Y-146.685
X125.979Y-81.661
X178.022Y-116.808
X199.898Y-69.215
X199.898Y-81.661
X118.997Y-150.39
X157.956Y-136.874
X118.997Y-69.215
X133.814Y-97.685
X199.898Y-136.652
X125.979Y-136.652
X157.956Y-116.808
X191.814Y-97.685
X191.814Y-146.685
T0
M30
