G04 #@! TF.GenerationSoftware,KiCad,Pcbnew,5.0.2-5.fc29*
G04 #@! TF.CreationDate,2019-08-22T23:49:55+02:00*
G04 #@! TF.ProjectId,backplane,6261636b-706c-4616-9e65-2e6b69636164,v2.1-1*
G04 #@! TF.SameCoordinates,Original*
G04 #@! TF.FileFunction,Copper,L2,Bot*
G04 #@! TF.FilePolarity,Positive*
%FSLAX46Y46*%
G04 Gerber Fmt 4.6, Leading zero omitted, Abs format (unit mm)*
G04 Created by KiCad (PCBNEW 5.0.2-5.fc29) date Thu 22 Aug 2019 11:49:55 PM CEST*
%MOMM*%
%LPD*%
G01*
G04 APERTURE LIST*
G04 #@! TA.AperFunction,ViaPad*
%ADD10C,0.600000*%
G04 #@! TD*
G04 #@! TA.AperFunction,ComponentPad*
%ADD11R,2.000000X2.000000*%
G04 #@! TD*
G04 #@! TA.AperFunction,ComponentPad*
%ADD12C,2.000000*%
G04 #@! TD*
G04 #@! TA.AperFunction,ComponentPad*
%ADD13O,1.998980X1.998980*%
G04 #@! TD*
G04 #@! TA.AperFunction,ComponentPad*
%ADD14R,1.998980X1.998980*%
G04 #@! TD*
G04 #@! TA.AperFunction,ComponentPad*
%ADD15C,1.700000*%
G04 #@! TD*
G04 #@! TA.AperFunction,ComponentPad*
%ADD16R,1.800000X1.800000*%
G04 #@! TD*
G04 #@! TA.AperFunction,ComponentPad*
%ADD17O,1.800000X1.800000*%
G04 #@! TD*
G04 #@! TA.AperFunction,ComponentPad*
%ADD18O,2.000000X2.000000*%
G04 #@! TD*
G04 #@! TA.AperFunction,ComponentPad*
%ADD19R,1.700000X1.700000*%
G04 #@! TD*
G04 #@! TA.AperFunction,ComponentPad*
%ADD20O,1.700000X1.700000*%
G04 #@! TD*
G04 #@! TA.AperFunction,ComponentPad*
%ADD21R,4.000000X3.000000*%
G04 #@! TD*
G04 #@! TA.AperFunction,ViaPad*
%ADD22C,0.800000*%
G04 #@! TD*
G04 #@! TA.AperFunction,ViaPad*
%ADD23C,1.000000*%
G04 #@! TD*
G04 #@! TA.AperFunction,Conductor*
%ADD24C,0.250000*%
G04 #@! TD*
G04 #@! TA.AperFunction,Conductor*
%ADD25C,0.400000*%
G04 #@! TD*
G04 #@! TA.AperFunction,Conductor*
%ADD26C,0.800000*%
G04 #@! TD*
G04 #@! TA.AperFunction,Conductor*
%ADD27C,0.254000*%
G04 #@! TD*
G04 APERTURE END LIST*
D10*
G04 #@! TO.N,GND*
G04 #@! TO.C,REF\002A\002A*
X123444000Y-104775000D03*
G04 #@! TD*
G04 #@! TO.N,GND*
G04 #@! TO.C,REF\002A\002A*
X141986000Y-126238000D03*
G04 #@! TD*
G04 #@! TO.N,GND*
G04 #@! TO.C,REF\002A\002A*
X175641000Y-90805000D03*
G04 #@! TD*
G04 #@! TO.N,GND*
G04 #@! TO.C,REF\002A\002A*
X132969000Y-88900000D03*
G04 #@! TD*
G04 #@! TO.N,GND*
G04 #@! TO.C,REF\002A\002A*
X123444000Y-78994000D03*
G04 #@! TD*
G04 #@! TO.N,GND*
G04 #@! TO.C,REF\002A\002A*
X118618000Y-86487000D03*
G04 #@! TD*
G04 #@! TO.N,GND*
G04 #@! TO.C,REF\002A\002A*
X119126000Y-146177000D03*
G04 #@! TD*
G04 #@! TO.N,GND*
G04 #@! TO.C,REF\002A\002A*
X205359000Y-150368000D03*
G04 #@! TD*
G04 #@! TO.N,GND*
G04 #@! TO.C,REF\002A\002A*
X205359000Y-69342000D03*
G04 #@! TD*
G04 #@! TO.N,GND*
G04 #@! TO.C,REF\002A\002A*
X202692000Y-117475000D03*
G04 #@! TD*
G04 #@! TO.N,GND*
G04 #@! TO.C,REF\002A\002A*
X202692000Y-102870000D03*
G04 #@! TD*
G04 #@! TO.N,GND*
G04 #@! TO.C,REF\002A\002A*
X191389000Y-137795000D03*
G04 #@! TD*
G04 #@! TO.N,GND*
G04 #@! TO.C,REF\002A\002A*
X194691000Y-143891000D03*
G04 #@! TD*
D11*
G04 #@! TO.P,U2,1*
G04 #@! TO.N,GND*
X138679100Y-139954000D03*
D12*
G04 #@! TO.P,U2,2*
G04 #@! TO.N,Net-(U2-Pad2)*
X141219100Y-139954000D03*
G04 #@! TO.P,U2,3*
G04 #@! TO.N,GPS_RST*
X143759100Y-139954000D03*
G04 #@! TO.P,U2,4*
G04 #@! TO.N,Net-(U2-Pad4)*
X146299100Y-139954000D03*
G04 #@! TO.P,U2,5*
G04 #@! TO.N,GPS_SUP*
X148839100Y-139954000D03*
G04 #@! TO.P,U2,6*
G04 #@! TO.N,Net-(U2-Pad6)*
X151379100Y-139954000D03*
G04 #@! TO.P,U2,7*
G04 #@! TO.N,Net-(U2-Pad7)*
X153919100Y-139954000D03*
G04 #@! TO.P,U2,8*
G04 #@! TO.N,Net-(U2-Pad8)*
X156459100Y-139954000D03*
G04 #@! TO.P,U2,9*
G04 #@! TO.N,Net-(U2-Pad9)*
X158999100Y-139954000D03*
G04 #@! TO.P,U2,10*
G04 #@! TO.N,Net-(U2-Pad10)*
X161539100Y-139954000D03*
G04 #@! TO.P,U2,11*
G04 #@! TO.N,Net-(U2-Pad11)*
X164079100Y-139954000D03*
G04 #@! TO.P,U2,12*
G04 #@! TO.N,GND*
X166619100Y-139954000D03*
G04 #@! TO.P,U2,13*
G04 #@! TO.N,IC880A_RST*
X169159100Y-139954000D03*
G04 #@! TO.P,U2,14*
G04 #@! TO.N,CLK*
X171699100Y-139954000D03*
G04 #@! TO.P,U2,15*
G04 #@! TO.N,MISO*
X174239100Y-139954000D03*
G04 #@! TO.P,U2,16*
G04 #@! TO.N,MOSI*
X176779100Y-139954000D03*
G04 #@! TO.P,U2,17*
G04 #@! TO.N,CE0*
X179319100Y-139954000D03*
G04 #@! TO.P,U2,18*
G04 #@! TO.N,Net-(U2-Pad18)*
X181859100Y-139954000D03*
G04 #@! TO.P,U2,19*
G04 #@! TO.N,PPS*
X184399100Y-139954000D03*
G04 #@! TO.P,U2,20*
G04 #@! TO.N,GND*
X186939100Y-139954000D03*
D11*
G04 #@! TO.P,U2,21*
G04 #@! TO.N,5V*
X140979100Y-78654000D03*
D12*
G04 #@! TO.P,U2,22*
G04 #@! TO.N,GND*
X143719100Y-78654000D03*
G04 #@! TO.P,U2,23*
G04 #@! TO.N,Net-(U2-Pad23)*
X146259100Y-78654000D03*
D11*
G04 #@! TO.P,U2,24*
G04 #@! TO.N,GND*
X184379100Y-78654000D03*
D12*
G04 #@! TO.P,U2,25*
G04 #@! TO.N,Net-(U2-Pad25)*
X186919100Y-78654000D03*
G04 #@! TO.P,U2,26*
G04 #@! TO.N,Net-(U2-Pad26)*
X189459100Y-78654000D03*
G04 #@! TD*
D13*
G04 #@! TO.P,J5,2*
G04 #@! TO.N,Net-(D6-Pad1)*
X118668800Y-82700000D03*
D14*
G04 #@! TO.P,J5,1*
G04 #@! TO.N,Net-(J5-Pad1)*
X118668800Y-80160000D03*
G04 #@! TD*
D13*
G04 #@! TO.P,J4,2*
G04 #@! TO.N,Net-(D6-Pad2)*
X118668800Y-92502200D03*
D14*
G04 #@! TO.P,J4,1*
G04 #@! TO.N,GND*
X118668800Y-89962200D03*
G04 #@! TD*
D15*
G04 #@! TO.P,J7,1*
G04 #@! TO.N,PPS*
X198882000Y-144780000D03*
G04 #@! TD*
D16*
G04 #@! TO.P,U1,1*
G04 #@! TO.N,3.3V*
X186944000Y-145415000D03*
D17*
G04 #@! TO.P,U1,2*
G04 #@! TO.N,5V*
X186944000Y-147955000D03*
G04 #@! TO.P,U1,3*
G04 #@! TO.N,SDA*
X184404000Y-145415000D03*
G04 #@! TO.P,U1,4*
G04 #@! TO.N,5V*
X184404000Y-147955000D03*
G04 #@! TO.P,U1,5*
G04 #@! TO.N,SCL*
X181864000Y-145415000D03*
G04 #@! TO.P,U1,6*
G04 #@! TO.N,Net-(U1-Pad6)*
X181864000Y-147955000D03*
G04 #@! TO.P,U1,7*
G04 #@! TO.N,Net-(U1-Pad7)*
X179324000Y-145415000D03*
G04 #@! TO.P,U1,8*
G04 #@! TO.N,TX*
X179324000Y-147955000D03*
G04 #@! TO.P,U1,9*
G04 #@! TO.N,GND*
X176784000Y-145415000D03*
G04 #@! TO.P,U1,10*
G04 #@! TO.N,RX*
X176784000Y-147955000D03*
G04 #@! TO.P,U1,11*
G04 #@! TO.N,Net-(U1-Pad11)*
X174244000Y-145415000D03*
G04 #@! TO.P,U1,12*
G04 #@! TO.N,FAN*
X174244000Y-147955000D03*
G04 #@! TO.P,U1,13*
G04 #@! TO.N,Net-(U1-Pad13)*
X171704000Y-145415000D03*
G04 #@! TO.P,U1,14*
G04 #@! TO.N,GND*
X171704000Y-147955000D03*
G04 #@! TO.P,U1,15*
G04 #@! TO.N,DHT_IO*
X169164000Y-145415000D03*
G04 #@! TO.P,U1,16*
G04 #@! TO.N,Net-(U1-Pad16)*
X169164000Y-147955000D03*
G04 #@! TO.P,U1,17*
G04 #@! TO.N,3.3V*
X166624000Y-145415000D03*
G04 #@! TO.P,U1,18*
G04 #@! TO.N,Net-(U1-Pad18)*
X166624000Y-147955000D03*
G04 #@! TO.P,U1,19*
G04 #@! TO.N,MOSI*
X164084000Y-145415000D03*
G04 #@! TO.P,U1,20*
G04 #@! TO.N,GND*
X164084000Y-147955000D03*
G04 #@! TO.P,U1,21*
G04 #@! TO.N,MISO*
X161544000Y-145415000D03*
G04 #@! TO.P,U1,22*
G04 #@! TO.N,IC880A_RST*
X161544000Y-147955000D03*
G04 #@! TO.P,U1,23*
G04 #@! TO.N,CLK*
X159004000Y-145415000D03*
G04 #@! TO.P,U1,24*
G04 #@! TO.N,CE0*
X159004000Y-147955000D03*
G04 #@! TO.P,U1,25*
G04 #@! TO.N,GND*
X156464000Y-145415000D03*
G04 #@! TO.P,U1,26*
G04 #@! TO.N,Net-(U1-Pad26)*
X156464000Y-147955000D03*
G04 #@! TO.P,U1,27*
G04 #@! TO.N,Net-(U1-Pad27)*
X153924000Y-145415000D03*
G04 #@! TO.P,U1,28*
G04 #@! TO.N,Net-(U1-Pad28)*
X153924000Y-147955000D03*
G04 #@! TO.P,U1,29*
G04 #@! TO.N,GPS_RST*
X151384000Y-145415000D03*
G04 #@! TO.P,U1,30*
G04 #@! TO.N,GND*
X151384000Y-147955000D03*
G04 #@! TO.P,U1,31*
G04 #@! TO.N,GPS_SUP*
X148844000Y-145415000D03*
G04 #@! TO.P,U1,32*
G04 #@! TO.N,BTN*
X148844000Y-147955000D03*
G04 #@! TO.P,U1,33*
G04 #@! TO.N,Net-(U1-Pad33)*
X146304000Y-145415000D03*
G04 #@! TO.P,U1,34*
G04 #@! TO.N,GND*
X146304000Y-147955000D03*
G04 #@! TO.P,U1,35*
G04 #@! TO.N,Net-(U1-Pad35)*
X143764000Y-145415000D03*
G04 #@! TO.P,U1,36*
G04 #@! TO.N,LED3*
X143764000Y-147955000D03*
G04 #@! TO.P,U1,37*
G04 #@! TO.N,Net-(U1-Pad37)*
X141224000Y-145415000D03*
G04 #@! TO.P,U1,38*
G04 #@! TO.N,LED2*
X141224000Y-147955000D03*
G04 #@! TO.P,U1,39*
G04 #@! TO.N,GND*
X138684000Y-145415000D03*
G04 #@! TO.P,U1,40*
G04 #@! TO.N,LED1*
X138684000Y-147955000D03*
G04 #@! TD*
D12*
G04 #@! TO.P,J3,1*
G04 #@! TO.N,TX*
X205232000Y-143891000D03*
D18*
G04 #@! TO.P,J3,2*
G04 #@! TO.N,RX*
X205232000Y-146431000D03*
G04 #@! TD*
D12*
G04 #@! TO.P,J1,1*
G04 #@! TO.N,SDA*
X205232000Y-126365000D03*
D18*
G04 #@! TO.P,J1,2*
G04 #@! TO.N,SCL*
X205232000Y-128905000D03*
G04 #@! TO.P,J1,3*
G04 #@! TO.N,GND*
X205232000Y-131445000D03*
G04 #@! TO.P,J1,4*
G04 #@! TO.N,3.3V*
X205232000Y-133985000D03*
G04 #@! TO.P,J1,5*
G04 #@! TO.N,5V*
X205232000Y-136525000D03*
G04 #@! TD*
D12*
G04 #@! TO.P,J2,1*
G04 #@! TO.N,SDA*
X205232000Y-89484200D03*
D18*
G04 #@! TO.P,J2,2*
G04 #@! TO.N,SCL*
X205232000Y-92024200D03*
G04 #@! TO.P,J2,3*
G04 #@! TO.N,GND*
X205232000Y-94564200D03*
G04 #@! TO.P,J2,4*
G04 #@! TO.N,3.3V*
X205232000Y-97104200D03*
G04 #@! TO.P,J2,5*
G04 #@! TO.N,5V*
X205232000Y-99644200D03*
G04 #@! TD*
D11*
G04 #@! TO.P,J6,1*
G04 #@! TO.N,Net-(D4-Pad2)*
X205232000Y-80010000D03*
D18*
G04 #@! TO.P,J6,2*
G04 #@! TO.N,5V*
X205232000Y-82550000D03*
G04 #@! TD*
D12*
G04 #@! TO.P,U4,1*
G04 #@! TO.N,Net-(J5-Pad1)*
X141098000Y-82677000D03*
X141098000Y-85217000D03*
D11*
G04 #@! TO.P,U4,2*
G04 #@! TO.N,Net-(D6-Pad1)*
X141098000Y-92837000D03*
G04 #@! TO.P,U4,5*
X141098000Y-95377000D03*
D12*
G04 #@! TO.P,U4,4*
G04 #@! TO.N,GND*
X157098000Y-85217000D03*
D11*
G04 #@! TO.P,U4,3*
G04 #@! TO.N,Net-(D6-Pad2)*
X157098000Y-92837000D03*
D12*
G04 #@! TO.P,U4,4*
G04 #@! TO.N,GND*
X157098000Y-82677000D03*
D11*
G04 #@! TO.P,U4,3*
G04 #@! TO.N,Net-(D6-Pad2)*
X157098000Y-95377000D03*
G04 #@! TD*
D19*
G04 #@! TO.P,U3,1*
G04 #@! TO.N,3.3V*
X205232000Y-111760000D03*
D20*
G04 #@! TO.P,U3,2*
G04 #@! TO.N,DHT_IO*
X205232000Y-114300000D03*
G04 #@! TO.P,U3,3*
G04 #@! TO.N,N/C*
X205232000Y-116840000D03*
G04 #@! TO.P,U3,4*
G04 #@! TO.N,GND*
X205232000Y-119380000D03*
G04 #@! TD*
D21*
G04 #@! TO.P,U7,3*
G04 #@! TO.N,GND*
X149860000Y-70104000D03*
G04 #@! TO.P,U7,2*
G04 #@! TO.N,Net-(J5-Pad1)*
X149860000Y-110236000D03*
G04 #@! TO.P,U7,4*
G04 #@! TO.N,Net-(D6-Pad2)*
X169164000Y-70104000D03*
G04 #@! TO.P,U7,1*
G04 #@! TO.N,Net-(D6-Pad1)*
X169164000Y-110236000D03*
G04 #@! TD*
D10*
G04 #@! TO.N,GND*
G04 #@! TO.C,REF\002A\002A*
X205232000Y-140081000D03*
G04 #@! TD*
D22*
G04 #@! TO.N,GND*
X200660000Y-127000000D03*
D10*
X188150500Y-113919000D03*
X189357000Y-111379000D03*
D22*
X171196000Y-100838000D03*
D23*
G04 #@! TO.N,3.3V*
X189484000Y-102362000D03*
X191770000Y-131445000D03*
X189865000Y-133350000D03*
D10*
G04 #@! TO.N,SDA*
X186309000Y-111353600D03*
X186309000Y-133096000D03*
X188134600Y-111334400D03*
G04 #@! TO.N,SCL*
X187223400Y-111379000D03*
X186375051Y-134680949D03*
G04 #@! TO.N,FAN*
X194056000Y-85090000D03*
X187325000Y-87884000D03*
X185547000Y-134874000D03*
D23*
G04 #@! TO.N,Net-(D6-Pad1)*
X149098000Y-95377000D03*
G04 #@! TD*
D24*
G04 #@! TO.N,GND*
X171704000Y-147955000D02*
X172974000Y-146685000D01*
X172974000Y-146685000D02*
X175514000Y-146685000D01*
X175514000Y-146685000D02*
X175934001Y-146264999D01*
X175934001Y-146264999D02*
X176784000Y-145415000D01*
D25*
X200660000Y-123952000D02*
X205232000Y-119380000D01*
X200660000Y-127000000D02*
X200660000Y-123952000D01*
D26*
X189357000Y-112712500D02*
X188150500Y-113919000D01*
X189357000Y-111379000D02*
X189357000Y-112712500D01*
X156098001Y-86216999D02*
X157098000Y-85217000D01*
X171196000Y-100838000D02*
X161925000Y-100838000D01*
X158698001Y-97611001D02*
X156251999Y-97611001D01*
X155497999Y-96857001D02*
X155497999Y-86817001D01*
X161925000Y-100838000D02*
X158698001Y-97611001D01*
X155497999Y-86817001D02*
X156098001Y-86216999D01*
X156251999Y-97611001D02*
X155497999Y-96857001D01*
G04 #@! TO.N,Net-(J5-Pad1)*
X142876000Y-85217000D02*
X147447000Y-89788000D01*
X147447000Y-89788000D02*
X147447000Y-107823000D01*
X147447000Y-107823000D02*
X149860000Y-110236000D01*
X142876000Y-85217000D02*
X141098000Y-85217000D01*
D25*
G04 #@! TO.N,3.3V*
X190191106Y-102362000D02*
X189484000Y-102362000D01*
X199974200Y-102362000D02*
X190191106Y-102362000D01*
X205232000Y-97104200D02*
X199974200Y-102362000D01*
X202692000Y-131445000D02*
X205232000Y-133985000D01*
X194703700Y-131445000D02*
X202692000Y-131445000D01*
X194703700Y-131445000D02*
X191770000Y-131445000D01*
X191770000Y-131445000D02*
X189865000Y-133350000D01*
D26*
X169037000Y-143002000D02*
X167523999Y-144515001D01*
X186944000Y-145415000D02*
X184531000Y-143002000D01*
X184531000Y-143002000D02*
X169037000Y-143002000D01*
X167523999Y-144515001D02*
X166624000Y-145415000D01*
D24*
G04 #@! TO.N,SDA*
X186309000Y-111353600D02*
X186908601Y-110753999D01*
X186908601Y-110753999D02*
X187554199Y-110753999D01*
X187554199Y-110753999D02*
X187834601Y-111034401D01*
X187834601Y-111034401D02*
X188134600Y-111334400D01*
X188115400Y-111353600D02*
X188134600Y-111334400D01*
X186311856Y-113083894D02*
X186311856Y-111356456D01*
X186311856Y-111356456D02*
X186309000Y-111353600D01*
X205232000Y-126365000D02*
X207137000Y-124460000D01*
X207137000Y-124460000D02*
X207137000Y-91389200D01*
X207137000Y-91389200D02*
X205232000Y-89484200D01*
X186311856Y-130934144D02*
X186309000Y-130937000D01*
X188102600Y-111334400D02*
X188134600Y-111334400D01*
X186309000Y-132671736D02*
X186311856Y-132668880D01*
X186309000Y-133096000D02*
X186309000Y-132671736D01*
X186311856Y-113083894D02*
X186311856Y-130810000D01*
X186311856Y-132668880D02*
X186311856Y-130810000D01*
X186311856Y-130810000D02*
X186311856Y-130934144D01*
G04 #@! TO.N,SCL*
X206686989Y-108100000D02*
X206686989Y-108450000D01*
X206686989Y-108450000D02*
X206686989Y-121735011D01*
X206686989Y-93479189D02*
X206686989Y-108100000D01*
X205232000Y-92024200D02*
X206686989Y-93479189D01*
X206686989Y-121735011D02*
X203327000Y-125095000D01*
X203327000Y-125095000D02*
X203327000Y-128905000D01*
X203327000Y-128905000D02*
X202819000Y-128905000D01*
X187223400Y-111379000D02*
X187223400Y-129032000D01*
X202819000Y-128905000D02*
X187350400Y-128905000D01*
X187350400Y-128905000D02*
X187223400Y-129032000D01*
X187325000Y-111480600D02*
X187223400Y-111379000D01*
X204029919Y-128905000D02*
X202819000Y-128905000D01*
X205232000Y-128905000D02*
X204029919Y-128905000D01*
X187223400Y-129032000D02*
X187223400Y-133832600D01*
X186675050Y-134380950D02*
X186375051Y-134680949D01*
X187223400Y-133832600D02*
X186675050Y-134380950D01*
G04 #@! TO.N,CE0*
X167767000Y-142240000D02*
X177033100Y-142240000D01*
X165398999Y-144608001D02*
X167767000Y-142240000D01*
X164672001Y-146640001D02*
X165398999Y-145913003D01*
X160229001Y-149180001D02*
X162132001Y-149180001D01*
X177033100Y-142240000D02*
X178319101Y-140953999D01*
X159004000Y-147955000D02*
X160229001Y-149180001D01*
X162132001Y-149180001D02*
X162858999Y-148453003D01*
X178319101Y-140953999D02*
X179319100Y-139954000D01*
X165398999Y-145913003D02*
X165398999Y-144608001D01*
X163620999Y-146640001D02*
X164672001Y-146640001D01*
X162858999Y-148453003D02*
X162858999Y-147402001D01*
X162858999Y-147402001D02*
X163620999Y-146640001D01*
G04 #@! TO.N,FAN*
X185547000Y-134449736D02*
X185547000Y-131826000D01*
X185547000Y-134874000D02*
X185547000Y-134449736D01*
X185547000Y-132207000D02*
X185547000Y-131826000D01*
X185547000Y-89662000D02*
X187325000Y-87884000D01*
X185547000Y-89789000D02*
X185547000Y-89662000D01*
X185547000Y-131826000D02*
X185547000Y-89789000D01*
X191262000Y-87884000D02*
X194056000Y-85090000D01*
X187325000Y-87884000D02*
X191262000Y-87884000D01*
G04 #@! TO.N,IC880A_RST*
X168159101Y-140953999D02*
X169159100Y-139954000D01*
X167381100Y-141732000D02*
X168159101Y-140953999D01*
X162769001Y-144916997D02*
X165953998Y-141732000D01*
X165953998Y-141732000D02*
X167381100Y-141732000D01*
X161544000Y-147955000D02*
X162769001Y-146729999D01*
X162769001Y-146729999D02*
X162769001Y-144916997D01*
G04 #@! TO.N,GPS_RST*
X146045100Y-142240000D02*
X143759100Y-139954000D01*
X151384000Y-145415000D02*
X148209000Y-142240000D01*
X148209000Y-142240000D02*
X146045100Y-142240000D01*
D26*
G04 #@! TO.N,Net-(D6-Pad1)*
X165864000Y-110236000D02*
X169164000Y-110236000D01*
X159131000Y-110236000D02*
X165864000Y-110236000D01*
X149098000Y-95377000D02*
X149098000Y-100203000D01*
X149098000Y-100203000D02*
X159131000Y-110236000D01*
D24*
G04 #@! TO.N,PPS*
X185096990Y-140011990D02*
X184399100Y-139314100D01*
X195961000Y-141859000D02*
X197993000Y-143891000D01*
X197993000Y-143891000D02*
X198882000Y-144780000D01*
X184399100Y-139954000D02*
X186304100Y-141859000D01*
X186304100Y-141859000D02*
X195961000Y-141859000D01*
D26*
G04 #@! TO.N,Net-(D6-Pad2)*
X169164000Y-72346000D02*
X169164000Y-70104000D01*
X169164000Y-87503000D02*
X169164000Y-72346000D01*
X163830000Y-92837000D02*
X169164000Y-87503000D01*
X163830000Y-92837000D02*
X158001009Y-92837000D01*
G04 #@! TD*
D27*
G04 #@! TO.N,GND*
G36*
X208633001Y-153214000D02*
X116153000Y-153214000D01*
X116153000Y-149995159D01*
X117012000Y-149995159D01*
X117012000Y-150784841D01*
X117314199Y-151514412D01*
X117872588Y-152072801D01*
X118602159Y-152375000D01*
X119391841Y-152375000D01*
X120121412Y-152072801D01*
X120679801Y-151514412D01*
X120982000Y-150784841D01*
X120982000Y-149995159D01*
X197913000Y-149995159D01*
X197913000Y-150784841D01*
X198215199Y-151514412D01*
X198773588Y-152072801D01*
X199503159Y-152375000D01*
X200292841Y-152375000D01*
X201022412Y-152072801D01*
X201580801Y-151514412D01*
X201883000Y-150784841D01*
X201883000Y-149995159D01*
X201580801Y-149265588D01*
X201022412Y-148707199D01*
X200292841Y-148405000D01*
X199503159Y-148405000D01*
X198773588Y-148707199D01*
X198215199Y-149265588D01*
X197913000Y-149995159D01*
X120982000Y-149995159D01*
X120679801Y-149265588D01*
X120121412Y-148707199D01*
X119391841Y-148405000D01*
X118602159Y-148405000D01*
X117872588Y-148707199D01*
X117314199Y-149265588D01*
X117012000Y-149995159D01*
X116153000Y-149995159D01*
X116153000Y-146290159D01*
X131829000Y-146290159D01*
X131829000Y-147079841D01*
X132131199Y-147809412D01*
X132689588Y-148367801D01*
X133419159Y-148670000D01*
X134208841Y-148670000D01*
X134938412Y-148367801D01*
X135351213Y-147955000D01*
X137118928Y-147955000D01*
X137238062Y-148553927D01*
X137577327Y-149061673D01*
X138085073Y-149400938D01*
X138532818Y-149490000D01*
X138835182Y-149490000D01*
X139282927Y-149400938D01*
X139790673Y-149061673D01*
X139954000Y-148817237D01*
X140117327Y-149061673D01*
X140625073Y-149400938D01*
X141072818Y-149490000D01*
X141375182Y-149490000D01*
X141822927Y-149400938D01*
X142330673Y-149061673D01*
X142494000Y-148817237D01*
X142657327Y-149061673D01*
X143165073Y-149400938D01*
X143612818Y-149490000D01*
X143915182Y-149490000D01*
X144362927Y-149400938D01*
X144870673Y-149061673D01*
X145040418Y-148807632D01*
X145066034Y-148862576D01*
X145507583Y-149267240D01*
X145939260Y-149446036D01*
X146177000Y-149325378D01*
X146177000Y-148082000D01*
X146157000Y-148082000D01*
X146157000Y-147828000D01*
X146177000Y-147828000D01*
X146177000Y-147808000D01*
X146431000Y-147808000D01*
X146431000Y-147828000D01*
X146451000Y-147828000D01*
X146451000Y-148082000D01*
X146431000Y-148082000D01*
X146431000Y-149325378D01*
X146668740Y-149446036D01*
X147100417Y-149267240D01*
X147541966Y-148862576D01*
X147567582Y-148807632D01*
X147737327Y-149061673D01*
X148245073Y-149400938D01*
X148692818Y-149490000D01*
X148995182Y-149490000D01*
X149442927Y-149400938D01*
X149950673Y-149061673D01*
X150120418Y-148807632D01*
X150146034Y-148862576D01*
X150587583Y-149267240D01*
X151019260Y-149446036D01*
X151257000Y-149325378D01*
X151257000Y-148082000D01*
X151237000Y-148082000D01*
X151237000Y-147828000D01*
X151257000Y-147828000D01*
X151257000Y-147808000D01*
X151511000Y-147808000D01*
X151511000Y-147828000D01*
X151531000Y-147828000D01*
X151531000Y-148082000D01*
X151511000Y-148082000D01*
X151511000Y-149325378D01*
X151748740Y-149446036D01*
X152180417Y-149267240D01*
X152621966Y-148862576D01*
X152647582Y-148807632D01*
X152817327Y-149061673D01*
X153325073Y-149400938D01*
X153772818Y-149490000D01*
X154075182Y-149490000D01*
X154522927Y-149400938D01*
X155030673Y-149061673D01*
X155194000Y-148817237D01*
X155357327Y-149061673D01*
X155865073Y-149400938D01*
X156312818Y-149490000D01*
X156615182Y-149490000D01*
X157062927Y-149400938D01*
X157570673Y-149061673D01*
X157734000Y-148817237D01*
X157897327Y-149061673D01*
X158405073Y-149400938D01*
X158852818Y-149490000D01*
X159155182Y-149490000D01*
X159412929Y-149438731D01*
X159638672Y-149664474D01*
X159681072Y-149727930D01*
X159932464Y-149895905D01*
X160154149Y-149940001D01*
X160154153Y-149940001D01*
X160229000Y-149954889D01*
X160303847Y-149940001D01*
X162057154Y-149940001D01*
X162132001Y-149954889D01*
X162206848Y-149940001D01*
X162206853Y-149940001D01*
X162428538Y-149895905D01*
X162679930Y-149727930D01*
X162722332Y-149664472D01*
X163199912Y-149186893D01*
X163287583Y-149267240D01*
X163719260Y-149446036D01*
X163957000Y-149325378D01*
X163957000Y-148082000D01*
X163937000Y-148082000D01*
X163937000Y-147828000D01*
X163957000Y-147828000D01*
X163957000Y-147808000D01*
X164211000Y-147808000D01*
X164211000Y-147828000D01*
X164231000Y-147828000D01*
X164231000Y-148082000D01*
X164211000Y-148082000D01*
X164211000Y-149325378D01*
X164448740Y-149446036D01*
X164880417Y-149267240D01*
X165321966Y-148862576D01*
X165347582Y-148807632D01*
X165517327Y-149061673D01*
X166025073Y-149400938D01*
X166472818Y-149490000D01*
X166775182Y-149490000D01*
X167222927Y-149400938D01*
X167730673Y-149061673D01*
X167894000Y-148817237D01*
X168057327Y-149061673D01*
X168565073Y-149400938D01*
X169012818Y-149490000D01*
X169315182Y-149490000D01*
X169762927Y-149400938D01*
X170270673Y-149061673D01*
X170440418Y-148807632D01*
X170466034Y-148862576D01*
X170907583Y-149267240D01*
X171339260Y-149446036D01*
X171577000Y-149325378D01*
X171577000Y-148082000D01*
X171557000Y-148082000D01*
X171557000Y-147828000D01*
X171577000Y-147828000D01*
X171577000Y-147808000D01*
X171831000Y-147808000D01*
X171831000Y-147828000D01*
X171851000Y-147828000D01*
X171851000Y-148082000D01*
X171831000Y-148082000D01*
X171831000Y-149325378D01*
X172068740Y-149446036D01*
X172500417Y-149267240D01*
X172941966Y-148862576D01*
X172967582Y-148807632D01*
X173137327Y-149061673D01*
X173645073Y-149400938D01*
X174092818Y-149490000D01*
X174395182Y-149490000D01*
X174842927Y-149400938D01*
X175350673Y-149061673D01*
X175514000Y-148817237D01*
X175677327Y-149061673D01*
X176185073Y-149400938D01*
X176632818Y-149490000D01*
X176935182Y-149490000D01*
X177382927Y-149400938D01*
X177890673Y-149061673D01*
X178054000Y-148817237D01*
X178217327Y-149061673D01*
X178725073Y-149400938D01*
X179172818Y-149490000D01*
X179475182Y-149490000D01*
X179922927Y-149400938D01*
X180430673Y-149061673D01*
X180594000Y-148817237D01*
X180757327Y-149061673D01*
X181265073Y-149400938D01*
X181712818Y-149490000D01*
X182015182Y-149490000D01*
X182462927Y-149400938D01*
X182970673Y-149061673D01*
X183134000Y-148817237D01*
X183297327Y-149061673D01*
X183805073Y-149400938D01*
X184252818Y-149490000D01*
X184555182Y-149490000D01*
X185002927Y-149400938D01*
X185510673Y-149061673D01*
X185674000Y-148817237D01*
X185837327Y-149061673D01*
X186345073Y-149400938D01*
X186792818Y-149490000D01*
X187095182Y-149490000D01*
X187542927Y-149400938D01*
X188050673Y-149061673D01*
X188389938Y-148553927D01*
X188509072Y-147955000D01*
X188389938Y-147356073D01*
X188093304Y-146912129D01*
X188301809Y-146772809D01*
X188442157Y-146562765D01*
X188491440Y-146315000D01*
X188491440Y-146290159D01*
X189829000Y-146290159D01*
X189829000Y-147079841D01*
X190131199Y-147809412D01*
X190689588Y-148367801D01*
X191419159Y-148670000D01*
X192208841Y-148670000D01*
X192938412Y-148367801D01*
X193496801Y-147809412D01*
X193799000Y-147079841D01*
X193799000Y-146431000D01*
X203564969Y-146431000D01*
X203691864Y-147068945D01*
X204053231Y-147609769D01*
X204594055Y-147971136D01*
X205070969Y-148066000D01*
X205393031Y-148066000D01*
X205869945Y-147971136D01*
X206410769Y-147609769D01*
X206772136Y-147068945D01*
X206899031Y-146431000D01*
X206772136Y-145793055D01*
X206410769Y-145252231D01*
X206274236Y-145161003D01*
X206618086Y-144817153D01*
X206867000Y-144216222D01*
X206867000Y-143565778D01*
X206618086Y-142964847D01*
X206158153Y-142504914D01*
X205557222Y-142256000D01*
X204906778Y-142256000D01*
X204305847Y-142504914D01*
X203845914Y-142964847D01*
X203597000Y-143565778D01*
X203597000Y-144216222D01*
X203845914Y-144817153D01*
X204189764Y-145161003D01*
X204053231Y-145252231D01*
X203691864Y-145793055D01*
X203564969Y-146431000D01*
X193799000Y-146431000D01*
X193799000Y-146290159D01*
X193496801Y-145560588D01*
X192938412Y-145002199D01*
X192208841Y-144700000D01*
X191419159Y-144700000D01*
X190689588Y-145002199D01*
X190131199Y-145560588D01*
X189829000Y-146290159D01*
X188491440Y-146290159D01*
X188491440Y-144515000D01*
X188442157Y-144267235D01*
X188301809Y-144057191D01*
X188091765Y-143916843D01*
X187844000Y-143867560D01*
X186860271Y-143867560D01*
X185334937Y-142342227D01*
X185277193Y-142255807D01*
X184934837Y-142027052D01*
X184632935Y-141967000D01*
X184632934Y-141967000D01*
X184531000Y-141946724D01*
X184429066Y-141967000D01*
X178380902Y-141967000D01*
X178827725Y-141520177D01*
X178993878Y-141589000D01*
X179644322Y-141589000D01*
X180245253Y-141340086D01*
X180589100Y-140996239D01*
X180932947Y-141340086D01*
X181533878Y-141589000D01*
X182184322Y-141589000D01*
X182785253Y-141340086D01*
X183129100Y-140996239D01*
X183472947Y-141340086D01*
X184073878Y-141589000D01*
X184724322Y-141589000D01*
X184890475Y-141520177D01*
X185713770Y-142343472D01*
X185756171Y-142406929D01*
X185819627Y-142449329D01*
X186007562Y-142574904D01*
X186055705Y-142584480D01*
X186229248Y-142619000D01*
X186229252Y-142619000D01*
X186304100Y-142633888D01*
X186378948Y-142619000D01*
X195646199Y-142619000D01*
X197430628Y-144403430D01*
X197397000Y-144484615D01*
X197397000Y-145075385D01*
X197623078Y-145621185D01*
X198040815Y-146038922D01*
X198586615Y-146265000D01*
X199177385Y-146265000D01*
X199723185Y-146038922D01*
X200140922Y-145621185D01*
X200367000Y-145075385D01*
X200367000Y-144484615D01*
X200140922Y-143938815D01*
X199723185Y-143521078D01*
X199177385Y-143295000D01*
X198586615Y-143295000D01*
X198505430Y-143328628D01*
X196551331Y-141374530D01*
X196508929Y-141311071D01*
X196257537Y-141143096D01*
X196035852Y-141099000D01*
X196035847Y-141099000D01*
X195961000Y-141084112D01*
X195886153Y-141099000D01*
X188148120Y-141099000D01*
X188205914Y-141041206D01*
X188091634Y-140926926D01*
X188358487Y-140828264D01*
X188585008Y-140218539D01*
X188560956Y-139568540D01*
X188358487Y-139079736D01*
X188091632Y-138981073D01*
X187118705Y-139954000D01*
X187132848Y-139968143D01*
X186953243Y-140147748D01*
X186939100Y-140133605D01*
X186924958Y-140147748D01*
X186745353Y-139968143D01*
X186759495Y-139954000D01*
X185786568Y-138981073D01*
X185751411Y-138994072D01*
X185558807Y-138801468D01*
X185966173Y-138801468D01*
X186939100Y-139774395D01*
X187912027Y-138801468D01*
X187813364Y-138534613D01*
X187203639Y-138308092D01*
X186553640Y-138332144D01*
X186064836Y-138534613D01*
X185966173Y-138801468D01*
X185558807Y-138801468D01*
X185325253Y-138567914D01*
X184724322Y-138319000D01*
X184073878Y-138319000D01*
X183472947Y-138567914D01*
X183129100Y-138911761D01*
X182785253Y-138567914D01*
X182184322Y-138319000D01*
X181533878Y-138319000D01*
X180932947Y-138567914D01*
X180589100Y-138911761D01*
X180245253Y-138567914D01*
X179644322Y-138319000D01*
X178993878Y-138319000D01*
X178392947Y-138567914D01*
X178049100Y-138911761D01*
X177705253Y-138567914D01*
X177104322Y-138319000D01*
X176453878Y-138319000D01*
X175852947Y-138567914D01*
X175509100Y-138911761D01*
X175165253Y-138567914D01*
X174564322Y-138319000D01*
X173913878Y-138319000D01*
X173312947Y-138567914D01*
X172969100Y-138911761D01*
X172625253Y-138567914D01*
X172024322Y-138319000D01*
X171373878Y-138319000D01*
X170772947Y-138567914D01*
X170429100Y-138911761D01*
X170085253Y-138567914D01*
X169484322Y-138319000D01*
X168833878Y-138319000D01*
X168232947Y-138567914D01*
X167806789Y-138994072D01*
X167771632Y-138981073D01*
X166798705Y-139954000D01*
X166812848Y-139968143D01*
X166633243Y-140147748D01*
X166619100Y-140133605D01*
X165756262Y-140996443D01*
X165657461Y-141016096D01*
X165406069Y-141184071D01*
X165363669Y-141247527D01*
X162442180Y-144169017D01*
X162142927Y-143969062D01*
X161695182Y-143880000D01*
X161392818Y-143880000D01*
X160945073Y-143969062D01*
X160437327Y-144308327D01*
X160274000Y-144552763D01*
X160110673Y-144308327D01*
X159602927Y-143969062D01*
X159155182Y-143880000D01*
X158852818Y-143880000D01*
X158405073Y-143969062D01*
X157897327Y-144308327D01*
X157727582Y-144562368D01*
X157701966Y-144507424D01*
X157260417Y-144102760D01*
X156828740Y-143923964D01*
X156591000Y-144044622D01*
X156591000Y-145288000D01*
X156611000Y-145288000D01*
X156611000Y-145542000D01*
X156591000Y-145542000D01*
X156591000Y-145562000D01*
X156337000Y-145562000D01*
X156337000Y-145542000D01*
X156317000Y-145542000D01*
X156317000Y-145288000D01*
X156337000Y-145288000D01*
X156337000Y-144044622D01*
X156099260Y-143923964D01*
X155667583Y-144102760D01*
X155226034Y-144507424D01*
X155200418Y-144562368D01*
X155030673Y-144308327D01*
X154522927Y-143969062D01*
X154075182Y-143880000D01*
X153772818Y-143880000D01*
X153325073Y-143969062D01*
X152817327Y-144308327D01*
X152654000Y-144552763D01*
X152490673Y-144308327D01*
X151982927Y-143969062D01*
X151535182Y-143880000D01*
X151232818Y-143880000D01*
X150975071Y-143931269D01*
X148799331Y-141755530D01*
X148756929Y-141692071D01*
X148602673Y-141589000D01*
X149164322Y-141589000D01*
X149765253Y-141340086D01*
X150109100Y-140996239D01*
X150452947Y-141340086D01*
X151053878Y-141589000D01*
X151704322Y-141589000D01*
X152305253Y-141340086D01*
X152649100Y-140996239D01*
X152992947Y-141340086D01*
X153593878Y-141589000D01*
X154244322Y-141589000D01*
X154845253Y-141340086D01*
X155189100Y-140996239D01*
X155532947Y-141340086D01*
X156133878Y-141589000D01*
X156784322Y-141589000D01*
X157385253Y-141340086D01*
X157729100Y-140996239D01*
X158072947Y-141340086D01*
X158673878Y-141589000D01*
X159324322Y-141589000D01*
X159925253Y-141340086D01*
X160269100Y-140996239D01*
X160612947Y-141340086D01*
X161213878Y-141589000D01*
X161864322Y-141589000D01*
X162465253Y-141340086D01*
X162809100Y-140996239D01*
X163152947Y-141340086D01*
X163753878Y-141589000D01*
X164404322Y-141589000D01*
X165005253Y-141340086D01*
X165431411Y-140913928D01*
X165466568Y-140926927D01*
X166439495Y-139954000D01*
X165466568Y-138981073D01*
X165431411Y-138994072D01*
X165238807Y-138801468D01*
X165646173Y-138801468D01*
X166619100Y-139774395D01*
X167592027Y-138801468D01*
X167493364Y-138534613D01*
X166883639Y-138308092D01*
X166233640Y-138332144D01*
X165744836Y-138534613D01*
X165646173Y-138801468D01*
X165238807Y-138801468D01*
X165005253Y-138567914D01*
X164404322Y-138319000D01*
X163753878Y-138319000D01*
X163152947Y-138567914D01*
X162809100Y-138911761D01*
X162465253Y-138567914D01*
X161864322Y-138319000D01*
X161213878Y-138319000D01*
X160612947Y-138567914D01*
X160269100Y-138911761D01*
X159925253Y-138567914D01*
X159324322Y-138319000D01*
X158673878Y-138319000D01*
X158072947Y-138567914D01*
X157729100Y-138911761D01*
X157385253Y-138567914D01*
X156784322Y-138319000D01*
X156133878Y-138319000D01*
X155532947Y-138567914D01*
X155189100Y-138911761D01*
X154845253Y-138567914D01*
X154244322Y-138319000D01*
X153593878Y-138319000D01*
X152992947Y-138567914D01*
X152649100Y-138911761D01*
X152305253Y-138567914D01*
X151704322Y-138319000D01*
X151053878Y-138319000D01*
X150452947Y-138567914D01*
X150109100Y-138911761D01*
X149765253Y-138567914D01*
X149164322Y-138319000D01*
X148513878Y-138319000D01*
X147912947Y-138567914D01*
X147569100Y-138911761D01*
X147225253Y-138567914D01*
X146624322Y-138319000D01*
X145973878Y-138319000D01*
X145372947Y-138567914D01*
X145029100Y-138911761D01*
X144685253Y-138567914D01*
X144084322Y-138319000D01*
X143433878Y-138319000D01*
X142832947Y-138567914D01*
X142489100Y-138911761D01*
X142145253Y-138567914D01*
X141544322Y-138319000D01*
X140893878Y-138319000D01*
X140292947Y-138567914D01*
X140231818Y-138629043D01*
X140217427Y-138594301D01*
X140038798Y-138415673D01*
X139805409Y-138319000D01*
X138964850Y-138319000D01*
X138806100Y-138477750D01*
X138806100Y-139827000D01*
X138826100Y-139827000D01*
X138826100Y-140081000D01*
X138806100Y-140081000D01*
X138806100Y-141430250D01*
X138964850Y-141589000D01*
X139805409Y-141589000D01*
X140038798Y-141492327D01*
X140217427Y-141313699D01*
X140231818Y-141278957D01*
X140292947Y-141340086D01*
X140893878Y-141589000D01*
X141544322Y-141589000D01*
X142145253Y-141340086D01*
X142489100Y-140996239D01*
X142832947Y-141340086D01*
X143433878Y-141589000D01*
X144084322Y-141589000D01*
X144250475Y-141520177D01*
X145454770Y-142724472D01*
X145497171Y-142787929D01*
X145748563Y-142955904D01*
X145970248Y-143000000D01*
X145970252Y-143000000D01*
X146045099Y-143014888D01*
X146119946Y-143000000D01*
X147894199Y-143000000D01*
X148774199Y-143880000D01*
X148692818Y-143880000D01*
X148245073Y-143969062D01*
X147737327Y-144308327D01*
X147574000Y-144552763D01*
X147410673Y-144308327D01*
X146902927Y-143969062D01*
X146455182Y-143880000D01*
X146152818Y-143880000D01*
X145705073Y-143969062D01*
X145197327Y-144308327D01*
X145034000Y-144552763D01*
X144870673Y-144308327D01*
X144362927Y-143969062D01*
X143915182Y-143880000D01*
X143612818Y-143880000D01*
X143165073Y-143969062D01*
X142657327Y-144308327D01*
X142494000Y-144552763D01*
X142330673Y-144308327D01*
X141822927Y-143969062D01*
X141375182Y-143880000D01*
X141072818Y-143880000D01*
X140625073Y-143969062D01*
X140117327Y-144308327D01*
X139947582Y-144562368D01*
X139921966Y-144507424D01*
X139480417Y-144102760D01*
X139048740Y-143923964D01*
X138811000Y-144044622D01*
X138811000Y-145288000D01*
X138831000Y-145288000D01*
X138831000Y-145542000D01*
X138811000Y-145542000D01*
X138811000Y-145562000D01*
X138557000Y-145562000D01*
X138557000Y-145542000D01*
X137313003Y-145542000D01*
X137192954Y-145779742D01*
X137446034Y-146322576D01*
X137833174Y-146677376D01*
X137577327Y-146848327D01*
X137238062Y-147356073D01*
X137118928Y-147955000D01*
X135351213Y-147955000D01*
X135496801Y-147809412D01*
X135799000Y-147079841D01*
X135799000Y-146290159D01*
X135496801Y-145560588D01*
X134986471Y-145050258D01*
X137192954Y-145050258D01*
X137313003Y-145288000D01*
X138557000Y-145288000D01*
X138557000Y-144044622D01*
X138319260Y-143923964D01*
X137887583Y-144102760D01*
X137446034Y-144507424D01*
X137192954Y-145050258D01*
X134986471Y-145050258D01*
X134938412Y-145002199D01*
X134208841Y-144700000D01*
X133419159Y-144700000D01*
X132689588Y-145002199D01*
X132131199Y-145560588D01*
X131829000Y-146290159D01*
X116153000Y-146290159D01*
X116153000Y-140239750D01*
X137044100Y-140239750D01*
X137044100Y-141080310D01*
X137140773Y-141313699D01*
X137319402Y-141492327D01*
X137552791Y-141589000D01*
X138393350Y-141589000D01*
X138552100Y-141430250D01*
X138552100Y-140081000D01*
X137202850Y-140081000D01*
X137044100Y-140239750D01*
X116153000Y-140239750D01*
X116153000Y-138827690D01*
X137044100Y-138827690D01*
X137044100Y-139668250D01*
X137202850Y-139827000D01*
X138552100Y-139827000D01*
X138552100Y-138477750D01*
X138393350Y-138319000D01*
X137552791Y-138319000D01*
X137319402Y-138415673D01*
X137140773Y-138594301D01*
X137044100Y-138827690D01*
X116153000Y-138827690D01*
X116153000Y-136257159D01*
X123994100Y-136257159D01*
X123994100Y-137046841D01*
X124296299Y-137776412D01*
X124854688Y-138334801D01*
X125584259Y-138637000D01*
X126373941Y-138637000D01*
X127103512Y-138334801D01*
X127661901Y-137776412D01*
X127964100Y-137046841D01*
X127964100Y-136257159D01*
X127661901Y-135527588D01*
X127103512Y-134969199D01*
X126373941Y-134667000D01*
X125584259Y-134667000D01*
X124854688Y-134969199D01*
X124296299Y-135527588D01*
X123994100Y-136257159D01*
X116153000Y-136257159D01*
X116153000Y-134479159D01*
X153971000Y-134479159D01*
X153971000Y-135268841D01*
X154273199Y-135998412D01*
X154831588Y-136556801D01*
X155561159Y-136859000D01*
X156350841Y-136859000D01*
X157080412Y-136556801D01*
X157638801Y-135998412D01*
X157941000Y-135268841D01*
X157941000Y-134479159D01*
X157638801Y-133749588D01*
X157080412Y-133191199D01*
X156350841Y-132889000D01*
X155561159Y-132889000D01*
X154831588Y-133191199D01*
X154273199Y-133749588D01*
X153971000Y-134479159D01*
X116153000Y-134479159D01*
X116153000Y-125012834D01*
X154132643Y-125012834D01*
X154232352Y-126421072D01*
X154500520Y-127807132D01*
X154933262Y-129150937D01*
X155524311Y-130433020D01*
X156265104Y-131634812D01*
X157144911Y-132738902D01*
X158150988Y-133729299D01*
X159268762Y-134591655D01*
X160482041Y-135313480D01*
X161773250Y-135884318D01*
X163123686Y-136295899D01*
X164513787Y-136542263D01*
X165923418Y-136619839D01*
X167332159Y-136527505D01*
X168719604Y-136266599D01*
X170065656Y-135840898D01*
X171350817Y-135256571D01*
X172556470Y-134522080D01*
X172610915Y-134479159D01*
X174037000Y-134479159D01*
X174037000Y-135268841D01*
X174339199Y-135998412D01*
X174897588Y-136556801D01*
X175627159Y-136859000D01*
X176416841Y-136859000D01*
X177146412Y-136556801D01*
X177446054Y-136257159D01*
X197913000Y-136257159D01*
X197913000Y-137046841D01*
X198215199Y-137776412D01*
X198773588Y-138334801D01*
X199503159Y-138637000D01*
X200292841Y-138637000D01*
X201022412Y-138334801D01*
X201580801Y-137776412D01*
X201883000Y-137046841D01*
X201883000Y-136257159D01*
X201580801Y-135527588D01*
X201022412Y-134969199D01*
X200292841Y-134667000D01*
X199503159Y-134667000D01*
X198773588Y-134969199D01*
X198215199Y-135527588D01*
X197913000Y-136257159D01*
X177446054Y-136257159D01*
X177704801Y-135998412D01*
X178007000Y-135268841D01*
X178007000Y-134688017D01*
X184612000Y-134688017D01*
X184612000Y-135059983D01*
X184754345Y-135403635D01*
X185017365Y-135666655D01*
X185361017Y-135809000D01*
X185732983Y-135809000D01*
X186076635Y-135666655D01*
X186145420Y-135597870D01*
X186189068Y-135615949D01*
X186561034Y-135615949D01*
X186904686Y-135473604D01*
X187167706Y-135210584D01*
X187310051Y-134866932D01*
X187310051Y-134820750D01*
X187707873Y-134422929D01*
X187771329Y-134380529D01*
X187939304Y-134129137D01*
X187983400Y-133907452D01*
X187983400Y-133907448D01*
X187998288Y-133832601D01*
X187983400Y-133757754D01*
X187983400Y-129665000D01*
X203252148Y-129665000D01*
X203327000Y-129679889D01*
X203401852Y-129665000D01*
X203773419Y-129665000D01*
X204053231Y-130083769D01*
X204209971Y-130188499D01*
X203838598Y-130589615D01*
X203641876Y-131064566D01*
X203761222Y-131317998D01*
X203745866Y-131317998D01*
X203340587Y-130912720D01*
X203294001Y-130842999D01*
X203017801Y-130658448D01*
X202774237Y-130610000D01*
X202774233Y-130610000D01*
X202692000Y-130593643D01*
X202609767Y-130610000D01*
X192540133Y-130610000D01*
X192412926Y-130482793D01*
X191995766Y-130310000D01*
X191544234Y-130310000D01*
X191127074Y-130482793D01*
X190807793Y-130802074D01*
X190635000Y-131219234D01*
X190635000Y-131399132D01*
X189819133Y-132215000D01*
X189639234Y-132215000D01*
X189222074Y-132387793D01*
X188902793Y-132707074D01*
X188730000Y-133124234D01*
X188730000Y-133575766D01*
X188902793Y-133992926D01*
X189222074Y-134312207D01*
X189639234Y-134485000D01*
X190090766Y-134485000D01*
X190507926Y-134312207D01*
X190827207Y-133992926D01*
X191000000Y-133575766D01*
X191000000Y-133395867D01*
X191815868Y-132580000D01*
X191995766Y-132580000D01*
X192412926Y-132407207D01*
X192540133Y-132280000D01*
X202346133Y-132280000D01*
X203645629Y-133579497D01*
X203564969Y-133985000D01*
X203691864Y-134622945D01*
X204053231Y-135163769D01*
X204189768Y-135255000D01*
X204053231Y-135346231D01*
X203691864Y-135887055D01*
X203564969Y-136525000D01*
X203691864Y-137162945D01*
X204053231Y-137703769D01*
X204594055Y-138065136D01*
X205070969Y-138160000D01*
X205393031Y-138160000D01*
X205869945Y-138065136D01*
X206410769Y-137703769D01*
X206772136Y-137162945D01*
X206899031Y-136525000D01*
X206772136Y-135887055D01*
X206410769Y-135346231D01*
X206274232Y-135255000D01*
X206410769Y-135163769D01*
X206772136Y-134622945D01*
X206899031Y-133985000D01*
X206772136Y-133347055D01*
X206410769Y-132806231D01*
X206254029Y-132701501D01*
X206625402Y-132300385D01*
X206822124Y-131825434D01*
X206702777Y-131572000D01*
X205359000Y-131572000D01*
X205359000Y-131592000D01*
X205105000Y-131592000D01*
X205105000Y-131572000D01*
X205085000Y-131572000D01*
X205085000Y-131318000D01*
X205105000Y-131318000D01*
X205105000Y-131298000D01*
X205359000Y-131298000D01*
X205359000Y-131318000D01*
X206702777Y-131318000D01*
X206822124Y-131064566D01*
X206625402Y-130589615D01*
X206254029Y-130188499D01*
X206410769Y-130083769D01*
X206772136Y-129542945D01*
X206899031Y-128905000D01*
X206772136Y-128267055D01*
X206410769Y-127726231D01*
X206274236Y-127635003D01*
X206618086Y-127291153D01*
X206867000Y-126690222D01*
X206867000Y-126039778D01*
X206798177Y-125873625D01*
X207621473Y-125050329D01*
X207684929Y-125007929D01*
X207763727Y-124890000D01*
X207852904Y-124756538D01*
X207894569Y-124547071D01*
X207897000Y-124534852D01*
X207897000Y-124534848D01*
X207911888Y-124460000D01*
X207897000Y-124385152D01*
X207897000Y-91464048D01*
X207911888Y-91389200D01*
X207897000Y-91314352D01*
X207897000Y-91314348D01*
X207852904Y-91092663D01*
X207852904Y-91092662D01*
X207727329Y-90904727D01*
X207684929Y-90841271D01*
X207621473Y-90798871D01*
X206798177Y-89975575D01*
X206867000Y-89809422D01*
X206867000Y-89158978D01*
X206618086Y-88558047D01*
X206158153Y-88098114D01*
X205557222Y-87849200D01*
X204906778Y-87849200D01*
X204305847Y-88098114D01*
X203845914Y-88558047D01*
X203597000Y-89158978D01*
X203597000Y-89809422D01*
X203845914Y-90410353D01*
X204189764Y-90754203D01*
X204053231Y-90845431D01*
X203691864Y-91386255D01*
X203564969Y-92024200D01*
X203691864Y-92662145D01*
X204053231Y-93202969D01*
X204209971Y-93307699D01*
X203838598Y-93708815D01*
X203641876Y-94183766D01*
X203761223Y-94437200D01*
X205105000Y-94437200D01*
X205105000Y-94417200D01*
X205359000Y-94417200D01*
X205359000Y-94437200D01*
X205379000Y-94437200D01*
X205379000Y-94691200D01*
X205359000Y-94691200D01*
X205359000Y-94711200D01*
X205105000Y-94711200D01*
X205105000Y-94691200D01*
X203761223Y-94691200D01*
X203641876Y-94944634D01*
X203838598Y-95419585D01*
X204209971Y-95820701D01*
X204053231Y-95925431D01*
X203691864Y-96466255D01*
X203564969Y-97104200D01*
X203645629Y-97509704D01*
X199628333Y-101527000D01*
X190254133Y-101527000D01*
X190126926Y-101399793D01*
X189709766Y-101227000D01*
X189258234Y-101227000D01*
X188841074Y-101399793D01*
X188521793Y-101719074D01*
X188349000Y-102136234D01*
X188349000Y-102587766D01*
X188521793Y-103004926D01*
X188841074Y-103324207D01*
X189258234Y-103497000D01*
X189709766Y-103497000D01*
X190126926Y-103324207D01*
X190254133Y-103197000D01*
X199891967Y-103197000D01*
X199974200Y-103213357D01*
X200056433Y-103197000D01*
X200056437Y-103197000D01*
X200300001Y-103148552D01*
X200576201Y-102964001D01*
X200622787Y-102894280D01*
X203616053Y-99901015D01*
X203691864Y-100282145D01*
X204053231Y-100822969D01*
X204594055Y-101184336D01*
X205070969Y-101279200D01*
X205393031Y-101279200D01*
X205869945Y-101184336D01*
X205926990Y-101146220D01*
X205926990Y-108025144D01*
X205926989Y-108025149D01*
X205926989Y-110262560D01*
X204382000Y-110262560D01*
X204134235Y-110311843D01*
X203924191Y-110452191D01*
X203783843Y-110662235D01*
X203734560Y-110910000D01*
X203734560Y-112610000D01*
X203783843Y-112857765D01*
X203924191Y-113067809D01*
X204134235Y-113208157D01*
X204179619Y-113217184D01*
X204161375Y-113229375D01*
X203833161Y-113720582D01*
X203717908Y-114300000D01*
X203833161Y-114879418D01*
X204161375Y-115370625D01*
X204459761Y-115570000D01*
X204161375Y-115769375D01*
X203833161Y-116260582D01*
X203717908Y-116840000D01*
X203833161Y-117419418D01*
X204161375Y-117910625D01*
X204480478Y-118123843D01*
X204350642Y-118184817D01*
X203960355Y-118613076D01*
X203790524Y-119023110D01*
X203911845Y-119253000D01*
X205105000Y-119253000D01*
X205105000Y-119233000D01*
X205359000Y-119233000D01*
X205359000Y-119253000D01*
X205379000Y-119253000D01*
X205379000Y-119507000D01*
X205359000Y-119507000D01*
X205359000Y-120700819D01*
X205588892Y-120821486D01*
X205926990Y-120662706D01*
X205926990Y-121420208D01*
X202842530Y-124504669D01*
X202779071Y-124547071D01*
X202611096Y-124798464D01*
X202567000Y-125020149D01*
X202567000Y-125020153D01*
X202552112Y-125095000D01*
X202567000Y-125169847D01*
X202567001Y-128145000D01*
X187983400Y-128145000D01*
X187983400Y-119736890D01*
X203790524Y-119736890D01*
X203960355Y-120146924D01*
X204350642Y-120575183D01*
X204875108Y-120821486D01*
X205105000Y-120700819D01*
X205105000Y-119507000D01*
X203911845Y-119507000D01*
X203790524Y-119736890D01*
X187983400Y-119736890D01*
X187983400Y-112269400D01*
X188320583Y-112269400D01*
X188664235Y-112127055D01*
X188927255Y-111864035D01*
X189069600Y-111520383D01*
X189069600Y-111148417D01*
X188927255Y-110804765D01*
X188664235Y-110541745D01*
X188320583Y-110399400D01*
X188274402Y-110399400D01*
X188144529Y-110269528D01*
X188102128Y-110206070D01*
X187850736Y-110038095D01*
X187629051Y-109993999D01*
X187629046Y-109993999D01*
X187554199Y-109979111D01*
X187479352Y-109993999D01*
X186983448Y-109993999D01*
X186908601Y-109979111D01*
X186833754Y-109993999D01*
X186833749Y-109993999D01*
X186612064Y-110038095D01*
X186360672Y-110206070D01*
X186318272Y-110269526D01*
X186307000Y-110280798D01*
X186307000Y-103759000D01*
X189738000Y-103759000D01*
X189738000Y-116586000D01*
X189747667Y-116634601D01*
X189775197Y-116675803D01*
X189816399Y-116703333D01*
X189865000Y-116713000D01*
X203200000Y-116713000D01*
X203248601Y-116703333D01*
X203289803Y-116675803D01*
X203317333Y-116634601D01*
X203327000Y-116586000D01*
X203327000Y-103759000D01*
X203317333Y-103710399D01*
X203289803Y-103669197D01*
X203248601Y-103641667D01*
X203200000Y-103632000D01*
X189865000Y-103632000D01*
X189816399Y-103641667D01*
X189775197Y-103669197D01*
X189747667Y-103710399D01*
X189738000Y-103759000D01*
X186307000Y-103759000D01*
X186307000Y-97290159D01*
X189829000Y-97290159D01*
X189829000Y-98079841D01*
X190131199Y-98809412D01*
X190689588Y-99367801D01*
X191419159Y-99670000D01*
X192208841Y-99670000D01*
X192938412Y-99367801D01*
X193496801Y-98809412D01*
X193799000Y-98079841D01*
X193799000Y-97290159D01*
X193496801Y-96560588D01*
X192938412Y-96002199D01*
X192208841Y-95700000D01*
X191419159Y-95700000D01*
X190689588Y-96002199D01*
X190131199Y-96560588D01*
X189829000Y-97290159D01*
X186307000Y-97290159D01*
X186307000Y-89976801D01*
X187464802Y-88819000D01*
X187510983Y-88819000D01*
X187854635Y-88676655D01*
X187887290Y-88644000D01*
X191187153Y-88644000D01*
X191262000Y-88658888D01*
X191336847Y-88644000D01*
X191336852Y-88644000D01*
X191558537Y-88599904D01*
X191809929Y-88431929D01*
X191852331Y-88368470D01*
X194195802Y-86025000D01*
X194241983Y-86025000D01*
X194585635Y-85882655D01*
X194848655Y-85619635D01*
X194991000Y-85275983D01*
X194991000Y-84904017D01*
X194848655Y-84560365D01*
X194585635Y-84297345D01*
X194241983Y-84155000D01*
X193870017Y-84155000D01*
X193526365Y-84297345D01*
X193263345Y-84560365D01*
X193121000Y-84904017D01*
X193121000Y-84950198D01*
X190947199Y-87124000D01*
X187887290Y-87124000D01*
X187854635Y-87091345D01*
X187510983Y-86949000D01*
X187139017Y-86949000D01*
X186795365Y-87091345D01*
X186532345Y-87354365D01*
X186390000Y-87698017D01*
X186390000Y-87744198D01*
X185062529Y-89071670D01*
X184999071Y-89114071D01*
X184831096Y-89365463D01*
X184787000Y-89587148D01*
X184787000Y-89587153D01*
X184772112Y-89662000D01*
X184787000Y-89736847D01*
X184787000Y-89863851D01*
X184787001Y-89863856D01*
X184787000Y-131751148D01*
X184787000Y-132281851D01*
X184787001Y-132281855D01*
X184787000Y-134311710D01*
X184754345Y-134344365D01*
X184612000Y-134688017D01*
X178007000Y-134688017D01*
X178007000Y-134479159D01*
X177704801Y-133749588D01*
X177146412Y-133191199D01*
X176416841Y-132889000D01*
X175627159Y-132889000D01*
X174897588Y-133191199D01*
X174339199Y-133749588D01*
X174037000Y-134479159D01*
X172610915Y-134479159D01*
X173665152Y-133648066D01*
X174660803Y-132647188D01*
X175529000Y-131533945D01*
X176257168Y-130324462D01*
X176834758Y-129036260D01*
X177253405Y-127687997D01*
X177507044Y-126299205D01*
X177592000Y-124890000D01*
X177589427Y-124644345D01*
X177474978Y-123237229D01*
X177192310Y-121854053D01*
X176745519Y-120514853D01*
X176141077Y-119239029D01*
X175387740Y-118045062D01*
X174496419Y-116950245D01*
X173480026Y-115970438D01*
X172353283Y-115119834D01*
X171136653Y-114413159D01*
X174037000Y-114413159D01*
X174037000Y-115202841D01*
X174339199Y-115932412D01*
X174897588Y-116490801D01*
X175627159Y-116793000D01*
X176416841Y-116793000D01*
X177146412Y-116490801D01*
X177704801Y-115932412D01*
X178007000Y-115202841D01*
X178007000Y-114413159D01*
X177704801Y-113683588D01*
X177146412Y-113125199D01*
X176416841Y-112823000D01*
X175627159Y-112823000D01*
X174897588Y-113125199D01*
X174339199Y-113683588D01*
X174037000Y-114413159D01*
X171136653Y-114413159D01*
X171132512Y-114410754D01*
X169835396Y-113853469D01*
X168480724Y-113456051D01*
X167088119Y-113224258D01*
X165677753Y-113161447D01*
X164270056Y-113268528D01*
X162885419Y-113543949D01*
X161543899Y-113983722D01*
X160264928Y-114581475D01*
X159067032Y-115328551D01*
X157967563Y-116214127D01*
X156982448Y-117225376D01*
X156125956Y-118347650D01*
X155410493Y-119564691D01*
X154846424Y-120858872D01*
X154441919Y-122211444D01*
X154202838Y-123602817D01*
X154132643Y-125012834D01*
X116153000Y-125012834D01*
X116153000Y-114413159D01*
X153971000Y-114413159D01*
X153971000Y-115202841D01*
X154273199Y-115932412D01*
X154831588Y-116490801D01*
X155561159Y-116793000D01*
X156350841Y-116793000D01*
X157080412Y-116490801D01*
X157638801Y-115932412D01*
X157941000Y-115202841D01*
X157941000Y-114413159D01*
X157638801Y-113683588D01*
X157080412Y-113125199D01*
X156350841Y-112823000D01*
X155561159Y-112823000D01*
X154831588Y-113125199D01*
X154273199Y-113683588D01*
X153971000Y-114413159D01*
X116153000Y-114413159D01*
X116153000Y-97290159D01*
X131829000Y-97290159D01*
X131829000Y-98079841D01*
X132131199Y-98809412D01*
X132689588Y-99367801D01*
X133419159Y-99670000D01*
X134208841Y-99670000D01*
X134938412Y-99367801D01*
X135496801Y-98809412D01*
X135799000Y-98079841D01*
X135799000Y-97290159D01*
X135496801Y-96560588D01*
X134938412Y-96002199D01*
X134208841Y-95700000D01*
X133419159Y-95700000D01*
X132689588Y-96002199D01*
X132131199Y-96560588D01*
X131829000Y-97290159D01*
X116153000Y-97290159D01*
X116153000Y-92502200D01*
X117002289Y-92502200D01*
X117129145Y-93139946D01*
X117490399Y-93680601D01*
X118031054Y-94041855D01*
X118507820Y-94136690D01*
X118829780Y-94136690D01*
X119306546Y-94041855D01*
X119847201Y-93680601D01*
X120208455Y-93139946D01*
X120335311Y-92502200D01*
X120208455Y-91864454D01*
X120190111Y-91837000D01*
X139450560Y-91837000D01*
X139450560Y-93837000D01*
X139499843Y-94084765D01*
X139514700Y-94107000D01*
X139499843Y-94129235D01*
X139450560Y-94377000D01*
X139450560Y-96377000D01*
X139499843Y-96624765D01*
X139640191Y-96834809D01*
X139850235Y-96975157D01*
X140098000Y-97024440D01*
X142098000Y-97024440D01*
X142345765Y-96975157D01*
X142555809Y-96834809D01*
X142696157Y-96624765D01*
X142745440Y-96377000D01*
X142745440Y-94377000D01*
X142696157Y-94129235D01*
X142681300Y-94107000D01*
X142696157Y-94084765D01*
X142745440Y-93837000D01*
X142745440Y-91837000D01*
X142696157Y-91589235D01*
X142555809Y-91379191D01*
X142345765Y-91238843D01*
X142098000Y-91189560D01*
X140098000Y-91189560D01*
X139850235Y-91238843D01*
X139640191Y-91379191D01*
X139499843Y-91589235D01*
X139450560Y-91837000D01*
X120190111Y-91837000D01*
X119978612Y-91520470D01*
X120027989Y-91500017D01*
X120206617Y-91321388D01*
X120303290Y-91087999D01*
X120303290Y-90247950D01*
X120144540Y-90089200D01*
X118795800Y-90089200D01*
X118795800Y-90109200D01*
X118541800Y-90109200D01*
X118541800Y-90089200D01*
X117193060Y-90089200D01*
X117034310Y-90247950D01*
X117034310Y-91087999D01*
X117130983Y-91321388D01*
X117309611Y-91500017D01*
X117358988Y-91520470D01*
X117129145Y-91864454D01*
X117002289Y-92502200D01*
X116153000Y-92502200D01*
X116153000Y-88836401D01*
X117034310Y-88836401D01*
X117034310Y-89676450D01*
X117193060Y-89835200D01*
X118541800Y-89835200D01*
X118541800Y-88486460D01*
X118795800Y-88486460D01*
X118795800Y-89835200D01*
X120144540Y-89835200D01*
X120303290Y-89676450D01*
X120303290Y-88836401D01*
X120206617Y-88603012D01*
X120027989Y-88424383D01*
X119794600Y-88327710D01*
X118954550Y-88327710D01*
X118795800Y-88486460D01*
X118541800Y-88486460D01*
X118383050Y-88327710D01*
X117543000Y-88327710D01*
X117309611Y-88424383D01*
X117130983Y-88603012D01*
X117034310Y-88836401D01*
X116153000Y-88836401D01*
X116153000Y-82700000D01*
X117002289Y-82700000D01*
X117129145Y-83337746D01*
X117490399Y-83878401D01*
X118031054Y-84239655D01*
X118507820Y-84334490D01*
X118829780Y-84334490D01*
X119306546Y-84239655D01*
X119847201Y-83878401D01*
X120208455Y-83337746D01*
X120335311Y-82700000D01*
X120208455Y-82062254D01*
X119977493Y-81716595D01*
X120126099Y-81617299D01*
X120266447Y-81407255D01*
X120294512Y-81266159D01*
X123994100Y-81266159D01*
X123994100Y-82055841D01*
X124296299Y-82785412D01*
X124854688Y-83343801D01*
X125584259Y-83646000D01*
X126373941Y-83646000D01*
X127103512Y-83343801D01*
X127661901Y-82785412D01*
X127841518Y-82351778D01*
X139463000Y-82351778D01*
X139463000Y-83002222D01*
X139711914Y-83603153D01*
X140055761Y-83947000D01*
X139711914Y-84290847D01*
X139463000Y-84891778D01*
X139463000Y-85542222D01*
X139711914Y-86143153D01*
X140171847Y-86603086D01*
X140772778Y-86852000D01*
X141423222Y-86852000D01*
X142024153Y-86603086D01*
X142375239Y-86252000D01*
X142447290Y-86252000D01*
X146412000Y-90216711D01*
X146412001Y-107721061D01*
X146391724Y-107823000D01*
X146472052Y-108226836D01*
X146632644Y-108467179D01*
X146700808Y-108569193D01*
X146787225Y-108626935D01*
X147212560Y-109052270D01*
X147212560Y-111736000D01*
X147261843Y-111983765D01*
X147402191Y-112193809D01*
X147612235Y-112334157D01*
X147860000Y-112383440D01*
X151860000Y-112383440D01*
X152107765Y-112334157D01*
X152317809Y-112193809D01*
X152458157Y-111983765D01*
X152507440Y-111736000D01*
X152507440Y-108736000D01*
X152458157Y-108488235D01*
X152317809Y-108278191D01*
X152107765Y-108137843D01*
X151860000Y-108088560D01*
X149176270Y-108088560D01*
X148482000Y-107394290D01*
X148482000Y-101050710D01*
X158327065Y-110895776D01*
X158384807Y-110982193D01*
X158633579Y-111148417D01*
X158727163Y-111210948D01*
X159131000Y-111291276D01*
X159232934Y-111271000D01*
X166516560Y-111271000D01*
X166516560Y-111736000D01*
X166565843Y-111983765D01*
X166706191Y-112193809D01*
X166916235Y-112334157D01*
X167164000Y-112383440D01*
X171164000Y-112383440D01*
X171411765Y-112334157D01*
X171621809Y-112193809D01*
X171762157Y-111983765D01*
X171811440Y-111736000D01*
X171811440Y-108736000D01*
X171762157Y-108488235D01*
X171621809Y-108278191D01*
X171411765Y-108137843D01*
X171164000Y-108088560D01*
X167164000Y-108088560D01*
X166916235Y-108137843D01*
X166706191Y-108278191D01*
X166565843Y-108488235D01*
X166516560Y-108736000D01*
X166516560Y-109201000D01*
X159559711Y-109201000D01*
X150133000Y-99774290D01*
X150133000Y-95844188D01*
X150233000Y-95602766D01*
X150233000Y-95151234D01*
X150060207Y-94734074D01*
X149740926Y-94414793D01*
X149323766Y-94242000D01*
X148872234Y-94242000D01*
X148482000Y-94403640D01*
X148482000Y-91837000D01*
X155450560Y-91837000D01*
X155450560Y-93837000D01*
X155499843Y-94084765D01*
X155514700Y-94107000D01*
X155499843Y-94129235D01*
X155450560Y-94377000D01*
X155450560Y-96377000D01*
X155499843Y-96624765D01*
X155640191Y-96834809D01*
X155850235Y-96975157D01*
X156098000Y-97024440D01*
X158098000Y-97024440D01*
X158345765Y-96975157D01*
X158555809Y-96834809D01*
X158696157Y-96624765D01*
X158745440Y-96377000D01*
X158745440Y-94377000D01*
X158696157Y-94129235D01*
X158681300Y-94107000D01*
X158696157Y-94084765D01*
X158738478Y-93872000D01*
X163728066Y-93872000D01*
X163830000Y-93892276D01*
X163931934Y-93872000D01*
X163931935Y-93872000D01*
X164233837Y-93811948D01*
X164576193Y-93583193D01*
X164633937Y-93496773D01*
X169823776Y-88306935D01*
X169910193Y-88249193D01*
X170138948Y-87906837D01*
X170199000Y-87604935D01*
X170199000Y-87604934D01*
X170219276Y-87503001D01*
X170199000Y-87401066D01*
X170199000Y-81266159D01*
X197913000Y-81266159D01*
X197913000Y-82055841D01*
X198215199Y-82785412D01*
X198773588Y-83343801D01*
X199503159Y-83646000D01*
X200292841Y-83646000D01*
X201022412Y-83343801D01*
X201580801Y-82785412D01*
X201678312Y-82550000D01*
X203564969Y-82550000D01*
X203691864Y-83187945D01*
X204053231Y-83728769D01*
X204594055Y-84090136D01*
X205070969Y-84185000D01*
X205393031Y-84185000D01*
X205869945Y-84090136D01*
X206410769Y-83728769D01*
X206772136Y-83187945D01*
X206899031Y-82550000D01*
X206772136Y-81912055D01*
X206541511Y-81566900D01*
X206689809Y-81467809D01*
X206830157Y-81257765D01*
X206879440Y-81010000D01*
X206879440Y-79010000D01*
X206830157Y-78762235D01*
X206689809Y-78552191D01*
X206479765Y-78411843D01*
X206232000Y-78362560D01*
X204232000Y-78362560D01*
X203984235Y-78411843D01*
X203774191Y-78552191D01*
X203633843Y-78762235D01*
X203584560Y-79010000D01*
X203584560Y-81010000D01*
X203633843Y-81257765D01*
X203774191Y-81467809D01*
X203922489Y-81566900D01*
X203691864Y-81912055D01*
X203564969Y-82550000D01*
X201678312Y-82550000D01*
X201883000Y-82055841D01*
X201883000Y-81266159D01*
X201580801Y-80536588D01*
X201022412Y-79978199D01*
X200292841Y-79676000D01*
X199503159Y-79676000D01*
X198773588Y-79978199D01*
X198215199Y-80536588D01*
X197913000Y-81266159D01*
X170199000Y-81266159D01*
X170199000Y-78939750D01*
X182744100Y-78939750D01*
X182744100Y-79780310D01*
X182840773Y-80013699D01*
X183019402Y-80192327D01*
X183252791Y-80289000D01*
X184093350Y-80289000D01*
X184252100Y-80130250D01*
X184252100Y-78781000D01*
X182902850Y-78781000D01*
X182744100Y-78939750D01*
X170199000Y-78939750D01*
X170199000Y-77527690D01*
X182744100Y-77527690D01*
X182744100Y-78368250D01*
X182902850Y-78527000D01*
X184252100Y-78527000D01*
X184252100Y-77177750D01*
X184506100Y-77177750D01*
X184506100Y-78527000D01*
X184526100Y-78527000D01*
X184526100Y-78781000D01*
X184506100Y-78781000D01*
X184506100Y-80130250D01*
X184664850Y-80289000D01*
X185505409Y-80289000D01*
X185738798Y-80192327D01*
X185917427Y-80013699D01*
X185931818Y-79978957D01*
X185992947Y-80040086D01*
X186593878Y-80289000D01*
X187244322Y-80289000D01*
X187845253Y-80040086D01*
X188189100Y-79696239D01*
X188532947Y-80040086D01*
X189133878Y-80289000D01*
X189784322Y-80289000D01*
X190385253Y-80040086D01*
X190845186Y-79580153D01*
X191094100Y-78979222D01*
X191094100Y-78328778D01*
X190845186Y-77727847D01*
X190385253Y-77267914D01*
X189784322Y-77019000D01*
X189133878Y-77019000D01*
X188532947Y-77267914D01*
X188189100Y-77611761D01*
X187845253Y-77267914D01*
X187244322Y-77019000D01*
X186593878Y-77019000D01*
X185992947Y-77267914D01*
X185931818Y-77329043D01*
X185917427Y-77294301D01*
X185738798Y-77115673D01*
X185505409Y-77019000D01*
X184664850Y-77019000D01*
X184506100Y-77177750D01*
X184252100Y-77177750D01*
X184093350Y-77019000D01*
X183252791Y-77019000D01*
X183019402Y-77115673D01*
X182840773Y-77294301D01*
X182744100Y-77527690D01*
X170199000Y-77527690D01*
X170199000Y-72251440D01*
X171164000Y-72251440D01*
X171411765Y-72202157D01*
X171621809Y-72061809D01*
X171762157Y-71851765D01*
X171811440Y-71604000D01*
X171811440Y-68820159D01*
X197913000Y-68820159D01*
X197913000Y-69609841D01*
X198215199Y-70339412D01*
X198773588Y-70897801D01*
X199503159Y-71200000D01*
X200292841Y-71200000D01*
X201022412Y-70897801D01*
X201580801Y-70339412D01*
X201883000Y-69609841D01*
X201883000Y-68820159D01*
X201580801Y-68090588D01*
X201022412Y-67532199D01*
X200292841Y-67230000D01*
X199503159Y-67230000D01*
X198773588Y-67532199D01*
X198215199Y-68090588D01*
X197913000Y-68820159D01*
X171811440Y-68820159D01*
X171811440Y-68604000D01*
X171762157Y-68356235D01*
X171621809Y-68146191D01*
X171411765Y-68005843D01*
X171164000Y-67956560D01*
X167164000Y-67956560D01*
X166916235Y-68005843D01*
X166706191Y-68146191D01*
X166565843Y-68356235D01*
X166516560Y-68604000D01*
X166516560Y-71604000D01*
X166565843Y-71851765D01*
X166706191Y-72061809D01*
X166916235Y-72202157D01*
X167164000Y-72251440D01*
X168129000Y-72251440D01*
X168129000Y-72447934D01*
X168129001Y-72447939D01*
X168129001Y-79406210D01*
X168122589Y-79390139D01*
X168089695Y-79338107D01*
X168067535Y-79280677D01*
X167983661Y-79170377D01*
X167699012Y-78863522D01*
X167649592Y-78826819D01*
X167608244Y-78781219D01*
X167490286Y-78708508D01*
X167114254Y-78524698D01*
X167054933Y-78508247D01*
X166999941Y-78480589D01*
X166863719Y-78455219D01*
X166863717Y-78455218D01*
X166863716Y-78455218D01*
X166446726Y-78419103D01*
X166385463Y-78425110D01*
X166324199Y-78419103D01*
X166187974Y-78444474D01*
X165785939Y-78560896D01*
X165730946Y-78588555D01*
X165671628Y-78605005D01*
X165553670Y-78677715D01*
X165220502Y-78931061D01*
X165179150Y-78976666D01*
X165129732Y-79013367D01*
X165045858Y-79123666D01*
X164826232Y-79479967D01*
X164804071Y-79537399D01*
X164771179Y-79589429D01*
X164732636Y-79722528D01*
X164656784Y-80129807D01*
X164644000Y-80194075D01*
X164644001Y-87064926D01*
X164650805Y-87099132D01*
X164669156Y-87286293D01*
X164677771Y-87316042D01*
X164677771Y-87347007D01*
X164716313Y-87480106D01*
X164871411Y-87868861D01*
X164904304Y-87920893D01*
X164926465Y-87978323D01*
X165010339Y-88088623D01*
X165294988Y-88395478D01*
X165344408Y-88432180D01*
X165385756Y-88477781D01*
X165503714Y-88550492D01*
X165879746Y-88734301D01*
X165939064Y-88750752D01*
X165994059Y-88778411D01*
X166130281Y-88803781D01*
X166130283Y-88803782D01*
X166130284Y-88803782D01*
X166378049Y-88825241D01*
X163401290Y-91802000D01*
X158738478Y-91802000D01*
X158696157Y-91589235D01*
X158555809Y-91379191D01*
X158345765Y-91238843D01*
X158098000Y-91189560D01*
X156098000Y-91189560D01*
X155850235Y-91238843D01*
X155640191Y-91379191D01*
X155499843Y-91589235D01*
X155450560Y-91837000D01*
X148482000Y-91837000D01*
X148482000Y-89889934D01*
X148502276Y-89787999D01*
X148421948Y-89384163D01*
X148250934Y-89128223D01*
X148193193Y-89041807D01*
X148106776Y-88984065D01*
X145492243Y-86369532D01*
X156125073Y-86369532D01*
X156223736Y-86636387D01*
X156833461Y-86862908D01*
X157483460Y-86838856D01*
X157972264Y-86636387D01*
X158070927Y-86369532D01*
X157098000Y-85396605D01*
X156125073Y-86369532D01*
X145492243Y-86369532D01*
X144075172Y-84952461D01*
X155452092Y-84952461D01*
X155476144Y-85602460D01*
X155678613Y-86091264D01*
X155945468Y-86189927D01*
X156918395Y-85217000D01*
X157277605Y-85217000D01*
X158250532Y-86189927D01*
X158517387Y-86091264D01*
X158743908Y-85481539D01*
X158719856Y-84831540D01*
X158517387Y-84342736D01*
X158250532Y-84244073D01*
X157277605Y-85217000D01*
X156918395Y-85217000D01*
X155945468Y-84244073D01*
X155678613Y-84342736D01*
X155452092Y-84952461D01*
X144075172Y-84952461D01*
X143679937Y-84557227D01*
X143622193Y-84470807D01*
X143279837Y-84242052D01*
X142977935Y-84182000D01*
X142977934Y-84182000D01*
X142876000Y-84161724D01*
X142774066Y-84182000D01*
X142375239Y-84182000D01*
X142140239Y-83947000D01*
X142257707Y-83829532D01*
X156125073Y-83829532D01*
X156168504Y-83947000D01*
X156125073Y-84064468D01*
X157098000Y-85037395D01*
X158070927Y-84064468D01*
X158027496Y-83947000D01*
X158070927Y-83829532D01*
X157098000Y-82856605D01*
X156125073Y-83829532D01*
X142257707Y-83829532D01*
X142484086Y-83603153D01*
X142733000Y-83002222D01*
X142733000Y-82412461D01*
X155452092Y-82412461D01*
X155476144Y-83062460D01*
X155678613Y-83551264D01*
X155945468Y-83649927D01*
X156918395Y-82677000D01*
X157277605Y-82677000D01*
X158250532Y-83649927D01*
X158517387Y-83551264D01*
X158743908Y-82941539D01*
X158719856Y-82291540D01*
X158517387Y-81802736D01*
X158250532Y-81704073D01*
X157277605Y-82677000D01*
X156918395Y-82677000D01*
X155945468Y-81704073D01*
X155678613Y-81802736D01*
X155452092Y-82412461D01*
X142733000Y-82412461D01*
X142733000Y-82351778D01*
X142484086Y-81750847D01*
X142257707Y-81524468D01*
X156125073Y-81524468D01*
X157098000Y-82497395D01*
X158070927Y-81524468D01*
X157972264Y-81257613D01*
X157362539Y-81031092D01*
X156712540Y-81055144D01*
X156223736Y-81257613D01*
X156125073Y-81524468D01*
X142257707Y-81524468D01*
X142024153Y-81290914D01*
X141423222Y-81042000D01*
X140772778Y-81042000D01*
X140171847Y-81290914D01*
X139711914Y-81750847D01*
X139463000Y-82351778D01*
X127841518Y-82351778D01*
X127964100Y-82055841D01*
X127964100Y-81266159D01*
X127661901Y-80536588D01*
X127103512Y-79978199D01*
X126373941Y-79676000D01*
X125584259Y-79676000D01*
X124854688Y-79978199D01*
X124296299Y-80536588D01*
X123994100Y-81266159D01*
X120294512Y-81266159D01*
X120315730Y-81159490D01*
X120315730Y-79160510D01*
X120266447Y-78912745D01*
X120126099Y-78702701D01*
X119916055Y-78562353D01*
X119668290Y-78513070D01*
X117669310Y-78513070D01*
X117421545Y-78562353D01*
X117211501Y-78702701D01*
X117071153Y-78912745D01*
X117021870Y-79160510D01*
X117021870Y-81159490D01*
X117071153Y-81407255D01*
X117211501Y-81617299D01*
X117360107Y-81716595D01*
X117129145Y-82062254D01*
X117002289Y-82700000D01*
X116153000Y-82700000D01*
X116153000Y-77654000D01*
X139331660Y-77654000D01*
X139331660Y-79654000D01*
X139380943Y-79901765D01*
X139521291Y-80111809D01*
X139731335Y-80252157D01*
X139979100Y-80301440D01*
X141979100Y-80301440D01*
X142226865Y-80252157D01*
X142436909Y-80111809D01*
X142577257Y-79901765D01*
X142583161Y-79872081D01*
X142631894Y-79920814D01*
X142746174Y-79806534D01*
X142844836Y-80073387D01*
X143454561Y-80299908D01*
X144104560Y-80275856D01*
X144593364Y-80073387D01*
X144692027Y-79806532D01*
X143719100Y-78833605D01*
X143704958Y-78847748D01*
X143525353Y-78668143D01*
X143539495Y-78654000D01*
X143898705Y-78654000D01*
X144871632Y-79626927D01*
X144906789Y-79613928D01*
X145332947Y-80040086D01*
X145933878Y-80289000D01*
X146584322Y-80289000D01*
X147185253Y-80040086D01*
X147645186Y-79580153D01*
X147894100Y-78979222D01*
X147894100Y-78328778D01*
X147645186Y-77727847D01*
X147185253Y-77267914D01*
X146584322Y-77019000D01*
X145933878Y-77019000D01*
X145332947Y-77267914D01*
X144906789Y-77694072D01*
X144871632Y-77681073D01*
X143898705Y-78654000D01*
X143539495Y-78654000D01*
X143525353Y-78639858D01*
X143704958Y-78460253D01*
X143719100Y-78474395D01*
X144692027Y-77501468D01*
X144593364Y-77234613D01*
X143983639Y-77008092D01*
X143333640Y-77032144D01*
X142844836Y-77234613D01*
X142746174Y-77501466D01*
X142631894Y-77387186D01*
X142583161Y-77435919D01*
X142577257Y-77406235D01*
X142436909Y-77196191D01*
X142226865Y-77055843D01*
X141979100Y-77006560D01*
X139979100Y-77006560D01*
X139731335Y-77055843D01*
X139521291Y-77196191D01*
X139380943Y-77406235D01*
X139331660Y-77654000D01*
X116153000Y-77654000D01*
X116153000Y-68820159D01*
X117012000Y-68820159D01*
X117012000Y-69609841D01*
X117314199Y-70339412D01*
X117872588Y-70897801D01*
X118602159Y-71200000D01*
X119391841Y-71200000D01*
X120121412Y-70897801D01*
X120629463Y-70389750D01*
X147225000Y-70389750D01*
X147225000Y-71730309D01*
X147321673Y-71963698D01*
X147500301Y-72142327D01*
X147733690Y-72239000D01*
X149574250Y-72239000D01*
X149733000Y-72080250D01*
X149733000Y-70231000D01*
X149987000Y-70231000D01*
X149987000Y-72080250D01*
X150145750Y-72239000D01*
X151986310Y-72239000D01*
X152219699Y-72142327D01*
X152398327Y-71963698D01*
X152495000Y-71730309D01*
X152495000Y-70389750D01*
X152336250Y-70231000D01*
X149987000Y-70231000D01*
X149733000Y-70231000D01*
X147383750Y-70231000D01*
X147225000Y-70389750D01*
X120629463Y-70389750D01*
X120679801Y-70339412D01*
X120982000Y-69609841D01*
X120982000Y-68820159D01*
X120840145Y-68477691D01*
X147225000Y-68477691D01*
X147225000Y-69818250D01*
X147383750Y-69977000D01*
X149733000Y-69977000D01*
X149733000Y-68127750D01*
X149987000Y-68127750D01*
X149987000Y-69977000D01*
X152336250Y-69977000D01*
X152495000Y-69818250D01*
X152495000Y-68477691D01*
X152398327Y-68244302D01*
X152219699Y-68065673D01*
X151986310Y-67969000D01*
X150145750Y-67969000D01*
X149987000Y-68127750D01*
X149733000Y-68127750D01*
X149574250Y-67969000D01*
X147733690Y-67969000D01*
X147500301Y-68065673D01*
X147321673Y-68244302D01*
X147225000Y-68477691D01*
X120840145Y-68477691D01*
X120679801Y-68090588D01*
X120121412Y-67532199D01*
X119391841Y-67230000D01*
X118602159Y-67230000D01*
X117872588Y-67532199D01*
X117314199Y-68090588D01*
X117012000Y-68820159D01*
X116153000Y-68820159D01*
X116153000Y-66242000D01*
X208633000Y-66242000D01*
X208633001Y-153214000D01*
X208633001Y-153214000D01*
G37*
X208633001Y-153214000D02*
X116153000Y-153214000D01*
X116153000Y-149995159D01*
X117012000Y-149995159D01*
X117012000Y-150784841D01*
X117314199Y-151514412D01*
X117872588Y-152072801D01*
X118602159Y-152375000D01*
X119391841Y-152375000D01*
X120121412Y-152072801D01*
X120679801Y-151514412D01*
X120982000Y-150784841D01*
X120982000Y-149995159D01*
X197913000Y-149995159D01*
X197913000Y-150784841D01*
X198215199Y-151514412D01*
X198773588Y-152072801D01*
X199503159Y-152375000D01*
X200292841Y-152375000D01*
X201022412Y-152072801D01*
X201580801Y-151514412D01*
X201883000Y-150784841D01*
X201883000Y-149995159D01*
X201580801Y-149265588D01*
X201022412Y-148707199D01*
X200292841Y-148405000D01*
X199503159Y-148405000D01*
X198773588Y-148707199D01*
X198215199Y-149265588D01*
X197913000Y-149995159D01*
X120982000Y-149995159D01*
X120679801Y-149265588D01*
X120121412Y-148707199D01*
X119391841Y-148405000D01*
X118602159Y-148405000D01*
X117872588Y-148707199D01*
X117314199Y-149265588D01*
X117012000Y-149995159D01*
X116153000Y-149995159D01*
X116153000Y-146290159D01*
X131829000Y-146290159D01*
X131829000Y-147079841D01*
X132131199Y-147809412D01*
X132689588Y-148367801D01*
X133419159Y-148670000D01*
X134208841Y-148670000D01*
X134938412Y-148367801D01*
X135351213Y-147955000D01*
X137118928Y-147955000D01*
X137238062Y-148553927D01*
X137577327Y-149061673D01*
X138085073Y-149400938D01*
X138532818Y-149490000D01*
X138835182Y-149490000D01*
X139282927Y-149400938D01*
X139790673Y-149061673D01*
X139954000Y-148817237D01*
X140117327Y-149061673D01*
X140625073Y-149400938D01*
X141072818Y-149490000D01*
X141375182Y-149490000D01*
X141822927Y-149400938D01*
X142330673Y-149061673D01*
X142494000Y-148817237D01*
X142657327Y-149061673D01*
X143165073Y-149400938D01*
X143612818Y-149490000D01*
X143915182Y-149490000D01*
X144362927Y-149400938D01*
X144870673Y-149061673D01*
X145040418Y-148807632D01*
X145066034Y-148862576D01*
X145507583Y-149267240D01*
X145939260Y-149446036D01*
X146177000Y-149325378D01*
X146177000Y-148082000D01*
X146157000Y-148082000D01*
X146157000Y-147828000D01*
X146177000Y-147828000D01*
X146177000Y-147808000D01*
X146431000Y-147808000D01*
X146431000Y-147828000D01*
X146451000Y-147828000D01*
X146451000Y-148082000D01*
X146431000Y-148082000D01*
X146431000Y-149325378D01*
X146668740Y-149446036D01*
X147100417Y-149267240D01*
X147541966Y-148862576D01*
X147567582Y-148807632D01*
X147737327Y-149061673D01*
X148245073Y-149400938D01*
X148692818Y-149490000D01*
X148995182Y-149490000D01*
X149442927Y-149400938D01*
X149950673Y-149061673D01*
X150120418Y-148807632D01*
X150146034Y-148862576D01*
X150587583Y-149267240D01*
X151019260Y-149446036D01*
X151257000Y-149325378D01*
X151257000Y-148082000D01*
X151237000Y-148082000D01*
X151237000Y-147828000D01*
X151257000Y-147828000D01*
X151257000Y-147808000D01*
X151511000Y-147808000D01*
X151511000Y-147828000D01*
X151531000Y-147828000D01*
X151531000Y-148082000D01*
X151511000Y-148082000D01*
X151511000Y-149325378D01*
X151748740Y-149446036D01*
X152180417Y-149267240D01*
X152621966Y-148862576D01*
X152647582Y-148807632D01*
X152817327Y-149061673D01*
X153325073Y-149400938D01*
X153772818Y-149490000D01*
X154075182Y-149490000D01*
X154522927Y-149400938D01*
X155030673Y-149061673D01*
X155194000Y-148817237D01*
X155357327Y-149061673D01*
X155865073Y-149400938D01*
X156312818Y-149490000D01*
X156615182Y-149490000D01*
X157062927Y-149400938D01*
X157570673Y-149061673D01*
X157734000Y-148817237D01*
X157897327Y-149061673D01*
X158405073Y-149400938D01*
X158852818Y-149490000D01*
X159155182Y-149490000D01*
X159412929Y-149438731D01*
X159638672Y-149664474D01*
X159681072Y-149727930D01*
X159932464Y-149895905D01*
X160154149Y-149940001D01*
X160154153Y-149940001D01*
X160229000Y-149954889D01*
X160303847Y-149940001D01*
X162057154Y-149940001D01*
X162132001Y-149954889D01*
X162206848Y-149940001D01*
X162206853Y-149940001D01*
X162428538Y-149895905D01*
X162679930Y-149727930D01*
X162722332Y-149664472D01*
X163199912Y-149186893D01*
X163287583Y-149267240D01*
X163719260Y-149446036D01*
X163957000Y-149325378D01*
X163957000Y-148082000D01*
X163937000Y-148082000D01*
X163937000Y-147828000D01*
X163957000Y-147828000D01*
X163957000Y-147808000D01*
X164211000Y-147808000D01*
X164211000Y-147828000D01*
X164231000Y-147828000D01*
X164231000Y-148082000D01*
X164211000Y-148082000D01*
X164211000Y-149325378D01*
X164448740Y-149446036D01*
X164880417Y-149267240D01*
X165321966Y-148862576D01*
X165347582Y-148807632D01*
X165517327Y-149061673D01*
X166025073Y-149400938D01*
X166472818Y-149490000D01*
X166775182Y-149490000D01*
X167222927Y-149400938D01*
X167730673Y-149061673D01*
X167894000Y-148817237D01*
X168057327Y-149061673D01*
X168565073Y-149400938D01*
X169012818Y-149490000D01*
X169315182Y-149490000D01*
X169762927Y-149400938D01*
X170270673Y-149061673D01*
X170440418Y-148807632D01*
X170466034Y-148862576D01*
X170907583Y-149267240D01*
X171339260Y-149446036D01*
X171577000Y-149325378D01*
X171577000Y-148082000D01*
X171557000Y-148082000D01*
X171557000Y-147828000D01*
X171577000Y-147828000D01*
X171577000Y-147808000D01*
X171831000Y-147808000D01*
X171831000Y-147828000D01*
X171851000Y-147828000D01*
X171851000Y-148082000D01*
X171831000Y-148082000D01*
X171831000Y-149325378D01*
X172068740Y-149446036D01*
X172500417Y-149267240D01*
X172941966Y-148862576D01*
X172967582Y-148807632D01*
X173137327Y-149061673D01*
X173645073Y-149400938D01*
X174092818Y-149490000D01*
X174395182Y-149490000D01*
X174842927Y-149400938D01*
X175350673Y-149061673D01*
X175514000Y-148817237D01*
X175677327Y-149061673D01*
X176185073Y-149400938D01*
X176632818Y-149490000D01*
X176935182Y-149490000D01*
X177382927Y-149400938D01*
X177890673Y-149061673D01*
X178054000Y-148817237D01*
X178217327Y-149061673D01*
X178725073Y-149400938D01*
X179172818Y-149490000D01*
X179475182Y-149490000D01*
X179922927Y-149400938D01*
X180430673Y-149061673D01*
X180594000Y-148817237D01*
X180757327Y-149061673D01*
X181265073Y-149400938D01*
X181712818Y-149490000D01*
X182015182Y-149490000D01*
X182462927Y-149400938D01*
X182970673Y-149061673D01*
X183134000Y-148817237D01*
X183297327Y-149061673D01*
X183805073Y-149400938D01*
X184252818Y-149490000D01*
X184555182Y-149490000D01*
X185002927Y-149400938D01*
X185510673Y-149061673D01*
X185674000Y-148817237D01*
X185837327Y-149061673D01*
X186345073Y-149400938D01*
X186792818Y-149490000D01*
X187095182Y-149490000D01*
X187542927Y-149400938D01*
X188050673Y-149061673D01*
X188389938Y-148553927D01*
X188509072Y-147955000D01*
X188389938Y-147356073D01*
X188093304Y-146912129D01*
X188301809Y-146772809D01*
X188442157Y-146562765D01*
X188491440Y-146315000D01*
X188491440Y-146290159D01*
X189829000Y-146290159D01*
X189829000Y-147079841D01*
X190131199Y-147809412D01*
X190689588Y-148367801D01*
X191419159Y-148670000D01*
X192208841Y-148670000D01*
X192938412Y-148367801D01*
X193496801Y-147809412D01*
X193799000Y-147079841D01*
X193799000Y-146431000D01*
X203564969Y-146431000D01*
X203691864Y-147068945D01*
X204053231Y-147609769D01*
X204594055Y-147971136D01*
X205070969Y-148066000D01*
X205393031Y-148066000D01*
X205869945Y-147971136D01*
X206410769Y-147609769D01*
X206772136Y-147068945D01*
X206899031Y-146431000D01*
X206772136Y-145793055D01*
X206410769Y-145252231D01*
X206274236Y-145161003D01*
X206618086Y-144817153D01*
X206867000Y-144216222D01*
X206867000Y-143565778D01*
X206618086Y-142964847D01*
X206158153Y-142504914D01*
X205557222Y-142256000D01*
X204906778Y-142256000D01*
X204305847Y-142504914D01*
X203845914Y-142964847D01*
X203597000Y-143565778D01*
X203597000Y-144216222D01*
X203845914Y-144817153D01*
X204189764Y-145161003D01*
X204053231Y-145252231D01*
X203691864Y-145793055D01*
X203564969Y-146431000D01*
X193799000Y-146431000D01*
X193799000Y-146290159D01*
X193496801Y-145560588D01*
X192938412Y-145002199D01*
X192208841Y-144700000D01*
X191419159Y-144700000D01*
X190689588Y-145002199D01*
X190131199Y-145560588D01*
X189829000Y-146290159D01*
X188491440Y-146290159D01*
X188491440Y-144515000D01*
X188442157Y-144267235D01*
X188301809Y-144057191D01*
X188091765Y-143916843D01*
X187844000Y-143867560D01*
X186860271Y-143867560D01*
X185334937Y-142342227D01*
X185277193Y-142255807D01*
X184934837Y-142027052D01*
X184632935Y-141967000D01*
X184632934Y-141967000D01*
X184531000Y-141946724D01*
X184429066Y-141967000D01*
X178380902Y-141967000D01*
X178827725Y-141520177D01*
X178993878Y-141589000D01*
X179644322Y-141589000D01*
X180245253Y-141340086D01*
X180589100Y-140996239D01*
X180932947Y-141340086D01*
X181533878Y-141589000D01*
X182184322Y-141589000D01*
X182785253Y-141340086D01*
X183129100Y-140996239D01*
X183472947Y-141340086D01*
X184073878Y-141589000D01*
X184724322Y-141589000D01*
X184890475Y-141520177D01*
X185713770Y-142343472D01*
X185756171Y-142406929D01*
X185819627Y-142449329D01*
X186007562Y-142574904D01*
X186055705Y-142584480D01*
X186229248Y-142619000D01*
X186229252Y-142619000D01*
X186304100Y-142633888D01*
X186378948Y-142619000D01*
X195646199Y-142619000D01*
X197430628Y-144403430D01*
X197397000Y-144484615D01*
X197397000Y-145075385D01*
X197623078Y-145621185D01*
X198040815Y-146038922D01*
X198586615Y-146265000D01*
X199177385Y-146265000D01*
X199723185Y-146038922D01*
X200140922Y-145621185D01*
X200367000Y-145075385D01*
X200367000Y-144484615D01*
X200140922Y-143938815D01*
X199723185Y-143521078D01*
X199177385Y-143295000D01*
X198586615Y-143295000D01*
X198505430Y-143328628D01*
X196551331Y-141374530D01*
X196508929Y-141311071D01*
X196257537Y-141143096D01*
X196035852Y-141099000D01*
X196035847Y-141099000D01*
X195961000Y-141084112D01*
X195886153Y-141099000D01*
X188148120Y-141099000D01*
X188205914Y-141041206D01*
X188091634Y-140926926D01*
X188358487Y-140828264D01*
X188585008Y-140218539D01*
X188560956Y-139568540D01*
X188358487Y-139079736D01*
X188091632Y-138981073D01*
X187118705Y-139954000D01*
X187132848Y-139968143D01*
X186953243Y-140147748D01*
X186939100Y-140133605D01*
X186924958Y-140147748D01*
X186745353Y-139968143D01*
X186759495Y-139954000D01*
X185786568Y-138981073D01*
X185751411Y-138994072D01*
X185558807Y-138801468D01*
X185966173Y-138801468D01*
X186939100Y-139774395D01*
X187912027Y-138801468D01*
X187813364Y-138534613D01*
X187203639Y-138308092D01*
X186553640Y-138332144D01*
X186064836Y-138534613D01*
X185966173Y-138801468D01*
X185558807Y-138801468D01*
X185325253Y-138567914D01*
X184724322Y-138319000D01*
X184073878Y-138319000D01*
X183472947Y-138567914D01*
X183129100Y-138911761D01*
X182785253Y-138567914D01*
X182184322Y-138319000D01*
X181533878Y-138319000D01*
X180932947Y-138567914D01*
X180589100Y-138911761D01*
X180245253Y-138567914D01*
X179644322Y-138319000D01*
X178993878Y-138319000D01*
X178392947Y-138567914D01*
X178049100Y-138911761D01*
X177705253Y-138567914D01*
X177104322Y-138319000D01*
X176453878Y-138319000D01*
X175852947Y-138567914D01*
X175509100Y-138911761D01*
X175165253Y-138567914D01*
X174564322Y-138319000D01*
X173913878Y-138319000D01*
X173312947Y-138567914D01*
X172969100Y-138911761D01*
X172625253Y-138567914D01*
X172024322Y-138319000D01*
X171373878Y-138319000D01*
X170772947Y-138567914D01*
X170429100Y-138911761D01*
X170085253Y-138567914D01*
X169484322Y-138319000D01*
X168833878Y-138319000D01*
X168232947Y-138567914D01*
X167806789Y-138994072D01*
X167771632Y-138981073D01*
X166798705Y-139954000D01*
X166812848Y-139968143D01*
X166633243Y-140147748D01*
X166619100Y-140133605D01*
X165756262Y-140996443D01*
X165657461Y-141016096D01*
X165406069Y-141184071D01*
X165363669Y-141247527D01*
X162442180Y-144169017D01*
X162142927Y-143969062D01*
X161695182Y-143880000D01*
X161392818Y-143880000D01*
X160945073Y-143969062D01*
X160437327Y-144308327D01*
X160274000Y-144552763D01*
X160110673Y-144308327D01*
X159602927Y-143969062D01*
X159155182Y-143880000D01*
X158852818Y-143880000D01*
X158405073Y-143969062D01*
X157897327Y-144308327D01*
X157727582Y-144562368D01*
X157701966Y-144507424D01*
X157260417Y-144102760D01*
X156828740Y-143923964D01*
X156591000Y-144044622D01*
X156591000Y-145288000D01*
X156611000Y-145288000D01*
X156611000Y-145542000D01*
X156591000Y-145542000D01*
X156591000Y-145562000D01*
X156337000Y-145562000D01*
X156337000Y-145542000D01*
X156317000Y-145542000D01*
X156317000Y-145288000D01*
X156337000Y-145288000D01*
X156337000Y-144044622D01*
X156099260Y-143923964D01*
X155667583Y-144102760D01*
X155226034Y-144507424D01*
X155200418Y-144562368D01*
X155030673Y-144308327D01*
X154522927Y-143969062D01*
X154075182Y-143880000D01*
X153772818Y-143880000D01*
X153325073Y-143969062D01*
X152817327Y-144308327D01*
X152654000Y-144552763D01*
X152490673Y-144308327D01*
X151982927Y-143969062D01*
X151535182Y-143880000D01*
X151232818Y-143880000D01*
X150975071Y-143931269D01*
X148799331Y-141755530D01*
X148756929Y-141692071D01*
X148602673Y-141589000D01*
X149164322Y-141589000D01*
X149765253Y-141340086D01*
X150109100Y-140996239D01*
X150452947Y-141340086D01*
X151053878Y-141589000D01*
X151704322Y-141589000D01*
X152305253Y-141340086D01*
X152649100Y-140996239D01*
X152992947Y-141340086D01*
X153593878Y-141589000D01*
X154244322Y-141589000D01*
X154845253Y-141340086D01*
X155189100Y-140996239D01*
X155532947Y-141340086D01*
X156133878Y-141589000D01*
X156784322Y-141589000D01*
X157385253Y-141340086D01*
X157729100Y-140996239D01*
X158072947Y-141340086D01*
X158673878Y-141589000D01*
X159324322Y-141589000D01*
X159925253Y-141340086D01*
X160269100Y-140996239D01*
X160612947Y-141340086D01*
X161213878Y-141589000D01*
X161864322Y-141589000D01*
X162465253Y-141340086D01*
X162809100Y-140996239D01*
X163152947Y-141340086D01*
X163753878Y-141589000D01*
X164404322Y-141589000D01*
X165005253Y-141340086D01*
X165431411Y-140913928D01*
X165466568Y-140926927D01*
X166439495Y-139954000D01*
X165466568Y-138981073D01*
X165431411Y-138994072D01*
X165238807Y-138801468D01*
X165646173Y-138801468D01*
X166619100Y-139774395D01*
X167592027Y-138801468D01*
X167493364Y-138534613D01*
X166883639Y-138308092D01*
X166233640Y-138332144D01*
X165744836Y-138534613D01*
X165646173Y-138801468D01*
X165238807Y-138801468D01*
X165005253Y-138567914D01*
X164404322Y-138319000D01*
X163753878Y-138319000D01*
X163152947Y-138567914D01*
X162809100Y-138911761D01*
X162465253Y-138567914D01*
X161864322Y-138319000D01*
X161213878Y-138319000D01*
X160612947Y-138567914D01*
X160269100Y-138911761D01*
X159925253Y-138567914D01*
X159324322Y-138319000D01*
X158673878Y-138319000D01*
X158072947Y-138567914D01*
X157729100Y-138911761D01*
X157385253Y-138567914D01*
X156784322Y-138319000D01*
X156133878Y-138319000D01*
X155532947Y-138567914D01*
X155189100Y-138911761D01*
X154845253Y-138567914D01*
X154244322Y-138319000D01*
X153593878Y-138319000D01*
X152992947Y-138567914D01*
X152649100Y-138911761D01*
X152305253Y-138567914D01*
X151704322Y-138319000D01*
X151053878Y-138319000D01*
X150452947Y-138567914D01*
X150109100Y-138911761D01*
X149765253Y-138567914D01*
X149164322Y-138319000D01*
X148513878Y-138319000D01*
X147912947Y-138567914D01*
X147569100Y-138911761D01*
X147225253Y-138567914D01*
X146624322Y-138319000D01*
X145973878Y-138319000D01*
X145372947Y-138567914D01*
X145029100Y-138911761D01*
X144685253Y-138567914D01*
X144084322Y-138319000D01*
X143433878Y-138319000D01*
X142832947Y-138567914D01*
X142489100Y-138911761D01*
X142145253Y-138567914D01*
X141544322Y-138319000D01*
X140893878Y-138319000D01*
X140292947Y-138567914D01*
X140231818Y-138629043D01*
X140217427Y-138594301D01*
X140038798Y-138415673D01*
X139805409Y-138319000D01*
X138964850Y-138319000D01*
X138806100Y-138477750D01*
X138806100Y-139827000D01*
X138826100Y-139827000D01*
X138826100Y-140081000D01*
X138806100Y-140081000D01*
X138806100Y-141430250D01*
X138964850Y-141589000D01*
X139805409Y-141589000D01*
X140038798Y-141492327D01*
X140217427Y-141313699D01*
X140231818Y-141278957D01*
X140292947Y-141340086D01*
X140893878Y-141589000D01*
X141544322Y-141589000D01*
X142145253Y-141340086D01*
X142489100Y-140996239D01*
X142832947Y-141340086D01*
X143433878Y-141589000D01*
X144084322Y-141589000D01*
X144250475Y-141520177D01*
X145454770Y-142724472D01*
X145497171Y-142787929D01*
X145748563Y-142955904D01*
X145970248Y-143000000D01*
X145970252Y-143000000D01*
X146045099Y-143014888D01*
X146119946Y-143000000D01*
X147894199Y-143000000D01*
X148774199Y-143880000D01*
X148692818Y-143880000D01*
X148245073Y-143969062D01*
X147737327Y-144308327D01*
X147574000Y-144552763D01*
X147410673Y-144308327D01*
X146902927Y-143969062D01*
X146455182Y-143880000D01*
X146152818Y-143880000D01*
X145705073Y-143969062D01*
X145197327Y-144308327D01*
X145034000Y-144552763D01*
X144870673Y-144308327D01*
X144362927Y-143969062D01*
X143915182Y-143880000D01*
X143612818Y-143880000D01*
X143165073Y-143969062D01*
X142657327Y-144308327D01*
X142494000Y-144552763D01*
X142330673Y-144308327D01*
X141822927Y-143969062D01*
X141375182Y-143880000D01*
X141072818Y-143880000D01*
X140625073Y-143969062D01*
X140117327Y-144308327D01*
X139947582Y-144562368D01*
X139921966Y-144507424D01*
X139480417Y-144102760D01*
X139048740Y-143923964D01*
X138811000Y-144044622D01*
X138811000Y-145288000D01*
X138831000Y-145288000D01*
X138831000Y-145542000D01*
X138811000Y-145542000D01*
X138811000Y-145562000D01*
X138557000Y-145562000D01*
X138557000Y-145542000D01*
X137313003Y-145542000D01*
X137192954Y-145779742D01*
X137446034Y-146322576D01*
X137833174Y-146677376D01*
X137577327Y-146848327D01*
X137238062Y-147356073D01*
X137118928Y-147955000D01*
X135351213Y-147955000D01*
X135496801Y-147809412D01*
X135799000Y-147079841D01*
X135799000Y-146290159D01*
X135496801Y-145560588D01*
X134986471Y-145050258D01*
X137192954Y-145050258D01*
X137313003Y-145288000D01*
X138557000Y-145288000D01*
X138557000Y-144044622D01*
X138319260Y-143923964D01*
X137887583Y-144102760D01*
X137446034Y-144507424D01*
X137192954Y-145050258D01*
X134986471Y-145050258D01*
X134938412Y-145002199D01*
X134208841Y-144700000D01*
X133419159Y-144700000D01*
X132689588Y-145002199D01*
X132131199Y-145560588D01*
X131829000Y-146290159D01*
X116153000Y-146290159D01*
X116153000Y-140239750D01*
X137044100Y-140239750D01*
X137044100Y-141080310D01*
X137140773Y-141313699D01*
X137319402Y-141492327D01*
X137552791Y-141589000D01*
X138393350Y-141589000D01*
X138552100Y-141430250D01*
X138552100Y-140081000D01*
X137202850Y-140081000D01*
X137044100Y-140239750D01*
X116153000Y-140239750D01*
X116153000Y-138827690D01*
X137044100Y-138827690D01*
X137044100Y-139668250D01*
X137202850Y-139827000D01*
X138552100Y-139827000D01*
X138552100Y-138477750D01*
X138393350Y-138319000D01*
X137552791Y-138319000D01*
X137319402Y-138415673D01*
X137140773Y-138594301D01*
X137044100Y-138827690D01*
X116153000Y-138827690D01*
X116153000Y-136257159D01*
X123994100Y-136257159D01*
X123994100Y-137046841D01*
X124296299Y-137776412D01*
X124854688Y-138334801D01*
X125584259Y-138637000D01*
X126373941Y-138637000D01*
X127103512Y-138334801D01*
X127661901Y-137776412D01*
X127964100Y-137046841D01*
X127964100Y-136257159D01*
X127661901Y-135527588D01*
X127103512Y-134969199D01*
X126373941Y-134667000D01*
X125584259Y-134667000D01*
X124854688Y-134969199D01*
X124296299Y-135527588D01*
X123994100Y-136257159D01*
X116153000Y-136257159D01*
X116153000Y-134479159D01*
X153971000Y-134479159D01*
X153971000Y-135268841D01*
X154273199Y-135998412D01*
X154831588Y-136556801D01*
X155561159Y-136859000D01*
X156350841Y-136859000D01*
X157080412Y-136556801D01*
X157638801Y-135998412D01*
X157941000Y-135268841D01*
X157941000Y-134479159D01*
X157638801Y-133749588D01*
X157080412Y-133191199D01*
X156350841Y-132889000D01*
X155561159Y-132889000D01*
X154831588Y-133191199D01*
X154273199Y-133749588D01*
X153971000Y-134479159D01*
X116153000Y-134479159D01*
X116153000Y-125012834D01*
X154132643Y-125012834D01*
X154232352Y-126421072D01*
X154500520Y-127807132D01*
X154933262Y-129150937D01*
X155524311Y-130433020D01*
X156265104Y-131634812D01*
X157144911Y-132738902D01*
X158150988Y-133729299D01*
X159268762Y-134591655D01*
X160482041Y-135313480D01*
X161773250Y-135884318D01*
X163123686Y-136295899D01*
X164513787Y-136542263D01*
X165923418Y-136619839D01*
X167332159Y-136527505D01*
X168719604Y-136266599D01*
X170065656Y-135840898D01*
X171350817Y-135256571D01*
X172556470Y-134522080D01*
X172610915Y-134479159D01*
X174037000Y-134479159D01*
X174037000Y-135268841D01*
X174339199Y-135998412D01*
X174897588Y-136556801D01*
X175627159Y-136859000D01*
X176416841Y-136859000D01*
X177146412Y-136556801D01*
X177446054Y-136257159D01*
X197913000Y-136257159D01*
X197913000Y-137046841D01*
X198215199Y-137776412D01*
X198773588Y-138334801D01*
X199503159Y-138637000D01*
X200292841Y-138637000D01*
X201022412Y-138334801D01*
X201580801Y-137776412D01*
X201883000Y-137046841D01*
X201883000Y-136257159D01*
X201580801Y-135527588D01*
X201022412Y-134969199D01*
X200292841Y-134667000D01*
X199503159Y-134667000D01*
X198773588Y-134969199D01*
X198215199Y-135527588D01*
X197913000Y-136257159D01*
X177446054Y-136257159D01*
X177704801Y-135998412D01*
X178007000Y-135268841D01*
X178007000Y-134688017D01*
X184612000Y-134688017D01*
X184612000Y-135059983D01*
X184754345Y-135403635D01*
X185017365Y-135666655D01*
X185361017Y-135809000D01*
X185732983Y-135809000D01*
X186076635Y-135666655D01*
X186145420Y-135597870D01*
X186189068Y-135615949D01*
X186561034Y-135615949D01*
X186904686Y-135473604D01*
X187167706Y-135210584D01*
X187310051Y-134866932D01*
X187310051Y-134820750D01*
X187707873Y-134422929D01*
X187771329Y-134380529D01*
X187939304Y-134129137D01*
X187983400Y-133907452D01*
X187983400Y-133907448D01*
X187998288Y-133832601D01*
X187983400Y-133757754D01*
X187983400Y-129665000D01*
X203252148Y-129665000D01*
X203327000Y-129679889D01*
X203401852Y-129665000D01*
X203773419Y-129665000D01*
X204053231Y-130083769D01*
X204209971Y-130188499D01*
X203838598Y-130589615D01*
X203641876Y-131064566D01*
X203761222Y-131317998D01*
X203745866Y-131317998D01*
X203340587Y-130912720D01*
X203294001Y-130842999D01*
X203017801Y-130658448D01*
X202774237Y-130610000D01*
X202774233Y-130610000D01*
X202692000Y-130593643D01*
X202609767Y-130610000D01*
X192540133Y-130610000D01*
X192412926Y-130482793D01*
X191995766Y-130310000D01*
X191544234Y-130310000D01*
X191127074Y-130482793D01*
X190807793Y-130802074D01*
X190635000Y-131219234D01*
X190635000Y-131399132D01*
X189819133Y-132215000D01*
X189639234Y-132215000D01*
X189222074Y-132387793D01*
X188902793Y-132707074D01*
X188730000Y-133124234D01*
X188730000Y-133575766D01*
X188902793Y-133992926D01*
X189222074Y-134312207D01*
X189639234Y-134485000D01*
X190090766Y-134485000D01*
X190507926Y-134312207D01*
X190827207Y-133992926D01*
X191000000Y-133575766D01*
X191000000Y-133395867D01*
X191815868Y-132580000D01*
X191995766Y-132580000D01*
X192412926Y-132407207D01*
X192540133Y-132280000D01*
X202346133Y-132280000D01*
X203645629Y-133579497D01*
X203564969Y-133985000D01*
X203691864Y-134622945D01*
X204053231Y-135163769D01*
X204189768Y-135255000D01*
X204053231Y-135346231D01*
X203691864Y-135887055D01*
X203564969Y-136525000D01*
X203691864Y-137162945D01*
X204053231Y-137703769D01*
X204594055Y-138065136D01*
X205070969Y-138160000D01*
X205393031Y-138160000D01*
X205869945Y-138065136D01*
X206410769Y-137703769D01*
X206772136Y-137162945D01*
X206899031Y-136525000D01*
X206772136Y-135887055D01*
X206410769Y-135346231D01*
X206274232Y-135255000D01*
X206410769Y-135163769D01*
X206772136Y-134622945D01*
X206899031Y-133985000D01*
X206772136Y-133347055D01*
X206410769Y-132806231D01*
X206254029Y-132701501D01*
X206625402Y-132300385D01*
X206822124Y-131825434D01*
X206702777Y-131572000D01*
X205359000Y-131572000D01*
X205359000Y-131592000D01*
X205105000Y-131592000D01*
X205105000Y-131572000D01*
X205085000Y-131572000D01*
X205085000Y-131318000D01*
X205105000Y-131318000D01*
X205105000Y-131298000D01*
X205359000Y-131298000D01*
X205359000Y-131318000D01*
X206702777Y-131318000D01*
X206822124Y-131064566D01*
X206625402Y-130589615D01*
X206254029Y-130188499D01*
X206410769Y-130083769D01*
X206772136Y-129542945D01*
X206899031Y-128905000D01*
X206772136Y-128267055D01*
X206410769Y-127726231D01*
X206274236Y-127635003D01*
X206618086Y-127291153D01*
X206867000Y-126690222D01*
X206867000Y-126039778D01*
X206798177Y-125873625D01*
X207621473Y-125050329D01*
X207684929Y-125007929D01*
X207763727Y-124890000D01*
X207852904Y-124756538D01*
X207894569Y-124547071D01*
X207897000Y-124534852D01*
X207897000Y-124534848D01*
X207911888Y-124460000D01*
X207897000Y-124385152D01*
X207897000Y-91464048D01*
X207911888Y-91389200D01*
X207897000Y-91314352D01*
X207897000Y-91314348D01*
X207852904Y-91092663D01*
X207852904Y-91092662D01*
X207727329Y-90904727D01*
X207684929Y-90841271D01*
X207621473Y-90798871D01*
X206798177Y-89975575D01*
X206867000Y-89809422D01*
X206867000Y-89158978D01*
X206618086Y-88558047D01*
X206158153Y-88098114D01*
X205557222Y-87849200D01*
X204906778Y-87849200D01*
X204305847Y-88098114D01*
X203845914Y-88558047D01*
X203597000Y-89158978D01*
X203597000Y-89809422D01*
X203845914Y-90410353D01*
X204189764Y-90754203D01*
X204053231Y-90845431D01*
X203691864Y-91386255D01*
X203564969Y-92024200D01*
X203691864Y-92662145D01*
X204053231Y-93202969D01*
X204209971Y-93307699D01*
X203838598Y-93708815D01*
X203641876Y-94183766D01*
X203761223Y-94437200D01*
X205105000Y-94437200D01*
X205105000Y-94417200D01*
X205359000Y-94417200D01*
X205359000Y-94437200D01*
X205379000Y-94437200D01*
X205379000Y-94691200D01*
X205359000Y-94691200D01*
X205359000Y-94711200D01*
X205105000Y-94711200D01*
X205105000Y-94691200D01*
X203761223Y-94691200D01*
X203641876Y-94944634D01*
X203838598Y-95419585D01*
X204209971Y-95820701D01*
X204053231Y-95925431D01*
X203691864Y-96466255D01*
X203564969Y-97104200D01*
X203645629Y-97509704D01*
X199628333Y-101527000D01*
X190254133Y-101527000D01*
X190126926Y-101399793D01*
X189709766Y-101227000D01*
X189258234Y-101227000D01*
X188841074Y-101399793D01*
X188521793Y-101719074D01*
X188349000Y-102136234D01*
X188349000Y-102587766D01*
X188521793Y-103004926D01*
X188841074Y-103324207D01*
X189258234Y-103497000D01*
X189709766Y-103497000D01*
X190126926Y-103324207D01*
X190254133Y-103197000D01*
X199891967Y-103197000D01*
X199974200Y-103213357D01*
X200056433Y-103197000D01*
X200056437Y-103197000D01*
X200300001Y-103148552D01*
X200576201Y-102964001D01*
X200622787Y-102894280D01*
X203616053Y-99901015D01*
X203691864Y-100282145D01*
X204053231Y-100822969D01*
X204594055Y-101184336D01*
X205070969Y-101279200D01*
X205393031Y-101279200D01*
X205869945Y-101184336D01*
X205926990Y-101146220D01*
X205926990Y-108025144D01*
X205926989Y-108025149D01*
X205926989Y-110262560D01*
X204382000Y-110262560D01*
X204134235Y-110311843D01*
X203924191Y-110452191D01*
X203783843Y-110662235D01*
X203734560Y-110910000D01*
X203734560Y-112610000D01*
X203783843Y-112857765D01*
X203924191Y-113067809D01*
X204134235Y-113208157D01*
X204179619Y-113217184D01*
X204161375Y-113229375D01*
X203833161Y-113720582D01*
X203717908Y-114300000D01*
X203833161Y-114879418D01*
X204161375Y-115370625D01*
X204459761Y-115570000D01*
X204161375Y-115769375D01*
X203833161Y-116260582D01*
X203717908Y-116840000D01*
X203833161Y-117419418D01*
X204161375Y-117910625D01*
X204480478Y-118123843D01*
X204350642Y-118184817D01*
X203960355Y-118613076D01*
X203790524Y-119023110D01*
X203911845Y-119253000D01*
X205105000Y-119253000D01*
X205105000Y-119233000D01*
X205359000Y-119233000D01*
X205359000Y-119253000D01*
X205379000Y-119253000D01*
X205379000Y-119507000D01*
X205359000Y-119507000D01*
X205359000Y-120700819D01*
X205588892Y-120821486D01*
X205926990Y-120662706D01*
X205926990Y-121420208D01*
X202842530Y-124504669D01*
X202779071Y-124547071D01*
X202611096Y-124798464D01*
X202567000Y-125020149D01*
X202567000Y-125020153D01*
X202552112Y-125095000D01*
X202567000Y-125169847D01*
X202567001Y-128145000D01*
X187983400Y-128145000D01*
X187983400Y-119736890D01*
X203790524Y-119736890D01*
X203960355Y-120146924D01*
X204350642Y-120575183D01*
X204875108Y-120821486D01*
X205105000Y-120700819D01*
X205105000Y-119507000D01*
X203911845Y-119507000D01*
X203790524Y-119736890D01*
X187983400Y-119736890D01*
X187983400Y-112269400D01*
X188320583Y-112269400D01*
X188664235Y-112127055D01*
X188927255Y-111864035D01*
X189069600Y-111520383D01*
X189069600Y-111148417D01*
X188927255Y-110804765D01*
X188664235Y-110541745D01*
X188320583Y-110399400D01*
X188274402Y-110399400D01*
X188144529Y-110269528D01*
X188102128Y-110206070D01*
X187850736Y-110038095D01*
X187629051Y-109993999D01*
X187629046Y-109993999D01*
X187554199Y-109979111D01*
X187479352Y-109993999D01*
X186983448Y-109993999D01*
X186908601Y-109979111D01*
X186833754Y-109993999D01*
X186833749Y-109993999D01*
X186612064Y-110038095D01*
X186360672Y-110206070D01*
X186318272Y-110269526D01*
X186307000Y-110280798D01*
X186307000Y-103759000D01*
X189738000Y-103759000D01*
X189738000Y-116586000D01*
X189747667Y-116634601D01*
X189775197Y-116675803D01*
X189816399Y-116703333D01*
X189865000Y-116713000D01*
X203200000Y-116713000D01*
X203248601Y-116703333D01*
X203289803Y-116675803D01*
X203317333Y-116634601D01*
X203327000Y-116586000D01*
X203327000Y-103759000D01*
X203317333Y-103710399D01*
X203289803Y-103669197D01*
X203248601Y-103641667D01*
X203200000Y-103632000D01*
X189865000Y-103632000D01*
X189816399Y-103641667D01*
X189775197Y-103669197D01*
X189747667Y-103710399D01*
X189738000Y-103759000D01*
X186307000Y-103759000D01*
X186307000Y-97290159D01*
X189829000Y-97290159D01*
X189829000Y-98079841D01*
X190131199Y-98809412D01*
X190689588Y-99367801D01*
X191419159Y-99670000D01*
X192208841Y-99670000D01*
X192938412Y-99367801D01*
X193496801Y-98809412D01*
X193799000Y-98079841D01*
X193799000Y-97290159D01*
X193496801Y-96560588D01*
X192938412Y-96002199D01*
X192208841Y-95700000D01*
X191419159Y-95700000D01*
X190689588Y-96002199D01*
X190131199Y-96560588D01*
X189829000Y-97290159D01*
X186307000Y-97290159D01*
X186307000Y-89976801D01*
X187464802Y-88819000D01*
X187510983Y-88819000D01*
X187854635Y-88676655D01*
X187887290Y-88644000D01*
X191187153Y-88644000D01*
X191262000Y-88658888D01*
X191336847Y-88644000D01*
X191336852Y-88644000D01*
X191558537Y-88599904D01*
X191809929Y-88431929D01*
X191852331Y-88368470D01*
X194195802Y-86025000D01*
X194241983Y-86025000D01*
X194585635Y-85882655D01*
X194848655Y-85619635D01*
X194991000Y-85275983D01*
X194991000Y-84904017D01*
X194848655Y-84560365D01*
X194585635Y-84297345D01*
X194241983Y-84155000D01*
X193870017Y-84155000D01*
X193526365Y-84297345D01*
X193263345Y-84560365D01*
X193121000Y-84904017D01*
X193121000Y-84950198D01*
X190947199Y-87124000D01*
X187887290Y-87124000D01*
X187854635Y-87091345D01*
X187510983Y-86949000D01*
X187139017Y-86949000D01*
X186795365Y-87091345D01*
X186532345Y-87354365D01*
X186390000Y-87698017D01*
X186390000Y-87744198D01*
X185062529Y-89071670D01*
X184999071Y-89114071D01*
X184831096Y-89365463D01*
X184787000Y-89587148D01*
X184787000Y-89587153D01*
X184772112Y-89662000D01*
X184787000Y-89736847D01*
X184787000Y-89863851D01*
X184787001Y-89863856D01*
X184787000Y-131751148D01*
X184787000Y-132281851D01*
X184787001Y-132281855D01*
X184787000Y-134311710D01*
X184754345Y-134344365D01*
X184612000Y-134688017D01*
X178007000Y-134688017D01*
X178007000Y-134479159D01*
X177704801Y-133749588D01*
X177146412Y-133191199D01*
X176416841Y-132889000D01*
X175627159Y-132889000D01*
X174897588Y-133191199D01*
X174339199Y-133749588D01*
X174037000Y-134479159D01*
X172610915Y-134479159D01*
X173665152Y-133648066D01*
X174660803Y-132647188D01*
X175529000Y-131533945D01*
X176257168Y-130324462D01*
X176834758Y-129036260D01*
X177253405Y-127687997D01*
X177507044Y-126299205D01*
X177592000Y-124890000D01*
X177589427Y-124644345D01*
X177474978Y-123237229D01*
X177192310Y-121854053D01*
X176745519Y-120514853D01*
X176141077Y-119239029D01*
X175387740Y-118045062D01*
X174496419Y-116950245D01*
X173480026Y-115970438D01*
X172353283Y-115119834D01*
X171136653Y-114413159D01*
X174037000Y-114413159D01*
X174037000Y-115202841D01*
X174339199Y-115932412D01*
X174897588Y-116490801D01*
X175627159Y-116793000D01*
X176416841Y-116793000D01*
X177146412Y-116490801D01*
X177704801Y-115932412D01*
X178007000Y-115202841D01*
X178007000Y-114413159D01*
X177704801Y-113683588D01*
X177146412Y-113125199D01*
X176416841Y-112823000D01*
X175627159Y-112823000D01*
X174897588Y-113125199D01*
X174339199Y-113683588D01*
X174037000Y-114413159D01*
X171136653Y-114413159D01*
X171132512Y-114410754D01*
X169835396Y-113853469D01*
X168480724Y-113456051D01*
X167088119Y-113224258D01*
X165677753Y-113161447D01*
X164270056Y-113268528D01*
X162885419Y-113543949D01*
X161543899Y-113983722D01*
X160264928Y-114581475D01*
X159067032Y-115328551D01*
X157967563Y-116214127D01*
X156982448Y-117225376D01*
X156125956Y-118347650D01*
X155410493Y-119564691D01*
X154846424Y-120858872D01*
X154441919Y-122211444D01*
X154202838Y-123602817D01*
X154132643Y-125012834D01*
X116153000Y-125012834D01*
X116153000Y-114413159D01*
X153971000Y-114413159D01*
X153971000Y-115202841D01*
X154273199Y-115932412D01*
X154831588Y-116490801D01*
X155561159Y-116793000D01*
X156350841Y-116793000D01*
X157080412Y-116490801D01*
X157638801Y-115932412D01*
X157941000Y-115202841D01*
X157941000Y-114413159D01*
X157638801Y-113683588D01*
X157080412Y-113125199D01*
X156350841Y-112823000D01*
X155561159Y-112823000D01*
X154831588Y-113125199D01*
X154273199Y-113683588D01*
X153971000Y-114413159D01*
X116153000Y-114413159D01*
X116153000Y-97290159D01*
X131829000Y-97290159D01*
X131829000Y-98079841D01*
X132131199Y-98809412D01*
X132689588Y-99367801D01*
X133419159Y-99670000D01*
X134208841Y-99670000D01*
X134938412Y-99367801D01*
X135496801Y-98809412D01*
X135799000Y-98079841D01*
X135799000Y-97290159D01*
X135496801Y-96560588D01*
X134938412Y-96002199D01*
X134208841Y-95700000D01*
X133419159Y-95700000D01*
X132689588Y-96002199D01*
X132131199Y-96560588D01*
X131829000Y-97290159D01*
X116153000Y-97290159D01*
X116153000Y-92502200D01*
X117002289Y-92502200D01*
X117129145Y-93139946D01*
X117490399Y-93680601D01*
X118031054Y-94041855D01*
X118507820Y-94136690D01*
X118829780Y-94136690D01*
X119306546Y-94041855D01*
X119847201Y-93680601D01*
X120208455Y-93139946D01*
X120335311Y-92502200D01*
X120208455Y-91864454D01*
X120190111Y-91837000D01*
X139450560Y-91837000D01*
X139450560Y-93837000D01*
X139499843Y-94084765D01*
X139514700Y-94107000D01*
X139499843Y-94129235D01*
X139450560Y-94377000D01*
X139450560Y-96377000D01*
X139499843Y-96624765D01*
X139640191Y-96834809D01*
X139850235Y-96975157D01*
X140098000Y-97024440D01*
X142098000Y-97024440D01*
X142345765Y-96975157D01*
X142555809Y-96834809D01*
X142696157Y-96624765D01*
X142745440Y-96377000D01*
X142745440Y-94377000D01*
X142696157Y-94129235D01*
X142681300Y-94107000D01*
X142696157Y-94084765D01*
X142745440Y-93837000D01*
X142745440Y-91837000D01*
X142696157Y-91589235D01*
X142555809Y-91379191D01*
X142345765Y-91238843D01*
X142098000Y-91189560D01*
X140098000Y-91189560D01*
X139850235Y-91238843D01*
X139640191Y-91379191D01*
X139499843Y-91589235D01*
X139450560Y-91837000D01*
X120190111Y-91837000D01*
X119978612Y-91520470D01*
X120027989Y-91500017D01*
X120206617Y-91321388D01*
X120303290Y-91087999D01*
X120303290Y-90247950D01*
X120144540Y-90089200D01*
X118795800Y-90089200D01*
X118795800Y-90109200D01*
X118541800Y-90109200D01*
X118541800Y-90089200D01*
X117193060Y-90089200D01*
X117034310Y-90247950D01*
X117034310Y-91087999D01*
X117130983Y-91321388D01*
X117309611Y-91500017D01*
X117358988Y-91520470D01*
X117129145Y-91864454D01*
X117002289Y-92502200D01*
X116153000Y-92502200D01*
X116153000Y-88836401D01*
X117034310Y-88836401D01*
X117034310Y-89676450D01*
X117193060Y-89835200D01*
X118541800Y-89835200D01*
X118541800Y-88486460D01*
X118795800Y-88486460D01*
X118795800Y-89835200D01*
X120144540Y-89835200D01*
X120303290Y-89676450D01*
X120303290Y-88836401D01*
X120206617Y-88603012D01*
X120027989Y-88424383D01*
X119794600Y-88327710D01*
X118954550Y-88327710D01*
X118795800Y-88486460D01*
X118541800Y-88486460D01*
X118383050Y-88327710D01*
X117543000Y-88327710D01*
X117309611Y-88424383D01*
X117130983Y-88603012D01*
X117034310Y-88836401D01*
X116153000Y-88836401D01*
X116153000Y-82700000D01*
X117002289Y-82700000D01*
X117129145Y-83337746D01*
X117490399Y-83878401D01*
X118031054Y-84239655D01*
X118507820Y-84334490D01*
X118829780Y-84334490D01*
X119306546Y-84239655D01*
X119847201Y-83878401D01*
X120208455Y-83337746D01*
X120335311Y-82700000D01*
X120208455Y-82062254D01*
X119977493Y-81716595D01*
X120126099Y-81617299D01*
X120266447Y-81407255D01*
X120294512Y-81266159D01*
X123994100Y-81266159D01*
X123994100Y-82055841D01*
X124296299Y-82785412D01*
X124854688Y-83343801D01*
X125584259Y-83646000D01*
X126373941Y-83646000D01*
X127103512Y-83343801D01*
X127661901Y-82785412D01*
X127841518Y-82351778D01*
X139463000Y-82351778D01*
X139463000Y-83002222D01*
X139711914Y-83603153D01*
X140055761Y-83947000D01*
X139711914Y-84290847D01*
X139463000Y-84891778D01*
X139463000Y-85542222D01*
X139711914Y-86143153D01*
X140171847Y-86603086D01*
X140772778Y-86852000D01*
X141423222Y-86852000D01*
X142024153Y-86603086D01*
X142375239Y-86252000D01*
X142447290Y-86252000D01*
X146412000Y-90216711D01*
X146412001Y-107721061D01*
X146391724Y-107823000D01*
X146472052Y-108226836D01*
X146632644Y-108467179D01*
X146700808Y-108569193D01*
X146787225Y-108626935D01*
X147212560Y-109052270D01*
X147212560Y-111736000D01*
X147261843Y-111983765D01*
X147402191Y-112193809D01*
X147612235Y-112334157D01*
X147860000Y-112383440D01*
X151860000Y-112383440D01*
X152107765Y-112334157D01*
X152317809Y-112193809D01*
X152458157Y-111983765D01*
X152507440Y-111736000D01*
X152507440Y-108736000D01*
X152458157Y-108488235D01*
X152317809Y-108278191D01*
X152107765Y-108137843D01*
X151860000Y-108088560D01*
X149176270Y-108088560D01*
X148482000Y-107394290D01*
X148482000Y-101050710D01*
X158327065Y-110895776D01*
X158384807Y-110982193D01*
X158633579Y-111148417D01*
X158727163Y-111210948D01*
X159131000Y-111291276D01*
X159232934Y-111271000D01*
X166516560Y-111271000D01*
X166516560Y-111736000D01*
X166565843Y-111983765D01*
X166706191Y-112193809D01*
X166916235Y-112334157D01*
X167164000Y-112383440D01*
X171164000Y-112383440D01*
X171411765Y-112334157D01*
X171621809Y-112193809D01*
X171762157Y-111983765D01*
X171811440Y-111736000D01*
X171811440Y-108736000D01*
X171762157Y-108488235D01*
X171621809Y-108278191D01*
X171411765Y-108137843D01*
X171164000Y-108088560D01*
X167164000Y-108088560D01*
X166916235Y-108137843D01*
X166706191Y-108278191D01*
X166565843Y-108488235D01*
X166516560Y-108736000D01*
X166516560Y-109201000D01*
X159559711Y-109201000D01*
X150133000Y-99774290D01*
X150133000Y-95844188D01*
X150233000Y-95602766D01*
X150233000Y-95151234D01*
X150060207Y-94734074D01*
X149740926Y-94414793D01*
X149323766Y-94242000D01*
X148872234Y-94242000D01*
X148482000Y-94403640D01*
X148482000Y-91837000D01*
X155450560Y-91837000D01*
X155450560Y-93837000D01*
X155499843Y-94084765D01*
X155514700Y-94107000D01*
X155499843Y-94129235D01*
X155450560Y-94377000D01*
X155450560Y-96377000D01*
X155499843Y-96624765D01*
X155640191Y-96834809D01*
X155850235Y-96975157D01*
X156098000Y-97024440D01*
X158098000Y-97024440D01*
X158345765Y-96975157D01*
X158555809Y-96834809D01*
X158696157Y-96624765D01*
X158745440Y-96377000D01*
X158745440Y-94377000D01*
X158696157Y-94129235D01*
X158681300Y-94107000D01*
X158696157Y-94084765D01*
X158738478Y-93872000D01*
X163728066Y-93872000D01*
X163830000Y-93892276D01*
X163931934Y-93872000D01*
X163931935Y-93872000D01*
X164233837Y-93811948D01*
X164576193Y-93583193D01*
X164633937Y-93496773D01*
X169823776Y-88306935D01*
X169910193Y-88249193D01*
X170138948Y-87906837D01*
X170199000Y-87604935D01*
X170199000Y-87604934D01*
X170219276Y-87503001D01*
X170199000Y-87401066D01*
X170199000Y-81266159D01*
X197913000Y-81266159D01*
X197913000Y-82055841D01*
X198215199Y-82785412D01*
X198773588Y-83343801D01*
X199503159Y-83646000D01*
X200292841Y-83646000D01*
X201022412Y-83343801D01*
X201580801Y-82785412D01*
X201678312Y-82550000D01*
X203564969Y-82550000D01*
X203691864Y-83187945D01*
X204053231Y-83728769D01*
X204594055Y-84090136D01*
X205070969Y-84185000D01*
X205393031Y-84185000D01*
X205869945Y-84090136D01*
X206410769Y-83728769D01*
X206772136Y-83187945D01*
X206899031Y-82550000D01*
X206772136Y-81912055D01*
X206541511Y-81566900D01*
X206689809Y-81467809D01*
X206830157Y-81257765D01*
X206879440Y-81010000D01*
X206879440Y-79010000D01*
X206830157Y-78762235D01*
X206689809Y-78552191D01*
X206479765Y-78411843D01*
X206232000Y-78362560D01*
X204232000Y-78362560D01*
X203984235Y-78411843D01*
X203774191Y-78552191D01*
X203633843Y-78762235D01*
X203584560Y-79010000D01*
X203584560Y-81010000D01*
X203633843Y-81257765D01*
X203774191Y-81467809D01*
X203922489Y-81566900D01*
X203691864Y-81912055D01*
X203564969Y-82550000D01*
X201678312Y-82550000D01*
X201883000Y-82055841D01*
X201883000Y-81266159D01*
X201580801Y-80536588D01*
X201022412Y-79978199D01*
X200292841Y-79676000D01*
X199503159Y-79676000D01*
X198773588Y-79978199D01*
X198215199Y-80536588D01*
X197913000Y-81266159D01*
X170199000Y-81266159D01*
X170199000Y-78939750D01*
X182744100Y-78939750D01*
X182744100Y-79780310D01*
X182840773Y-80013699D01*
X183019402Y-80192327D01*
X183252791Y-80289000D01*
X184093350Y-80289000D01*
X184252100Y-80130250D01*
X184252100Y-78781000D01*
X182902850Y-78781000D01*
X182744100Y-78939750D01*
X170199000Y-78939750D01*
X170199000Y-77527690D01*
X182744100Y-77527690D01*
X182744100Y-78368250D01*
X182902850Y-78527000D01*
X184252100Y-78527000D01*
X184252100Y-77177750D01*
X184506100Y-77177750D01*
X184506100Y-78527000D01*
X184526100Y-78527000D01*
X184526100Y-78781000D01*
X184506100Y-78781000D01*
X184506100Y-80130250D01*
X184664850Y-80289000D01*
X185505409Y-80289000D01*
X185738798Y-80192327D01*
X185917427Y-80013699D01*
X185931818Y-79978957D01*
X185992947Y-80040086D01*
X186593878Y-80289000D01*
X187244322Y-80289000D01*
X187845253Y-80040086D01*
X188189100Y-79696239D01*
X188532947Y-80040086D01*
X189133878Y-80289000D01*
X189784322Y-80289000D01*
X190385253Y-80040086D01*
X190845186Y-79580153D01*
X191094100Y-78979222D01*
X191094100Y-78328778D01*
X190845186Y-77727847D01*
X190385253Y-77267914D01*
X189784322Y-77019000D01*
X189133878Y-77019000D01*
X188532947Y-77267914D01*
X188189100Y-77611761D01*
X187845253Y-77267914D01*
X187244322Y-77019000D01*
X186593878Y-77019000D01*
X185992947Y-77267914D01*
X185931818Y-77329043D01*
X185917427Y-77294301D01*
X185738798Y-77115673D01*
X185505409Y-77019000D01*
X184664850Y-77019000D01*
X184506100Y-77177750D01*
X184252100Y-77177750D01*
X184093350Y-77019000D01*
X183252791Y-77019000D01*
X183019402Y-77115673D01*
X182840773Y-77294301D01*
X182744100Y-77527690D01*
X170199000Y-77527690D01*
X170199000Y-72251440D01*
X171164000Y-72251440D01*
X171411765Y-72202157D01*
X171621809Y-72061809D01*
X171762157Y-71851765D01*
X171811440Y-71604000D01*
X171811440Y-68820159D01*
X197913000Y-68820159D01*
X197913000Y-69609841D01*
X198215199Y-70339412D01*
X198773588Y-70897801D01*
X199503159Y-71200000D01*
X200292841Y-71200000D01*
X201022412Y-70897801D01*
X201580801Y-70339412D01*
X201883000Y-69609841D01*
X201883000Y-68820159D01*
X201580801Y-68090588D01*
X201022412Y-67532199D01*
X200292841Y-67230000D01*
X199503159Y-67230000D01*
X198773588Y-67532199D01*
X198215199Y-68090588D01*
X197913000Y-68820159D01*
X171811440Y-68820159D01*
X171811440Y-68604000D01*
X171762157Y-68356235D01*
X171621809Y-68146191D01*
X171411765Y-68005843D01*
X171164000Y-67956560D01*
X167164000Y-67956560D01*
X166916235Y-68005843D01*
X166706191Y-68146191D01*
X166565843Y-68356235D01*
X166516560Y-68604000D01*
X166516560Y-71604000D01*
X166565843Y-71851765D01*
X166706191Y-72061809D01*
X166916235Y-72202157D01*
X167164000Y-72251440D01*
X168129000Y-72251440D01*
X168129000Y-72447934D01*
X168129001Y-72447939D01*
X168129001Y-79406210D01*
X168122589Y-79390139D01*
X168089695Y-79338107D01*
X168067535Y-79280677D01*
X167983661Y-79170377D01*
X167699012Y-78863522D01*
X167649592Y-78826819D01*
X167608244Y-78781219D01*
X167490286Y-78708508D01*
X167114254Y-78524698D01*
X167054933Y-78508247D01*
X166999941Y-78480589D01*
X166863719Y-78455219D01*
X166863717Y-78455218D01*
X166863716Y-78455218D01*
X166446726Y-78419103D01*
X166385463Y-78425110D01*
X166324199Y-78419103D01*
X166187974Y-78444474D01*
X165785939Y-78560896D01*
X165730946Y-78588555D01*
X165671628Y-78605005D01*
X165553670Y-78677715D01*
X165220502Y-78931061D01*
X165179150Y-78976666D01*
X165129732Y-79013367D01*
X165045858Y-79123666D01*
X164826232Y-79479967D01*
X164804071Y-79537399D01*
X164771179Y-79589429D01*
X164732636Y-79722528D01*
X164656784Y-80129807D01*
X164644000Y-80194075D01*
X164644001Y-87064926D01*
X164650805Y-87099132D01*
X164669156Y-87286293D01*
X164677771Y-87316042D01*
X164677771Y-87347007D01*
X164716313Y-87480106D01*
X164871411Y-87868861D01*
X164904304Y-87920893D01*
X164926465Y-87978323D01*
X165010339Y-88088623D01*
X165294988Y-88395478D01*
X165344408Y-88432180D01*
X165385756Y-88477781D01*
X165503714Y-88550492D01*
X165879746Y-88734301D01*
X165939064Y-88750752D01*
X165994059Y-88778411D01*
X166130281Y-88803781D01*
X166130283Y-88803782D01*
X166130284Y-88803782D01*
X166378049Y-88825241D01*
X163401290Y-91802000D01*
X158738478Y-91802000D01*
X158696157Y-91589235D01*
X158555809Y-91379191D01*
X158345765Y-91238843D01*
X158098000Y-91189560D01*
X156098000Y-91189560D01*
X155850235Y-91238843D01*
X155640191Y-91379191D01*
X155499843Y-91589235D01*
X155450560Y-91837000D01*
X148482000Y-91837000D01*
X148482000Y-89889934D01*
X148502276Y-89787999D01*
X148421948Y-89384163D01*
X148250934Y-89128223D01*
X148193193Y-89041807D01*
X148106776Y-88984065D01*
X145492243Y-86369532D01*
X156125073Y-86369532D01*
X156223736Y-86636387D01*
X156833461Y-86862908D01*
X157483460Y-86838856D01*
X157972264Y-86636387D01*
X158070927Y-86369532D01*
X157098000Y-85396605D01*
X156125073Y-86369532D01*
X145492243Y-86369532D01*
X144075172Y-84952461D01*
X155452092Y-84952461D01*
X155476144Y-85602460D01*
X155678613Y-86091264D01*
X155945468Y-86189927D01*
X156918395Y-85217000D01*
X157277605Y-85217000D01*
X158250532Y-86189927D01*
X158517387Y-86091264D01*
X158743908Y-85481539D01*
X158719856Y-84831540D01*
X158517387Y-84342736D01*
X158250532Y-84244073D01*
X157277605Y-85217000D01*
X156918395Y-85217000D01*
X155945468Y-84244073D01*
X155678613Y-84342736D01*
X155452092Y-84952461D01*
X144075172Y-84952461D01*
X143679937Y-84557227D01*
X143622193Y-84470807D01*
X143279837Y-84242052D01*
X142977935Y-84182000D01*
X142977934Y-84182000D01*
X142876000Y-84161724D01*
X142774066Y-84182000D01*
X142375239Y-84182000D01*
X142140239Y-83947000D01*
X142257707Y-83829532D01*
X156125073Y-83829532D01*
X156168504Y-83947000D01*
X156125073Y-84064468D01*
X157098000Y-85037395D01*
X158070927Y-84064468D01*
X158027496Y-83947000D01*
X158070927Y-83829532D01*
X157098000Y-82856605D01*
X156125073Y-83829532D01*
X142257707Y-83829532D01*
X142484086Y-83603153D01*
X142733000Y-83002222D01*
X142733000Y-82412461D01*
X155452092Y-82412461D01*
X155476144Y-83062460D01*
X155678613Y-83551264D01*
X155945468Y-83649927D01*
X156918395Y-82677000D01*
X157277605Y-82677000D01*
X158250532Y-83649927D01*
X158517387Y-83551264D01*
X158743908Y-82941539D01*
X158719856Y-82291540D01*
X158517387Y-81802736D01*
X158250532Y-81704073D01*
X157277605Y-82677000D01*
X156918395Y-82677000D01*
X155945468Y-81704073D01*
X155678613Y-81802736D01*
X155452092Y-82412461D01*
X142733000Y-82412461D01*
X142733000Y-82351778D01*
X142484086Y-81750847D01*
X142257707Y-81524468D01*
X156125073Y-81524468D01*
X157098000Y-82497395D01*
X158070927Y-81524468D01*
X157972264Y-81257613D01*
X157362539Y-81031092D01*
X156712540Y-81055144D01*
X156223736Y-81257613D01*
X156125073Y-81524468D01*
X142257707Y-81524468D01*
X142024153Y-81290914D01*
X141423222Y-81042000D01*
X140772778Y-81042000D01*
X140171847Y-81290914D01*
X139711914Y-81750847D01*
X139463000Y-82351778D01*
X127841518Y-82351778D01*
X127964100Y-82055841D01*
X127964100Y-81266159D01*
X127661901Y-80536588D01*
X127103512Y-79978199D01*
X126373941Y-79676000D01*
X125584259Y-79676000D01*
X124854688Y-79978199D01*
X124296299Y-80536588D01*
X123994100Y-81266159D01*
X120294512Y-81266159D01*
X120315730Y-81159490D01*
X120315730Y-79160510D01*
X120266447Y-78912745D01*
X120126099Y-78702701D01*
X119916055Y-78562353D01*
X119668290Y-78513070D01*
X117669310Y-78513070D01*
X117421545Y-78562353D01*
X117211501Y-78702701D01*
X117071153Y-78912745D01*
X117021870Y-79160510D01*
X117021870Y-81159490D01*
X117071153Y-81407255D01*
X117211501Y-81617299D01*
X117360107Y-81716595D01*
X117129145Y-82062254D01*
X117002289Y-82700000D01*
X116153000Y-82700000D01*
X116153000Y-77654000D01*
X139331660Y-77654000D01*
X139331660Y-79654000D01*
X139380943Y-79901765D01*
X139521291Y-80111809D01*
X139731335Y-80252157D01*
X139979100Y-80301440D01*
X141979100Y-80301440D01*
X142226865Y-80252157D01*
X142436909Y-80111809D01*
X142577257Y-79901765D01*
X142583161Y-79872081D01*
X142631894Y-79920814D01*
X142746174Y-79806534D01*
X142844836Y-80073387D01*
X143454561Y-80299908D01*
X144104560Y-80275856D01*
X144593364Y-80073387D01*
X144692027Y-79806532D01*
X143719100Y-78833605D01*
X143704958Y-78847748D01*
X143525353Y-78668143D01*
X143539495Y-78654000D01*
X143898705Y-78654000D01*
X144871632Y-79626927D01*
X144906789Y-79613928D01*
X145332947Y-80040086D01*
X145933878Y-80289000D01*
X146584322Y-80289000D01*
X147185253Y-80040086D01*
X147645186Y-79580153D01*
X147894100Y-78979222D01*
X147894100Y-78328778D01*
X147645186Y-77727847D01*
X147185253Y-77267914D01*
X146584322Y-77019000D01*
X145933878Y-77019000D01*
X145332947Y-77267914D01*
X144906789Y-77694072D01*
X144871632Y-77681073D01*
X143898705Y-78654000D01*
X143539495Y-78654000D01*
X143525353Y-78639858D01*
X143704958Y-78460253D01*
X143719100Y-78474395D01*
X144692027Y-77501468D01*
X144593364Y-77234613D01*
X143983639Y-77008092D01*
X143333640Y-77032144D01*
X142844836Y-77234613D01*
X142746174Y-77501466D01*
X142631894Y-77387186D01*
X142583161Y-77435919D01*
X142577257Y-77406235D01*
X142436909Y-77196191D01*
X142226865Y-77055843D01*
X141979100Y-77006560D01*
X139979100Y-77006560D01*
X139731335Y-77055843D01*
X139521291Y-77196191D01*
X139380943Y-77406235D01*
X139331660Y-77654000D01*
X116153000Y-77654000D01*
X116153000Y-68820159D01*
X117012000Y-68820159D01*
X117012000Y-69609841D01*
X117314199Y-70339412D01*
X117872588Y-70897801D01*
X118602159Y-71200000D01*
X119391841Y-71200000D01*
X120121412Y-70897801D01*
X120629463Y-70389750D01*
X147225000Y-70389750D01*
X147225000Y-71730309D01*
X147321673Y-71963698D01*
X147500301Y-72142327D01*
X147733690Y-72239000D01*
X149574250Y-72239000D01*
X149733000Y-72080250D01*
X149733000Y-70231000D01*
X149987000Y-70231000D01*
X149987000Y-72080250D01*
X150145750Y-72239000D01*
X151986310Y-72239000D01*
X152219699Y-72142327D01*
X152398327Y-71963698D01*
X152495000Y-71730309D01*
X152495000Y-70389750D01*
X152336250Y-70231000D01*
X149987000Y-70231000D01*
X149733000Y-70231000D01*
X147383750Y-70231000D01*
X147225000Y-70389750D01*
X120629463Y-70389750D01*
X120679801Y-70339412D01*
X120982000Y-69609841D01*
X120982000Y-68820159D01*
X120840145Y-68477691D01*
X147225000Y-68477691D01*
X147225000Y-69818250D01*
X147383750Y-69977000D01*
X149733000Y-69977000D01*
X149733000Y-68127750D01*
X149987000Y-68127750D01*
X149987000Y-69977000D01*
X152336250Y-69977000D01*
X152495000Y-69818250D01*
X152495000Y-68477691D01*
X152398327Y-68244302D01*
X152219699Y-68065673D01*
X151986310Y-67969000D01*
X150145750Y-67969000D01*
X149987000Y-68127750D01*
X149733000Y-68127750D01*
X149574250Y-67969000D01*
X147733690Y-67969000D01*
X147500301Y-68065673D01*
X147321673Y-68244302D01*
X147225000Y-68477691D01*
X120840145Y-68477691D01*
X120679801Y-68090588D01*
X120121412Y-67532199D01*
X119391841Y-67230000D01*
X118602159Y-67230000D01*
X117872588Y-67532199D01*
X117314199Y-68090588D01*
X117012000Y-68820159D01*
X116153000Y-68820159D01*
X116153000Y-66242000D01*
X208633000Y-66242000D01*
X208633001Y-153214000D01*
G36*
X173137327Y-146521673D02*
X173381763Y-146685000D01*
X173137327Y-146848327D01*
X172967582Y-147102368D01*
X172941966Y-147047424D01*
X172554826Y-146692624D01*
X172810673Y-146521673D01*
X172974000Y-146277237D01*
X173137327Y-146521673D01*
X173137327Y-146521673D01*
G37*
X173137327Y-146521673D02*
X173381763Y-146685000D01*
X173137327Y-146848327D01*
X172967582Y-147102368D01*
X172941966Y-147047424D01*
X172554826Y-146692624D01*
X172810673Y-146521673D01*
X172974000Y-146277237D01*
X173137327Y-146521673D01*
G36*
X175546034Y-146322576D02*
X175933174Y-146677376D01*
X175677327Y-146848327D01*
X175514000Y-147092763D01*
X175350673Y-146848327D01*
X175106237Y-146685000D01*
X175350673Y-146521673D01*
X175520418Y-146267632D01*
X175546034Y-146322576D01*
X175546034Y-146322576D01*
G37*
X175546034Y-146322576D02*
X175933174Y-146677376D01*
X175677327Y-146848327D01*
X175514000Y-147092763D01*
X175350673Y-146848327D01*
X175106237Y-146685000D01*
X175350673Y-146521673D01*
X175520418Y-146267632D01*
X175546034Y-146322576D01*
G36*
X176911000Y-145288000D02*
X176931000Y-145288000D01*
X176931000Y-145542000D01*
X176911000Y-145542000D01*
X176911000Y-145562000D01*
X176657000Y-145562000D01*
X176657000Y-145542000D01*
X176637000Y-145542000D01*
X176637000Y-145288000D01*
X176657000Y-145288000D01*
X176657000Y-145268000D01*
X176911000Y-145268000D01*
X176911000Y-145288000D01*
X176911000Y-145288000D01*
G37*
X176911000Y-145288000D02*
X176931000Y-145288000D01*
X176931000Y-145542000D01*
X176911000Y-145542000D01*
X176911000Y-145562000D01*
X176657000Y-145562000D01*
X176657000Y-145542000D01*
X176637000Y-145542000D01*
X176637000Y-145288000D01*
X176657000Y-145288000D01*
X176657000Y-145268000D01*
X176911000Y-145268000D01*
X176911000Y-145288000D01*
G04 #@! TD*
M02*
