G04 #@! TF.GenerationSoftware,KiCad,Pcbnew,5.0.2-5.fc29*
G04 #@! TF.CreationDate,2019-08-22T23:49:55+02:00*
G04 #@! TF.ProjectId,backplane,6261636b-706c-4616-9e65-2e6b69636164,v2.1-1*
G04 #@! TF.SameCoordinates,Original*
G04 #@! TF.FileFunction,Profile,NP*
%FSLAX46Y46*%
G04 Gerber Fmt 4.6, Leading zero omitted, Abs format (unit mm)*
G04 Created by KiCad (PCBNEW 5.0.2-5.fc29) date Thu 22 Aug 2019 11:49:55 PM CEST*
%MOMM*%
%LPD*%
G01*
G04 APERTURE LIST*
%ADD10C,0.150000*%
G04 APERTURE END LIST*
D10*
X167640000Y-86995000D02*
G75*
G02X165354000Y-86995000I-1143000J0D01*
G01*
X167640000Y-80264000D02*
X167640000Y-86995000D01*
X165354000Y-80264000D02*
G75*
G02X167640000Y-80264000I1143000J0D01*
G01*
X165354000Y-80264000D02*
X165354000Y-86995000D01*
X176862000Y-124890000D02*
G75*
G03X176862000Y-124890000I-11000000J0D01*
G01*
X202438000Y-104578000D02*
X202438000Y-107442000D01*
X201168000Y-105848000D02*
X201168000Y-107442000D01*
X202438000Y-112903000D02*
X202438000Y-115754000D01*
X201168000Y-112903000D02*
X201168000Y-114484000D01*
X190827000Y-108134000D02*
X190827000Y-104578000D01*
X192097000Y-105848000D02*
X192097000Y-108134000D01*
X190827000Y-112198000D02*
X190827000Y-115754000D01*
X192097000Y-114484000D02*
X192097000Y-112198000D01*
X192097000Y-112198000D02*
G75*
G03X190827000Y-112198000I-635000J-635000D01*
G01*
X190827000Y-108134000D02*
G75*
G03X192097000Y-108134000I635000J635000D01*
G01*
X202438000Y-112903000D02*
G75*
G03X201168000Y-112903000I-635000J-635000D01*
G01*
X201168000Y-107442000D02*
G75*
G03X202438000Y-107442000I635000J635000D01*
G01*
X190827000Y-104578000D02*
X202438000Y-104578000D01*
X202438000Y-115754000D02*
X190827000Y-115754000D01*
X201168000Y-114484000D02*
X192097000Y-114484000D01*
X192605000Y-105848000D02*
X192097000Y-105848000D01*
X201168000Y-105848000D02*
X192605000Y-105848000D01*
X209343000Y-153924000D02*
X202438000Y-153924000D01*
X209343000Y-65532000D02*
X209343000Y-153924000D01*
X115443000Y-65532000D02*
X209343000Y-65532000D01*
X115443000Y-153924000D02*
X115443000Y-65532000D01*
X193548000Y-153924000D02*
X115443000Y-153924000D01*
X193548000Y-153924000D02*
X202438000Y-153924000D01*
M02*
