M48
;DRILL file {KiCad 5.0.2-5.fc29} date Thu 22 Aug 2019 11:51:06 PM CEST
;FORMAT={-:-/ absolute / metric / decimal}
FMAT,2
METRIC,TZ
T1C0.400
T2C0.600
T3C0.762
T4C0.800
T5C0.900
T6C1.000
T7C1.097
%
G90
G05
T1
X185.547Y-134.874
X186.309Y-111.354
X186.309Y-133.096
X186.375Y-134.681
X187.223Y-111.379
X187.325Y-87.884
X188.135Y-111.334
X188.15Y-113.919
X189.357Y-111.379
X194.056Y-85.09
X123.444Y-104.775
X118.618Y-86.487
X202.692Y-117.475
X205.232Y-140.081
X194.691Y-143.891
X191.389Y-137.795
X123.444Y-78.994
X205.359Y-150.368
X175.641Y-90.805
X119.126Y-146.177
X205.359Y-69.342
X202.692Y-102.87
X132.969Y-88.9
X141.986Y-126.238
T2
X171.196Y-100.838
X200.66Y-127.
T3
X149.86Y-70.104
X149.86Y-110.236
X169.164Y-70.104
X169.164Y-110.236
T4
X149.098Y-95.377
X189.484Y-102.362
X189.865Y-133.35
X191.77Y-131.445
T5
X205.232Y-80.01
X205.232Y-82.55
X138.679Y-139.954
X140.979Y-78.654
X141.219Y-139.954
X143.719Y-78.654
X143.759Y-139.954
X146.259Y-78.654
X146.299Y-139.954
X148.839Y-139.954
X151.379Y-139.954
X153.919Y-139.954
X156.459Y-139.954
X158.999Y-139.954
X161.539Y-139.954
X164.079Y-139.954
X166.619Y-139.954
X169.159Y-139.954
X171.699Y-139.954
X174.239Y-139.954
X176.779Y-139.954
X179.319Y-139.954
X181.859Y-139.954
X184.379Y-78.654
X184.399Y-139.954
X186.919Y-78.654
X186.939Y-139.954
X189.459Y-78.654
X205.232Y-89.484
X205.232Y-92.024
X205.232Y-94.564
X205.232Y-97.104
X205.232Y-99.644
X205.232Y-143.891
X205.232Y-146.431
X205.232Y-126.365
X205.232Y-128.905
X205.232Y-131.445
X205.232Y-133.985
X205.232Y-136.525
T6
X141.098Y-82.677
X141.098Y-85.217
X141.098Y-92.837
X141.098Y-95.377
X157.098Y-82.677
X157.098Y-85.217
X157.098Y-92.837
X157.098Y-95.377
X138.684Y-145.415
X138.684Y-147.955
X141.224Y-145.415
X141.224Y-147.955
X143.764Y-145.415
X143.764Y-147.955
X146.304Y-145.415
X146.304Y-147.955
X148.844Y-145.415
X148.844Y-147.955
X151.384Y-145.415
X151.384Y-147.955
X153.924Y-145.415
X153.924Y-147.955
X156.464Y-145.415
X156.464Y-147.955
X159.004Y-145.415
X159.004Y-147.955
X161.544Y-145.415
X161.544Y-147.955
X164.084Y-145.415
X164.084Y-147.955
X166.624Y-145.415
X166.624Y-147.955
X169.164Y-145.415
X169.164Y-147.955
X171.704Y-145.415
X171.704Y-147.955
X174.244Y-145.415
X174.244Y-147.955
X176.784Y-145.415
X176.784Y-147.955
X179.324Y-145.415
X179.324Y-147.955
X181.864Y-145.415
X181.864Y-147.955
X184.404Y-145.415
X184.404Y-147.955
X186.944Y-145.415
X186.944Y-147.955
X198.882Y-144.78
X205.232Y-111.76
X205.232Y-114.3
X205.232Y-116.84
X205.232Y-119.38
T7
X118.669Y-89.962
X118.669Y-92.502
X118.669Y-80.16
X118.669Y-82.7
T0
M30
