G04 #@! TF.GenerationSoftware,KiCad,Pcbnew,5.0.2-5.fc29*
G04 #@! TF.CreationDate,2019-08-22T23:49:55+02:00*
G04 #@! TF.ProjectId,backplane,6261636b-706c-4616-9e65-2e6b69636164,v2.1-1*
G04 #@! TF.SameCoordinates,Original*
G04 #@! TF.FileFunction,Soldermask,Bot*
G04 #@! TF.FilePolarity,Negative*
%FSLAX46Y46*%
G04 Gerber Fmt 4.6, Leading zero omitted, Abs format (unit mm)*
G04 Created by KiCad (PCBNEW 5.0.2-5.fc29) date Thu 22 Aug 2019 11:49:55 PM CEST*
%MOMM*%
%LPD*%
G01*
G04 APERTURE LIST*
%ADD10C,0.100000*%
G04 APERTURE END LIST*
D10*
G36*
X200150481Y-148859855D02*
X200350118Y-148899565D01*
X200535091Y-148976184D01*
X200632201Y-149016408D01*
X200886071Y-149186038D01*
X201101962Y-149401929D01*
X201271592Y-149655799D01*
X201271592Y-149655800D01*
X201388435Y-149937882D01*
X201448000Y-150237338D01*
X201448000Y-150542662D01*
X201388435Y-150842118D01*
X201310540Y-151030173D01*
X201271592Y-151124201D01*
X201101962Y-151378071D01*
X200886071Y-151593962D01*
X200632201Y-151763592D01*
X200538173Y-151802540D01*
X200350118Y-151880435D01*
X200150481Y-151920145D01*
X200050663Y-151940000D01*
X199745337Y-151940000D01*
X199645519Y-151920145D01*
X199445882Y-151880435D01*
X199257827Y-151802540D01*
X199163799Y-151763592D01*
X198909929Y-151593962D01*
X198694038Y-151378071D01*
X198524408Y-151124201D01*
X198485460Y-151030173D01*
X198407565Y-150842118D01*
X198348000Y-150542662D01*
X198348000Y-150237338D01*
X198407565Y-149937882D01*
X198524408Y-149655800D01*
X198524408Y-149655799D01*
X198694038Y-149401929D01*
X198909929Y-149186038D01*
X199163799Y-149016408D01*
X199260909Y-148976184D01*
X199445882Y-148899565D01*
X199645519Y-148859855D01*
X199745337Y-148840000D01*
X200050663Y-148840000D01*
X200150481Y-148859855D01*
X200150481Y-148859855D01*
G37*
G36*
X119249481Y-148859855D02*
X119449118Y-148899565D01*
X119634091Y-148976184D01*
X119731201Y-149016408D01*
X119985071Y-149186038D01*
X120200962Y-149401929D01*
X120370592Y-149655799D01*
X120370592Y-149655800D01*
X120487435Y-149937882D01*
X120547000Y-150237338D01*
X120547000Y-150542662D01*
X120487435Y-150842118D01*
X120409540Y-151030173D01*
X120370592Y-151124201D01*
X120200962Y-151378071D01*
X119985071Y-151593962D01*
X119731201Y-151763592D01*
X119637173Y-151802540D01*
X119449118Y-151880435D01*
X119249481Y-151920145D01*
X119149663Y-151940000D01*
X118844337Y-151940000D01*
X118744519Y-151920145D01*
X118544882Y-151880435D01*
X118356827Y-151802540D01*
X118262799Y-151763592D01*
X118008929Y-151593962D01*
X117793038Y-151378071D01*
X117623408Y-151124201D01*
X117584460Y-151030173D01*
X117506565Y-150842118D01*
X117447000Y-150542662D01*
X117447000Y-150237338D01*
X117506565Y-149937882D01*
X117623408Y-149655800D01*
X117623408Y-149655799D01*
X117793038Y-149401929D01*
X118008929Y-149186038D01*
X118262799Y-149016408D01*
X118359909Y-148976184D01*
X118544882Y-148899565D01*
X118744519Y-148859855D01*
X118844337Y-148840000D01*
X119149663Y-148840000D01*
X119249481Y-148859855D01*
X119249481Y-148859855D01*
G37*
G36*
X176999639Y-146870916D02*
X177206986Y-146933815D01*
X177206988Y-146933816D01*
X177398084Y-147035958D01*
X177565581Y-147173419D01*
X177703042Y-147340916D01*
X177805184Y-147532012D01*
X177805185Y-147532014D01*
X177847974Y-147673068D01*
X177868084Y-147739362D01*
X177889322Y-147955000D01*
X177868084Y-148170638D01*
X177805184Y-148377988D01*
X177703042Y-148569084D01*
X177565581Y-148736581D01*
X177398084Y-148874042D01*
X177206988Y-148976184D01*
X177206986Y-148976185D01*
X176999639Y-149039084D01*
X176838038Y-149055000D01*
X176729962Y-149055000D01*
X176568361Y-149039084D01*
X176361014Y-148976185D01*
X176361012Y-148976184D01*
X176169916Y-148874042D01*
X176002419Y-148736581D01*
X175864958Y-148569084D01*
X175762816Y-148377988D01*
X175699916Y-148170638D01*
X175678678Y-147955000D01*
X175699916Y-147739362D01*
X175720026Y-147673068D01*
X175762815Y-147532014D01*
X175762816Y-147532012D01*
X175864958Y-147340916D01*
X176002419Y-147173419D01*
X176169916Y-147035958D01*
X176361012Y-146933816D01*
X176361014Y-146933815D01*
X176568361Y-146870916D01*
X176729962Y-146855000D01*
X176838038Y-146855000D01*
X176999639Y-146870916D01*
X176999639Y-146870916D01*
G37*
G36*
X166839639Y-146870916D02*
X167046986Y-146933815D01*
X167046988Y-146933816D01*
X167238084Y-147035958D01*
X167405581Y-147173419D01*
X167543042Y-147340916D01*
X167645184Y-147532012D01*
X167645185Y-147532014D01*
X167687974Y-147673068D01*
X167708084Y-147739362D01*
X167729322Y-147955000D01*
X167708084Y-148170638D01*
X167645184Y-148377988D01*
X167543042Y-148569084D01*
X167405581Y-148736581D01*
X167238084Y-148874042D01*
X167046988Y-148976184D01*
X167046986Y-148976185D01*
X166839639Y-149039084D01*
X166678038Y-149055000D01*
X166569962Y-149055000D01*
X166408361Y-149039084D01*
X166201014Y-148976185D01*
X166201012Y-148976184D01*
X166009916Y-148874042D01*
X165842419Y-148736581D01*
X165704958Y-148569084D01*
X165602816Y-148377988D01*
X165539916Y-148170638D01*
X165518678Y-147955000D01*
X165539916Y-147739362D01*
X165560026Y-147673068D01*
X165602815Y-147532014D01*
X165602816Y-147532012D01*
X165704958Y-147340916D01*
X165842419Y-147173419D01*
X166009916Y-147035958D01*
X166201012Y-146933816D01*
X166201014Y-146933815D01*
X166408361Y-146870916D01*
X166569962Y-146855000D01*
X166678038Y-146855000D01*
X166839639Y-146870916D01*
X166839639Y-146870916D01*
G37*
G36*
X169379639Y-146870916D02*
X169586986Y-146933815D01*
X169586988Y-146933816D01*
X169778084Y-147035958D01*
X169945581Y-147173419D01*
X170083042Y-147340916D01*
X170185184Y-147532012D01*
X170185185Y-147532014D01*
X170227974Y-147673068D01*
X170248084Y-147739362D01*
X170269322Y-147955000D01*
X170248084Y-148170638D01*
X170185184Y-148377988D01*
X170083042Y-148569084D01*
X169945581Y-148736581D01*
X169778084Y-148874042D01*
X169586988Y-148976184D01*
X169586986Y-148976185D01*
X169379639Y-149039084D01*
X169218038Y-149055000D01*
X169109962Y-149055000D01*
X168948361Y-149039084D01*
X168741014Y-148976185D01*
X168741012Y-148976184D01*
X168549916Y-148874042D01*
X168382419Y-148736581D01*
X168244958Y-148569084D01*
X168142816Y-148377988D01*
X168079916Y-148170638D01*
X168058678Y-147955000D01*
X168079916Y-147739362D01*
X168100026Y-147673068D01*
X168142815Y-147532014D01*
X168142816Y-147532012D01*
X168244958Y-147340916D01*
X168382419Y-147173419D01*
X168549916Y-147035958D01*
X168741012Y-146933816D01*
X168741014Y-146933815D01*
X168948361Y-146870916D01*
X169109962Y-146855000D01*
X169218038Y-146855000D01*
X169379639Y-146870916D01*
X169379639Y-146870916D01*
G37*
G36*
X171919639Y-146870916D02*
X172126986Y-146933815D01*
X172126988Y-146933816D01*
X172318084Y-147035958D01*
X172485581Y-147173419D01*
X172623042Y-147340916D01*
X172725184Y-147532012D01*
X172725185Y-147532014D01*
X172767974Y-147673068D01*
X172788084Y-147739362D01*
X172809322Y-147955000D01*
X172788084Y-148170638D01*
X172725184Y-148377988D01*
X172623042Y-148569084D01*
X172485581Y-148736581D01*
X172318084Y-148874042D01*
X172126988Y-148976184D01*
X172126986Y-148976185D01*
X171919639Y-149039084D01*
X171758038Y-149055000D01*
X171649962Y-149055000D01*
X171488361Y-149039084D01*
X171281014Y-148976185D01*
X171281012Y-148976184D01*
X171089916Y-148874042D01*
X170922419Y-148736581D01*
X170784958Y-148569084D01*
X170682816Y-148377988D01*
X170619916Y-148170638D01*
X170598678Y-147955000D01*
X170619916Y-147739362D01*
X170640026Y-147673068D01*
X170682815Y-147532014D01*
X170682816Y-147532012D01*
X170784958Y-147340916D01*
X170922419Y-147173419D01*
X171089916Y-147035958D01*
X171281012Y-146933816D01*
X171281014Y-146933815D01*
X171488361Y-146870916D01*
X171649962Y-146855000D01*
X171758038Y-146855000D01*
X171919639Y-146870916D01*
X171919639Y-146870916D01*
G37*
G36*
X174459639Y-146870916D02*
X174666986Y-146933815D01*
X174666988Y-146933816D01*
X174858084Y-147035958D01*
X175025581Y-147173419D01*
X175163042Y-147340916D01*
X175265184Y-147532012D01*
X175265185Y-147532014D01*
X175307974Y-147673068D01*
X175328084Y-147739362D01*
X175349322Y-147955000D01*
X175328084Y-148170638D01*
X175265184Y-148377988D01*
X175163042Y-148569084D01*
X175025581Y-148736581D01*
X174858084Y-148874042D01*
X174666988Y-148976184D01*
X174666986Y-148976185D01*
X174459639Y-149039084D01*
X174298038Y-149055000D01*
X174189962Y-149055000D01*
X174028361Y-149039084D01*
X173821014Y-148976185D01*
X173821012Y-148976184D01*
X173629916Y-148874042D01*
X173462419Y-148736581D01*
X173324958Y-148569084D01*
X173222816Y-148377988D01*
X173159916Y-148170638D01*
X173138678Y-147955000D01*
X173159916Y-147739362D01*
X173180026Y-147673068D01*
X173222815Y-147532014D01*
X173222816Y-147532012D01*
X173324958Y-147340916D01*
X173462419Y-147173419D01*
X173629916Y-147035958D01*
X173821012Y-146933816D01*
X173821014Y-146933815D01*
X174028361Y-146870916D01*
X174189962Y-146855000D01*
X174298038Y-146855000D01*
X174459639Y-146870916D01*
X174459639Y-146870916D01*
G37*
G36*
X179539639Y-146870916D02*
X179746986Y-146933815D01*
X179746988Y-146933816D01*
X179938084Y-147035958D01*
X180105581Y-147173419D01*
X180243042Y-147340916D01*
X180345184Y-147532012D01*
X180345185Y-147532014D01*
X180387974Y-147673068D01*
X180408084Y-147739362D01*
X180429322Y-147955000D01*
X180408084Y-148170638D01*
X180345184Y-148377988D01*
X180243042Y-148569084D01*
X180105581Y-148736581D01*
X179938084Y-148874042D01*
X179746988Y-148976184D01*
X179746986Y-148976185D01*
X179539639Y-149039084D01*
X179378038Y-149055000D01*
X179269962Y-149055000D01*
X179108361Y-149039084D01*
X178901014Y-148976185D01*
X178901012Y-148976184D01*
X178709916Y-148874042D01*
X178542419Y-148736581D01*
X178404958Y-148569084D01*
X178302816Y-148377988D01*
X178239916Y-148170638D01*
X178218678Y-147955000D01*
X178239916Y-147739362D01*
X178260026Y-147673068D01*
X178302815Y-147532014D01*
X178302816Y-147532012D01*
X178404958Y-147340916D01*
X178542419Y-147173419D01*
X178709916Y-147035958D01*
X178901012Y-146933816D01*
X178901014Y-146933815D01*
X179108361Y-146870916D01*
X179269962Y-146855000D01*
X179378038Y-146855000D01*
X179539639Y-146870916D01*
X179539639Y-146870916D01*
G37*
G36*
X182079639Y-146870916D02*
X182286986Y-146933815D01*
X182286988Y-146933816D01*
X182478084Y-147035958D01*
X182645581Y-147173419D01*
X182783042Y-147340916D01*
X182885184Y-147532012D01*
X182885185Y-147532014D01*
X182927974Y-147673068D01*
X182948084Y-147739362D01*
X182969322Y-147955000D01*
X182948084Y-148170638D01*
X182885184Y-148377988D01*
X182783042Y-148569084D01*
X182645581Y-148736581D01*
X182478084Y-148874042D01*
X182286988Y-148976184D01*
X182286986Y-148976185D01*
X182079639Y-149039084D01*
X181918038Y-149055000D01*
X181809962Y-149055000D01*
X181648361Y-149039084D01*
X181441014Y-148976185D01*
X181441012Y-148976184D01*
X181249916Y-148874042D01*
X181082419Y-148736581D01*
X180944958Y-148569084D01*
X180842816Y-148377988D01*
X180779916Y-148170638D01*
X180758678Y-147955000D01*
X180779916Y-147739362D01*
X180800026Y-147673068D01*
X180842815Y-147532014D01*
X180842816Y-147532012D01*
X180944958Y-147340916D01*
X181082419Y-147173419D01*
X181249916Y-147035958D01*
X181441012Y-146933816D01*
X181441014Y-146933815D01*
X181648361Y-146870916D01*
X181809962Y-146855000D01*
X181918038Y-146855000D01*
X182079639Y-146870916D01*
X182079639Y-146870916D01*
G37*
G36*
X184619639Y-146870916D02*
X184826986Y-146933815D01*
X184826988Y-146933816D01*
X185018084Y-147035958D01*
X185185581Y-147173419D01*
X185323042Y-147340916D01*
X185425184Y-147532012D01*
X185425185Y-147532014D01*
X185467974Y-147673068D01*
X185488084Y-147739362D01*
X185509322Y-147955000D01*
X185488084Y-148170638D01*
X185425184Y-148377988D01*
X185323042Y-148569084D01*
X185185581Y-148736581D01*
X185018084Y-148874042D01*
X184826988Y-148976184D01*
X184826986Y-148976185D01*
X184619639Y-149039084D01*
X184458038Y-149055000D01*
X184349962Y-149055000D01*
X184188361Y-149039084D01*
X183981014Y-148976185D01*
X183981012Y-148976184D01*
X183789916Y-148874042D01*
X183622419Y-148736581D01*
X183484958Y-148569084D01*
X183382816Y-148377988D01*
X183319916Y-148170638D01*
X183298678Y-147955000D01*
X183319916Y-147739362D01*
X183340026Y-147673068D01*
X183382815Y-147532014D01*
X183382816Y-147532012D01*
X183484958Y-147340916D01*
X183622419Y-147173419D01*
X183789916Y-147035958D01*
X183981012Y-146933816D01*
X183981014Y-146933815D01*
X184188361Y-146870916D01*
X184349962Y-146855000D01*
X184458038Y-146855000D01*
X184619639Y-146870916D01*
X184619639Y-146870916D01*
G37*
G36*
X187159639Y-146870916D02*
X187366986Y-146933815D01*
X187366988Y-146933816D01*
X187558084Y-147035958D01*
X187725581Y-147173419D01*
X187863042Y-147340916D01*
X187965184Y-147532012D01*
X187965185Y-147532014D01*
X188007974Y-147673068D01*
X188028084Y-147739362D01*
X188049322Y-147955000D01*
X188028084Y-148170638D01*
X187965184Y-148377988D01*
X187863042Y-148569084D01*
X187725581Y-148736581D01*
X187558084Y-148874042D01*
X187366988Y-148976184D01*
X187366986Y-148976185D01*
X187159639Y-149039084D01*
X186998038Y-149055000D01*
X186889962Y-149055000D01*
X186728361Y-149039084D01*
X186521014Y-148976185D01*
X186521012Y-148976184D01*
X186329916Y-148874042D01*
X186162419Y-148736581D01*
X186024958Y-148569084D01*
X185922816Y-148377988D01*
X185859916Y-148170638D01*
X185838678Y-147955000D01*
X185859916Y-147739362D01*
X185880026Y-147673068D01*
X185922815Y-147532014D01*
X185922816Y-147532012D01*
X186024958Y-147340916D01*
X186162419Y-147173419D01*
X186329916Y-147035958D01*
X186521012Y-146933816D01*
X186521014Y-146933815D01*
X186728361Y-146870916D01*
X186889962Y-146855000D01*
X186998038Y-146855000D01*
X187159639Y-146870916D01*
X187159639Y-146870916D01*
G37*
G36*
X164299639Y-146870916D02*
X164506986Y-146933815D01*
X164506988Y-146933816D01*
X164698084Y-147035958D01*
X164865581Y-147173419D01*
X165003042Y-147340916D01*
X165105184Y-147532012D01*
X165105185Y-147532014D01*
X165147974Y-147673068D01*
X165168084Y-147739362D01*
X165189322Y-147955000D01*
X165168084Y-148170638D01*
X165105184Y-148377988D01*
X165003042Y-148569084D01*
X164865581Y-148736581D01*
X164698084Y-148874042D01*
X164506988Y-148976184D01*
X164506986Y-148976185D01*
X164299639Y-149039084D01*
X164138038Y-149055000D01*
X164029962Y-149055000D01*
X163868361Y-149039084D01*
X163661014Y-148976185D01*
X163661012Y-148976184D01*
X163469916Y-148874042D01*
X163302419Y-148736581D01*
X163164958Y-148569084D01*
X163062816Y-148377988D01*
X162999916Y-148170638D01*
X162978678Y-147955000D01*
X162999916Y-147739362D01*
X163020026Y-147673068D01*
X163062815Y-147532014D01*
X163062816Y-147532012D01*
X163164958Y-147340916D01*
X163302419Y-147173419D01*
X163469916Y-147035958D01*
X163661012Y-146933816D01*
X163661014Y-146933815D01*
X163868361Y-146870916D01*
X164029962Y-146855000D01*
X164138038Y-146855000D01*
X164299639Y-146870916D01*
X164299639Y-146870916D01*
G37*
G36*
X149059639Y-146870916D02*
X149266986Y-146933815D01*
X149266988Y-146933816D01*
X149458084Y-147035958D01*
X149625581Y-147173419D01*
X149763042Y-147340916D01*
X149865184Y-147532012D01*
X149865185Y-147532014D01*
X149907974Y-147673068D01*
X149928084Y-147739362D01*
X149949322Y-147955000D01*
X149928084Y-148170638D01*
X149865184Y-148377988D01*
X149763042Y-148569084D01*
X149625581Y-148736581D01*
X149458084Y-148874042D01*
X149266988Y-148976184D01*
X149266986Y-148976185D01*
X149059639Y-149039084D01*
X148898038Y-149055000D01*
X148789962Y-149055000D01*
X148628361Y-149039084D01*
X148421014Y-148976185D01*
X148421012Y-148976184D01*
X148229916Y-148874042D01*
X148062419Y-148736581D01*
X147924958Y-148569084D01*
X147822816Y-148377988D01*
X147759916Y-148170638D01*
X147738678Y-147955000D01*
X147759916Y-147739362D01*
X147780026Y-147673068D01*
X147822815Y-147532014D01*
X147822816Y-147532012D01*
X147924958Y-147340916D01*
X148062419Y-147173419D01*
X148229916Y-147035958D01*
X148421012Y-146933816D01*
X148421014Y-146933815D01*
X148628361Y-146870916D01*
X148789962Y-146855000D01*
X148898038Y-146855000D01*
X149059639Y-146870916D01*
X149059639Y-146870916D01*
G37*
G36*
X146519639Y-146870916D02*
X146726986Y-146933815D01*
X146726988Y-146933816D01*
X146918084Y-147035958D01*
X147085581Y-147173419D01*
X147223042Y-147340916D01*
X147325184Y-147532012D01*
X147325185Y-147532014D01*
X147367974Y-147673068D01*
X147388084Y-147739362D01*
X147409322Y-147955000D01*
X147388084Y-148170638D01*
X147325184Y-148377988D01*
X147223042Y-148569084D01*
X147085581Y-148736581D01*
X146918084Y-148874042D01*
X146726988Y-148976184D01*
X146726986Y-148976185D01*
X146519639Y-149039084D01*
X146358038Y-149055000D01*
X146249962Y-149055000D01*
X146088361Y-149039084D01*
X145881014Y-148976185D01*
X145881012Y-148976184D01*
X145689916Y-148874042D01*
X145522419Y-148736581D01*
X145384958Y-148569084D01*
X145282816Y-148377988D01*
X145219916Y-148170638D01*
X145198678Y-147955000D01*
X145219916Y-147739362D01*
X145240026Y-147673068D01*
X145282815Y-147532014D01*
X145282816Y-147532012D01*
X145384958Y-147340916D01*
X145522419Y-147173419D01*
X145689916Y-147035958D01*
X145881012Y-146933816D01*
X145881014Y-146933815D01*
X146088361Y-146870916D01*
X146249962Y-146855000D01*
X146358038Y-146855000D01*
X146519639Y-146870916D01*
X146519639Y-146870916D01*
G37*
G36*
X143979639Y-146870916D02*
X144186986Y-146933815D01*
X144186988Y-146933816D01*
X144378084Y-147035958D01*
X144545581Y-147173419D01*
X144683042Y-147340916D01*
X144785184Y-147532012D01*
X144785185Y-147532014D01*
X144827974Y-147673068D01*
X144848084Y-147739362D01*
X144869322Y-147955000D01*
X144848084Y-148170638D01*
X144785184Y-148377988D01*
X144683042Y-148569084D01*
X144545581Y-148736581D01*
X144378084Y-148874042D01*
X144186988Y-148976184D01*
X144186986Y-148976185D01*
X143979639Y-149039084D01*
X143818038Y-149055000D01*
X143709962Y-149055000D01*
X143548361Y-149039084D01*
X143341014Y-148976185D01*
X143341012Y-148976184D01*
X143149916Y-148874042D01*
X142982419Y-148736581D01*
X142844958Y-148569084D01*
X142742816Y-148377988D01*
X142679916Y-148170638D01*
X142658678Y-147955000D01*
X142679916Y-147739362D01*
X142700026Y-147673068D01*
X142742815Y-147532014D01*
X142742816Y-147532012D01*
X142844958Y-147340916D01*
X142982419Y-147173419D01*
X143149916Y-147035958D01*
X143341012Y-146933816D01*
X143341014Y-146933815D01*
X143548361Y-146870916D01*
X143709962Y-146855000D01*
X143818038Y-146855000D01*
X143979639Y-146870916D01*
X143979639Y-146870916D01*
G37*
G36*
X141439639Y-146870916D02*
X141646986Y-146933815D01*
X141646988Y-146933816D01*
X141838084Y-147035958D01*
X142005581Y-147173419D01*
X142143042Y-147340916D01*
X142245184Y-147532012D01*
X142245185Y-147532014D01*
X142287974Y-147673068D01*
X142308084Y-147739362D01*
X142329322Y-147955000D01*
X142308084Y-148170638D01*
X142245184Y-148377988D01*
X142143042Y-148569084D01*
X142005581Y-148736581D01*
X141838084Y-148874042D01*
X141646988Y-148976184D01*
X141646986Y-148976185D01*
X141439639Y-149039084D01*
X141278038Y-149055000D01*
X141169962Y-149055000D01*
X141008361Y-149039084D01*
X140801014Y-148976185D01*
X140801012Y-148976184D01*
X140609916Y-148874042D01*
X140442419Y-148736581D01*
X140304958Y-148569084D01*
X140202816Y-148377988D01*
X140139916Y-148170638D01*
X140118678Y-147955000D01*
X140139916Y-147739362D01*
X140160026Y-147673068D01*
X140202815Y-147532014D01*
X140202816Y-147532012D01*
X140304958Y-147340916D01*
X140442419Y-147173419D01*
X140609916Y-147035958D01*
X140801012Y-146933816D01*
X140801014Y-146933815D01*
X141008361Y-146870916D01*
X141169962Y-146855000D01*
X141278038Y-146855000D01*
X141439639Y-146870916D01*
X141439639Y-146870916D01*
G37*
G36*
X154139639Y-146870916D02*
X154346986Y-146933815D01*
X154346988Y-146933816D01*
X154538084Y-147035958D01*
X154705581Y-147173419D01*
X154843042Y-147340916D01*
X154945184Y-147532012D01*
X154945185Y-147532014D01*
X154987974Y-147673068D01*
X155008084Y-147739362D01*
X155029322Y-147955000D01*
X155008084Y-148170638D01*
X154945184Y-148377988D01*
X154843042Y-148569084D01*
X154705581Y-148736581D01*
X154538084Y-148874042D01*
X154346988Y-148976184D01*
X154346986Y-148976185D01*
X154139639Y-149039084D01*
X153978038Y-149055000D01*
X153869962Y-149055000D01*
X153708361Y-149039084D01*
X153501014Y-148976185D01*
X153501012Y-148976184D01*
X153309916Y-148874042D01*
X153142419Y-148736581D01*
X153004958Y-148569084D01*
X152902816Y-148377988D01*
X152839916Y-148170638D01*
X152818678Y-147955000D01*
X152839916Y-147739362D01*
X152860026Y-147673068D01*
X152902815Y-147532014D01*
X152902816Y-147532012D01*
X153004958Y-147340916D01*
X153142419Y-147173419D01*
X153309916Y-147035958D01*
X153501012Y-146933816D01*
X153501014Y-146933815D01*
X153708361Y-146870916D01*
X153869962Y-146855000D01*
X153978038Y-146855000D01*
X154139639Y-146870916D01*
X154139639Y-146870916D01*
G37*
G36*
X138899639Y-146870916D02*
X139106986Y-146933815D01*
X139106988Y-146933816D01*
X139298084Y-147035958D01*
X139465581Y-147173419D01*
X139603042Y-147340916D01*
X139705184Y-147532012D01*
X139705185Y-147532014D01*
X139747974Y-147673068D01*
X139768084Y-147739362D01*
X139789322Y-147955000D01*
X139768084Y-148170638D01*
X139705184Y-148377988D01*
X139603042Y-148569084D01*
X139465581Y-148736581D01*
X139298084Y-148874042D01*
X139106988Y-148976184D01*
X139106986Y-148976185D01*
X138899639Y-149039084D01*
X138738038Y-149055000D01*
X138629962Y-149055000D01*
X138468361Y-149039084D01*
X138261014Y-148976185D01*
X138261012Y-148976184D01*
X138069916Y-148874042D01*
X137902419Y-148736581D01*
X137764958Y-148569084D01*
X137662816Y-148377988D01*
X137599916Y-148170638D01*
X137578678Y-147955000D01*
X137599916Y-147739362D01*
X137620026Y-147673068D01*
X137662815Y-147532014D01*
X137662816Y-147532012D01*
X137764958Y-147340916D01*
X137902419Y-147173419D01*
X138069916Y-147035958D01*
X138261012Y-146933816D01*
X138261014Y-146933815D01*
X138468361Y-146870916D01*
X138629962Y-146855000D01*
X138738038Y-146855000D01*
X138899639Y-146870916D01*
X138899639Y-146870916D01*
G37*
G36*
X161759639Y-146870916D02*
X161966986Y-146933815D01*
X161966988Y-146933816D01*
X162158084Y-147035958D01*
X162325581Y-147173419D01*
X162463042Y-147340916D01*
X162565184Y-147532012D01*
X162565185Y-147532014D01*
X162607974Y-147673068D01*
X162628084Y-147739362D01*
X162649322Y-147955000D01*
X162628084Y-148170638D01*
X162565184Y-148377988D01*
X162463042Y-148569084D01*
X162325581Y-148736581D01*
X162158084Y-148874042D01*
X161966988Y-148976184D01*
X161966986Y-148976185D01*
X161759639Y-149039084D01*
X161598038Y-149055000D01*
X161489962Y-149055000D01*
X161328361Y-149039084D01*
X161121014Y-148976185D01*
X161121012Y-148976184D01*
X160929916Y-148874042D01*
X160762419Y-148736581D01*
X160624958Y-148569084D01*
X160522816Y-148377988D01*
X160459916Y-148170638D01*
X160438678Y-147955000D01*
X160459916Y-147739362D01*
X160480026Y-147673068D01*
X160522815Y-147532014D01*
X160522816Y-147532012D01*
X160624958Y-147340916D01*
X160762419Y-147173419D01*
X160929916Y-147035958D01*
X161121012Y-146933816D01*
X161121014Y-146933815D01*
X161328361Y-146870916D01*
X161489962Y-146855000D01*
X161598038Y-146855000D01*
X161759639Y-146870916D01*
X161759639Y-146870916D01*
G37*
G36*
X159219639Y-146870916D02*
X159426986Y-146933815D01*
X159426988Y-146933816D01*
X159618084Y-147035958D01*
X159785581Y-147173419D01*
X159923042Y-147340916D01*
X160025184Y-147532012D01*
X160025185Y-147532014D01*
X160067974Y-147673068D01*
X160088084Y-147739362D01*
X160109322Y-147955000D01*
X160088084Y-148170638D01*
X160025184Y-148377988D01*
X159923042Y-148569084D01*
X159785581Y-148736581D01*
X159618084Y-148874042D01*
X159426988Y-148976184D01*
X159426986Y-148976185D01*
X159219639Y-149039084D01*
X159058038Y-149055000D01*
X158949962Y-149055000D01*
X158788361Y-149039084D01*
X158581014Y-148976185D01*
X158581012Y-148976184D01*
X158389916Y-148874042D01*
X158222419Y-148736581D01*
X158084958Y-148569084D01*
X157982816Y-148377988D01*
X157919916Y-148170638D01*
X157898678Y-147955000D01*
X157919916Y-147739362D01*
X157940026Y-147673068D01*
X157982815Y-147532014D01*
X157982816Y-147532012D01*
X158084958Y-147340916D01*
X158222419Y-147173419D01*
X158389916Y-147035958D01*
X158581012Y-146933816D01*
X158581014Y-146933815D01*
X158788361Y-146870916D01*
X158949962Y-146855000D01*
X159058038Y-146855000D01*
X159219639Y-146870916D01*
X159219639Y-146870916D01*
G37*
G36*
X156679639Y-146870916D02*
X156886986Y-146933815D01*
X156886988Y-146933816D01*
X157078084Y-147035958D01*
X157245581Y-147173419D01*
X157383042Y-147340916D01*
X157485184Y-147532012D01*
X157485185Y-147532014D01*
X157527974Y-147673068D01*
X157548084Y-147739362D01*
X157569322Y-147955000D01*
X157548084Y-148170638D01*
X157485184Y-148377988D01*
X157383042Y-148569084D01*
X157245581Y-148736581D01*
X157078084Y-148874042D01*
X156886988Y-148976184D01*
X156886986Y-148976185D01*
X156679639Y-149039084D01*
X156518038Y-149055000D01*
X156409962Y-149055000D01*
X156248361Y-149039084D01*
X156041014Y-148976185D01*
X156041012Y-148976184D01*
X155849916Y-148874042D01*
X155682419Y-148736581D01*
X155544958Y-148569084D01*
X155442816Y-148377988D01*
X155379916Y-148170638D01*
X155358678Y-147955000D01*
X155379916Y-147739362D01*
X155400026Y-147673068D01*
X155442815Y-147532014D01*
X155442816Y-147532012D01*
X155544958Y-147340916D01*
X155682419Y-147173419D01*
X155849916Y-147035958D01*
X156041012Y-146933816D01*
X156041014Y-146933815D01*
X156248361Y-146870916D01*
X156409962Y-146855000D01*
X156518038Y-146855000D01*
X156679639Y-146870916D01*
X156679639Y-146870916D01*
G37*
G36*
X151599639Y-146870916D02*
X151806986Y-146933815D01*
X151806988Y-146933816D01*
X151998084Y-147035958D01*
X152165581Y-147173419D01*
X152303042Y-147340916D01*
X152405184Y-147532012D01*
X152405185Y-147532014D01*
X152447974Y-147673068D01*
X152468084Y-147739362D01*
X152489322Y-147955000D01*
X152468084Y-148170638D01*
X152405184Y-148377988D01*
X152303042Y-148569084D01*
X152165581Y-148736581D01*
X151998084Y-148874042D01*
X151806988Y-148976184D01*
X151806986Y-148976185D01*
X151599639Y-149039084D01*
X151438038Y-149055000D01*
X151329962Y-149055000D01*
X151168361Y-149039084D01*
X150961014Y-148976185D01*
X150961012Y-148976184D01*
X150769916Y-148874042D01*
X150602419Y-148736581D01*
X150464958Y-148569084D01*
X150362816Y-148377988D01*
X150299916Y-148170638D01*
X150278678Y-147955000D01*
X150299916Y-147739362D01*
X150320026Y-147673068D01*
X150362815Y-147532014D01*
X150362816Y-147532012D01*
X150464958Y-147340916D01*
X150602419Y-147173419D01*
X150769916Y-147035958D01*
X150961012Y-146933816D01*
X150961014Y-146933815D01*
X151168361Y-146870916D01*
X151329962Y-146855000D01*
X151438038Y-146855000D01*
X151599639Y-146870916D01*
X151599639Y-146870916D01*
G37*
G36*
X134052052Y-145151985D02*
X134266118Y-145194565D01*
X134406286Y-145252625D01*
X134548201Y-145311408D01*
X134802071Y-145481038D01*
X135017962Y-145696929D01*
X135187592Y-145950799D01*
X135187592Y-145950800D01*
X135304435Y-146232882D01*
X135304435Y-146232884D01*
X135364000Y-146532337D01*
X135364000Y-146837663D01*
X135353104Y-146892442D01*
X135304435Y-147137118D01*
X135226540Y-147325173D01*
X135187592Y-147419201D01*
X135017962Y-147673071D01*
X134802071Y-147888962D01*
X134548201Y-148058592D01*
X134454173Y-148097540D01*
X134266118Y-148175435D01*
X134066481Y-148215145D01*
X133966663Y-148235000D01*
X133661337Y-148235000D01*
X133561519Y-148215145D01*
X133361882Y-148175435D01*
X133173827Y-148097540D01*
X133079799Y-148058592D01*
X132825929Y-147888962D01*
X132610038Y-147673071D01*
X132440408Y-147419201D01*
X132401460Y-147325173D01*
X132323565Y-147137118D01*
X132274896Y-146892442D01*
X132264000Y-146837663D01*
X132264000Y-146532337D01*
X132323565Y-146232884D01*
X132323565Y-146232882D01*
X132440408Y-145950800D01*
X132440408Y-145950799D01*
X132610038Y-145696929D01*
X132825929Y-145481038D01*
X133079799Y-145311408D01*
X133221714Y-145252625D01*
X133361882Y-145194565D01*
X133575948Y-145151985D01*
X133661337Y-145135000D01*
X133966663Y-145135000D01*
X134052052Y-145151985D01*
X134052052Y-145151985D01*
G37*
G36*
X192052052Y-145151985D02*
X192266118Y-145194565D01*
X192406286Y-145252625D01*
X192548201Y-145311408D01*
X192802071Y-145481038D01*
X193017962Y-145696929D01*
X193187592Y-145950799D01*
X193187592Y-145950800D01*
X193304435Y-146232882D01*
X193304435Y-146232884D01*
X193364000Y-146532337D01*
X193364000Y-146837663D01*
X193353104Y-146892442D01*
X193304435Y-147137118D01*
X193226540Y-147325173D01*
X193187592Y-147419201D01*
X193017962Y-147673071D01*
X192802071Y-147888962D01*
X192548201Y-148058592D01*
X192454173Y-148097540D01*
X192266118Y-148175435D01*
X192066481Y-148215145D01*
X191966663Y-148235000D01*
X191661337Y-148235000D01*
X191561519Y-148215145D01*
X191361882Y-148175435D01*
X191173827Y-148097540D01*
X191079799Y-148058592D01*
X190825929Y-147888962D01*
X190610038Y-147673071D01*
X190440408Y-147419201D01*
X190401460Y-147325173D01*
X190323565Y-147137118D01*
X190274896Y-146892442D01*
X190264000Y-146837663D01*
X190264000Y-146532337D01*
X190323565Y-146232884D01*
X190323565Y-146232882D01*
X190440408Y-145950800D01*
X190440408Y-145950799D01*
X190610038Y-145696929D01*
X190825929Y-145481038D01*
X191079799Y-145311408D01*
X191221714Y-145252625D01*
X191361882Y-145194565D01*
X191575948Y-145151985D01*
X191661337Y-145135000D01*
X191966663Y-145135000D01*
X192052052Y-145151985D01*
X192052052Y-145151985D01*
G37*
G36*
X205582026Y-142737115D02*
X205800412Y-142827573D01*
X205996958Y-142958901D01*
X206164099Y-143126042D01*
X206295427Y-143322588D01*
X206385885Y-143540974D01*
X206432000Y-143772809D01*
X206432000Y-144009191D01*
X206385885Y-144241026D01*
X206295427Y-144459412D01*
X206164099Y-144655958D01*
X205996958Y-144823099D01*
X205800412Y-144954427D01*
X205572690Y-145048752D01*
X205551079Y-145060303D01*
X205532137Y-145075848D01*
X205516591Y-145094790D01*
X205505040Y-145116401D01*
X205497927Y-145139850D01*
X205495525Y-145164237D01*
X205497927Y-145188623D01*
X205505040Y-145212072D01*
X205516591Y-145233683D01*
X205532136Y-145252625D01*
X205551078Y-145268171D01*
X205572689Y-145279722D01*
X205584233Y-145283852D01*
X205675070Y-145311408D01*
X205693445Y-145316982D01*
X205901910Y-145428408D01*
X206084634Y-145578366D01*
X206234592Y-145761090D01*
X206346017Y-145969553D01*
X206346018Y-145969556D01*
X206346019Y-145969558D01*
X206414637Y-146195759D01*
X206437806Y-146431000D01*
X206414637Y-146666241D01*
X206346019Y-146892442D01*
X206346017Y-146892447D01*
X206234592Y-147100910D01*
X206084634Y-147283634D01*
X205901910Y-147433592D01*
X205693447Y-147545017D01*
X205693444Y-147545018D01*
X205693442Y-147545019D01*
X205467241Y-147613637D01*
X205326208Y-147627527D01*
X205290951Y-147631000D01*
X205173049Y-147631000D01*
X205137792Y-147627527D01*
X204996759Y-147613637D01*
X204770558Y-147545019D01*
X204770556Y-147545018D01*
X204770553Y-147545017D01*
X204562090Y-147433592D01*
X204379366Y-147283634D01*
X204229408Y-147100910D01*
X204117983Y-146892447D01*
X204117981Y-146892442D01*
X204049363Y-146666241D01*
X204026194Y-146431000D01*
X204049363Y-146195759D01*
X204117981Y-145969558D01*
X204117982Y-145969556D01*
X204117983Y-145969553D01*
X204229408Y-145761090D01*
X204379366Y-145578366D01*
X204562090Y-145428408D01*
X204770555Y-145316982D01*
X204788930Y-145311408D01*
X204879764Y-145283854D01*
X204902400Y-145274477D01*
X204922774Y-145260863D01*
X204940101Y-145243536D01*
X204953715Y-145223162D01*
X204963093Y-145200523D01*
X204967873Y-145176489D01*
X204967873Y-145151985D01*
X204963093Y-145127952D01*
X204953715Y-145105312D01*
X204940101Y-145084938D01*
X204922774Y-145067611D01*
X204902400Y-145053997D01*
X204891310Y-145048752D01*
X204663588Y-144954427D01*
X204467042Y-144823099D01*
X204299901Y-144655958D01*
X204168573Y-144459412D01*
X204078115Y-144241026D01*
X204032000Y-144009191D01*
X204032000Y-143772809D01*
X204078115Y-143540974D01*
X204168573Y-143322588D01*
X204299901Y-143126042D01*
X204467042Y-142958901D01*
X204663588Y-142827573D01*
X204881974Y-142737115D01*
X205113809Y-142691000D01*
X205350191Y-142691000D01*
X205582026Y-142737115D01*
X205582026Y-142737115D01*
G37*
G36*
X161759639Y-144330916D02*
X161966986Y-144393815D01*
X161966988Y-144393816D01*
X162158084Y-144495958D01*
X162325581Y-144633419D01*
X162463042Y-144800916D01*
X162565184Y-144992012D01*
X162565185Y-144992014D01*
X162628084Y-145199361D01*
X162649322Y-145415000D01*
X162628084Y-145630639D01*
X162567608Y-145830000D01*
X162565184Y-145837988D01*
X162463042Y-146029084D01*
X162325581Y-146196581D01*
X162158084Y-146334042D01*
X161966988Y-146436184D01*
X161966986Y-146436185D01*
X161759639Y-146499084D01*
X161598038Y-146515000D01*
X161489962Y-146515000D01*
X161328361Y-146499084D01*
X161121014Y-146436185D01*
X161121012Y-146436184D01*
X160929916Y-146334042D01*
X160762419Y-146196581D01*
X160624958Y-146029084D01*
X160522816Y-145837988D01*
X160520393Y-145830000D01*
X160459916Y-145630639D01*
X160438678Y-145415000D01*
X160459916Y-145199361D01*
X160522815Y-144992014D01*
X160522816Y-144992012D01*
X160624958Y-144800916D01*
X160762419Y-144633419D01*
X160929916Y-144495958D01*
X161121012Y-144393816D01*
X161121014Y-144393815D01*
X161328361Y-144330916D01*
X161489962Y-144315000D01*
X161598038Y-144315000D01*
X161759639Y-144330916D01*
X161759639Y-144330916D01*
G37*
G36*
X166839639Y-144330916D02*
X167046986Y-144393815D01*
X167046988Y-144393816D01*
X167238084Y-144495958D01*
X167405581Y-144633419D01*
X167543042Y-144800916D01*
X167645184Y-144992012D01*
X167645185Y-144992014D01*
X167708084Y-145199361D01*
X167729322Y-145415000D01*
X167708084Y-145630639D01*
X167647608Y-145830000D01*
X167645184Y-145837988D01*
X167543042Y-146029084D01*
X167405581Y-146196581D01*
X167238084Y-146334042D01*
X167046988Y-146436184D01*
X167046986Y-146436185D01*
X166839639Y-146499084D01*
X166678038Y-146515000D01*
X166569962Y-146515000D01*
X166408361Y-146499084D01*
X166201014Y-146436185D01*
X166201012Y-146436184D01*
X166009916Y-146334042D01*
X165842419Y-146196581D01*
X165704958Y-146029084D01*
X165602816Y-145837988D01*
X165600393Y-145830000D01*
X165539916Y-145630639D01*
X165518678Y-145415000D01*
X165539916Y-145199361D01*
X165602815Y-144992014D01*
X165602816Y-144992012D01*
X165704958Y-144800916D01*
X165842419Y-144633419D01*
X166009916Y-144495958D01*
X166201012Y-144393816D01*
X166201014Y-144393815D01*
X166408361Y-144330916D01*
X166569962Y-144315000D01*
X166678038Y-144315000D01*
X166839639Y-144330916D01*
X166839639Y-144330916D01*
G37*
G36*
X169379639Y-144330916D02*
X169586986Y-144393815D01*
X169586988Y-144393816D01*
X169778084Y-144495958D01*
X169945581Y-144633419D01*
X170083042Y-144800916D01*
X170185184Y-144992012D01*
X170185185Y-144992014D01*
X170248084Y-145199361D01*
X170269322Y-145415000D01*
X170248084Y-145630639D01*
X170187608Y-145830000D01*
X170185184Y-145837988D01*
X170083042Y-146029084D01*
X169945581Y-146196581D01*
X169778084Y-146334042D01*
X169586988Y-146436184D01*
X169586986Y-146436185D01*
X169379639Y-146499084D01*
X169218038Y-146515000D01*
X169109962Y-146515000D01*
X168948361Y-146499084D01*
X168741014Y-146436185D01*
X168741012Y-146436184D01*
X168549916Y-146334042D01*
X168382419Y-146196581D01*
X168244958Y-146029084D01*
X168142816Y-145837988D01*
X168140393Y-145830000D01*
X168079916Y-145630639D01*
X168058678Y-145415000D01*
X168079916Y-145199361D01*
X168142815Y-144992014D01*
X168142816Y-144992012D01*
X168244958Y-144800916D01*
X168382419Y-144633419D01*
X168549916Y-144495958D01*
X168741012Y-144393816D01*
X168741014Y-144393815D01*
X168948361Y-144330916D01*
X169109962Y-144315000D01*
X169218038Y-144315000D01*
X169379639Y-144330916D01*
X169379639Y-144330916D01*
G37*
G36*
X171919639Y-144330916D02*
X172126986Y-144393815D01*
X172126988Y-144393816D01*
X172318084Y-144495958D01*
X172485581Y-144633419D01*
X172623042Y-144800916D01*
X172725184Y-144992012D01*
X172725185Y-144992014D01*
X172788084Y-145199361D01*
X172809322Y-145415000D01*
X172788084Y-145630639D01*
X172727608Y-145830000D01*
X172725184Y-145837988D01*
X172623042Y-146029084D01*
X172485581Y-146196581D01*
X172318084Y-146334042D01*
X172126988Y-146436184D01*
X172126986Y-146436185D01*
X171919639Y-146499084D01*
X171758038Y-146515000D01*
X171649962Y-146515000D01*
X171488361Y-146499084D01*
X171281014Y-146436185D01*
X171281012Y-146436184D01*
X171089916Y-146334042D01*
X170922419Y-146196581D01*
X170784958Y-146029084D01*
X170682816Y-145837988D01*
X170680393Y-145830000D01*
X170619916Y-145630639D01*
X170598678Y-145415000D01*
X170619916Y-145199361D01*
X170682815Y-144992014D01*
X170682816Y-144992012D01*
X170784958Y-144800916D01*
X170922419Y-144633419D01*
X171089916Y-144495958D01*
X171281012Y-144393816D01*
X171281014Y-144393815D01*
X171488361Y-144330916D01*
X171649962Y-144315000D01*
X171758038Y-144315000D01*
X171919639Y-144330916D01*
X171919639Y-144330916D01*
G37*
G36*
X174459639Y-144330916D02*
X174666986Y-144393815D01*
X174666988Y-144393816D01*
X174858084Y-144495958D01*
X175025581Y-144633419D01*
X175163042Y-144800916D01*
X175265184Y-144992012D01*
X175265185Y-144992014D01*
X175328084Y-145199361D01*
X175349322Y-145415000D01*
X175328084Y-145630639D01*
X175267608Y-145830000D01*
X175265184Y-145837988D01*
X175163042Y-146029084D01*
X175025581Y-146196581D01*
X174858084Y-146334042D01*
X174666988Y-146436184D01*
X174666986Y-146436185D01*
X174459639Y-146499084D01*
X174298038Y-146515000D01*
X174189962Y-146515000D01*
X174028361Y-146499084D01*
X173821014Y-146436185D01*
X173821012Y-146436184D01*
X173629916Y-146334042D01*
X173462419Y-146196581D01*
X173324958Y-146029084D01*
X173222816Y-145837988D01*
X173220393Y-145830000D01*
X173159916Y-145630639D01*
X173138678Y-145415000D01*
X173159916Y-145199361D01*
X173222815Y-144992014D01*
X173222816Y-144992012D01*
X173324958Y-144800916D01*
X173462419Y-144633419D01*
X173629916Y-144495958D01*
X173821012Y-144393816D01*
X173821014Y-144393815D01*
X174028361Y-144330916D01*
X174189962Y-144315000D01*
X174298038Y-144315000D01*
X174459639Y-144330916D01*
X174459639Y-144330916D01*
G37*
G36*
X176999639Y-144330916D02*
X177206986Y-144393815D01*
X177206988Y-144393816D01*
X177398084Y-144495958D01*
X177565581Y-144633419D01*
X177703042Y-144800916D01*
X177805184Y-144992012D01*
X177805185Y-144992014D01*
X177868084Y-145199361D01*
X177889322Y-145415000D01*
X177868084Y-145630639D01*
X177807608Y-145830000D01*
X177805184Y-145837988D01*
X177703042Y-146029084D01*
X177565581Y-146196581D01*
X177398084Y-146334042D01*
X177206988Y-146436184D01*
X177206986Y-146436185D01*
X176999639Y-146499084D01*
X176838038Y-146515000D01*
X176729962Y-146515000D01*
X176568361Y-146499084D01*
X176361014Y-146436185D01*
X176361012Y-146436184D01*
X176169916Y-146334042D01*
X176002419Y-146196581D01*
X175864958Y-146029084D01*
X175762816Y-145837988D01*
X175760393Y-145830000D01*
X175699916Y-145630639D01*
X175678678Y-145415000D01*
X175699916Y-145199361D01*
X175762815Y-144992014D01*
X175762816Y-144992012D01*
X175864958Y-144800916D01*
X176002419Y-144633419D01*
X176169916Y-144495958D01*
X176361012Y-144393816D01*
X176361014Y-144393815D01*
X176568361Y-144330916D01*
X176729962Y-144315000D01*
X176838038Y-144315000D01*
X176999639Y-144330916D01*
X176999639Y-144330916D01*
G37*
G36*
X179539639Y-144330916D02*
X179746986Y-144393815D01*
X179746988Y-144393816D01*
X179938084Y-144495958D01*
X180105581Y-144633419D01*
X180243042Y-144800916D01*
X180345184Y-144992012D01*
X180345185Y-144992014D01*
X180408084Y-145199361D01*
X180429322Y-145415000D01*
X180408084Y-145630639D01*
X180347608Y-145830000D01*
X180345184Y-145837988D01*
X180243042Y-146029084D01*
X180105581Y-146196581D01*
X179938084Y-146334042D01*
X179746988Y-146436184D01*
X179746986Y-146436185D01*
X179539639Y-146499084D01*
X179378038Y-146515000D01*
X179269962Y-146515000D01*
X179108361Y-146499084D01*
X178901014Y-146436185D01*
X178901012Y-146436184D01*
X178709916Y-146334042D01*
X178542419Y-146196581D01*
X178404958Y-146029084D01*
X178302816Y-145837988D01*
X178300393Y-145830000D01*
X178239916Y-145630639D01*
X178218678Y-145415000D01*
X178239916Y-145199361D01*
X178302815Y-144992014D01*
X178302816Y-144992012D01*
X178404958Y-144800916D01*
X178542419Y-144633419D01*
X178709916Y-144495958D01*
X178901012Y-144393816D01*
X178901014Y-144393815D01*
X179108361Y-144330916D01*
X179269962Y-144315000D01*
X179378038Y-144315000D01*
X179539639Y-144330916D01*
X179539639Y-144330916D01*
G37*
G36*
X182079639Y-144330916D02*
X182286986Y-144393815D01*
X182286988Y-144393816D01*
X182478084Y-144495958D01*
X182645581Y-144633419D01*
X182783042Y-144800916D01*
X182885184Y-144992012D01*
X182885185Y-144992014D01*
X182948084Y-145199361D01*
X182969322Y-145415000D01*
X182948084Y-145630639D01*
X182887608Y-145830000D01*
X182885184Y-145837988D01*
X182783042Y-146029084D01*
X182645581Y-146196581D01*
X182478084Y-146334042D01*
X182286988Y-146436184D01*
X182286986Y-146436185D01*
X182079639Y-146499084D01*
X181918038Y-146515000D01*
X181809962Y-146515000D01*
X181648361Y-146499084D01*
X181441014Y-146436185D01*
X181441012Y-146436184D01*
X181249916Y-146334042D01*
X181082419Y-146196581D01*
X180944958Y-146029084D01*
X180842816Y-145837988D01*
X180840393Y-145830000D01*
X180779916Y-145630639D01*
X180758678Y-145415000D01*
X180779916Y-145199361D01*
X180842815Y-144992014D01*
X180842816Y-144992012D01*
X180944958Y-144800916D01*
X181082419Y-144633419D01*
X181249916Y-144495958D01*
X181441012Y-144393816D01*
X181441014Y-144393815D01*
X181648361Y-144330916D01*
X181809962Y-144315000D01*
X181918038Y-144315000D01*
X182079639Y-144330916D01*
X182079639Y-144330916D01*
G37*
G36*
X184619639Y-144330916D02*
X184826986Y-144393815D01*
X184826988Y-144393816D01*
X185018084Y-144495958D01*
X185185581Y-144633419D01*
X185323042Y-144800916D01*
X185425184Y-144992012D01*
X185425185Y-144992014D01*
X185488084Y-145199361D01*
X185509322Y-145415000D01*
X185488084Y-145630639D01*
X185427608Y-145830000D01*
X185425184Y-145837988D01*
X185323042Y-146029084D01*
X185185581Y-146196581D01*
X185018084Y-146334042D01*
X184826988Y-146436184D01*
X184826986Y-146436185D01*
X184619639Y-146499084D01*
X184458038Y-146515000D01*
X184349962Y-146515000D01*
X184188361Y-146499084D01*
X183981014Y-146436185D01*
X183981012Y-146436184D01*
X183789916Y-146334042D01*
X183622419Y-146196581D01*
X183484958Y-146029084D01*
X183382816Y-145837988D01*
X183380393Y-145830000D01*
X183319916Y-145630639D01*
X183298678Y-145415000D01*
X183319916Y-145199361D01*
X183382815Y-144992014D01*
X183382816Y-144992012D01*
X183484958Y-144800916D01*
X183622419Y-144633419D01*
X183789916Y-144495958D01*
X183981012Y-144393816D01*
X183981014Y-144393815D01*
X184188361Y-144330916D01*
X184349962Y-144315000D01*
X184458038Y-144315000D01*
X184619639Y-144330916D01*
X184619639Y-144330916D01*
G37*
G36*
X188044000Y-146515000D02*
X185844000Y-146515000D01*
X185844000Y-144315000D01*
X188044000Y-144315000D01*
X188044000Y-146515000D01*
X188044000Y-146515000D01*
G37*
G36*
X151599639Y-144330916D02*
X151806986Y-144393815D01*
X151806988Y-144393816D01*
X151998084Y-144495958D01*
X152165581Y-144633419D01*
X152303042Y-144800916D01*
X152405184Y-144992012D01*
X152405185Y-144992014D01*
X152468084Y-145199361D01*
X152489322Y-145415000D01*
X152468084Y-145630639D01*
X152407608Y-145830000D01*
X152405184Y-145837988D01*
X152303042Y-146029084D01*
X152165581Y-146196581D01*
X151998084Y-146334042D01*
X151806988Y-146436184D01*
X151806986Y-146436185D01*
X151599639Y-146499084D01*
X151438038Y-146515000D01*
X151329962Y-146515000D01*
X151168361Y-146499084D01*
X150961014Y-146436185D01*
X150961012Y-146436184D01*
X150769916Y-146334042D01*
X150602419Y-146196581D01*
X150464958Y-146029084D01*
X150362816Y-145837988D01*
X150360393Y-145830000D01*
X150299916Y-145630639D01*
X150278678Y-145415000D01*
X150299916Y-145199361D01*
X150362815Y-144992014D01*
X150362816Y-144992012D01*
X150464958Y-144800916D01*
X150602419Y-144633419D01*
X150769916Y-144495958D01*
X150961012Y-144393816D01*
X150961014Y-144393815D01*
X151168361Y-144330916D01*
X151329962Y-144315000D01*
X151438038Y-144315000D01*
X151599639Y-144330916D01*
X151599639Y-144330916D01*
G37*
G36*
X149059639Y-144330916D02*
X149266986Y-144393815D01*
X149266988Y-144393816D01*
X149458084Y-144495958D01*
X149625581Y-144633419D01*
X149763042Y-144800916D01*
X149865184Y-144992012D01*
X149865185Y-144992014D01*
X149928084Y-145199361D01*
X149949322Y-145415000D01*
X149928084Y-145630639D01*
X149867608Y-145830000D01*
X149865184Y-145837988D01*
X149763042Y-146029084D01*
X149625581Y-146196581D01*
X149458084Y-146334042D01*
X149266988Y-146436184D01*
X149266986Y-146436185D01*
X149059639Y-146499084D01*
X148898038Y-146515000D01*
X148789962Y-146515000D01*
X148628361Y-146499084D01*
X148421014Y-146436185D01*
X148421012Y-146436184D01*
X148229916Y-146334042D01*
X148062419Y-146196581D01*
X147924958Y-146029084D01*
X147822816Y-145837988D01*
X147820393Y-145830000D01*
X147759916Y-145630639D01*
X147738678Y-145415000D01*
X147759916Y-145199361D01*
X147822815Y-144992014D01*
X147822816Y-144992012D01*
X147924958Y-144800916D01*
X148062419Y-144633419D01*
X148229916Y-144495958D01*
X148421012Y-144393816D01*
X148421014Y-144393815D01*
X148628361Y-144330916D01*
X148789962Y-144315000D01*
X148898038Y-144315000D01*
X149059639Y-144330916D01*
X149059639Y-144330916D01*
G37*
G36*
X146519639Y-144330916D02*
X146726986Y-144393815D01*
X146726988Y-144393816D01*
X146918084Y-144495958D01*
X147085581Y-144633419D01*
X147223042Y-144800916D01*
X147325184Y-144992012D01*
X147325185Y-144992014D01*
X147388084Y-145199361D01*
X147409322Y-145415000D01*
X147388084Y-145630639D01*
X147327608Y-145830000D01*
X147325184Y-145837988D01*
X147223042Y-146029084D01*
X147085581Y-146196581D01*
X146918084Y-146334042D01*
X146726988Y-146436184D01*
X146726986Y-146436185D01*
X146519639Y-146499084D01*
X146358038Y-146515000D01*
X146249962Y-146515000D01*
X146088361Y-146499084D01*
X145881014Y-146436185D01*
X145881012Y-146436184D01*
X145689916Y-146334042D01*
X145522419Y-146196581D01*
X145384958Y-146029084D01*
X145282816Y-145837988D01*
X145280393Y-145830000D01*
X145219916Y-145630639D01*
X145198678Y-145415000D01*
X145219916Y-145199361D01*
X145282815Y-144992014D01*
X145282816Y-144992012D01*
X145384958Y-144800916D01*
X145522419Y-144633419D01*
X145689916Y-144495958D01*
X145881012Y-144393816D01*
X145881014Y-144393815D01*
X146088361Y-144330916D01*
X146249962Y-144315000D01*
X146358038Y-144315000D01*
X146519639Y-144330916D01*
X146519639Y-144330916D01*
G37*
G36*
X143979639Y-144330916D02*
X144186986Y-144393815D01*
X144186988Y-144393816D01*
X144378084Y-144495958D01*
X144545581Y-144633419D01*
X144683042Y-144800916D01*
X144785184Y-144992012D01*
X144785185Y-144992014D01*
X144848084Y-145199361D01*
X144869322Y-145415000D01*
X144848084Y-145630639D01*
X144787608Y-145830000D01*
X144785184Y-145837988D01*
X144683042Y-146029084D01*
X144545581Y-146196581D01*
X144378084Y-146334042D01*
X144186988Y-146436184D01*
X144186986Y-146436185D01*
X143979639Y-146499084D01*
X143818038Y-146515000D01*
X143709962Y-146515000D01*
X143548361Y-146499084D01*
X143341014Y-146436185D01*
X143341012Y-146436184D01*
X143149916Y-146334042D01*
X142982419Y-146196581D01*
X142844958Y-146029084D01*
X142742816Y-145837988D01*
X142740393Y-145830000D01*
X142679916Y-145630639D01*
X142658678Y-145415000D01*
X142679916Y-145199361D01*
X142742815Y-144992014D01*
X142742816Y-144992012D01*
X142844958Y-144800916D01*
X142982419Y-144633419D01*
X143149916Y-144495958D01*
X143341012Y-144393816D01*
X143341014Y-144393815D01*
X143548361Y-144330916D01*
X143709962Y-144315000D01*
X143818038Y-144315000D01*
X143979639Y-144330916D01*
X143979639Y-144330916D01*
G37*
G36*
X141439639Y-144330916D02*
X141646986Y-144393815D01*
X141646988Y-144393816D01*
X141838084Y-144495958D01*
X142005581Y-144633419D01*
X142143042Y-144800916D01*
X142245184Y-144992012D01*
X142245185Y-144992014D01*
X142308084Y-145199361D01*
X142329322Y-145415000D01*
X142308084Y-145630639D01*
X142247608Y-145830000D01*
X142245184Y-145837988D01*
X142143042Y-146029084D01*
X142005581Y-146196581D01*
X141838084Y-146334042D01*
X141646988Y-146436184D01*
X141646986Y-146436185D01*
X141439639Y-146499084D01*
X141278038Y-146515000D01*
X141169962Y-146515000D01*
X141008361Y-146499084D01*
X140801014Y-146436185D01*
X140801012Y-146436184D01*
X140609916Y-146334042D01*
X140442419Y-146196581D01*
X140304958Y-146029084D01*
X140202816Y-145837988D01*
X140200393Y-145830000D01*
X140139916Y-145630639D01*
X140118678Y-145415000D01*
X140139916Y-145199361D01*
X140202815Y-144992014D01*
X140202816Y-144992012D01*
X140304958Y-144800916D01*
X140442419Y-144633419D01*
X140609916Y-144495958D01*
X140801012Y-144393816D01*
X140801014Y-144393815D01*
X141008361Y-144330916D01*
X141169962Y-144315000D01*
X141278038Y-144315000D01*
X141439639Y-144330916D01*
X141439639Y-144330916D01*
G37*
G36*
X138899639Y-144330916D02*
X139106986Y-144393815D01*
X139106988Y-144393816D01*
X139298084Y-144495958D01*
X139465581Y-144633419D01*
X139603042Y-144800916D01*
X139705184Y-144992012D01*
X139705185Y-144992014D01*
X139768084Y-145199361D01*
X139789322Y-145415000D01*
X139768084Y-145630639D01*
X139707608Y-145830000D01*
X139705184Y-145837988D01*
X139603042Y-146029084D01*
X139465581Y-146196581D01*
X139298084Y-146334042D01*
X139106988Y-146436184D01*
X139106986Y-146436185D01*
X138899639Y-146499084D01*
X138738038Y-146515000D01*
X138629962Y-146515000D01*
X138468361Y-146499084D01*
X138261014Y-146436185D01*
X138261012Y-146436184D01*
X138069916Y-146334042D01*
X137902419Y-146196581D01*
X137764958Y-146029084D01*
X137662816Y-145837988D01*
X137660393Y-145830000D01*
X137599916Y-145630639D01*
X137578678Y-145415000D01*
X137599916Y-145199361D01*
X137662815Y-144992014D01*
X137662816Y-144992012D01*
X137764958Y-144800916D01*
X137902419Y-144633419D01*
X138069916Y-144495958D01*
X138261012Y-144393816D01*
X138261014Y-144393815D01*
X138468361Y-144330916D01*
X138629962Y-144315000D01*
X138738038Y-144315000D01*
X138899639Y-144330916D01*
X138899639Y-144330916D01*
G37*
G36*
X164299639Y-144330916D02*
X164506986Y-144393815D01*
X164506988Y-144393816D01*
X164698084Y-144495958D01*
X164865581Y-144633419D01*
X165003042Y-144800916D01*
X165105184Y-144992012D01*
X165105185Y-144992014D01*
X165168084Y-145199361D01*
X165189322Y-145415000D01*
X165168084Y-145630639D01*
X165107608Y-145830000D01*
X165105184Y-145837988D01*
X165003042Y-146029084D01*
X164865581Y-146196581D01*
X164698084Y-146334042D01*
X164506988Y-146436184D01*
X164506986Y-146436185D01*
X164299639Y-146499084D01*
X164138038Y-146515000D01*
X164029962Y-146515000D01*
X163868361Y-146499084D01*
X163661014Y-146436185D01*
X163661012Y-146436184D01*
X163469916Y-146334042D01*
X163302419Y-146196581D01*
X163164958Y-146029084D01*
X163062816Y-145837988D01*
X163060393Y-145830000D01*
X162999916Y-145630639D01*
X162978678Y-145415000D01*
X162999916Y-145199361D01*
X163062815Y-144992014D01*
X163062816Y-144992012D01*
X163164958Y-144800916D01*
X163302419Y-144633419D01*
X163469916Y-144495958D01*
X163661012Y-144393816D01*
X163661014Y-144393815D01*
X163868361Y-144330916D01*
X164029962Y-144315000D01*
X164138038Y-144315000D01*
X164299639Y-144330916D01*
X164299639Y-144330916D01*
G37*
G36*
X159219639Y-144330916D02*
X159426986Y-144393815D01*
X159426988Y-144393816D01*
X159618084Y-144495958D01*
X159785581Y-144633419D01*
X159923042Y-144800916D01*
X160025184Y-144992012D01*
X160025185Y-144992014D01*
X160088084Y-145199361D01*
X160109322Y-145415000D01*
X160088084Y-145630639D01*
X160027608Y-145830000D01*
X160025184Y-145837988D01*
X159923042Y-146029084D01*
X159785581Y-146196581D01*
X159618084Y-146334042D01*
X159426988Y-146436184D01*
X159426986Y-146436185D01*
X159219639Y-146499084D01*
X159058038Y-146515000D01*
X158949962Y-146515000D01*
X158788361Y-146499084D01*
X158581014Y-146436185D01*
X158581012Y-146436184D01*
X158389916Y-146334042D01*
X158222419Y-146196581D01*
X158084958Y-146029084D01*
X157982816Y-145837988D01*
X157980393Y-145830000D01*
X157919916Y-145630639D01*
X157898678Y-145415000D01*
X157919916Y-145199361D01*
X157982815Y-144992014D01*
X157982816Y-144992012D01*
X158084958Y-144800916D01*
X158222419Y-144633419D01*
X158389916Y-144495958D01*
X158581012Y-144393816D01*
X158581014Y-144393815D01*
X158788361Y-144330916D01*
X158949962Y-144315000D01*
X159058038Y-144315000D01*
X159219639Y-144330916D01*
X159219639Y-144330916D01*
G37*
G36*
X156679639Y-144330916D02*
X156886986Y-144393815D01*
X156886988Y-144393816D01*
X157078084Y-144495958D01*
X157245581Y-144633419D01*
X157383042Y-144800916D01*
X157485184Y-144992012D01*
X157485185Y-144992014D01*
X157548084Y-145199361D01*
X157569322Y-145415000D01*
X157548084Y-145630639D01*
X157487608Y-145830000D01*
X157485184Y-145837988D01*
X157383042Y-146029084D01*
X157245581Y-146196581D01*
X157078084Y-146334042D01*
X156886988Y-146436184D01*
X156886986Y-146436185D01*
X156679639Y-146499084D01*
X156518038Y-146515000D01*
X156409962Y-146515000D01*
X156248361Y-146499084D01*
X156041014Y-146436185D01*
X156041012Y-146436184D01*
X155849916Y-146334042D01*
X155682419Y-146196581D01*
X155544958Y-146029084D01*
X155442816Y-145837988D01*
X155440393Y-145830000D01*
X155379916Y-145630639D01*
X155358678Y-145415000D01*
X155379916Y-145199361D01*
X155442815Y-144992014D01*
X155442816Y-144992012D01*
X155544958Y-144800916D01*
X155682419Y-144633419D01*
X155849916Y-144495958D01*
X156041012Y-144393816D01*
X156041014Y-144393815D01*
X156248361Y-144330916D01*
X156409962Y-144315000D01*
X156518038Y-144315000D01*
X156679639Y-144330916D01*
X156679639Y-144330916D01*
G37*
G36*
X154139639Y-144330916D02*
X154346986Y-144393815D01*
X154346988Y-144393816D01*
X154538084Y-144495958D01*
X154705581Y-144633419D01*
X154843042Y-144800916D01*
X154945184Y-144992012D01*
X154945185Y-144992014D01*
X155008084Y-145199361D01*
X155029322Y-145415000D01*
X155008084Y-145630639D01*
X154947608Y-145830000D01*
X154945184Y-145837988D01*
X154843042Y-146029084D01*
X154705581Y-146196581D01*
X154538084Y-146334042D01*
X154346988Y-146436184D01*
X154346986Y-146436185D01*
X154139639Y-146499084D01*
X153978038Y-146515000D01*
X153869962Y-146515000D01*
X153708361Y-146499084D01*
X153501014Y-146436185D01*
X153501012Y-146436184D01*
X153309916Y-146334042D01*
X153142419Y-146196581D01*
X153004958Y-146029084D01*
X152902816Y-145837988D01*
X152900393Y-145830000D01*
X152839916Y-145630639D01*
X152818678Y-145415000D01*
X152839916Y-145199361D01*
X152902815Y-144992014D01*
X152902816Y-144992012D01*
X153004958Y-144800916D01*
X153142419Y-144633419D01*
X153309916Y-144495958D01*
X153501012Y-144393816D01*
X153501014Y-144393815D01*
X153708361Y-144330916D01*
X153869962Y-144315000D01*
X153978038Y-144315000D01*
X154139639Y-144330916D01*
X154139639Y-144330916D01*
G37*
G36*
X199007888Y-143734470D02*
X199188274Y-143770350D01*
X199379362Y-143849502D01*
X199551336Y-143964411D01*
X199697589Y-144110664D01*
X199812498Y-144282638D01*
X199891650Y-144473726D01*
X199932000Y-144676584D01*
X199932000Y-144883416D01*
X199891650Y-145086274D01*
X199812498Y-145277362D01*
X199697589Y-145449336D01*
X199551336Y-145595589D01*
X199379362Y-145710498D01*
X199188274Y-145789650D01*
X199007888Y-145825530D01*
X198985417Y-145830000D01*
X198778583Y-145830000D01*
X198756112Y-145825530D01*
X198575726Y-145789650D01*
X198384638Y-145710498D01*
X198212664Y-145595589D01*
X198066411Y-145449336D01*
X197951502Y-145277362D01*
X197872350Y-145086274D01*
X197832000Y-144883416D01*
X197832000Y-144676584D01*
X197872350Y-144473726D01*
X197951502Y-144282638D01*
X198066411Y-144110664D01*
X198212664Y-143964411D01*
X198384638Y-143849502D01*
X198575726Y-143770350D01*
X198756112Y-143734470D01*
X198778583Y-143730000D01*
X198985417Y-143730000D01*
X199007888Y-143734470D01*
X199007888Y-143734470D01*
G37*
G36*
X139879100Y-139424877D02*
X139881502Y-139449263D01*
X139888615Y-139472712D01*
X139900166Y-139494323D01*
X139915712Y-139513265D01*
X139934654Y-139528811D01*
X139956265Y-139540362D01*
X139979714Y-139547475D01*
X140004100Y-139549877D01*
X140028486Y-139547475D01*
X140051935Y-139540362D01*
X140073546Y-139528811D01*
X140092488Y-139513265D01*
X140108034Y-139494323D01*
X140119585Y-139472712D01*
X140155673Y-139385588D01*
X140287001Y-139189042D01*
X140454142Y-139021901D01*
X140650688Y-138890573D01*
X140869074Y-138800115D01*
X141100909Y-138754000D01*
X141337291Y-138754000D01*
X141569126Y-138800115D01*
X141787512Y-138890573D01*
X141984058Y-139021901D01*
X142151199Y-139189042D01*
X142282527Y-139385588D01*
X142373615Y-139605495D01*
X142385166Y-139627106D01*
X142400711Y-139646048D01*
X142419654Y-139661594D01*
X142441264Y-139673145D01*
X142464713Y-139680258D01*
X142489100Y-139682660D01*
X142513486Y-139680258D01*
X142536935Y-139673145D01*
X142558546Y-139661594D01*
X142577488Y-139646049D01*
X142593034Y-139627106D01*
X142604585Y-139605495D01*
X142695673Y-139385588D01*
X142827001Y-139189042D01*
X142994142Y-139021901D01*
X143190688Y-138890573D01*
X143409074Y-138800115D01*
X143640909Y-138754000D01*
X143877291Y-138754000D01*
X144109126Y-138800115D01*
X144327512Y-138890573D01*
X144524058Y-139021901D01*
X144691199Y-139189042D01*
X144822527Y-139385588D01*
X144913615Y-139605495D01*
X144925166Y-139627106D01*
X144940711Y-139646048D01*
X144959654Y-139661594D01*
X144981264Y-139673145D01*
X145004713Y-139680258D01*
X145029100Y-139682660D01*
X145053486Y-139680258D01*
X145076935Y-139673145D01*
X145098546Y-139661594D01*
X145117488Y-139646049D01*
X145133034Y-139627106D01*
X145144585Y-139605495D01*
X145235673Y-139385588D01*
X145367001Y-139189042D01*
X145534142Y-139021901D01*
X145730688Y-138890573D01*
X145949074Y-138800115D01*
X146180909Y-138754000D01*
X146417291Y-138754000D01*
X146649126Y-138800115D01*
X146867512Y-138890573D01*
X147064058Y-139021901D01*
X147231199Y-139189042D01*
X147362527Y-139385588D01*
X147453615Y-139605495D01*
X147465166Y-139627106D01*
X147480711Y-139646048D01*
X147499654Y-139661594D01*
X147521264Y-139673145D01*
X147544713Y-139680258D01*
X147569100Y-139682660D01*
X147593486Y-139680258D01*
X147616935Y-139673145D01*
X147638546Y-139661594D01*
X147657488Y-139646049D01*
X147673034Y-139627106D01*
X147684585Y-139605495D01*
X147775673Y-139385588D01*
X147907001Y-139189042D01*
X148074142Y-139021901D01*
X148270688Y-138890573D01*
X148489074Y-138800115D01*
X148720909Y-138754000D01*
X148957291Y-138754000D01*
X149189126Y-138800115D01*
X149407512Y-138890573D01*
X149604058Y-139021901D01*
X149771199Y-139189042D01*
X149902527Y-139385588D01*
X149993615Y-139605495D01*
X150005166Y-139627106D01*
X150020711Y-139646048D01*
X150039654Y-139661594D01*
X150061264Y-139673145D01*
X150084713Y-139680258D01*
X150109100Y-139682660D01*
X150133486Y-139680258D01*
X150156935Y-139673145D01*
X150178546Y-139661594D01*
X150197488Y-139646049D01*
X150213034Y-139627106D01*
X150224585Y-139605495D01*
X150315673Y-139385588D01*
X150447001Y-139189042D01*
X150614142Y-139021901D01*
X150810688Y-138890573D01*
X151029074Y-138800115D01*
X151260909Y-138754000D01*
X151497291Y-138754000D01*
X151729126Y-138800115D01*
X151947512Y-138890573D01*
X152144058Y-139021901D01*
X152311199Y-139189042D01*
X152442527Y-139385588D01*
X152533615Y-139605495D01*
X152545166Y-139627106D01*
X152560711Y-139646048D01*
X152579654Y-139661594D01*
X152601264Y-139673145D01*
X152624713Y-139680258D01*
X152649100Y-139682660D01*
X152673486Y-139680258D01*
X152696935Y-139673145D01*
X152718546Y-139661594D01*
X152737488Y-139646049D01*
X152753034Y-139627106D01*
X152764585Y-139605495D01*
X152855673Y-139385588D01*
X152987001Y-139189042D01*
X153154142Y-139021901D01*
X153350688Y-138890573D01*
X153569074Y-138800115D01*
X153800909Y-138754000D01*
X154037291Y-138754000D01*
X154269126Y-138800115D01*
X154487512Y-138890573D01*
X154684058Y-139021901D01*
X154851199Y-139189042D01*
X154982527Y-139385588D01*
X155073615Y-139605495D01*
X155085166Y-139627106D01*
X155100711Y-139646048D01*
X155119654Y-139661594D01*
X155141264Y-139673145D01*
X155164713Y-139680258D01*
X155189100Y-139682660D01*
X155213486Y-139680258D01*
X155236935Y-139673145D01*
X155258546Y-139661594D01*
X155277488Y-139646049D01*
X155293034Y-139627106D01*
X155304585Y-139605495D01*
X155395673Y-139385588D01*
X155527001Y-139189042D01*
X155694142Y-139021901D01*
X155890688Y-138890573D01*
X156109074Y-138800115D01*
X156340909Y-138754000D01*
X156577291Y-138754000D01*
X156809126Y-138800115D01*
X157027512Y-138890573D01*
X157224058Y-139021901D01*
X157391199Y-139189042D01*
X157522527Y-139385588D01*
X157613615Y-139605495D01*
X157625166Y-139627106D01*
X157640711Y-139646048D01*
X157659654Y-139661594D01*
X157681264Y-139673145D01*
X157704713Y-139680258D01*
X157729100Y-139682660D01*
X157753486Y-139680258D01*
X157776935Y-139673145D01*
X157798546Y-139661594D01*
X157817488Y-139646049D01*
X157833034Y-139627106D01*
X157844585Y-139605495D01*
X157935673Y-139385588D01*
X158067001Y-139189042D01*
X158234142Y-139021901D01*
X158430688Y-138890573D01*
X158649074Y-138800115D01*
X158880909Y-138754000D01*
X159117291Y-138754000D01*
X159349126Y-138800115D01*
X159567512Y-138890573D01*
X159764058Y-139021901D01*
X159931199Y-139189042D01*
X160062527Y-139385588D01*
X160153615Y-139605495D01*
X160165166Y-139627106D01*
X160180711Y-139646048D01*
X160199654Y-139661594D01*
X160221264Y-139673145D01*
X160244713Y-139680258D01*
X160269100Y-139682660D01*
X160293486Y-139680258D01*
X160316935Y-139673145D01*
X160338546Y-139661594D01*
X160357488Y-139646049D01*
X160373034Y-139627106D01*
X160384585Y-139605495D01*
X160475673Y-139385588D01*
X160607001Y-139189042D01*
X160774142Y-139021901D01*
X160970688Y-138890573D01*
X161189074Y-138800115D01*
X161420909Y-138754000D01*
X161657291Y-138754000D01*
X161889126Y-138800115D01*
X162107512Y-138890573D01*
X162304058Y-139021901D01*
X162471199Y-139189042D01*
X162602527Y-139385588D01*
X162693615Y-139605495D01*
X162705166Y-139627106D01*
X162720711Y-139646048D01*
X162739654Y-139661594D01*
X162761264Y-139673145D01*
X162784713Y-139680258D01*
X162809100Y-139682660D01*
X162833486Y-139680258D01*
X162856935Y-139673145D01*
X162878546Y-139661594D01*
X162897488Y-139646049D01*
X162913034Y-139627106D01*
X162924585Y-139605495D01*
X163015673Y-139385588D01*
X163147001Y-139189042D01*
X163314142Y-139021901D01*
X163510688Y-138890573D01*
X163729074Y-138800115D01*
X163960909Y-138754000D01*
X164197291Y-138754000D01*
X164429126Y-138800115D01*
X164647512Y-138890573D01*
X164844058Y-139021901D01*
X165011199Y-139189042D01*
X165142527Y-139385588D01*
X165233615Y-139605495D01*
X165245166Y-139627106D01*
X165260711Y-139646048D01*
X165279654Y-139661594D01*
X165301264Y-139673145D01*
X165324713Y-139680258D01*
X165349100Y-139682660D01*
X165373486Y-139680258D01*
X165396935Y-139673145D01*
X165418546Y-139661594D01*
X165437488Y-139646049D01*
X165453034Y-139627106D01*
X165464585Y-139605495D01*
X165555673Y-139385588D01*
X165687001Y-139189042D01*
X165854142Y-139021901D01*
X166050688Y-138890573D01*
X166269074Y-138800115D01*
X166500909Y-138754000D01*
X166737291Y-138754000D01*
X166969126Y-138800115D01*
X167187512Y-138890573D01*
X167384058Y-139021901D01*
X167551199Y-139189042D01*
X167682527Y-139385588D01*
X167773615Y-139605495D01*
X167785166Y-139627106D01*
X167800711Y-139646048D01*
X167819654Y-139661594D01*
X167841264Y-139673145D01*
X167864713Y-139680258D01*
X167889100Y-139682660D01*
X167913486Y-139680258D01*
X167936935Y-139673145D01*
X167958546Y-139661594D01*
X167977488Y-139646049D01*
X167993034Y-139627106D01*
X168004585Y-139605495D01*
X168095673Y-139385588D01*
X168227001Y-139189042D01*
X168394142Y-139021901D01*
X168590688Y-138890573D01*
X168809074Y-138800115D01*
X169040909Y-138754000D01*
X169277291Y-138754000D01*
X169509126Y-138800115D01*
X169727512Y-138890573D01*
X169924058Y-139021901D01*
X170091199Y-139189042D01*
X170222527Y-139385588D01*
X170313615Y-139605495D01*
X170325166Y-139627106D01*
X170340711Y-139646048D01*
X170359654Y-139661594D01*
X170381264Y-139673145D01*
X170404713Y-139680258D01*
X170429100Y-139682660D01*
X170453486Y-139680258D01*
X170476935Y-139673145D01*
X170498546Y-139661594D01*
X170517488Y-139646049D01*
X170533034Y-139627106D01*
X170544585Y-139605495D01*
X170635673Y-139385588D01*
X170767001Y-139189042D01*
X170934142Y-139021901D01*
X171130688Y-138890573D01*
X171349074Y-138800115D01*
X171580909Y-138754000D01*
X171817291Y-138754000D01*
X172049126Y-138800115D01*
X172267512Y-138890573D01*
X172464058Y-139021901D01*
X172631199Y-139189042D01*
X172762527Y-139385588D01*
X172853615Y-139605495D01*
X172865166Y-139627106D01*
X172880711Y-139646048D01*
X172899654Y-139661594D01*
X172921264Y-139673145D01*
X172944713Y-139680258D01*
X172969100Y-139682660D01*
X172993486Y-139680258D01*
X173016935Y-139673145D01*
X173038546Y-139661594D01*
X173057488Y-139646049D01*
X173073034Y-139627106D01*
X173084585Y-139605495D01*
X173175673Y-139385588D01*
X173307001Y-139189042D01*
X173474142Y-139021901D01*
X173670688Y-138890573D01*
X173889074Y-138800115D01*
X174120909Y-138754000D01*
X174357291Y-138754000D01*
X174589126Y-138800115D01*
X174807512Y-138890573D01*
X175004058Y-139021901D01*
X175171199Y-139189042D01*
X175302527Y-139385588D01*
X175393615Y-139605495D01*
X175405166Y-139627106D01*
X175420711Y-139646048D01*
X175439654Y-139661594D01*
X175461264Y-139673145D01*
X175484713Y-139680258D01*
X175509100Y-139682660D01*
X175533486Y-139680258D01*
X175556935Y-139673145D01*
X175578546Y-139661594D01*
X175597488Y-139646049D01*
X175613034Y-139627106D01*
X175624585Y-139605495D01*
X175715673Y-139385588D01*
X175847001Y-139189042D01*
X176014142Y-139021901D01*
X176210688Y-138890573D01*
X176429074Y-138800115D01*
X176660909Y-138754000D01*
X176897291Y-138754000D01*
X177129126Y-138800115D01*
X177347512Y-138890573D01*
X177544058Y-139021901D01*
X177711199Y-139189042D01*
X177842527Y-139385588D01*
X177933615Y-139605495D01*
X177945166Y-139627106D01*
X177960711Y-139646048D01*
X177979654Y-139661594D01*
X178001264Y-139673145D01*
X178024713Y-139680258D01*
X178049100Y-139682660D01*
X178073486Y-139680258D01*
X178096935Y-139673145D01*
X178118546Y-139661594D01*
X178137488Y-139646049D01*
X178153034Y-139627106D01*
X178164585Y-139605495D01*
X178255673Y-139385588D01*
X178387001Y-139189042D01*
X178554142Y-139021901D01*
X178750688Y-138890573D01*
X178969074Y-138800115D01*
X179200909Y-138754000D01*
X179437291Y-138754000D01*
X179669126Y-138800115D01*
X179887512Y-138890573D01*
X180084058Y-139021901D01*
X180251199Y-139189042D01*
X180382527Y-139385588D01*
X180473615Y-139605495D01*
X180485166Y-139627106D01*
X180500711Y-139646048D01*
X180519654Y-139661594D01*
X180541264Y-139673145D01*
X180564713Y-139680258D01*
X180589100Y-139682660D01*
X180613486Y-139680258D01*
X180636935Y-139673145D01*
X180658546Y-139661594D01*
X180677488Y-139646049D01*
X180693034Y-139627106D01*
X180704585Y-139605495D01*
X180795673Y-139385588D01*
X180927001Y-139189042D01*
X181094142Y-139021901D01*
X181290688Y-138890573D01*
X181509074Y-138800115D01*
X181740909Y-138754000D01*
X181977291Y-138754000D01*
X182209126Y-138800115D01*
X182427512Y-138890573D01*
X182624058Y-139021901D01*
X182791199Y-139189042D01*
X182922527Y-139385588D01*
X183013615Y-139605495D01*
X183025166Y-139627106D01*
X183040711Y-139646048D01*
X183059654Y-139661594D01*
X183081264Y-139673145D01*
X183104713Y-139680258D01*
X183129100Y-139682660D01*
X183153486Y-139680258D01*
X183176935Y-139673145D01*
X183198546Y-139661594D01*
X183217488Y-139646049D01*
X183233034Y-139627106D01*
X183244585Y-139605495D01*
X183335673Y-139385588D01*
X183467001Y-139189042D01*
X183634142Y-139021901D01*
X183830688Y-138890573D01*
X184049074Y-138800115D01*
X184280909Y-138754000D01*
X184517291Y-138754000D01*
X184749126Y-138800115D01*
X184967512Y-138890573D01*
X185164058Y-139021901D01*
X185331199Y-139189042D01*
X185462527Y-139385588D01*
X185553615Y-139605495D01*
X185565166Y-139627106D01*
X185580711Y-139646048D01*
X185599654Y-139661594D01*
X185621264Y-139673145D01*
X185644713Y-139680258D01*
X185669100Y-139682660D01*
X185693486Y-139680258D01*
X185716935Y-139673145D01*
X185738546Y-139661594D01*
X185757488Y-139646049D01*
X185773034Y-139627106D01*
X185784585Y-139605495D01*
X185875673Y-139385588D01*
X186007001Y-139189042D01*
X186174142Y-139021901D01*
X186370688Y-138890573D01*
X186589074Y-138800115D01*
X186820909Y-138754000D01*
X187057291Y-138754000D01*
X187289126Y-138800115D01*
X187507512Y-138890573D01*
X187704058Y-139021901D01*
X187871199Y-139189042D01*
X188002527Y-139385588D01*
X188092985Y-139603974D01*
X188139100Y-139835809D01*
X188139100Y-140072191D01*
X188092985Y-140304026D01*
X188002527Y-140522412D01*
X187871199Y-140718958D01*
X187704058Y-140886099D01*
X187507512Y-141017427D01*
X187289126Y-141107885D01*
X187057291Y-141154000D01*
X186820909Y-141154000D01*
X186589074Y-141107885D01*
X186370688Y-141017427D01*
X186174142Y-140886099D01*
X186007001Y-140718958D01*
X185875673Y-140522412D01*
X185784585Y-140302505D01*
X185773034Y-140280894D01*
X185757489Y-140261952D01*
X185738546Y-140246406D01*
X185716936Y-140234855D01*
X185693487Y-140227742D01*
X185669100Y-140225340D01*
X185644714Y-140227742D01*
X185621265Y-140234855D01*
X185599654Y-140246406D01*
X185580712Y-140261951D01*
X185565166Y-140280894D01*
X185553615Y-140302505D01*
X185462527Y-140522412D01*
X185331199Y-140718958D01*
X185164058Y-140886099D01*
X184967512Y-141017427D01*
X184749126Y-141107885D01*
X184517291Y-141154000D01*
X184280909Y-141154000D01*
X184049074Y-141107885D01*
X183830688Y-141017427D01*
X183634142Y-140886099D01*
X183467001Y-140718958D01*
X183335673Y-140522412D01*
X183244585Y-140302505D01*
X183233034Y-140280894D01*
X183217489Y-140261952D01*
X183198546Y-140246406D01*
X183176936Y-140234855D01*
X183153487Y-140227742D01*
X183129100Y-140225340D01*
X183104714Y-140227742D01*
X183081265Y-140234855D01*
X183059654Y-140246406D01*
X183040712Y-140261951D01*
X183025166Y-140280894D01*
X183013615Y-140302505D01*
X182922527Y-140522412D01*
X182791199Y-140718958D01*
X182624058Y-140886099D01*
X182427512Y-141017427D01*
X182209126Y-141107885D01*
X181977291Y-141154000D01*
X181740909Y-141154000D01*
X181509074Y-141107885D01*
X181290688Y-141017427D01*
X181094142Y-140886099D01*
X180927001Y-140718958D01*
X180795673Y-140522412D01*
X180704585Y-140302505D01*
X180693034Y-140280894D01*
X180677489Y-140261952D01*
X180658546Y-140246406D01*
X180636936Y-140234855D01*
X180613487Y-140227742D01*
X180589100Y-140225340D01*
X180564714Y-140227742D01*
X180541265Y-140234855D01*
X180519654Y-140246406D01*
X180500712Y-140261951D01*
X180485166Y-140280894D01*
X180473615Y-140302505D01*
X180382527Y-140522412D01*
X180251199Y-140718958D01*
X180084058Y-140886099D01*
X179887512Y-141017427D01*
X179669126Y-141107885D01*
X179437291Y-141154000D01*
X179200909Y-141154000D01*
X178969074Y-141107885D01*
X178750688Y-141017427D01*
X178554142Y-140886099D01*
X178387001Y-140718958D01*
X178255673Y-140522412D01*
X178164585Y-140302505D01*
X178153034Y-140280894D01*
X178137489Y-140261952D01*
X178118546Y-140246406D01*
X178096936Y-140234855D01*
X178073487Y-140227742D01*
X178049100Y-140225340D01*
X178024714Y-140227742D01*
X178001265Y-140234855D01*
X177979654Y-140246406D01*
X177960712Y-140261951D01*
X177945166Y-140280894D01*
X177933615Y-140302505D01*
X177842527Y-140522412D01*
X177711199Y-140718958D01*
X177544058Y-140886099D01*
X177347512Y-141017427D01*
X177129126Y-141107885D01*
X176897291Y-141154000D01*
X176660909Y-141154000D01*
X176429074Y-141107885D01*
X176210688Y-141017427D01*
X176014142Y-140886099D01*
X175847001Y-140718958D01*
X175715673Y-140522412D01*
X175624585Y-140302505D01*
X175613034Y-140280894D01*
X175597489Y-140261952D01*
X175578546Y-140246406D01*
X175556936Y-140234855D01*
X175533487Y-140227742D01*
X175509100Y-140225340D01*
X175484714Y-140227742D01*
X175461265Y-140234855D01*
X175439654Y-140246406D01*
X175420712Y-140261951D01*
X175405166Y-140280894D01*
X175393615Y-140302505D01*
X175302527Y-140522412D01*
X175171199Y-140718958D01*
X175004058Y-140886099D01*
X174807512Y-141017427D01*
X174589126Y-141107885D01*
X174357291Y-141154000D01*
X174120909Y-141154000D01*
X173889074Y-141107885D01*
X173670688Y-141017427D01*
X173474142Y-140886099D01*
X173307001Y-140718958D01*
X173175673Y-140522412D01*
X173084585Y-140302505D01*
X173073034Y-140280894D01*
X173057489Y-140261952D01*
X173038546Y-140246406D01*
X173016936Y-140234855D01*
X172993487Y-140227742D01*
X172969100Y-140225340D01*
X172944714Y-140227742D01*
X172921265Y-140234855D01*
X172899654Y-140246406D01*
X172880712Y-140261951D01*
X172865166Y-140280894D01*
X172853615Y-140302505D01*
X172762527Y-140522412D01*
X172631199Y-140718958D01*
X172464058Y-140886099D01*
X172267512Y-141017427D01*
X172049126Y-141107885D01*
X171817291Y-141154000D01*
X171580909Y-141154000D01*
X171349074Y-141107885D01*
X171130688Y-141017427D01*
X170934142Y-140886099D01*
X170767001Y-140718958D01*
X170635673Y-140522412D01*
X170544585Y-140302505D01*
X170533034Y-140280894D01*
X170517489Y-140261952D01*
X170498546Y-140246406D01*
X170476936Y-140234855D01*
X170453487Y-140227742D01*
X170429100Y-140225340D01*
X170404714Y-140227742D01*
X170381265Y-140234855D01*
X170359654Y-140246406D01*
X170340712Y-140261951D01*
X170325166Y-140280894D01*
X170313615Y-140302505D01*
X170222527Y-140522412D01*
X170091199Y-140718958D01*
X169924058Y-140886099D01*
X169727512Y-141017427D01*
X169509126Y-141107885D01*
X169277291Y-141154000D01*
X169040909Y-141154000D01*
X168809074Y-141107885D01*
X168590688Y-141017427D01*
X168394142Y-140886099D01*
X168227001Y-140718958D01*
X168095673Y-140522412D01*
X168004585Y-140302505D01*
X167993034Y-140280894D01*
X167977489Y-140261952D01*
X167958546Y-140246406D01*
X167936936Y-140234855D01*
X167913487Y-140227742D01*
X167889100Y-140225340D01*
X167864714Y-140227742D01*
X167841265Y-140234855D01*
X167819654Y-140246406D01*
X167800712Y-140261951D01*
X167785166Y-140280894D01*
X167773615Y-140302505D01*
X167682527Y-140522412D01*
X167551199Y-140718958D01*
X167384058Y-140886099D01*
X167187512Y-141017427D01*
X166969126Y-141107885D01*
X166737291Y-141154000D01*
X166500909Y-141154000D01*
X166269074Y-141107885D01*
X166050688Y-141017427D01*
X165854142Y-140886099D01*
X165687001Y-140718958D01*
X165555673Y-140522412D01*
X165464585Y-140302505D01*
X165453034Y-140280894D01*
X165437489Y-140261952D01*
X165418546Y-140246406D01*
X165396936Y-140234855D01*
X165373487Y-140227742D01*
X165349100Y-140225340D01*
X165324714Y-140227742D01*
X165301265Y-140234855D01*
X165279654Y-140246406D01*
X165260712Y-140261951D01*
X165245166Y-140280894D01*
X165233615Y-140302505D01*
X165142527Y-140522412D01*
X165011199Y-140718958D01*
X164844058Y-140886099D01*
X164647512Y-141017427D01*
X164429126Y-141107885D01*
X164197291Y-141154000D01*
X163960909Y-141154000D01*
X163729074Y-141107885D01*
X163510688Y-141017427D01*
X163314142Y-140886099D01*
X163147001Y-140718958D01*
X163015673Y-140522412D01*
X162924585Y-140302505D01*
X162913034Y-140280894D01*
X162897489Y-140261952D01*
X162878546Y-140246406D01*
X162856936Y-140234855D01*
X162833487Y-140227742D01*
X162809100Y-140225340D01*
X162784714Y-140227742D01*
X162761265Y-140234855D01*
X162739654Y-140246406D01*
X162720712Y-140261951D01*
X162705166Y-140280894D01*
X162693615Y-140302505D01*
X162602527Y-140522412D01*
X162471199Y-140718958D01*
X162304058Y-140886099D01*
X162107512Y-141017427D01*
X161889126Y-141107885D01*
X161657291Y-141154000D01*
X161420909Y-141154000D01*
X161189074Y-141107885D01*
X160970688Y-141017427D01*
X160774142Y-140886099D01*
X160607001Y-140718958D01*
X160475673Y-140522412D01*
X160384585Y-140302505D01*
X160373034Y-140280894D01*
X160357489Y-140261952D01*
X160338546Y-140246406D01*
X160316936Y-140234855D01*
X160293487Y-140227742D01*
X160269100Y-140225340D01*
X160244714Y-140227742D01*
X160221265Y-140234855D01*
X160199654Y-140246406D01*
X160180712Y-140261951D01*
X160165166Y-140280894D01*
X160153615Y-140302505D01*
X160062527Y-140522412D01*
X159931199Y-140718958D01*
X159764058Y-140886099D01*
X159567512Y-141017427D01*
X159349126Y-141107885D01*
X159117291Y-141154000D01*
X158880909Y-141154000D01*
X158649074Y-141107885D01*
X158430688Y-141017427D01*
X158234142Y-140886099D01*
X158067001Y-140718958D01*
X157935673Y-140522412D01*
X157844585Y-140302505D01*
X157833034Y-140280894D01*
X157817489Y-140261952D01*
X157798546Y-140246406D01*
X157776936Y-140234855D01*
X157753487Y-140227742D01*
X157729100Y-140225340D01*
X157704714Y-140227742D01*
X157681265Y-140234855D01*
X157659654Y-140246406D01*
X157640712Y-140261951D01*
X157625166Y-140280894D01*
X157613615Y-140302505D01*
X157522527Y-140522412D01*
X157391199Y-140718958D01*
X157224058Y-140886099D01*
X157027512Y-141017427D01*
X156809126Y-141107885D01*
X156577291Y-141154000D01*
X156340909Y-141154000D01*
X156109074Y-141107885D01*
X155890688Y-141017427D01*
X155694142Y-140886099D01*
X155527001Y-140718958D01*
X155395673Y-140522412D01*
X155304585Y-140302505D01*
X155293034Y-140280894D01*
X155277489Y-140261952D01*
X155258546Y-140246406D01*
X155236936Y-140234855D01*
X155213487Y-140227742D01*
X155189100Y-140225340D01*
X155164714Y-140227742D01*
X155141265Y-140234855D01*
X155119654Y-140246406D01*
X155100712Y-140261951D01*
X155085166Y-140280894D01*
X155073615Y-140302505D01*
X154982527Y-140522412D01*
X154851199Y-140718958D01*
X154684058Y-140886099D01*
X154487512Y-141017427D01*
X154269126Y-141107885D01*
X154037291Y-141154000D01*
X153800909Y-141154000D01*
X153569074Y-141107885D01*
X153350688Y-141017427D01*
X153154142Y-140886099D01*
X152987001Y-140718958D01*
X152855673Y-140522412D01*
X152764585Y-140302505D01*
X152753034Y-140280894D01*
X152737489Y-140261952D01*
X152718546Y-140246406D01*
X152696936Y-140234855D01*
X152673487Y-140227742D01*
X152649100Y-140225340D01*
X152624714Y-140227742D01*
X152601265Y-140234855D01*
X152579654Y-140246406D01*
X152560712Y-140261951D01*
X152545166Y-140280894D01*
X152533615Y-140302505D01*
X152442527Y-140522412D01*
X152311199Y-140718958D01*
X152144058Y-140886099D01*
X151947512Y-141017427D01*
X151729126Y-141107885D01*
X151497291Y-141154000D01*
X151260909Y-141154000D01*
X151029074Y-141107885D01*
X150810688Y-141017427D01*
X150614142Y-140886099D01*
X150447001Y-140718958D01*
X150315673Y-140522412D01*
X150224585Y-140302505D01*
X150213034Y-140280894D01*
X150197489Y-140261952D01*
X150178546Y-140246406D01*
X150156936Y-140234855D01*
X150133487Y-140227742D01*
X150109100Y-140225340D01*
X150084714Y-140227742D01*
X150061265Y-140234855D01*
X150039654Y-140246406D01*
X150020712Y-140261951D01*
X150005166Y-140280894D01*
X149993615Y-140302505D01*
X149902527Y-140522412D01*
X149771199Y-140718958D01*
X149604058Y-140886099D01*
X149407512Y-141017427D01*
X149189126Y-141107885D01*
X148957291Y-141154000D01*
X148720909Y-141154000D01*
X148489074Y-141107885D01*
X148270688Y-141017427D01*
X148074142Y-140886099D01*
X147907001Y-140718958D01*
X147775673Y-140522412D01*
X147684585Y-140302505D01*
X147673034Y-140280894D01*
X147657489Y-140261952D01*
X147638546Y-140246406D01*
X147616936Y-140234855D01*
X147593487Y-140227742D01*
X147569100Y-140225340D01*
X147544714Y-140227742D01*
X147521265Y-140234855D01*
X147499654Y-140246406D01*
X147480712Y-140261951D01*
X147465166Y-140280894D01*
X147453615Y-140302505D01*
X147362527Y-140522412D01*
X147231199Y-140718958D01*
X147064058Y-140886099D01*
X146867512Y-141017427D01*
X146649126Y-141107885D01*
X146417291Y-141154000D01*
X146180909Y-141154000D01*
X145949074Y-141107885D01*
X145730688Y-141017427D01*
X145534142Y-140886099D01*
X145367001Y-140718958D01*
X145235673Y-140522412D01*
X145144585Y-140302505D01*
X145133034Y-140280894D01*
X145117489Y-140261952D01*
X145098546Y-140246406D01*
X145076936Y-140234855D01*
X145053487Y-140227742D01*
X145029100Y-140225340D01*
X145004714Y-140227742D01*
X144981265Y-140234855D01*
X144959654Y-140246406D01*
X144940712Y-140261951D01*
X144925166Y-140280894D01*
X144913615Y-140302505D01*
X144822527Y-140522412D01*
X144691199Y-140718958D01*
X144524058Y-140886099D01*
X144327512Y-141017427D01*
X144109126Y-141107885D01*
X143877291Y-141154000D01*
X143640909Y-141154000D01*
X143409074Y-141107885D01*
X143190688Y-141017427D01*
X142994142Y-140886099D01*
X142827001Y-140718958D01*
X142695673Y-140522412D01*
X142604585Y-140302505D01*
X142593034Y-140280894D01*
X142577489Y-140261952D01*
X142558546Y-140246406D01*
X142536936Y-140234855D01*
X142513487Y-140227742D01*
X142489100Y-140225340D01*
X142464714Y-140227742D01*
X142441265Y-140234855D01*
X142419654Y-140246406D01*
X142400712Y-140261951D01*
X142385166Y-140280894D01*
X142373615Y-140302505D01*
X142282527Y-140522412D01*
X142151199Y-140718958D01*
X141984058Y-140886099D01*
X141787512Y-141017427D01*
X141569126Y-141107885D01*
X141337291Y-141154000D01*
X141100909Y-141154000D01*
X140869074Y-141107885D01*
X140650688Y-141017427D01*
X140454142Y-140886099D01*
X140287001Y-140718958D01*
X140155673Y-140522412D01*
X140119585Y-140435288D01*
X140108034Y-140413677D01*
X140092488Y-140394735D01*
X140073546Y-140379189D01*
X140051935Y-140367638D01*
X140028486Y-140360525D01*
X140004100Y-140358123D01*
X139979714Y-140360525D01*
X139956265Y-140367638D01*
X139934654Y-140379189D01*
X139915712Y-140394735D01*
X139900166Y-140413677D01*
X139888615Y-140435288D01*
X139881502Y-140458737D01*
X139879100Y-140483123D01*
X139879100Y-141154000D01*
X137479100Y-141154000D01*
X137479100Y-138754000D01*
X139879100Y-138754000D01*
X139879100Y-139424877D01*
X139879100Y-139424877D01*
G37*
G36*
X200150481Y-135121855D02*
X200350118Y-135161565D01*
X200488089Y-135218715D01*
X200632201Y-135278408D01*
X200886071Y-135448038D01*
X201101962Y-135663929D01*
X201271592Y-135917799D01*
X201271592Y-135917800D01*
X201388435Y-136199882D01*
X201388435Y-136199884D01*
X201433015Y-136424000D01*
X201448000Y-136499338D01*
X201448000Y-136804662D01*
X201388435Y-137104118D01*
X201350827Y-137194910D01*
X201271592Y-137386201D01*
X201101962Y-137640071D01*
X200886071Y-137855962D01*
X200632201Y-138025592D01*
X200538173Y-138064540D01*
X200350118Y-138142435D01*
X200150481Y-138182145D01*
X200050663Y-138202000D01*
X199745337Y-138202000D01*
X199645519Y-138182145D01*
X199445882Y-138142435D01*
X199257827Y-138064540D01*
X199163799Y-138025592D01*
X198909929Y-137855962D01*
X198694038Y-137640071D01*
X198524408Y-137386201D01*
X198445173Y-137194910D01*
X198407565Y-137104118D01*
X198348000Y-136804662D01*
X198348000Y-136499338D01*
X198362986Y-136424000D01*
X198407565Y-136199884D01*
X198407565Y-136199882D01*
X198524408Y-135917800D01*
X198524408Y-135917799D01*
X198694038Y-135663929D01*
X198909929Y-135448038D01*
X199163799Y-135278408D01*
X199307911Y-135218715D01*
X199445882Y-135161565D01*
X199645519Y-135121855D01*
X199745337Y-135102000D01*
X200050663Y-135102000D01*
X200150481Y-135121855D01*
X200150481Y-135121855D01*
G37*
G36*
X126231581Y-135121855D02*
X126431218Y-135161565D01*
X126569189Y-135218715D01*
X126713301Y-135278408D01*
X126967171Y-135448038D01*
X127183062Y-135663929D01*
X127352692Y-135917799D01*
X127352692Y-135917800D01*
X127469535Y-136199882D01*
X127469535Y-136199884D01*
X127514115Y-136424000D01*
X127529100Y-136499338D01*
X127529100Y-136804662D01*
X127469535Y-137104118D01*
X127431927Y-137194910D01*
X127352692Y-137386201D01*
X127183062Y-137640071D01*
X126967171Y-137855962D01*
X126713301Y-138025592D01*
X126619273Y-138064540D01*
X126431218Y-138142435D01*
X126231581Y-138182145D01*
X126131763Y-138202000D01*
X125826437Y-138202000D01*
X125726619Y-138182145D01*
X125526982Y-138142435D01*
X125338927Y-138064540D01*
X125244899Y-138025592D01*
X124991029Y-137855962D01*
X124775138Y-137640071D01*
X124605508Y-137386201D01*
X124526273Y-137194910D01*
X124488665Y-137104118D01*
X124429100Y-136804662D01*
X124429100Y-136499338D01*
X124444086Y-136424000D01*
X124488665Y-136199884D01*
X124488665Y-136199882D01*
X124605508Y-135917800D01*
X124605508Y-135917799D01*
X124775138Y-135663929D01*
X124991029Y-135448038D01*
X125244899Y-135278408D01*
X125389011Y-135218715D01*
X125526982Y-135161565D01*
X125726619Y-135121855D01*
X125826437Y-135102000D01*
X126131763Y-135102000D01*
X126231581Y-135121855D01*
X126231581Y-135121855D01*
G37*
G36*
X205582026Y-125211115D02*
X205800412Y-125301573D01*
X205996958Y-125432901D01*
X206164099Y-125600042D01*
X206295427Y-125796588D01*
X206385885Y-126014974D01*
X206432000Y-126246809D01*
X206432000Y-126483191D01*
X206385885Y-126715026D01*
X206295427Y-126933412D01*
X206164099Y-127129958D01*
X205996958Y-127297099D01*
X205800412Y-127428427D01*
X205572690Y-127522752D01*
X205551079Y-127534303D01*
X205532137Y-127549848D01*
X205516591Y-127568790D01*
X205505040Y-127590401D01*
X205497927Y-127613850D01*
X205495525Y-127638237D01*
X205497927Y-127662623D01*
X205505040Y-127686072D01*
X205516591Y-127707683D01*
X205532136Y-127726625D01*
X205551078Y-127742171D01*
X205572689Y-127753722D01*
X205584233Y-127757852D01*
X205693442Y-127790981D01*
X205693445Y-127790982D01*
X205901910Y-127902408D01*
X206084634Y-128052366D01*
X206234592Y-128235090D01*
X206346017Y-128443553D01*
X206346018Y-128443556D01*
X206346019Y-128443558D01*
X206414637Y-128669759D01*
X206437806Y-128905000D01*
X206414637Y-129140241D01*
X206346019Y-129366442D01*
X206346017Y-129366447D01*
X206234592Y-129574910D01*
X206084634Y-129757634D01*
X205901910Y-129907592D01*
X205693446Y-130019018D01*
X205654034Y-130030973D01*
X205573565Y-130055384D01*
X205550929Y-130064760D01*
X205530555Y-130078374D01*
X205513228Y-130095701D01*
X205499614Y-130116075D01*
X205490236Y-130138714D01*
X205485456Y-130162748D01*
X205485456Y-130187252D01*
X205490236Y-130211285D01*
X205499614Y-130233925D01*
X205513228Y-130254299D01*
X205530555Y-130271626D01*
X205550929Y-130285240D01*
X205573565Y-130294616D01*
X205654034Y-130319027D01*
X205693446Y-130330982D01*
X205901910Y-130442408D01*
X206084634Y-130592366D01*
X206234592Y-130775090D01*
X206346017Y-130983553D01*
X206346018Y-130983556D01*
X206346019Y-130983558D01*
X206414637Y-131209759D01*
X206437806Y-131445000D01*
X206414637Y-131680241D01*
X206346019Y-131906442D01*
X206346017Y-131906447D01*
X206234592Y-132114910D01*
X206084634Y-132297634D01*
X205901910Y-132447592D01*
X205693446Y-132559018D01*
X205654034Y-132570973D01*
X205573565Y-132595384D01*
X205550929Y-132604760D01*
X205530555Y-132618374D01*
X205513228Y-132635701D01*
X205499614Y-132656075D01*
X205490236Y-132678714D01*
X205485456Y-132702748D01*
X205485456Y-132727252D01*
X205490236Y-132751285D01*
X205499614Y-132773925D01*
X205513228Y-132794299D01*
X205530555Y-132811626D01*
X205550929Y-132825240D01*
X205573565Y-132834616D01*
X205654034Y-132859027D01*
X205693446Y-132870982D01*
X205901910Y-132982408D01*
X206084634Y-133132366D01*
X206234592Y-133315090D01*
X206346017Y-133523553D01*
X206346018Y-133523556D01*
X206346019Y-133523558D01*
X206414637Y-133749759D01*
X206437806Y-133985000D01*
X206414637Y-134220241D01*
X206346019Y-134446442D01*
X206346017Y-134446447D01*
X206234592Y-134654910D01*
X206084634Y-134837634D01*
X205901910Y-134987592D01*
X205693446Y-135099018D01*
X205654034Y-135110973D01*
X205573565Y-135135384D01*
X205550929Y-135144760D01*
X205530555Y-135158374D01*
X205513228Y-135175701D01*
X205499614Y-135196075D01*
X205490236Y-135218714D01*
X205485456Y-135242748D01*
X205485456Y-135267252D01*
X205490236Y-135291285D01*
X205499614Y-135313925D01*
X205513228Y-135334299D01*
X205530555Y-135351626D01*
X205550929Y-135365240D01*
X205573565Y-135374616D01*
X205654034Y-135399027D01*
X205693446Y-135410982D01*
X205901910Y-135522408D01*
X206084634Y-135672366D01*
X206234592Y-135855090D01*
X206346017Y-136063553D01*
X206346018Y-136063556D01*
X206346019Y-136063558D01*
X206414637Y-136289759D01*
X206437806Y-136525000D01*
X206414637Y-136760241D01*
X206346019Y-136986442D01*
X206346017Y-136986447D01*
X206234592Y-137194910D01*
X206084634Y-137377634D01*
X205901910Y-137527592D01*
X205693447Y-137639017D01*
X205693444Y-137639018D01*
X205693442Y-137639019D01*
X205467241Y-137707637D01*
X205326208Y-137721527D01*
X205290951Y-137725000D01*
X205173049Y-137725000D01*
X205137792Y-137721527D01*
X204996759Y-137707637D01*
X204770558Y-137639019D01*
X204770556Y-137639018D01*
X204770553Y-137639017D01*
X204562090Y-137527592D01*
X204379366Y-137377634D01*
X204229408Y-137194910D01*
X204117983Y-136986447D01*
X204117981Y-136986442D01*
X204049363Y-136760241D01*
X204026194Y-136525000D01*
X204049363Y-136289759D01*
X204117981Y-136063558D01*
X204117982Y-136063556D01*
X204117983Y-136063553D01*
X204229408Y-135855090D01*
X204379366Y-135672366D01*
X204562090Y-135522408D01*
X204770554Y-135410982D01*
X204809966Y-135399027D01*
X204890435Y-135374616D01*
X204913071Y-135365240D01*
X204933445Y-135351626D01*
X204950772Y-135334299D01*
X204964386Y-135313925D01*
X204973764Y-135291286D01*
X204978544Y-135267252D01*
X204978544Y-135242748D01*
X204973764Y-135218715D01*
X204964386Y-135196075D01*
X204950772Y-135175701D01*
X204933445Y-135158374D01*
X204913071Y-135144760D01*
X204890435Y-135135384D01*
X204809966Y-135110973D01*
X204770554Y-135099018D01*
X204562090Y-134987592D01*
X204379366Y-134837634D01*
X204229408Y-134654910D01*
X204117983Y-134446447D01*
X204117981Y-134446442D01*
X204049363Y-134220241D01*
X204026194Y-133985000D01*
X204049363Y-133749759D01*
X204117981Y-133523558D01*
X204117982Y-133523556D01*
X204117983Y-133523553D01*
X204229408Y-133315090D01*
X204379366Y-133132366D01*
X204562090Y-132982408D01*
X204770554Y-132870982D01*
X204809966Y-132859027D01*
X204890435Y-132834616D01*
X204913071Y-132825240D01*
X204933445Y-132811626D01*
X204950772Y-132794299D01*
X204964386Y-132773925D01*
X204973764Y-132751286D01*
X204978544Y-132727252D01*
X204978544Y-132702748D01*
X204973764Y-132678715D01*
X204964386Y-132656075D01*
X204950772Y-132635701D01*
X204933445Y-132618374D01*
X204913071Y-132604760D01*
X204890435Y-132595384D01*
X204809966Y-132570973D01*
X204770554Y-132559018D01*
X204562090Y-132447592D01*
X204379366Y-132297634D01*
X204229408Y-132114910D01*
X204117983Y-131906447D01*
X204117981Y-131906442D01*
X204049363Y-131680241D01*
X204026194Y-131445000D01*
X204049363Y-131209759D01*
X204117981Y-130983558D01*
X204117982Y-130983556D01*
X204117983Y-130983553D01*
X204229408Y-130775090D01*
X204379366Y-130592366D01*
X204562090Y-130442408D01*
X204770554Y-130330982D01*
X204809966Y-130319027D01*
X204890435Y-130294616D01*
X204913071Y-130285240D01*
X204933445Y-130271626D01*
X204950772Y-130254299D01*
X204964386Y-130233925D01*
X204973764Y-130211286D01*
X204978544Y-130187252D01*
X204978544Y-130162748D01*
X204973764Y-130138715D01*
X204964386Y-130116075D01*
X204950772Y-130095701D01*
X204933445Y-130078374D01*
X204913071Y-130064760D01*
X204890435Y-130055384D01*
X204809966Y-130030973D01*
X204770554Y-130019018D01*
X204562090Y-129907592D01*
X204379366Y-129757634D01*
X204229408Y-129574910D01*
X204117983Y-129366447D01*
X204117981Y-129366442D01*
X204049363Y-129140241D01*
X204026194Y-128905000D01*
X204049363Y-128669759D01*
X204117981Y-128443558D01*
X204117982Y-128443556D01*
X204117983Y-128443553D01*
X204229408Y-128235090D01*
X204379366Y-128052366D01*
X204562090Y-127902408D01*
X204770555Y-127790982D01*
X204770558Y-127790981D01*
X204879764Y-127757854D01*
X204902400Y-127748477D01*
X204922774Y-127734863D01*
X204940101Y-127717536D01*
X204953715Y-127697162D01*
X204963093Y-127674523D01*
X204967873Y-127650489D01*
X204967873Y-127625985D01*
X204963093Y-127601952D01*
X204953715Y-127579312D01*
X204940101Y-127558938D01*
X204922774Y-127541611D01*
X204902400Y-127527997D01*
X204891310Y-127522752D01*
X204663588Y-127428427D01*
X204467042Y-127297099D01*
X204299901Y-127129958D01*
X204168573Y-126933412D01*
X204078115Y-126715026D01*
X204032000Y-126483191D01*
X204032000Y-126246809D01*
X204078115Y-126014974D01*
X204168573Y-125796588D01*
X204299901Y-125600042D01*
X204467042Y-125432901D01*
X204663588Y-125301573D01*
X204881974Y-125211115D01*
X205113809Y-125165000D01*
X205350191Y-125165000D01*
X205582026Y-125211115D01*
X205582026Y-125211115D01*
G37*
G36*
X176274481Y-133343855D02*
X176474118Y-133383565D01*
X176662173Y-133461460D01*
X176756201Y-133500408D01*
X177010071Y-133670038D01*
X177225962Y-133885929D01*
X177395592Y-134139799D01*
X177395592Y-134139800D01*
X177512435Y-134421882D01*
X177512435Y-134421884D01*
X177572000Y-134721337D01*
X177572000Y-135026663D01*
X177552145Y-135126481D01*
X177512435Y-135326118D01*
X177434540Y-135514173D01*
X177395592Y-135608201D01*
X177225962Y-135862071D01*
X177010071Y-136077962D01*
X176756201Y-136247592D01*
X176662173Y-136286540D01*
X176474118Y-136364435D01*
X176274481Y-136404145D01*
X176174663Y-136424000D01*
X175869337Y-136424000D01*
X175769519Y-136404145D01*
X175569882Y-136364435D01*
X175381827Y-136286540D01*
X175287799Y-136247592D01*
X175033929Y-136077962D01*
X174818038Y-135862071D01*
X174648408Y-135608201D01*
X174609460Y-135514173D01*
X174531565Y-135326118D01*
X174491855Y-135126481D01*
X174472000Y-135026663D01*
X174472000Y-134721337D01*
X174531565Y-134421884D01*
X174531565Y-134421882D01*
X174648408Y-134139800D01*
X174648408Y-134139799D01*
X174818038Y-133885929D01*
X175033929Y-133670038D01*
X175287799Y-133500408D01*
X175381827Y-133461460D01*
X175569882Y-133383565D01*
X175769519Y-133343855D01*
X175869337Y-133324000D01*
X176174663Y-133324000D01*
X176274481Y-133343855D01*
X176274481Y-133343855D01*
G37*
G36*
X156208481Y-133343855D02*
X156408118Y-133383565D01*
X156596173Y-133461460D01*
X156690201Y-133500408D01*
X156944071Y-133670038D01*
X157159962Y-133885929D01*
X157329592Y-134139799D01*
X157329592Y-134139800D01*
X157446435Y-134421882D01*
X157446435Y-134421884D01*
X157506000Y-134721337D01*
X157506000Y-135026663D01*
X157486145Y-135126481D01*
X157446435Y-135326118D01*
X157368540Y-135514173D01*
X157329592Y-135608201D01*
X157159962Y-135862071D01*
X156944071Y-136077962D01*
X156690201Y-136247592D01*
X156596173Y-136286540D01*
X156408118Y-136364435D01*
X156208481Y-136404145D01*
X156108663Y-136424000D01*
X155803337Y-136424000D01*
X155703519Y-136404145D01*
X155503882Y-136364435D01*
X155315827Y-136286540D01*
X155221799Y-136247592D01*
X154967929Y-136077962D01*
X154752038Y-135862071D01*
X154582408Y-135608201D01*
X154543460Y-135514173D01*
X154465565Y-135326118D01*
X154425855Y-135126481D01*
X154406000Y-135026663D01*
X154406000Y-134721337D01*
X154465565Y-134421884D01*
X154465565Y-134421882D01*
X154582408Y-134139800D01*
X154582408Y-134139799D01*
X154752038Y-133885929D01*
X154967929Y-133670038D01*
X155221799Y-133500408D01*
X155315827Y-133461460D01*
X155503882Y-133383565D01*
X155703519Y-133343855D01*
X155803337Y-133324000D01*
X156108663Y-133324000D01*
X156208481Y-133343855D01*
X156208481Y-133343855D01*
G37*
G36*
X205360707Y-118337596D02*
X205437836Y-118345193D01*
X205569787Y-118385220D01*
X205635763Y-118405233D01*
X205818172Y-118502733D01*
X205978054Y-118633946D01*
X206109267Y-118793828D01*
X206206767Y-118976237D01*
X206206767Y-118976238D01*
X206266807Y-119174164D01*
X206287080Y-119380000D01*
X206266807Y-119585836D01*
X206226780Y-119717787D01*
X206206767Y-119783763D01*
X206109267Y-119966172D01*
X205978054Y-120126054D01*
X205818172Y-120257267D01*
X205635763Y-120354767D01*
X205569787Y-120374780D01*
X205437836Y-120414807D01*
X205360707Y-120422404D01*
X205283580Y-120430000D01*
X205180420Y-120430000D01*
X205103293Y-120422404D01*
X205026164Y-120414807D01*
X204894213Y-120374780D01*
X204828237Y-120354767D01*
X204645828Y-120257267D01*
X204485946Y-120126054D01*
X204354733Y-119966172D01*
X204257233Y-119783763D01*
X204237220Y-119717787D01*
X204197193Y-119585836D01*
X204176920Y-119380000D01*
X204197193Y-119174164D01*
X204257233Y-118976238D01*
X204257233Y-118976237D01*
X204354733Y-118793828D01*
X204485946Y-118633946D01*
X204645828Y-118502733D01*
X204828237Y-118405233D01*
X204894213Y-118385220D01*
X205026164Y-118345193D01*
X205103293Y-118337596D01*
X205180420Y-118330000D01*
X205283580Y-118330000D01*
X205360707Y-118337596D01*
X205360707Y-118337596D01*
G37*
G36*
X205360707Y-115797596D02*
X205437836Y-115805193D01*
X205569787Y-115845220D01*
X205635763Y-115865233D01*
X205818172Y-115962733D01*
X205978054Y-116093946D01*
X206109267Y-116253828D01*
X206206767Y-116436237D01*
X206206767Y-116436238D01*
X206266807Y-116634164D01*
X206287080Y-116840000D01*
X206266807Y-117045836D01*
X206226780Y-117177787D01*
X206206767Y-117243763D01*
X206109267Y-117426172D01*
X205978054Y-117586054D01*
X205818172Y-117717267D01*
X205635763Y-117814767D01*
X205569787Y-117834780D01*
X205437836Y-117874807D01*
X205360707Y-117882404D01*
X205283580Y-117890000D01*
X205180420Y-117890000D01*
X205103293Y-117882404D01*
X205026164Y-117874807D01*
X204894213Y-117834780D01*
X204828237Y-117814767D01*
X204645828Y-117717267D01*
X204485946Y-117586054D01*
X204354733Y-117426172D01*
X204257233Y-117243763D01*
X204237220Y-117177787D01*
X204197193Y-117045836D01*
X204176920Y-116840000D01*
X204197193Y-116634164D01*
X204257233Y-116436238D01*
X204257233Y-116436237D01*
X204354733Y-116253828D01*
X204485946Y-116093946D01*
X204645828Y-115962733D01*
X204828237Y-115865233D01*
X204894213Y-115845220D01*
X205026164Y-115805193D01*
X205103293Y-115797596D01*
X205180420Y-115790000D01*
X205283580Y-115790000D01*
X205360707Y-115797596D01*
X205360707Y-115797596D01*
G37*
G36*
X176274481Y-113277855D02*
X176474118Y-113317565D01*
X176662173Y-113395460D01*
X176756201Y-113434408D01*
X177010071Y-113604038D01*
X177225962Y-113819929D01*
X177395592Y-114073799D01*
X177395592Y-114073800D01*
X177512435Y-114355882D01*
X177572000Y-114655338D01*
X177572000Y-114960662D01*
X177512435Y-115260118D01*
X177475204Y-115350000D01*
X177395592Y-115542201D01*
X177225962Y-115796071D01*
X177010071Y-116011962D01*
X176756201Y-116181592D01*
X176662173Y-116220540D01*
X176474118Y-116298435D01*
X176274481Y-116338145D01*
X176174663Y-116358000D01*
X175869337Y-116358000D01*
X175769519Y-116338145D01*
X175569882Y-116298435D01*
X175381827Y-116220540D01*
X175287799Y-116181592D01*
X175033929Y-116011962D01*
X174818038Y-115796071D01*
X174648408Y-115542201D01*
X174568796Y-115350000D01*
X174531565Y-115260118D01*
X174472000Y-114960662D01*
X174472000Y-114655338D01*
X174531565Y-114355882D01*
X174648408Y-114073800D01*
X174648408Y-114073799D01*
X174818038Y-113819929D01*
X175033929Y-113604038D01*
X175287799Y-113434408D01*
X175381827Y-113395460D01*
X175569882Y-113317565D01*
X175769519Y-113277855D01*
X175869337Y-113258000D01*
X176174663Y-113258000D01*
X176274481Y-113277855D01*
X176274481Y-113277855D01*
G37*
G36*
X156208481Y-113277855D02*
X156408118Y-113317565D01*
X156596173Y-113395460D01*
X156690201Y-113434408D01*
X156944071Y-113604038D01*
X157159962Y-113819929D01*
X157329592Y-114073799D01*
X157329592Y-114073800D01*
X157446435Y-114355882D01*
X157506000Y-114655338D01*
X157506000Y-114960662D01*
X157446435Y-115260118D01*
X157409204Y-115350000D01*
X157329592Y-115542201D01*
X157159962Y-115796071D01*
X156944071Y-116011962D01*
X156690201Y-116181592D01*
X156596173Y-116220540D01*
X156408118Y-116298435D01*
X156208481Y-116338145D01*
X156108663Y-116358000D01*
X155803337Y-116358000D01*
X155703519Y-116338145D01*
X155503882Y-116298435D01*
X155315827Y-116220540D01*
X155221799Y-116181592D01*
X154967929Y-116011962D01*
X154752038Y-115796071D01*
X154582408Y-115542201D01*
X154502796Y-115350000D01*
X154465565Y-115260118D01*
X154406000Y-114960662D01*
X154406000Y-114655338D01*
X154465565Y-114355882D01*
X154582408Y-114073800D01*
X154582408Y-114073799D01*
X154752038Y-113819929D01*
X154967929Y-113604038D01*
X155221799Y-113434408D01*
X155315827Y-113395460D01*
X155503882Y-113317565D01*
X155703519Y-113277855D01*
X155803337Y-113258000D01*
X156108663Y-113258000D01*
X156208481Y-113277855D01*
X156208481Y-113277855D01*
G37*
G36*
X205360707Y-113257596D02*
X205437836Y-113265193D01*
X205569787Y-113305220D01*
X205635763Y-113325233D01*
X205818172Y-113422733D01*
X205978054Y-113553946D01*
X206109267Y-113713828D01*
X206206767Y-113896237D01*
X206206767Y-113896238D01*
X206266807Y-114094164D01*
X206287080Y-114300000D01*
X206266807Y-114505836D01*
X206226780Y-114637787D01*
X206206767Y-114703763D01*
X206109267Y-114886172D01*
X205978054Y-115046054D01*
X205818172Y-115177267D01*
X205635763Y-115274767D01*
X205569787Y-115294780D01*
X205437836Y-115334807D01*
X205360707Y-115342403D01*
X205283580Y-115350000D01*
X205180420Y-115350000D01*
X205103293Y-115342403D01*
X205026164Y-115334807D01*
X204894213Y-115294780D01*
X204828237Y-115274767D01*
X204645828Y-115177267D01*
X204485946Y-115046054D01*
X204354733Y-114886172D01*
X204257233Y-114703763D01*
X204237220Y-114637787D01*
X204197193Y-114505836D01*
X204176920Y-114300000D01*
X204197193Y-114094164D01*
X204257233Y-113896238D01*
X204257233Y-113896237D01*
X204354733Y-113713828D01*
X204485946Y-113553946D01*
X204645828Y-113422733D01*
X204828237Y-113325233D01*
X204894213Y-113305220D01*
X205026164Y-113265193D01*
X205103293Y-113257596D01*
X205180420Y-113250000D01*
X205283580Y-113250000D01*
X205360707Y-113257596D01*
X205360707Y-113257596D01*
G37*
G36*
X206282000Y-112810000D02*
X204182000Y-112810000D01*
X204182000Y-110710000D01*
X206282000Y-110710000D01*
X206282000Y-112810000D01*
X206282000Y-112810000D01*
G37*
G36*
X152060000Y-111936000D02*
X147660000Y-111936000D01*
X147660000Y-108536000D01*
X152060000Y-108536000D01*
X152060000Y-111936000D01*
X152060000Y-111936000D01*
G37*
G36*
X171364000Y-111936000D02*
X166964000Y-111936000D01*
X166964000Y-108536000D01*
X171364000Y-108536000D01*
X171364000Y-111936000D01*
X171364000Y-111936000D01*
G37*
G36*
X205582026Y-88330315D02*
X205800412Y-88420773D01*
X205996958Y-88552101D01*
X206164099Y-88719242D01*
X206295427Y-88915788D01*
X206385885Y-89134174D01*
X206432000Y-89366009D01*
X206432000Y-89602391D01*
X206385885Y-89834226D01*
X206295427Y-90052612D01*
X206164099Y-90249158D01*
X205996958Y-90416299D01*
X205800412Y-90547627D01*
X205572690Y-90641952D01*
X205551079Y-90653503D01*
X205532137Y-90669048D01*
X205516591Y-90687990D01*
X205505040Y-90709601D01*
X205497927Y-90733050D01*
X205495525Y-90757437D01*
X205497927Y-90781823D01*
X205505040Y-90805272D01*
X205516591Y-90826883D01*
X205532136Y-90845825D01*
X205551078Y-90861371D01*
X205572689Y-90872922D01*
X205584233Y-90877052D01*
X205693442Y-90910181D01*
X205693445Y-90910182D01*
X205901910Y-91021608D01*
X206084634Y-91171566D01*
X206234592Y-91354290D01*
X206346017Y-91562753D01*
X206346018Y-91562756D01*
X206346019Y-91562758D01*
X206414637Y-91788959D01*
X206437806Y-92024200D01*
X206414637Y-92259441D01*
X206346019Y-92485642D01*
X206346017Y-92485647D01*
X206234592Y-92694110D01*
X206084634Y-92876834D01*
X205901910Y-93026792D01*
X205693446Y-93138218D01*
X205654034Y-93150173D01*
X205573565Y-93174584D01*
X205550929Y-93183960D01*
X205530555Y-93197574D01*
X205513228Y-93214901D01*
X205499614Y-93235275D01*
X205490236Y-93257914D01*
X205485456Y-93281948D01*
X205485456Y-93306452D01*
X205490236Y-93330485D01*
X205499614Y-93353125D01*
X205513228Y-93373499D01*
X205530555Y-93390826D01*
X205550929Y-93404440D01*
X205573565Y-93413816D01*
X205654034Y-93438227D01*
X205693446Y-93450182D01*
X205901910Y-93561608D01*
X206084634Y-93711566D01*
X206234592Y-93894290D01*
X206346017Y-94102753D01*
X206346018Y-94102756D01*
X206346019Y-94102758D01*
X206414637Y-94328959D01*
X206437806Y-94564200D01*
X206414637Y-94799441D01*
X206346019Y-95025642D01*
X206346017Y-95025647D01*
X206234592Y-95234110D01*
X206084634Y-95416834D01*
X205901910Y-95566792D01*
X205693446Y-95678218D01*
X205654034Y-95690173D01*
X205573565Y-95714584D01*
X205550929Y-95723960D01*
X205530555Y-95737574D01*
X205513228Y-95754901D01*
X205499614Y-95775275D01*
X205490236Y-95797914D01*
X205485456Y-95821948D01*
X205485456Y-95846452D01*
X205490236Y-95870485D01*
X205499614Y-95893125D01*
X205513228Y-95913499D01*
X205530555Y-95930826D01*
X205550929Y-95944440D01*
X205573565Y-95953816D01*
X205654034Y-95978227D01*
X205693446Y-95990182D01*
X205901910Y-96101608D01*
X206084634Y-96251566D01*
X206234592Y-96434290D01*
X206346017Y-96642753D01*
X206346018Y-96642756D01*
X206346019Y-96642758D01*
X206414637Y-96868959D01*
X206437806Y-97104200D01*
X206414637Y-97339441D01*
X206346019Y-97565642D01*
X206346017Y-97565647D01*
X206234592Y-97774110D01*
X206084634Y-97956834D01*
X205901910Y-98106792D01*
X205693446Y-98218218D01*
X205654034Y-98230173D01*
X205573565Y-98254584D01*
X205550929Y-98263960D01*
X205530555Y-98277574D01*
X205513228Y-98294901D01*
X205499614Y-98315275D01*
X205490236Y-98337914D01*
X205485456Y-98361948D01*
X205485456Y-98386452D01*
X205490236Y-98410485D01*
X205499614Y-98433125D01*
X205513228Y-98453499D01*
X205530555Y-98470826D01*
X205550929Y-98484440D01*
X205573565Y-98493816D01*
X205654034Y-98518227D01*
X205693446Y-98530182D01*
X205901910Y-98641608D01*
X206084634Y-98791566D01*
X206234592Y-98974290D01*
X206346017Y-99182753D01*
X206346018Y-99182756D01*
X206346019Y-99182758D01*
X206414637Y-99408959D01*
X206437806Y-99644200D01*
X206414637Y-99879441D01*
X206346019Y-100105642D01*
X206346017Y-100105647D01*
X206234592Y-100314110D01*
X206084634Y-100496834D01*
X205901910Y-100646792D01*
X205693447Y-100758217D01*
X205693444Y-100758218D01*
X205693442Y-100758219D01*
X205467241Y-100826837D01*
X205326208Y-100840727D01*
X205290951Y-100844200D01*
X205173049Y-100844200D01*
X205137792Y-100840727D01*
X204996759Y-100826837D01*
X204770558Y-100758219D01*
X204770556Y-100758218D01*
X204770553Y-100758217D01*
X204562090Y-100646792D01*
X204379366Y-100496834D01*
X204229408Y-100314110D01*
X204117983Y-100105647D01*
X204117981Y-100105642D01*
X204049363Y-99879441D01*
X204026194Y-99644200D01*
X204049363Y-99408959D01*
X204117981Y-99182758D01*
X204117982Y-99182756D01*
X204117983Y-99182753D01*
X204229408Y-98974290D01*
X204379366Y-98791566D01*
X204562090Y-98641608D01*
X204770554Y-98530182D01*
X204809966Y-98518227D01*
X204890435Y-98493816D01*
X204913071Y-98484440D01*
X204933445Y-98470826D01*
X204950772Y-98453499D01*
X204964386Y-98433125D01*
X204973764Y-98410486D01*
X204978544Y-98386452D01*
X204978544Y-98361948D01*
X204973764Y-98337915D01*
X204964386Y-98315275D01*
X204950772Y-98294901D01*
X204933445Y-98277574D01*
X204913071Y-98263960D01*
X204890435Y-98254584D01*
X204809966Y-98230173D01*
X204770554Y-98218218D01*
X204562090Y-98106792D01*
X204379366Y-97956834D01*
X204229408Y-97774110D01*
X204117983Y-97565647D01*
X204117981Y-97565642D01*
X204049363Y-97339441D01*
X204026194Y-97104200D01*
X204049363Y-96868959D01*
X204117981Y-96642758D01*
X204117982Y-96642756D01*
X204117983Y-96642753D01*
X204229408Y-96434290D01*
X204379366Y-96251566D01*
X204562090Y-96101608D01*
X204770554Y-95990182D01*
X204809966Y-95978227D01*
X204890435Y-95953816D01*
X204913071Y-95944440D01*
X204933445Y-95930826D01*
X204950772Y-95913499D01*
X204964386Y-95893125D01*
X204973764Y-95870486D01*
X204978544Y-95846452D01*
X204978544Y-95821948D01*
X204973764Y-95797915D01*
X204964386Y-95775275D01*
X204950772Y-95754901D01*
X204933445Y-95737574D01*
X204913071Y-95723960D01*
X204890435Y-95714584D01*
X204809966Y-95690173D01*
X204770554Y-95678218D01*
X204562090Y-95566792D01*
X204379366Y-95416834D01*
X204229408Y-95234110D01*
X204117983Y-95025647D01*
X204117981Y-95025642D01*
X204049363Y-94799441D01*
X204026194Y-94564200D01*
X204049363Y-94328959D01*
X204117981Y-94102758D01*
X204117982Y-94102756D01*
X204117983Y-94102753D01*
X204229408Y-93894290D01*
X204379366Y-93711566D01*
X204562090Y-93561608D01*
X204770554Y-93450182D01*
X204809966Y-93438227D01*
X204890435Y-93413816D01*
X204913071Y-93404440D01*
X204933445Y-93390826D01*
X204950772Y-93373499D01*
X204964386Y-93353125D01*
X204973764Y-93330486D01*
X204978544Y-93306452D01*
X204978544Y-93281948D01*
X204973764Y-93257915D01*
X204964386Y-93235275D01*
X204950772Y-93214901D01*
X204933445Y-93197574D01*
X204913071Y-93183960D01*
X204890435Y-93174584D01*
X204809966Y-93150173D01*
X204770554Y-93138218D01*
X204562090Y-93026792D01*
X204379366Y-92876834D01*
X204229408Y-92694110D01*
X204117983Y-92485647D01*
X204117981Y-92485642D01*
X204049363Y-92259441D01*
X204026194Y-92024200D01*
X204049363Y-91788959D01*
X204117981Y-91562758D01*
X204117982Y-91562756D01*
X204117983Y-91562753D01*
X204229408Y-91354290D01*
X204379366Y-91171566D01*
X204562090Y-91021608D01*
X204770555Y-90910182D01*
X204770558Y-90910181D01*
X204879764Y-90877054D01*
X204902400Y-90867677D01*
X204922774Y-90854063D01*
X204940101Y-90836736D01*
X204953715Y-90816362D01*
X204963093Y-90793723D01*
X204967873Y-90769689D01*
X204967873Y-90745185D01*
X204963093Y-90721152D01*
X204953715Y-90698512D01*
X204940101Y-90678138D01*
X204922774Y-90660811D01*
X204902400Y-90647197D01*
X204891310Y-90641952D01*
X204663588Y-90547627D01*
X204467042Y-90416299D01*
X204299901Y-90249158D01*
X204168573Y-90052612D01*
X204078115Y-89834226D01*
X204032000Y-89602391D01*
X204032000Y-89366009D01*
X204078115Y-89134174D01*
X204168573Y-88915788D01*
X204299901Y-88719242D01*
X204467042Y-88552101D01*
X204663588Y-88420773D01*
X204881974Y-88330315D01*
X205113809Y-88284200D01*
X205350191Y-88284200D01*
X205582026Y-88330315D01*
X205582026Y-88330315D01*
G37*
G36*
X192066481Y-96154855D02*
X192266118Y-96194565D01*
X192454173Y-96272460D01*
X192548201Y-96311408D01*
X192802071Y-96481038D01*
X193017962Y-96696929D01*
X193187592Y-96950799D01*
X193187592Y-96950800D01*
X193304435Y-97232882D01*
X193364000Y-97532338D01*
X193364000Y-97837662D01*
X193304435Y-98137118D01*
X193255779Y-98254582D01*
X193187592Y-98419201D01*
X193017962Y-98673071D01*
X192802071Y-98888962D01*
X192548201Y-99058592D01*
X192454173Y-99097540D01*
X192266118Y-99175435D01*
X192066481Y-99215145D01*
X191966663Y-99235000D01*
X191661337Y-99235000D01*
X191561519Y-99215145D01*
X191361882Y-99175435D01*
X191173827Y-99097540D01*
X191079799Y-99058592D01*
X190825929Y-98888962D01*
X190610038Y-98673071D01*
X190440408Y-98419201D01*
X190372221Y-98254582D01*
X190323565Y-98137118D01*
X190264000Y-97837662D01*
X190264000Y-97532338D01*
X190323565Y-97232882D01*
X190440408Y-96950800D01*
X190440408Y-96950799D01*
X190610038Y-96696929D01*
X190825929Y-96481038D01*
X191079799Y-96311408D01*
X191173827Y-96272460D01*
X191361882Y-96194565D01*
X191561519Y-96154855D01*
X191661337Y-96135000D01*
X191966663Y-96135000D01*
X192066481Y-96154855D01*
X192066481Y-96154855D01*
G37*
G36*
X134066481Y-96154855D02*
X134266118Y-96194565D01*
X134454173Y-96272460D01*
X134548201Y-96311408D01*
X134802071Y-96481038D01*
X135017962Y-96696929D01*
X135187592Y-96950799D01*
X135187592Y-96950800D01*
X135304435Y-97232882D01*
X135364000Y-97532338D01*
X135364000Y-97837662D01*
X135304435Y-98137118D01*
X135255779Y-98254582D01*
X135187592Y-98419201D01*
X135017962Y-98673071D01*
X134802071Y-98888962D01*
X134548201Y-99058592D01*
X134454173Y-99097540D01*
X134266118Y-99175435D01*
X134066481Y-99215145D01*
X133966663Y-99235000D01*
X133661337Y-99235000D01*
X133561519Y-99215145D01*
X133361882Y-99175435D01*
X133173827Y-99097540D01*
X133079799Y-99058592D01*
X132825929Y-98888962D01*
X132610038Y-98673071D01*
X132440408Y-98419201D01*
X132372221Y-98254582D01*
X132323565Y-98137118D01*
X132264000Y-97837662D01*
X132264000Y-97532338D01*
X132323565Y-97232882D01*
X132440408Y-96950800D01*
X132440408Y-96950799D01*
X132610038Y-96696929D01*
X132825929Y-96481038D01*
X133079799Y-96311408D01*
X133173827Y-96272460D01*
X133361882Y-96194565D01*
X133561519Y-96154855D01*
X133661337Y-96135000D01*
X133966663Y-96135000D01*
X134066481Y-96154855D01*
X134066481Y-96154855D01*
G37*
G36*
X158298000Y-96577000D02*
X155898000Y-96577000D01*
X155898000Y-91637000D01*
X158298000Y-91637000D01*
X158298000Y-96577000D01*
X158298000Y-96577000D01*
G37*
G36*
X142298000Y-96577000D02*
X139898000Y-96577000D01*
X139898000Y-91637000D01*
X142298000Y-91637000D01*
X142298000Y-96577000D01*
X142298000Y-96577000D01*
G37*
G36*
X119868290Y-91161690D02*
X119204453Y-91161690D01*
X119180067Y-91164092D01*
X119156618Y-91171205D01*
X119135007Y-91182756D01*
X119116065Y-91198302D01*
X119100519Y-91217244D01*
X119088968Y-91238855D01*
X119081855Y-91262304D01*
X119079453Y-91286690D01*
X119081855Y-91311076D01*
X119088968Y-91334525D01*
X119100519Y-91356136D01*
X119116065Y-91375078D01*
X119145525Y-91396928D01*
X119338425Y-91500035D01*
X119521071Y-91649929D01*
X119670965Y-91832575D01*
X119782346Y-92040954D01*
X119850934Y-92267059D01*
X119874093Y-92502200D01*
X119850934Y-92737341D01*
X119782346Y-92963446D01*
X119670965Y-93171825D01*
X119521071Y-93354471D01*
X119338425Y-93504365D01*
X119130046Y-93615746D01*
X118903941Y-93684334D01*
X118762964Y-93698219D01*
X118727721Y-93701690D01*
X118609879Y-93701690D01*
X118574636Y-93698219D01*
X118433659Y-93684334D01*
X118207554Y-93615746D01*
X117999175Y-93504365D01*
X117816529Y-93354471D01*
X117666635Y-93171825D01*
X117555254Y-92963446D01*
X117486666Y-92737341D01*
X117463507Y-92502200D01*
X117486666Y-92267059D01*
X117555254Y-92040954D01*
X117666635Y-91832575D01*
X117816529Y-91649929D01*
X117999175Y-91500035D01*
X118192077Y-91396927D01*
X118212446Y-91383316D01*
X118229773Y-91365989D01*
X118243387Y-91345615D01*
X118252765Y-91322975D01*
X118257545Y-91298942D01*
X118257545Y-91274438D01*
X118252765Y-91250404D01*
X118243387Y-91227765D01*
X118229773Y-91207391D01*
X118212446Y-91190064D01*
X118192072Y-91176450D01*
X118169432Y-91167072D01*
X118133147Y-91161690D01*
X117469310Y-91161690D01*
X117469310Y-88762710D01*
X119868290Y-88762710D01*
X119868290Y-91161690D01*
X119868290Y-91161690D01*
G37*
G36*
X157448026Y-81523115D02*
X157666412Y-81613573D01*
X157862958Y-81744901D01*
X158030099Y-81912042D01*
X158161427Y-82108588D01*
X158251885Y-82326974D01*
X158298000Y-82558809D01*
X158298000Y-82795191D01*
X158251885Y-83027026D01*
X158161427Y-83245412D01*
X158030099Y-83441958D01*
X157862958Y-83609099D01*
X157666412Y-83740427D01*
X157446505Y-83831515D01*
X157424894Y-83843066D01*
X157405952Y-83858611D01*
X157390406Y-83877554D01*
X157378855Y-83899164D01*
X157371742Y-83922613D01*
X157369340Y-83947000D01*
X157371742Y-83971386D01*
X157378855Y-83994835D01*
X157390406Y-84016446D01*
X157405951Y-84035388D01*
X157424894Y-84050934D01*
X157446505Y-84062485D01*
X157666412Y-84153573D01*
X157862958Y-84284901D01*
X158030099Y-84452042D01*
X158161427Y-84648588D01*
X158251885Y-84866974D01*
X158298000Y-85098809D01*
X158298000Y-85335191D01*
X158251885Y-85567026D01*
X158161427Y-85785412D01*
X158030099Y-85981958D01*
X157862958Y-86149099D01*
X157666412Y-86280427D01*
X157448026Y-86370885D01*
X157216191Y-86417000D01*
X156979809Y-86417000D01*
X156747974Y-86370885D01*
X156529588Y-86280427D01*
X156333042Y-86149099D01*
X156165901Y-85981958D01*
X156034573Y-85785412D01*
X155944115Y-85567026D01*
X155898000Y-85335191D01*
X155898000Y-85098809D01*
X155944115Y-84866974D01*
X156034573Y-84648588D01*
X156165901Y-84452042D01*
X156333042Y-84284901D01*
X156529588Y-84153573D01*
X156749495Y-84062485D01*
X156771106Y-84050934D01*
X156790048Y-84035389D01*
X156805594Y-84016446D01*
X156817145Y-83994836D01*
X156824258Y-83971387D01*
X156826660Y-83947000D01*
X156824258Y-83922614D01*
X156817145Y-83899165D01*
X156805594Y-83877554D01*
X156790049Y-83858612D01*
X156771106Y-83843066D01*
X156749495Y-83831515D01*
X156529588Y-83740427D01*
X156333042Y-83609099D01*
X156165901Y-83441958D01*
X156034573Y-83245412D01*
X155944115Y-83027026D01*
X155898000Y-82795191D01*
X155898000Y-82558809D01*
X155944115Y-82326974D01*
X156034573Y-82108588D01*
X156165901Y-81912042D01*
X156333042Y-81744901D01*
X156529588Y-81613573D01*
X156747974Y-81523115D01*
X156979809Y-81477000D01*
X157216191Y-81477000D01*
X157448026Y-81523115D01*
X157448026Y-81523115D01*
G37*
G36*
X141448026Y-81523115D02*
X141666412Y-81613573D01*
X141862958Y-81744901D01*
X142030099Y-81912042D01*
X142161427Y-82108588D01*
X142251885Y-82326974D01*
X142298000Y-82558809D01*
X142298000Y-82795191D01*
X142251885Y-83027026D01*
X142161427Y-83245412D01*
X142030099Y-83441958D01*
X141862958Y-83609099D01*
X141666412Y-83740427D01*
X141446505Y-83831515D01*
X141424894Y-83843066D01*
X141405952Y-83858611D01*
X141390406Y-83877554D01*
X141378855Y-83899164D01*
X141371742Y-83922613D01*
X141369340Y-83947000D01*
X141371742Y-83971386D01*
X141378855Y-83994835D01*
X141390406Y-84016446D01*
X141405951Y-84035388D01*
X141424894Y-84050934D01*
X141446505Y-84062485D01*
X141666412Y-84153573D01*
X141862958Y-84284901D01*
X142030099Y-84452042D01*
X142161427Y-84648588D01*
X142251885Y-84866974D01*
X142298000Y-85098809D01*
X142298000Y-85335191D01*
X142251885Y-85567026D01*
X142161427Y-85785412D01*
X142030099Y-85981958D01*
X141862958Y-86149099D01*
X141666412Y-86280427D01*
X141448026Y-86370885D01*
X141216191Y-86417000D01*
X140979809Y-86417000D01*
X140747974Y-86370885D01*
X140529588Y-86280427D01*
X140333042Y-86149099D01*
X140165901Y-85981958D01*
X140034573Y-85785412D01*
X139944115Y-85567026D01*
X139898000Y-85335191D01*
X139898000Y-85098809D01*
X139944115Y-84866974D01*
X140034573Y-84648588D01*
X140165901Y-84452042D01*
X140333042Y-84284901D01*
X140529588Y-84153573D01*
X140749495Y-84062485D01*
X140771106Y-84050934D01*
X140790048Y-84035389D01*
X140805594Y-84016446D01*
X140817145Y-83994836D01*
X140824258Y-83971387D01*
X140826660Y-83947000D01*
X140824258Y-83922614D01*
X140817145Y-83899165D01*
X140805594Y-83877554D01*
X140790049Y-83858612D01*
X140771106Y-83843066D01*
X140749495Y-83831515D01*
X140529588Y-83740427D01*
X140333042Y-83609099D01*
X140165901Y-83441958D01*
X140034573Y-83245412D01*
X139944115Y-83027026D01*
X139898000Y-82795191D01*
X139898000Y-82558809D01*
X139944115Y-82326974D01*
X140034573Y-82108588D01*
X140165901Y-81912042D01*
X140333042Y-81744901D01*
X140529588Y-81613573D01*
X140747974Y-81523115D01*
X140979809Y-81477000D01*
X141216191Y-81477000D01*
X141448026Y-81523115D01*
X141448026Y-81523115D01*
G37*
G36*
X119868290Y-81359490D02*
X119204453Y-81359490D01*
X119180067Y-81361892D01*
X119156618Y-81369005D01*
X119135007Y-81380556D01*
X119116065Y-81396102D01*
X119100519Y-81415044D01*
X119088968Y-81436655D01*
X119081855Y-81460104D01*
X119079453Y-81484490D01*
X119081855Y-81508876D01*
X119088968Y-81532325D01*
X119100519Y-81553936D01*
X119116065Y-81572878D01*
X119145525Y-81594728D01*
X119338425Y-81697835D01*
X119521071Y-81847729D01*
X119670965Y-82030375D01*
X119782346Y-82238754D01*
X119850934Y-82464859D01*
X119874093Y-82700000D01*
X119850934Y-82935141D01*
X119782346Y-83161246D01*
X119670965Y-83369625D01*
X119521071Y-83552271D01*
X119338425Y-83702165D01*
X119130046Y-83813546D01*
X118903941Y-83882134D01*
X118762964Y-83896019D01*
X118727721Y-83899490D01*
X118609879Y-83899490D01*
X118574636Y-83896019D01*
X118433659Y-83882134D01*
X118207554Y-83813546D01*
X117999175Y-83702165D01*
X117816529Y-83552271D01*
X117666635Y-83369625D01*
X117555254Y-83161246D01*
X117486666Y-82935141D01*
X117463507Y-82700000D01*
X117486666Y-82464859D01*
X117555254Y-82238754D01*
X117666635Y-82030375D01*
X117816529Y-81847729D01*
X117999175Y-81697835D01*
X118192077Y-81594727D01*
X118212446Y-81581116D01*
X118229773Y-81563789D01*
X118243387Y-81543415D01*
X118252765Y-81520775D01*
X118257545Y-81496742D01*
X118257545Y-81472238D01*
X118252765Y-81448204D01*
X118243387Y-81425565D01*
X118229773Y-81405191D01*
X118212446Y-81387864D01*
X118192072Y-81374250D01*
X118169432Y-81364872D01*
X118133147Y-81359490D01*
X117469310Y-81359490D01*
X117469310Y-78960510D01*
X119868290Y-78960510D01*
X119868290Y-81359490D01*
X119868290Y-81359490D01*
G37*
G36*
X206432000Y-81210000D02*
X205769690Y-81210000D01*
X205745304Y-81212402D01*
X205721855Y-81219515D01*
X205700244Y-81231066D01*
X205681302Y-81246612D01*
X205665756Y-81265554D01*
X205654205Y-81287165D01*
X205647092Y-81310614D01*
X205644690Y-81335000D01*
X205647092Y-81359386D01*
X205654205Y-81382835D01*
X205665756Y-81404446D01*
X205681302Y-81423388D01*
X205700244Y-81438934D01*
X205710766Y-81445240D01*
X205901910Y-81547408D01*
X206084634Y-81697366D01*
X206234592Y-81880090D01*
X206346017Y-82088553D01*
X206346018Y-82088556D01*
X206346019Y-82088558D01*
X206414637Y-82314759D01*
X206437806Y-82550000D01*
X206414637Y-82785241D01*
X206346019Y-83011442D01*
X206346017Y-83011447D01*
X206234592Y-83219910D01*
X206084634Y-83402634D01*
X205901910Y-83552592D01*
X205693447Y-83664017D01*
X205693444Y-83664018D01*
X205693442Y-83664019D01*
X205467241Y-83732637D01*
X205326208Y-83746527D01*
X205290951Y-83750000D01*
X205173049Y-83750000D01*
X205137792Y-83746527D01*
X204996759Y-83732637D01*
X204770558Y-83664019D01*
X204770556Y-83664018D01*
X204770553Y-83664017D01*
X204562090Y-83552592D01*
X204379366Y-83402634D01*
X204229408Y-83219910D01*
X204117983Y-83011447D01*
X204117981Y-83011442D01*
X204049363Y-82785241D01*
X204026194Y-82550000D01*
X204049363Y-82314759D01*
X204117981Y-82088558D01*
X204117982Y-82088556D01*
X204117983Y-82088553D01*
X204229408Y-81880090D01*
X204379366Y-81697366D01*
X204562090Y-81547408D01*
X204753234Y-81445240D01*
X204773609Y-81431626D01*
X204790936Y-81414299D01*
X204804550Y-81393925D01*
X204813927Y-81371286D01*
X204818708Y-81347252D01*
X204818708Y-81322748D01*
X204813928Y-81298715D01*
X204804550Y-81276076D01*
X204790936Y-81255701D01*
X204773609Y-81238374D01*
X204753235Y-81224760D01*
X204730596Y-81215383D01*
X204706562Y-81210602D01*
X204694310Y-81210000D01*
X204032000Y-81210000D01*
X204032000Y-78810000D01*
X206432000Y-78810000D01*
X206432000Y-81210000D01*
X206432000Y-81210000D01*
G37*
G36*
X126231581Y-80130855D02*
X126431218Y-80170565D01*
X126619273Y-80248460D01*
X126713301Y-80287408D01*
X126967171Y-80457038D01*
X127183062Y-80672929D01*
X127352692Y-80926799D01*
X127352692Y-80926800D01*
X127469535Y-81208882D01*
X127501385Y-81369005D01*
X127526794Y-81496742D01*
X127529100Y-81508338D01*
X127529100Y-81813662D01*
X127469535Y-82113118D01*
X127391640Y-82301173D01*
X127352692Y-82395201D01*
X127183062Y-82649071D01*
X126967171Y-82864962D01*
X126713301Y-83034592D01*
X126619273Y-83073540D01*
X126431218Y-83151435D01*
X126231581Y-83191145D01*
X126131763Y-83211000D01*
X125826437Y-83211000D01*
X125726619Y-83191145D01*
X125526982Y-83151435D01*
X125338927Y-83073540D01*
X125244899Y-83034592D01*
X124991029Y-82864962D01*
X124775138Y-82649071D01*
X124605508Y-82395201D01*
X124566560Y-82301173D01*
X124488665Y-82113118D01*
X124429100Y-81813662D01*
X124429100Y-81508338D01*
X124431407Y-81496742D01*
X124456815Y-81369005D01*
X124488665Y-81208882D01*
X124605508Y-80926800D01*
X124605508Y-80926799D01*
X124775138Y-80672929D01*
X124991029Y-80457038D01*
X125244899Y-80287408D01*
X125338927Y-80248460D01*
X125526982Y-80170565D01*
X125726619Y-80130855D01*
X125826437Y-80111000D01*
X126131763Y-80111000D01*
X126231581Y-80130855D01*
X126231581Y-80130855D01*
G37*
G36*
X200150481Y-80130855D02*
X200350118Y-80170565D01*
X200538173Y-80248460D01*
X200632201Y-80287408D01*
X200886071Y-80457038D01*
X201101962Y-80672929D01*
X201271592Y-80926799D01*
X201271592Y-80926800D01*
X201388435Y-81208882D01*
X201420285Y-81369005D01*
X201445694Y-81496742D01*
X201448000Y-81508338D01*
X201448000Y-81813662D01*
X201388435Y-82113118D01*
X201310540Y-82301173D01*
X201271592Y-82395201D01*
X201101962Y-82649071D01*
X200886071Y-82864962D01*
X200632201Y-83034592D01*
X200538173Y-83073540D01*
X200350118Y-83151435D01*
X200150481Y-83191145D01*
X200050663Y-83211000D01*
X199745337Y-83211000D01*
X199645519Y-83191145D01*
X199445882Y-83151435D01*
X199257827Y-83073540D01*
X199163799Y-83034592D01*
X198909929Y-82864962D01*
X198694038Y-82649071D01*
X198524408Y-82395201D01*
X198485460Y-82301173D01*
X198407565Y-82113118D01*
X198348000Y-81813662D01*
X198348000Y-81508338D01*
X198350307Y-81496742D01*
X198375715Y-81369005D01*
X198407565Y-81208882D01*
X198524408Y-80926800D01*
X198524408Y-80926799D01*
X198694038Y-80672929D01*
X198909929Y-80457038D01*
X199163799Y-80287408D01*
X199257827Y-80248460D01*
X199445882Y-80170565D01*
X199645519Y-80130855D01*
X199745337Y-80111000D01*
X200050663Y-80111000D01*
X200150481Y-80130855D01*
X200150481Y-80130855D01*
G37*
G36*
X142179100Y-79854000D02*
X139779100Y-79854000D01*
X139779100Y-77454000D01*
X142179100Y-77454000D01*
X142179100Y-79854000D01*
X142179100Y-79854000D01*
G37*
G36*
X144069126Y-77500115D02*
X144287512Y-77590573D01*
X144484058Y-77721901D01*
X144651199Y-77889042D01*
X144782527Y-78085588D01*
X144873615Y-78305495D01*
X144885166Y-78327106D01*
X144900711Y-78346048D01*
X144919654Y-78361594D01*
X144941264Y-78373145D01*
X144964713Y-78380258D01*
X144989100Y-78382660D01*
X145013486Y-78380258D01*
X145036935Y-78373145D01*
X145058546Y-78361594D01*
X145077488Y-78346049D01*
X145093034Y-78327106D01*
X145104585Y-78305495D01*
X145195673Y-78085588D01*
X145327001Y-77889042D01*
X145494142Y-77721901D01*
X145690688Y-77590573D01*
X145909074Y-77500115D01*
X146140909Y-77454000D01*
X146377291Y-77454000D01*
X146609126Y-77500115D01*
X146827512Y-77590573D01*
X147024058Y-77721901D01*
X147191199Y-77889042D01*
X147322527Y-78085588D01*
X147412985Y-78303974D01*
X147459100Y-78535809D01*
X147459100Y-78772191D01*
X147412985Y-79004026D01*
X147322527Y-79222412D01*
X147191199Y-79418958D01*
X147024058Y-79586099D01*
X146827512Y-79717427D01*
X146609126Y-79807885D01*
X146377291Y-79854000D01*
X146140909Y-79854000D01*
X145909074Y-79807885D01*
X145690688Y-79717427D01*
X145494142Y-79586099D01*
X145327001Y-79418958D01*
X145195673Y-79222412D01*
X145104585Y-79002505D01*
X145093034Y-78980894D01*
X145077489Y-78961952D01*
X145058546Y-78946406D01*
X145036936Y-78934855D01*
X145013487Y-78927742D01*
X144989100Y-78925340D01*
X144964714Y-78927742D01*
X144941265Y-78934855D01*
X144919654Y-78946406D01*
X144900712Y-78961951D01*
X144885166Y-78980894D01*
X144873615Y-79002505D01*
X144782527Y-79222412D01*
X144651199Y-79418958D01*
X144484058Y-79586099D01*
X144287512Y-79717427D01*
X144069126Y-79807885D01*
X143837291Y-79854000D01*
X143600909Y-79854000D01*
X143369074Y-79807885D01*
X143150688Y-79717427D01*
X142954142Y-79586099D01*
X142787001Y-79418958D01*
X142655673Y-79222412D01*
X142565215Y-79004026D01*
X142519100Y-78772191D01*
X142519100Y-78535809D01*
X142565215Y-78303974D01*
X142655673Y-78085588D01*
X142787001Y-77889042D01*
X142954142Y-77721901D01*
X143150688Y-77590573D01*
X143369074Y-77500115D01*
X143600909Y-77454000D01*
X143837291Y-77454000D01*
X144069126Y-77500115D01*
X144069126Y-77500115D01*
G37*
G36*
X185579100Y-78124877D02*
X185581502Y-78149263D01*
X185588615Y-78172712D01*
X185600166Y-78194323D01*
X185615712Y-78213265D01*
X185634654Y-78228811D01*
X185656265Y-78240362D01*
X185679714Y-78247475D01*
X185704100Y-78249877D01*
X185728486Y-78247475D01*
X185751935Y-78240362D01*
X185773546Y-78228811D01*
X185792488Y-78213265D01*
X185808034Y-78194323D01*
X185819585Y-78172712D01*
X185855673Y-78085588D01*
X185987001Y-77889042D01*
X186154142Y-77721901D01*
X186350688Y-77590573D01*
X186569074Y-77500115D01*
X186800909Y-77454000D01*
X187037291Y-77454000D01*
X187269126Y-77500115D01*
X187487512Y-77590573D01*
X187684058Y-77721901D01*
X187851199Y-77889042D01*
X187982527Y-78085588D01*
X188073615Y-78305495D01*
X188085166Y-78327106D01*
X188100711Y-78346048D01*
X188119654Y-78361594D01*
X188141264Y-78373145D01*
X188164713Y-78380258D01*
X188189100Y-78382660D01*
X188213486Y-78380258D01*
X188236935Y-78373145D01*
X188258546Y-78361594D01*
X188277488Y-78346049D01*
X188293034Y-78327106D01*
X188304585Y-78305495D01*
X188395673Y-78085588D01*
X188527001Y-77889042D01*
X188694142Y-77721901D01*
X188890688Y-77590573D01*
X189109074Y-77500115D01*
X189340909Y-77454000D01*
X189577291Y-77454000D01*
X189809126Y-77500115D01*
X190027512Y-77590573D01*
X190224058Y-77721901D01*
X190391199Y-77889042D01*
X190522527Y-78085588D01*
X190612985Y-78303974D01*
X190659100Y-78535809D01*
X190659100Y-78772191D01*
X190612985Y-79004026D01*
X190522527Y-79222412D01*
X190391199Y-79418958D01*
X190224058Y-79586099D01*
X190027512Y-79717427D01*
X189809126Y-79807885D01*
X189577291Y-79854000D01*
X189340909Y-79854000D01*
X189109074Y-79807885D01*
X188890688Y-79717427D01*
X188694142Y-79586099D01*
X188527001Y-79418958D01*
X188395673Y-79222412D01*
X188304585Y-79002505D01*
X188293034Y-78980894D01*
X188277489Y-78961952D01*
X188258546Y-78946406D01*
X188236936Y-78934855D01*
X188213487Y-78927742D01*
X188189100Y-78925340D01*
X188164714Y-78927742D01*
X188141265Y-78934855D01*
X188119654Y-78946406D01*
X188100712Y-78961951D01*
X188085166Y-78980894D01*
X188073615Y-79002505D01*
X187982527Y-79222412D01*
X187851199Y-79418958D01*
X187684058Y-79586099D01*
X187487512Y-79717427D01*
X187269126Y-79807885D01*
X187037291Y-79854000D01*
X186800909Y-79854000D01*
X186569074Y-79807885D01*
X186350688Y-79717427D01*
X186154142Y-79586099D01*
X185987001Y-79418958D01*
X185855673Y-79222412D01*
X185819585Y-79135288D01*
X185808034Y-79113677D01*
X185792488Y-79094735D01*
X185773546Y-79079189D01*
X185751935Y-79067638D01*
X185728486Y-79060525D01*
X185704100Y-79058123D01*
X185679714Y-79060525D01*
X185656265Y-79067638D01*
X185634654Y-79079189D01*
X185615712Y-79094735D01*
X185600166Y-79113677D01*
X185588615Y-79135288D01*
X185581502Y-79158737D01*
X185579100Y-79183123D01*
X185579100Y-79854000D01*
X183179100Y-79854000D01*
X183179100Y-77454000D01*
X185579100Y-77454000D01*
X185579100Y-78124877D01*
X185579100Y-78124877D01*
G37*
G36*
X171364000Y-71804000D02*
X166964000Y-71804000D01*
X166964000Y-68404000D01*
X171364000Y-68404000D01*
X171364000Y-71804000D01*
X171364000Y-71804000D01*
G37*
G36*
X152060000Y-71804000D02*
X147660000Y-71804000D01*
X147660000Y-68404000D01*
X152060000Y-68404000D01*
X152060000Y-71804000D01*
X152060000Y-71804000D01*
G37*
G36*
X119249481Y-67684855D02*
X119449118Y-67724565D01*
X119637173Y-67802460D01*
X119731201Y-67841408D01*
X119985071Y-68011038D01*
X120200962Y-68226929D01*
X120370592Y-68480799D01*
X120370592Y-68480800D01*
X120487435Y-68762882D01*
X120547000Y-69062338D01*
X120547000Y-69367662D01*
X120487435Y-69667118D01*
X120409540Y-69855173D01*
X120370592Y-69949201D01*
X120200962Y-70203071D01*
X119985071Y-70418962D01*
X119731201Y-70588592D01*
X119637173Y-70627540D01*
X119449118Y-70705435D01*
X119249481Y-70745145D01*
X119149663Y-70765000D01*
X118844337Y-70765000D01*
X118744519Y-70745145D01*
X118544882Y-70705435D01*
X118356827Y-70627540D01*
X118262799Y-70588592D01*
X118008929Y-70418962D01*
X117793038Y-70203071D01*
X117623408Y-69949201D01*
X117584460Y-69855173D01*
X117506565Y-69667118D01*
X117447000Y-69367662D01*
X117447000Y-69062338D01*
X117506565Y-68762882D01*
X117623408Y-68480800D01*
X117623408Y-68480799D01*
X117793038Y-68226929D01*
X118008929Y-68011038D01*
X118262799Y-67841408D01*
X118356827Y-67802460D01*
X118544882Y-67724565D01*
X118744519Y-67684855D01*
X118844337Y-67665000D01*
X119149663Y-67665000D01*
X119249481Y-67684855D01*
X119249481Y-67684855D01*
G37*
G36*
X200150481Y-67684855D02*
X200350118Y-67724565D01*
X200538173Y-67802460D01*
X200632201Y-67841408D01*
X200886071Y-68011038D01*
X201101962Y-68226929D01*
X201271592Y-68480799D01*
X201271592Y-68480800D01*
X201388435Y-68762882D01*
X201448000Y-69062338D01*
X201448000Y-69367662D01*
X201388435Y-69667118D01*
X201310540Y-69855173D01*
X201271592Y-69949201D01*
X201101962Y-70203071D01*
X200886071Y-70418962D01*
X200632201Y-70588592D01*
X200538173Y-70627540D01*
X200350118Y-70705435D01*
X200150481Y-70745145D01*
X200050663Y-70765000D01*
X199745337Y-70765000D01*
X199645519Y-70745145D01*
X199445882Y-70705435D01*
X199257827Y-70627540D01*
X199163799Y-70588592D01*
X198909929Y-70418962D01*
X198694038Y-70203071D01*
X198524408Y-69949201D01*
X198485460Y-69855173D01*
X198407565Y-69667118D01*
X198348000Y-69367662D01*
X198348000Y-69062338D01*
X198407565Y-68762882D01*
X198524408Y-68480800D01*
X198524408Y-68480799D01*
X198694038Y-68226929D01*
X198909929Y-68011038D01*
X199163799Y-67841408D01*
X199257827Y-67802460D01*
X199445882Y-67724565D01*
X199645519Y-67684855D01*
X199745337Y-67665000D01*
X200050663Y-67665000D01*
X200150481Y-67684855D01*
X200150481Y-67684855D01*
G37*
M02*
