G04 #@! TF.GenerationSoftware,KiCad,Pcbnew,5.0.2-5.fc29*
G04 #@! TF.CreationDate,2019-08-22T23:49:55+02:00*
G04 #@! TF.ProjectId,backplane,6261636b-706c-4616-9e65-2e6b69636164,v2.1-1*
G04 #@! TF.SameCoordinates,Original*
G04 #@! TF.FileFunction,Legend,Bot*
G04 #@! TF.FilePolarity,Positive*
%FSLAX46Y46*%
G04 Gerber Fmt 4.6, Leading zero omitted, Abs format (unit mm)*
G04 Created by KiCad (PCBNEW 5.0.2-5.fc29) date Thu 22 Aug 2019 11:49:55 PM CEST*
%MOMM*%
%LPD*%
G01*
G04 APERTURE LIST*
%ADD10C,0.150000*%
G04 APERTURE END LIST*
D10*
G04 #@! TO.C,U7*
X148971000Y-111633000D02*
X148971000Y-68633000D01*
X148971000Y-68633000D02*
X169971000Y-68633000D01*
X169971000Y-111633000D02*
X169971000Y-68633000D01*
X148971000Y-111633000D02*
X169971000Y-111633000D01*
X163838457Y-72906457D02*
G75*
G03X163838457Y-72906457I-3818457J0D01*
G01*
X149352000Y-90678000D02*
X161544000Y-90678000D01*
X161544000Y-90678000D02*
X161544000Y-78486000D01*
X161544000Y-78486000D02*
X149352000Y-78486000D01*
X149352000Y-78486000D02*
X149352000Y-90678000D01*
X163838457Y-107442000D02*
G75*
G03X163838457Y-107442000I-3818457J0D01*
G01*
X168910000Y-88900000D02*
X168910000Y-78486000D01*
X168910000Y-78486000D02*
X164084000Y-78486000D01*
X164084000Y-78486000D02*
X164084000Y-88900000D01*
X164084000Y-88900000D02*
X168910000Y-88900000D01*
X157226000Y-75438000D02*
X157226000Y-70358000D01*
X157226000Y-109982000D02*
X157226000Y-104902000D01*
X160528000Y-84582000D02*
G75*
G03X160528000Y-84582000I-5080000J0D01*
G01*
X168715961Y-88138000D02*
G75*
G03X168715961Y-88138000I-567961J0D01*
G01*
X167640000Y-88392000D02*
X168656000Y-87884000D01*
X167894000Y-102616000D02*
X167894000Y-91948000D01*
X167894000Y-91948000D02*
X158242000Y-91948000D01*
X158242000Y-91948000D02*
X158242000Y-102616000D01*
X158242000Y-102616000D02*
X167894000Y-102616000D01*
X158242000Y-100584000D02*
X153924000Y-100584000D01*
X153924000Y-100584000D02*
X153924000Y-100076000D01*
X153924000Y-100076000D02*
X158242000Y-100076000D01*
X158242000Y-94488000D02*
X153924000Y-94488000D01*
X153924000Y-94488000D02*
X153924000Y-93980000D01*
X153924000Y-93980000D02*
X158242000Y-93980000D01*
X153924000Y-97028000D02*
X158242000Y-97028000D01*
X153924000Y-97536000D02*
X153924000Y-97028000D01*
X158242000Y-97536000D02*
X153924000Y-97536000D01*
X153924000Y-99060000D02*
X153924000Y-98552000D01*
X153924000Y-98552000D02*
X158242000Y-98552000D01*
X158242000Y-99060000D02*
X153924000Y-99060000D01*
X153924000Y-96012000D02*
X153924000Y-95504000D01*
X158242000Y-96012000D02*
X153924000Y-96012000D01*
X153924000Y-95504000D02*
X158242000Y-95504000D01*
X146772380Y-89408095D02*
X147581904Y-89408095D01*
X147677142Y-89455714D01*
X147724761Y-89503333D01*
X147772380Y-89598571D01*
X147772380Y-89789047D01*
X147724761Y-89884285D01*
X147677142Y-89931904D01*
X147581904Y-89979523D01*
X146772380Y-89979523D01*
X146772380Y-90360476D02*
X146772380Y-91027142D01*
X147772380Y-90598571D01*
X172156380Y-84646190D02*
X172156380Y-84170000D01*
X171156380Y-84170000D01*
X172156380Y-84979523D02*
X171156380Y-84979523D01*
X171870666Y-85312857D01*
X171156380Y-85646190D01*
X172156380Y-85646190D01*
X171251619Y-86074761D02*
X171204000Y-86122380D01*
X171156380Y-86217619D01*
X171156380Y-86455714D01*
X171204000Y-86550952D01*
X171251619Y-86598571D01*
X171346857Y-86646190D01*
X171442095Y-86646190D01*
X171584952Y-86598571D01*
X172156380Y-86027142D01*
X172156380Y-86646190D01*
X171156380Y-87550952D02*
X171156380Y-87074761D01*
X171632571Y-87027142D01*
X171584952Y-87074761D01*
X171537333Y-87170000D01*
X171537333Y-87408095D01*
X171584952Y-87503333D01*
X171632571Y-87550952D01*
X171727809Y-87598571D01*
X171965904Y-87598571D01*
X172061142Y-87550952D01*
X172108761Y-87503333D01*
X172156380Y-87408095D01*
X172156380Y-87170000D01*
X172108761Y-87074761D01*
X172061142Y-87027142D01*
X172156380Y-88074761D02*
X172156380Y-88265238D01*
X172108761Y-88360476D01*
X172061142Y-88408095D01*
X171918285Y-88503333D01*
X171727809Y-88550952D01*
X171346857Y-88550952D01*
X171251619Y-88503333D01*
X171204000Y-88455714D01*
X171156380Y-88360476D01*
X171156380Y-88170000D01*
X171204000Y-88074761D01*
X171251619Y-88027142D01*
X171346857Y-87979523D01*
X171584952Y-87979523D01*
X171680190Y-88027142D01*
X171727809Y-88074761D01*
X171775428Y-88170000D01*
X171775428Y-88360476D01*
X171727809Y-88455714D01*
X171680190Y-88503333D01*
X171584952Y-88550952D01*
X171156380Y-89408095D02*
X171156380Y-89217619D01*
X171204000Y-89122380D01*
X171251619Y-89074761D01*
X171394476Y-88979523D01*
X171584952Y-88931904D01*
X171965904Y-88931904D01*
X172061142Y-88979523D01*
X172108761Y-89027142D01*
X172156380Y-89122380D01*
X172156380Y-89312857D01*
X172108761Y-89408095D01*
X172061142Y-89455714D01*
X171965904Y-89503333D01*
X171727809Y-89503333D01*
X171632571Y-89455714D01*
X171584952Y-89408095D01*
X171537333Y-89312857D01*
X171537333Y-89122380D01*
X171584952Y-89027142D01*
X171632571Y-88979523D01*
X171727809Y-88931904D01*
X172251619Y-89693809D02*
X172251619Y-90455714D01*
X172156380Y-90693809D02*
X171156380Y-90693809D01*
X171870666Y-91027142D01*
X171156380Y-91360476D01*
X172156380Y-91360476D01*
X171156380Y-92027142D02*
X171156380Y-92217619D01*
X171204000Y-92312857D01*
X171299238Y-92408095D01*
X171489714Y-92455714D01*
X171823047Y-92455714D01*
X172013523Y-92408095D01*
X172108761Y-92312857D01*
X172156380Y-92217619D01*
X172156380Y-92027142D01*
X172108761Y-91931904D01*
X172013523Y-91836666D01*
X171823047Y-91789047D01*
X171489714Y-91789047D01*
X171299238Y-91836666D01*
X171204000Y-91931904D01*
X171156380Y-92027142D01*
X172156380Y-92884285D02*
X171156380Y-92884285D01*
X171156380Y-93122380D01*
X171204000Y-93265238D01*
X171299238Y-93360476D01*
X171394476Y-93408095D01*
X171584952Y-93455714D01*
X171727809Y-93455714D01*
X171918285Y-93408095D01*
X172013523Y-93360476D01*
X172108761Y-93265238D01*
X172156380Y-93122380D01*
X172156380Y-92884285D01*
X171156380Y-93884285D02*
X171965904Y-93884285D01*
X172061142Y-93931904D01*
X172108761Y-93979523D01*
X172156380Y-94074761D01*
X172156380Y-94265238D01*
X172108761Y-94360476D01*
X172061142Y-94408095D01*
X171965904Y-94455714D01*
X171156380Y-94455714D01*
X172156380Y-95408095D02*
X172156380Y-94931904D01*
X171156380Y-94931904D01*
X171632571Y-95741428D02*
X171632571Y-96074761D01*
X172156380Y-96217619D02*
X172156380Y-95741428D01*
X171156380Y-95741428D01*
X171156380Y-96217619D01*
X168600380Y-105029142D02*
X167600380Y-105029142D01*
X168600380Y-105505333D02*
X167600380Y-105505333D01*
X168600380Y-106076761D01*
X167600380Y-106076761D01*
X168219428Y-106552952D02*
X168219428Y-107314857D01*
X168600380Y-106933904D02*
X167838476Y-106933904D01*
X151328380Y-105029142D02*
X150328380Y-105029142D01*
X151328380Y-105505333D02*
X150328380Y-105505333D01*
X151328380Y-106076761D01*
X150328380Y-106076761D01*
X150947428Y-106552952D02*
X150947428Y-107314857D01*
X167600380Y-73056952D02*
X167600380Y-73247428D01*
X167648000Y-73342666D01*
X167743238Y-73437904D01*
X167933714Y-73485523D01*
X168267047Y-73485523D01*
X168457523Y-73437904D01*
X168552761Y-73342666D01*
X168600380Y-73247428D01*
X168600380Y-73056952D01*
X168552761Y-72961714D01*
X168457523Y-72866476D01*
X168267047Y-72818857D01*
X167933714Y-72818857D01*
X167743238Y-72866476D01*
X167648000Y-72961714D01*
X167600380Y-73056952D01*
X167600380Y-73914095D02*
X168409904Y-73914095D01*
X168505142Y-73961714D01*
X168552761Y-74009333D01*
X168600380Y-74104571D01*
X168600380Y-74295047D01*
X168552761Y-74390285D01*
X168505142Y-74437904D01*
X168409904Y-74485523D01*
X167600380Y-74485523D01*
X167600380Y-74818857D02*
X167600380Y-75390285D01*
X168600380Y-75104571D02*
X167600380Y-75104571D01*
X168219428Y-75723619D02*
X168219428Y-76485523D01*
X168600380Y-76104571D02*
X167838476Y-76104571D01*
X150328380Y-73056952D02*
X150328380Y-73247428D01*
X150376000Y-73342666D01*
X150471238Y-73437904D01*
X150661714Y-73485523D01*
X150995047Y-73485523D01*
X151185523Y-73437904D01*
X151280761Y-73342666D01*
X151328380Y-73247428D01*
X151328380Y-73056952D01*
X151280761Y-72961714D01*
X151185523Y-72866476D01*
X150995047Y-72818857D01*
X150661714Y-72818857D01*
X150471238Y-72866476D01*
X150376000Y-72961714D01*
X150328380Y-73056952D01*
X150328380Y-73914095D02*
X151137904Y-73914095D01*
X151233142Y-73961714D01*
X151280761Y-74009333D01*
X151328380Y-74104571D01*
X151328380Y-74295047D01*
X151280761Y-74390285D01*
X151233142Y-74437904D01*
X151137904Y-74485523D01*
X150328380Y-74485523D01*
X150328380Y-74818857D02*
X150328380Y-75390285D01*
X151328380Y-75104571D02*
X150328380Y-75104571D01*
X150947428Y-75723619D02*
X150947428Y-76485523D01*
G04 #@! TD*
M02*
